<?xml version="1.0" encoding="utf-8"?>
<!-- Generator: Adobe Illustrator 16.0.0, SVG Export Plug-In . SVG Version: 6.00 Build 0)  -->
<!DOCTYPE svg PUBLIC "-//W3C//DTD SVG 1.1//EN" "http://www.w3.org/Graphics/SVG/1.1/DTD/svg11.dtd">
<svg version="1.1" xmlns="http://www.w3.org/2000/svg" xmlns:xlink="http://www.w3.org/1999/xlink" x="0px" y="0px" width="85px"
	 height="85px" viewBox="0 0 85 85" enable-background="new 0 0 85 85" xml:space="preserve">
<g id="Layer_1">
	<g>
		<rect x="39.451" y="18.755" fill="#F07D00" width="4.512" height="24.142"/>
		<g>
			<path fill="#F07D00" d="M60.33,49.447c0.713-2.069,1.081-4.243,1.058-6.409c-0.085-8.115-5.359-15.552-12.911-18.266v4.845
				c5.014,2.427,8.479,7.535,8.505,13.489c0.005,1.022-0.095,2.022-0.286,2.991"/>
			<path fill="#F07D00" d="M46.616,57.501c-1.457,0.482-3.01,0.746-4.62,0.753c-8.286,0.037-15.064-6.72-15.077-15.03
				c-0.009-5.839,3.237-10.875,8.019-13.397v-4.754c-0.788,0.279-1.563,0.583-2.291,0.973c-5.514,2.951-9.938,9.208-9.938,17.084
				c0,11.789,9.757,19.48,19.376,19.48c1.55,0,3.029-0.174,4.431-0.498"/>
		</g>
		<g>
			<path fill="#F07D00" d="M51.997,62.412c0,0.385,0,0.768,0,1.174c-0.395,0-0.769,0-1.172,0c0,0,0-0.402,0,0
				c-0.412,0-0.795,0-1.179,0c0-6.695,0-12.203,0-18.898c0.4,0,0.798,0,1.197,0c0,0.384,0,0.767,0,1.173c0.375,0,0.749,0,1.153,0
				c0,0.411,0,0.8,0,1.19l0.006-0.006c-0.391,0-0.78,0-1.182,0c0,5.131,0,10.238,0,15.374c0.401,0,0.792,0,1.183,0L51.997,62.412z"
				/>
			<path fill="#F07D00" d="M59.074,61.191c-0.383,0-0.766,0-1.162,0c0-1.152,0-2.314,0-3.495c1.158,0,2.316,0,3.509,0
				c0-0.418,0-0.815,0-1.212l-0.008,0.007c0.385,0,0.769,0,1.18,0c0,0.407,0,0.79,0,1.193c0,0-0.387,0,0,0c0,0.397,0,0.773,0,1.168
				c-1.558,0-1.946,0-3.522,0c0,0.793,0,1.569,0,2.345L59.074,61.191z"/>
			<path fill="#F07D00" d="M53.209,60.052c0.375,0,0.75,0,1.139,0c0-0.396,0-0.773,0-1.166c0.391,0,0.764,0,1.152,0
				c0,0.769,0,1.536,0,2.32c-0.756,0-1.515,0-2.291,0C53.209,60.833,53.209,60.453,53.209,60.052z"/>
			<path fill="#F07D00" d="M61.413,65.933c0.383,0,0.765,0,1.162,0c0,0.808,0,1.581,0,2.367c-0.386,0-0.761,0-1.154,0
				c0-0.795,0-1.584-0.001-2.374L61.413,65.933z"/>
			<path fill="#F07D00" d="M60.269,63.558c-0.395,0-0.79,0-1.194,0c0-0.789,0-1.576,0-2.365l-0.004,0.005
				c0.279,0.008,1.064-0.015,1.191-0.015c0,0.096-0.007,2.307,0.002,2.381L60.269,63.558z"/>
			<path fill="#F07D00" d="M57.896,65.973c0.386,0,0.762,0,1.151,0c0,0.771,0,1.539,0,2.322c-0.381,0-0.761,0-1.151,0
				C57.896,67.519,57.896,66.75,57.896,65.973z"/>
			<path fill="#F07D00" d="M56.698,61.247c0,0.785,0,1.547,0,2.323c-0.388,0-0.767,0-1.155,0c0-0.778,0-1.545,0-2.323
				C55.931,61.247,56.306,61.247,56.698,61.247z"/>
			<path fill="#F07D00" d="M61.405,68.34c0,0.39,0,0.759,0,1.141c-0.778,0-1.549,0-2.333,0c0-0.378,0-0.752,0-1.141
				C59.847,68.34,60.618,68.34,61.405,68.34z"/>
			<path fill="#F07D00" d="M60.264,63.563c0.375,0,0.75,0,1.149,0c0,0.817,0,1.594,0,2.37l0.007-0.008c-0.381,0-0.763,0-1.17,0
				c0-0.135-0.001-0.264,0-0.392c0.006-0.659,0.013-1.317,0.019-1.977L60.264,63.563z"/>
			<path fill="#F07D00" d="M57.857,65.935c-0.383,0-0.756,0-1.14,0c0-0.777,0-1.544,0-2.323c0.382,0,0.755,0,1.14,0
				C57.857,64.389,57.857,65.156,57.857,65.935z"/>
			<path fill="#F07D00" d="M59.061,54.131c0.383,0,0.767,0,1.164,0c0,0.397,0,0.773,0,1.164c-0.384,0-0.76,0-1.158,0
				c0-0.391,0-0.78,0-1.17L59.061,54.131z"/>
			<path fill="#F07D00" d="M52.004,62.418c0-0.384,0-0.769,0-1.168c0.388,0,0.763,0,1.154,0c0,0.383,0,0.764,0,1.162
				c-0.393,0-0.777,0-1.161,0L52.004,62.418z"/>
			<path fill="#F07D00" d="M56.704,51.773c0.384,0,0.768,0,1.166,0c0,0.391,0,0.766,0,1.157c-0.381,0-0.755,0-1.159,0
				c0-0.386,0-0.774,0-1.164L56.704,51.773z"/>
			<path fill="#F07D00" d="M54.351,49.413c0.385,0,0.769,0,1.166,0c0,0.387,0,0.763,0,1.153c-0.384,0-0.764,0-1.159,0
				c0-0.392,0-0.777,0-1.16L54.351,49.413z"/>
			<path fill="#F07D00" d="M51.997,47.051c0.383,0,0.768,0,1.165,0c0,0.386,0,0.761,0,1.152c-0.383,0-0.762,0-1.159,0
				c0-0.391,0-0.774,0-1.158L51.997,47.051z"/>
			<path fill="#F07D00" d="M61.421,56.484c-0.382,0-0.766,0-1.159,0c0-0.388,0-0.762,0-1.15c0.382,0,0.756,0,1.151,0
				c0,0.39,0,0.773,0,1.158L61.421,56.484z"/>
			<path fill="#F07D00" d="M59.066,54.125c-0.382,0-0.766,0-1.158,0c0-0.389,0-0.765,0-1.153c0.383,0,0.756,0,1.152,0
				c0,0.392,0,0.776,0,1.16L59.066,54.125z"/>
			<path fill="#F07D00" d="M56.711,51.766c-0.383,0-0.765,0-1.156,0c0-0.394,0-0.77,0-1.157c0.385,0,0.758,0,1.149,0
				c0,0.395,0,0.779,0,1.164L56.711,51.766z"/>
			<path fill="#F07D00" d="M54.357,49.406c-0.378,0-0.756,0-1.15,0c0-0.388,0-0.769,0-1.161c0.374,0,0.744,0,1.144,0
				c0,0.387,0,0.777,0,1.167L54.357,49.406z"/>
		</g>
	</g>
</g>
<g id="Layer_2">
	<path fill="#F07D00" d="M42.5,5.997c20.129,0,36.503,16.375,36.503,36.503c0,20.127-16.374,36.502-36.503,36.502
		c-20.127,0-36.503-16.375-36.503-36.502C5.997,22.372,22.373,5.997,42.5,5.997 M42.5,0C19.028,0,0,19.027,0,42.5
		C0,65.971,19.028,85,42.5,85C65.973,85,85,65.971,85,42.5C85,19.027,65.973,0,42.5,0L42.5,0z"/>
</g>
</svg>
