<?xml version="1.0" encoding="utf-8"?>
<!-- Generator: Adobe Illustrator 16.0.0, SVG Export Plug-In . SVG Version: 6.00 Build 0)  -->
<!DOCTYPE svg PUBLIC "-//W3C//DTD SVG 1.1//EN" "http://www.w3.org/Graphics/SVG/1.1/DTD/svg11.dtd">
<svg version="1.1" xmlns="http://www.w3.org/2000/svg" xmlns:xlink="http://www.w3.org/1999/xlink" x="0px" y="0px" width="85px"
	 height="85px" viewBox="0 0 85 85" enable-background="new 0 0 85 85" xml:space="preserve">
<g id="Layer_1">
	<g>
		<path fill="#F07D00" d="M57.081,29.681c-0.32,0.291-0.649,0.594-0.984,0.903c0.458-0.219,0.859-0.431,1.216-0.633
			C57.235,29.861,57.16,29.77,57.081,29.681z"/>
		<path fill="#F07D00" d="M36.117,52.166c2.002-0.361,4.135-0.554,6.358-0.566v10.042c0.284,0.006,0.567,0.007,0.85,0.001V51.61
			c2.379,0.036,4.489,0.27,6.336,0.621c-1.514,4.542-3.791,7.646-5.344,9.37c0.413-0.03,0.822-0.074,1.229-0.131
			c1.574-1.895,3.579-4.904,4.953-9.071c3.081,0.67,5.364,1.635,6.871,2.437c0.193-0.223,0.387-0.447,0.569-0.677
			c-1.547-0.849-3.919-1.878-7.177-2.586c0.754-2.534,1.254-5.467,1.29-8.805h9.861c0.005-0.285,0.005-0.568-0.003-0.85h-9.861
			c-0.012-0.858-0.051-1.69-0.12-2.492c-0.271,0.125-0.542,0.25-0.812,0.378c0.053,0.68,0.072,1.392,0.082,2.114h-4.24
			c-0.518,0.283-1.021,0.566-1.511,0.85h5.755c-0.038,3.28-0.53,6.159-1.272,8.636c-1.917-0.366-4.118-0.608-6.607-0.644v-6.702
			c-0.293,0.187-0.575,0.373-0.85,0.557v6.134c-2.315,0.013-4.539,0.216-6.623,0.6c-0.037-0.124-0.066-0.257-0.103-0.382
			l-0.708,0.627c1.371,4.599,3.544,7.873,5.222,9.888c0.408,0.051,0.814,0.089,1.218,0.117
			C39.921,59.867,37.63,56.743,36.117,52.166z"/>
		<path fill="#F07D00" d="M34.596,42.769h6.375c0.208-0.274,0.416-0.556,0.624-0.85h-6.996c0.045-3.219,0.527-6.025,1.255-8.427
			c1.929,0.352,4.128,0.583,6.622,0.603v6.523c0.284-0.437,0.567-0.886,0.85-1.35V34.09c1.016-0.013,1.977-0.061,2.892-0.137
			c0.145-0.294,0.286-0.59,0.427-0.887c-1.035,0.102-2.146,0.159-3.318,0.174V23.201c-0.282-0.01-0.565-0.014-0.85-0.012v10.056
			c-2.382-0.019-4.491-0.242-6.35-0.579c1.628-4.815,4.157-7.92,5.698-9.465c-0.424,0.018-0.844,0.053-1.264,0.1
			c-1.619,1.785-3.816,4.826-5.278,9.21c-3.271-0.681-5.656-1.703-7.206-2.535c-0.192,0.223-0.381,0.448-0.563,0.681
			c1.588,0.878,4.063,1.963,7.505,2.68c-0.736,2.457-1.226,5.312-1.27,8.583H23.426c-0.008,0.282-0.016,0.564-0.012,0.85h10.332
			c0.024,2.206,0.258,4.226,0.628,6.079l0.739-0.654C34.809,46.525,34.617,44.724,34.596,42.769z"/>
		<path fill="#F07D00" d="M50.068,33.939c0.643-0.622,1.287-1.239,1.93-1.85c-0.476,0.131-0.975,0.254-1.498,0.369
			c-0.249-0.741-0.518-1.439-0.803-2.103c-0.15,0.355-0.305,0.711-0.461,1.067c0.15,0.383,0.285,0.796,0.424,1.205
			c-0.346,0.066-0.688,0.134-1.054,0.191c-0.143,0.307-0.284,0.614-0.43,0.919c0.611-0.084,1.198-0.18,1.759-0.288
			C49.983,33.607,50.021,33.779,50.068,33.939z"/>
		<path fill="#F07D00" d="M48.716,28.299c-1.145-2.144-2.387-3.785-3.411-4.924c-0.429-0.06-0.859-0.111-1.296-0.142
			c1.149,1.159,2.834,3.179,4.288,6.102C48.44,28.987,48.58,28.642,48.716,28.299z"/>
		<path fill="#F07D00" d="M50.543,35.857c0.145,0.685,0.268,1.394,0.369,2.132c0.27-0.126,0.539-0.252,0.811-0.375
			c-0.124-0.854-0.273-1.678-0.453-2.461C51.029,35.386,50.786,35.621,50.543,35.857z"/>
		<path fill="#F07D00" d="M57.313,29.951c-0.356,0.202-0.758,0.414-1.216,0.633c-0.583,0.538-1.188,1.103-1.811,1.69
			c1.514-0.546,2.698-1.131,3.582-1.646C57.688,30.397,57.503,30.172,57.313,29.951z"/>
		<path fill="#F07D00" d="M37.425,48.153c-0.042-0.072-0.091-0.141-0.148-0.205c-0.057-0.064-0.119-0.121-0.186-0.171
			c-0.464-0.349-1.128-0.336-1.578,0.063l-0.399,0.354c0.178,0.972,0.39,1.898,0.637,2.773l1.419-1.256
			C37.62,49.313,37.713,48.655,37.425,48.153z"/>
		<path fill="#F07D00" d="M31.347,51.527l-6.531-2.313L21.893,51.8l6.53,2.314l-4.053,3.587l-1.705-0.604l-1.577,1.396l3.053,1.082
			l0.702,3.161l1.577-1.396l-0.393-1.766l4.053-3.588l1.504,6.765l2.924-2.588l-1.505-6.763l2.039-1.805
			c-0.258-0.865-0.477-1.789-0.668-2.747L31.347,51.527z"/>
		<path fill="#F07D00" d="M35.113,48.194l-0.739,0.654c0.191,0.958,0.41,1.882,0.668,2.747l0.708-0.627
			C35.503,50.092,35.291,49.166,35.113,48.194z"/>
		<path fill="#F07D00" d="M35.113,48.194l-0.739,0.654c0.191,0.958,0.41,1.882,0.668,2.747l0.708-0.627
			C35.503,50.092,35.291,49.166,35.113,48.194z"/>
		<path fill="#F07D00" d="M69.558,33.609c-1.376-0.606-3.495-0.559-6.001-0.073c-0.967-2.273-2.287-4.347-3.891-6.155
			c2.039-1.756,3.484-2.837,4.026-2.929c0.325-0.046,0.437,0.008,0.442,0.009c0.218,0.294-0.173,1.834-0.985,3.306l1.487,0.822
			c0.46-0.831,1.884-3.653,0.899-5.089c-0.292-0.424-0.891-0.897-2.076-0.731c-0.824,0.114-2.647,1.441-4.955,3.401
			c-1.745-1.699-3.754-3.112-5.947-4.18c0.462-1.931,0.677-3.599,0.545-4.808c-0.126-1.157-0.862-1.977-1.875-2.09
			c-1.144-0.127-2.704,0.726-3.661,3.505l1.607,0.553c0.626-1.819,1.417-2.408,1.865-2.37c0.231,0.026,0.345,0.319,0.374,0.585
			c0.104,0.954-0.062,2.313-0.432,3.925c-3.323-1.315-6.997-1.859-10.768-1.429c-11.24,1.281-19.764,10.473-20.163,21.774
			c-0.078,2.232,0.078,4.449,0.786,6.661c1.11-0.296,2.147-0.573,3.183-0.848c-0.393-1.599-0.585-3.163-0.605-4.679
			c-0.004-0.285,0.004-0.567,0.012-0.85c0.129-4.297,1.658-8.169,4.088-11.263c0.182-0.232,0.37-0.458,0.563-0.681
			c3.175-3.689,7.661-6.138,12.484-6.675c0.42-0.047,0.84-0.082,1.264-0.1c0.047-0.002,0.095-0.007,0.143-0.009
			c0.17-0.006,0.339-0.002,0.509-0.003c0.284-0.002,0.567,0.001,0.85,0.012c0.229,0.008,0.457,0.015,0.684,0.032
			c0.437,0.031,0.867,0.082,1.296,0.142c1.646,0.231,3.23,0.669,4.726,1.291c-0.378,1.161-0.82,2.382-1.314,3.634
			c-0.136,0.343-0.275,0.688-0.419,1.035c-0.51,1.237-1.064,2.491-1.653,3.732c-0.141,0.296-0.282,0.592-0.427,0.887
			c-0.91,1.858-1.89,3.665-2.892,5.315c-0.282,0.464-0.565,0.914-0.85,1.35c-0.293,0.449-0.587,0.886-0.881,1.301
			c-0.208,0.294-0.416,0.575-0.624,0.85c-0.313,0.415-0.627,0.81-0.938,1.174c-0.697,0.713-1.261,1.293-1.653,1.698l1.169,1.231
			c0.007-0.006,0.014-0.014,0.021-0.02l0.001,0.001c0.74-0.691,1.736-1.45,2.905-2.237c0.274-0.184,0.557-0.37,0.85-0.557
			c0.666-0.426,1.376-0.857,2.125-1.29c0.489-0.283,0.993-0.567,1.511-0.85c1.322-0.721,2.723-1.434,4.158-2.114
			c0.27-0.127,0.54-0.253,0.812-0.378c3.01-1.388,6.116-2.61,8.89-3.444c0.662,1.857,1.043,3.851,1.092,5.936
			c0.008,0.282,0.008,0.564,0.003,0.85c-0.005,0.221-0.006,0.441-0.018,0.665c-0.216,4.082-1.544,7.682-3.957,10.727
			c-0.183,0.229-0.376,0.454-0.569,0.677c-0.553,0.633-1.136,1.25-1.788,1.83c-3.079,2.738-6.438,4.3-10.036,4.804
			c-0.407,0.057-0.816,0.101-1.229,0.131c-0.329,0.023-0.66,0.034-0.992,0.041c-0.282,0.006-0.565,0.004-0.85-0.001
			c-0.33-0.007-0.661-0.019-0.994-0.042c-0.403-0.028-0.81-0.066-1.218-0.117c-1.223-0.152-2.467-0.403-3.734-0.758
			c-0.357,1.077-0.691,2.091-1.059,3.202c0.449,0.135,3.67,1.188,7.229,1.188c2.813,0,5.857-0.699,7.451-1.299
			c8.487-3.195,13.498-9.298,14.998-18.261c0.037-0.226,0.135-2.31,0.203-2.529c0-1.631-0.168-3.47-0.199-3.701
			c-0.195-1.447-0.53-2.843-0.981-4.18c2.03-0.386,3.688-0.428,4.7,0.021c0.204,0.09,0.267,0.163,0.267,0.163
			c0.003,0.053-0.104,0.846-2.794,2.595l0.926,1.425c2.53-1.645,3.664-2.967,3.568-4.159C70.799,34.709,70.546,34.046,69.558,33.609
			z M48.177,33.738c0.146-0.306,0.287-0.612,0.43-0.919c0.215-0.465,0.425-0.93,0.63-1.396c0.156-0.356,0.311-0.712,0.461-1.067
			c0.719-1.7,1.354-3.377,1.88-4.969c1.578,0.826,3.028,1.866,4.317,3.079c-1.247,1.128-2.562,2.354-3.896,3.624
			c-0.643,0.61-1.287,1.228-1.93,1.85c-1.373,1.327-2.732,2.663-4.021,3.942C46.785,36.55,47.5,35.154,48.177,33.738z
			 M51.723,37.614c-0.271,0.123-0.541,0.249-0.811,0.375c-1.84,0.862-3.628,1.78-5.278,2.706c1.671-1.669,3.321-3.297,4.909-4.838
			c0.243-0.236,0.486-0.472,0.727-0.704c1.043-1.007,2.051-1.969,3.017-2.879c0.623-0.587,1.228-1.152,1.811-1.69
			c0.335-0.31,0.664-0.612,0.984-0.903c0.079,0.089,0.154,0.18,0.231,0.271c0.19,0.221,0.376,0.446,0.556,0.676
			c0.903,1.153,1.68,2.409,2.302,3.754C57.477,35.185,54.558,36.321,51.723,37.614z"/>
	</g>
</g>
<g id="Layer_2">
	<path fill="#F07D00" d="M42.5,5.997c20.129,0,36.503,16.375,36.503,36.503c0,20.127-16.374,36.502-36.503,36.502
		c-20.127,0-36.503-16.375-36.503-36.502C5.997,22.372,22.373,5.997,42.5,5.997 M42.5,0C19.028,0,0,19.027,0,42.5
		C0,65.971,19.028,85,42.5,85C65.973,85,85,65.971,85,42.5C85,19.027,65.973,0,42.5,0L42.5,0z"/>
</g>
</svg>
