<?xml version="1.0" encoding="utf-8"?>
<!-- Generator: Adobe Illustrator 16.0.0, SVG Export Plug-In . SVG Version: 6.00 Build 0)  -->
<!DOCTYPE svg PUBLIC "-//W3C//DTD SVG 1.1//EN" "http://www.w3.org/Graphics/SVG/1.1/DTD/svg11.dtd">
<svg version="1.1" xmlns="http://www.w3.org/2000/svg" xmlns:xlink="http://www.w3.org/1999/xlink" x="0px" y="0px" width="85px"
	 height="85px" viewBox="0 0 85 85" enable-background="new 0 0 85 85" xml:space="preserve">
<g id="Layer_1">
	<g>
		<polygon fill="#F07D00" points="35.734,30.218 39.194,30.218 39.194,60.046 45.092,60.046 45.092,24.954 35.734,24.954 		"/>
		<path fill="#F07D00" d="M60.086,24.804c-8.348,0-12.955,6.316-12.955,17.697c0,11.379,4.607,17.696,12.955,17.696
			C68.392,60.196,73,53.88,73,42.5C73,31.12,68.392,24.804,60.086,24.804z M60.086,54.535c-5.129,0-7.694-3.162-7.694-12.034
			c0-8.923,2.565-12.036,7.694-12.036c5.088,0,7.652,3.112,7.652,12.036C67.738,51.373,65.174,54.535,60.086,54.535z"/>
		<path fill="#F07D00" d="M31.726,27.945c-1.116-0.991-2.532-1.762-4.248-2.313c-1.716-0.551-3.747-0.829-6.093-0.829h-9.209v5.065
			v30.146h5.059V47.619h4.15c2.281,0,4.271-0.283,5.972-0.851c1.698-0.568,3.115-1.365,4.248-2.388
			c1.133-1.022,1.982-2.244,2.55-3.664c0.565-1.421,0.849-2.983,0.849-4.688c0-1.64-0.267-3.15-0.801-4.529
			C33.668,30.121,32.843,28.935,31.726,27.945z M28.791,38.72c-0.291,0.804-0.728,1.485-1.311,2.045
			c-0.582,0.561-1.32,0.991-2.209,1.291c-0.891,0.301-1.936,0.45-3.132,0.45h-4.905V29.868h4.905c1.196,0,2.241,0.143,3.132,0.427
			c0.889,0.284,1.627,0.694,2.209,1.23c0.583,0.536,1.02,1.185,1.311,1.948c0.292,0.763,0.438,1.614,0.438,2.556
			C29.229,37.02,29.083,37.916,28.791,38.72z"/>
	</g>
</g>
<g id="Layer_2">
	<path fill="#F07D00" d="M42.5,5.997c20.129,0,36.503,16.375,36.503,36.503c0,20.127-16.374,36.502-36.503,36.502
		c-20.127,0-36.503-16.375-36.503-36.502C5.997,22.372,22.373,5.997,42.5,5.997 M42.5,0C19.028,0,0,19.027,0,42.5
		C0,65.971,19.028,85,42.5,85C65.973,85,85,65.971,85,42.5C85,19.027,65.973,0,42.5,0L42.5,0z"/>
</g>
</svg>
