<?xml version="1.0" encoding="utf-8"?>
<!-- Generator: Adobe Illustrator 16.0.0, SVG Export Plug-In . SVG Version: 6.00 Build 0)  -->
<!DOCTYPE svg PUBLIC "-//W3C//DTD SVG 1.1//EN" "http://www.w3.org/Graphics/SVG/1.1/DTD/svg11.dtd">
<svg version="1.1" xmlns="http://www.w3.org/2000/svg" xmlns:xlink="http://www.w3.org/1999/xlink" x="0px" y="0px" width="85px"
	 height="85px" viewBox="0 0 85 85" enable-background="new 0 0 85 85" xml:space="preserve">
<g id="Layer_1">
	<g>
		<path fill="#F07D00" d="M42.756,28.021c-1.117-0.991-2.533-1.762-4.249-2.313c-1.716-0.552-3.746-0.829-6.093-0.829h-9.208v5.065
			V60.09h5.06V47.695h4.148c2.282,0,4.272-0.283,5.973-0.851c1.698-0.569,3.115-1.365,4.248-2.388
			c1.133-1.022,1.982-2.244,2.549-3.664c0.565-1.42,0.849-2.983,0.849-4.688c0-1.64-0.267-3.15-0.801-4.529
			C44.697,30.195,43.872,29.009,42.756,28.021z M39.821,38.795c-0.291,0.804-0.729,1.485-1.312,2.046
			c-0.582,0.56-1.319,0.99-2.209,1.29c-0.891,0.301-1.935,0.45-3.132,0.45h-4.903V29.943h4.903c1.197,0,2.241,0.143,3.132,0.426
			c0.89,0.285,1.627,0.695,2.209,1.23c0.583,0.536,1.021,1.185,1.312,1.947c0.292,0.764,0.437,1.616,0.437,2.558
			C40.258,37.094,40.113,37.991,39.821,38.795z"/>
		<polygon fill="#F07D00" points="49.305,25.028 49.305,30.293 56.152,30.293 56.152,60.122 62.05,60.122 62.05,25.028 		"/>
	</g>
</g>
<g id="Layer_2">
	<path fill="#F07D00" d="M42.5,5.997c20.129,0,36.503,16.375,36.503,36.503c0,20.127-16.374,36.502-36.503,36.502
		c-20.127,0-36.503-16.375-36.503-36.502C5.997,22.372,22.373,5.997,42.5,5.997 M42.5,0C19.028,0,0,19.027,0,42.5
		C0,65.971,19.028,85,42.5,85C65.973,85,85,65.971,85,42.5C85,19.027,65.973,0,42.5,0L42.5,0z"/>
</g>
</svg>
