<?xml version="1.0" encoding="utf-8"?>
<!-- Generator: Adobe Illustrator 16.0.0, SVG Export Plug-In . SVG Version: 6.00 Build 0)  -->
<!DOCTYPE svg PUBLIC "-//W3C//DTD SVG 1.1//EN" "http://www.w3.org/Graphics/SVG/1.1/DTD/svg11.dtd">
<svg version="1.1" xmlns="http://www.w3.org/2000/svg" xmlns:xlink="http://www.w3.org/1999/xlink" x="0px" y="0px" width="85px"
	 height="85px" viewBox="0 0 85 85" enable-background="new 0 0 85 85" xml:space="preserve">
<g id="Layer_1">
	<g>
		<polygon fill="#F07D00" points="65.646,46.234 65.646,37.913 60.147,37.913 60.147,46.234 49.752,46.234 61.098,25.029 
			55.399,25.029 43.454,47.088 43.454,51.499 60.147,51.499 60.147,60.122 65.646,60.122 65.646,51.499 70.744,51.499 
			70.744,46.234 		"/>
		<path fill="#F07D00" d="M38.048,28.02c-1.116-0.991-2.532-1.762-4.248-2.313c-1.716-0.552-3.747-0.829-6.093-0.829h-9.208v5.065
			V60.09h5.059V47.695h4.149c2.282,0,4.272-0.283,5.973-0.852c1.697-0.568,3.114-1.364,4.247-2.387
			c1.132-1.023,1.982-2.244,2.549-3.664c0.566-1.421,0.85-2.983,0.85-4.688c0-1.64-0.267-3.149-0.801-4.529
			C39.99,30.195,39.165,29.009,38.048,28.02z M35.113,38.795c-0.291,0.803-0.728,1.484-1.311,2.045
			c-0.583,0.561-1.319,0.991-2.209,1.29c-0.891,0.302-1.935,0.451-3.132,0.451h-4.904V29.943h4.904c1.197,0,2.241,0.143,3.132,0.426
			c0.89,0.285,1.626,0.695,2.209,1.23c0.583,0.535,1.02,1.184,1.311,1.947c0.292,0.764,0.438,1.616,0.438,2.557
			C35.551,37.094,35.405,37.991,35.113,38.795z"/>
	</g>
</g>
<g id="Layer_2">
	<path fill="#F07D00" d="M42.5,5.997c20.129,0,36.503,16.375,36.503,36.503c0,20.127-16.374,36.502-36.503,36.502
		c-20.127,0-36.503-16.375-36.503-36.502C5.997,22.372,22.373,5.997,42.5,5.997 M42.5,0C19.028,0,0,19.027,0,42.5
		C0,65.971,19.028,85,42.5,85C65.973,85,85,65.971,85,42.5C85,19.027,65.973,0,42.5,0L42.5,0z"/>
</g>
</svg>
