<?xml version="1.0" encoding="utf-8"?>
<!-- Generator: Adobe Illustrator 16.0.0, SVG Export Plug-In . SVG Version: 6.00 Build 0)  -->
<!DOCTYPE svg PUBLIC "-//W3C//DTD SVG 1.1//EN" "http://www.w3.org/Graphics/SVG/1.1/DTD/svg11.dtd">
<svg version="1.1" xmlns="http://www.w3.org/2000/svg" xmlns:xlink="http://www.w3.org/1999/xlink" x="0px" y="0px" width="85px"
	 height="85px" viewBox="0 0 85 85" enable-background="new 0 0 85 85" xml:space="preserve">
<g id="Layer_1">
	<g>
		<path fill="#F07D00" d="M54.951,37.788l-4.799,0.05v-7.57h15.894l-0.05-5.314H44.704v18.549c2.35-0.251,7.098-0.451,9.196-0.451
			c4.498,0,7.247,2.205,7.247,5.765c0,3.96-2.749,6.316-7.297,6.316c-3.148,0-6.647-1.353-9.446-3.71l-2.349,4.813
			c3.448,2.406,8.296,4.011,12.444,4.011c7.848,0,12.945-4.663,12.945-11.782C67.445,42.299,62.547,37.788,54.951,37.788z"/>
		<path fill="#F07D00" d="M36.849,27.945c-1.116-0.991-2.533-1.762-4.248-2.313c-1.716-0.551-3.747-0.829-6.094-0.829H17.3v5.065
			v30.146h5.059V47.619h4.148c2.282,0,4.273-0.283,5.973-0.851c1.699-0.569,3.116-1.365,4.249-2.388
			c1.132-1.022,1.982-2.244,2.549-3.664c0.566-1.421,0.85-2.983,0.85-4.688c0-1.64-0.268-3.15-0.802-4.529
			C38.791,30.121,37.966,28.935,36.849,27.945z M33.915,38.72c-0.291,0.804-0.729,1.485-1.312,2.045
			c-0.582,0.561-1.319,0.991-2.209,1.291c-0.891,0.301-1.935,0.45-3.131,0.45h-4.905V29.868h4.905c1.196,0,2.24,0.143,3.131,0.427
			c0.89,0.284,1.627,0.694,2.209,1.23c0.583,0.536,1.021,1.185,1.312,1.948c0.292,0.763,0.437,1.614,0.437,2.556
			C34.352,37.02,34.207,37.916,33.915,38.72z"/>
	</g>
</g>
<g id="Layer_2">
	<path fill="#F07D00" d="M42.5,5.997c20.129,0,36.503,16.375,36.503,36.503c0,20.127-16.374,36.502-36.503,36.502
		c-20.127,0-36.503-16.375-36.503-36.502C5.997,22.372,22.373,5.997,42.5,5.997 M42.5,0C19.028,0,0,19.027,0,42.5
		C0,65.971,19.028,85,42.5,85C65.973,85,85,65.971,85,42.5C85,19.027,65.973,0,42.5,0L42.5,0z"/>
</g>
</svg>
