<?xml version="1.0" encoding="utf-8"?>
<!-- Generator: Adobe Illustrator 16.0.0, SVG Export Plug-In . SVG Version: 6.00 Build 0)  -->
<!DOCTYPE svg PUBLIC "-//W3C//DTD SVG 1.1//EN" "http://www.w3.org/Graphics/SVG/1.1/DTD/svg11.dtd">
<svg version="1.1" xmlns="http://www.w3.org/2000/svg" xmlns:xlink="http://www.w3.org/1999/xlink" x="0px" y="0px" width="85px"
	 height="85px" viewBox="0 0 85 85" enable-background="new 0 0 85 85" xml:space="preserve">
<g id="Layer_1">
	<path fill="#F07D00" d="M59.157,27.926c-0.765-1.977-1.947-3.675-3.546-5.093c-1.601-1.419-3.629-2.523-6.086-3.313
		c-2.457-0.79-5.367-1.187-8.729-1.187H27.609v7.254v43.18h7.246V51.015h5.941c3.27,0,6.121-0.406,8.555-1.22
		c2.434-0.813,4.462-1.953,6.085-3.419c1.622-1.464,2.84-3.213,3.651-5.248c0.811-2.035,1.217-4.273,1.217-6.714
		C60.305,32.064,59.922,29.901,59.157,27.926z M51.407,38.268c-0.417,1.151-1.043,2.126-1.878,2.929
		c-0.834,0.802-1.89,1.419-3.164,1.848c-1.275,0.431-2.771,0.645-4.485,0.645h-7.024V25.588h7.024c1.714,0,3.21,0.204,4.485,0.611
		c1.274,0.407,2.33,0.995,3.164,1.762c0.835,0.767,1.461,1.697,1.878,2.79c0.418,1.093,0.626,2.313,0.626,3.663
		C52.033,35.831,51.825,37.116,51.407,38.268z"/>
</g>
<g id="Layer_2">
	<path fill="#F07D00" d="M42.5,5.997c20.129,0,36.503,16.375,36.503,36.503c0,20.127-16.374,36.502-36.503,36.502
		c-20.127,0-36.503-16.375-36.503-36.502C5.997,22.372,22.373,5.997,42.5,5.997 M42.5,0C19.028,0,0,19.027,0,42.5
		C0,65.971,19.028,85,42.5,85C65.973,85,85,65.971,85,42.5C85,19.027,65.973,0,42.5,0L42.5,0z"/>
</g>
</svg>
