<?xml version="1.0" encoding="utf-8"?>
<!-- Generator: Adobe Illustrator 16.0.0, SVG Export Plug-In . SVG Version: 6.00 Build 0)  -->
<!DOCTYPE svg PUBLIC "-//W3C//DTD SVG 1.1//EN" "http://www.w3.org/Graphics/SVG/1.1/DTD/svg11.dtd">
<svg version="1.1" xmlns="http://www.w3.org/2000/svg" xmlns:xlink="http://www.w3.org/1999/xlink" x="0px" y="0px" width="85px"
	 height="85px" viewBox="0 0 85 85" enable-background="new 0 0 85 85" xml:space="preserve">
<g id="Layer_1">
	<g>
		
			<ellipse transform="matrix(-0.937 -0.3494 0.3494 -0.937 82.4703 112.1719)" fill="#F07D00" cx="51.352" cy="48.648" rx="1.966" ry="0.654"/>
		<path fill="#F07D00" d="M39.203,41.418l1.995-0.529c0.062-0.018,0.099-0.082,0.083-0.145l-0.584-2.196
			c-0.016-0.063-0.08-0.101-0.143-0.083l-1.993,0.529c-0.063,0.017-0.099,0.081-0.083,0.145l0.582,2.195
			C39.078,41.398,39.141,41.436,39.203,41.418z"/>
		<path fill="#F07D00" d="M39.995,35.897l-0.582-2.196c-0.017-0.063-0.081-0.101-0.145-0.084l-1.992,0.529
			c-0.062,0.017-0.099,0.082-0.083,0.145l0.583,2.196c0.017,0.063,0.081,0.101,0.144,0.084l1.991-0.53
			C39.975,36.024,40.011,35.96,39.995,35.897z"/>
		<path fill="#F07D00" d="M58.313,46.846c0.041,0.05,0.115,0.058,0.166,0.016l1.588-1.315c0.05-0.042,0.058-0.116,0.016-0.166
			l-1.447-1.75c-0.041-0.051-0.115-0.058-0.166-0.017l-1.587,1.315c-0.05,0.041-0.057,0.116-0.016,0.167L58.313,46.846z"/>
		<path fill="#F07D00" d="M57.396,42.026l-0.64-0.741c-0.037-0.043-0.106-0.04-0.137,0.009c-0.407,0.66-0.8,1.278-1.167,1.843
			c-0.036,0.055-0.023,0.127,0.02,0.177l0.154,0.178c0.043,0.049,0.117,0.056,0.168,0.014l1.587-1.315
			C57.432,42.149,57.438,42.075,57.396,42.026z"/>
		<path fill="#F07D00" d="M44.555,53.004l-1.991,0.53c-0.063,0.018-0.101,0.081-0.084,0.145l0.583,2.196
			c0.016,0.063,0.08,0.101,0.143,0.083l1.992-0.529c0.063-0.017,0.1-0.081,0.084-0.144l-0.583-2.197
			C44.683,53.024,44.617,52.987,44.555,53.004z"/>
		<path fill="#F07D00" d="M44.145,49.827l-1.078-2c-0.031-0.058-0.103-0.079-0.16-0.048l-1.813,0.978
			c-0.057,0.031-0.078,0.103-0.048,0.16l1.078,2c0.031,0.057,0.101,0.079,0.159,0.048l1.813-0.979
			C44.154,49.956,44.175,49.884,44.145,49.827z"/>
		<path fill="#F07D00" d="M39.819,49.783c-0.036-0.055-0.11-0.069-0.163-0.032l-1.886,1.265c-0.054,0.036-0.068,0.109-0.032,0.163
			l1.146,1.714c0.036,0.055,0.11,0.069,0.162,0.032l1.887-1.265c0.054-0.036,0.067-0.109,0.031-0.163L39.819,49.783z"/>
		<path fill="#F07D00" d="M25.38,49.71c-0.057-0.03-0.13-0.008-0.16,0.049l-0.962,1.826c-0.029,0.057-0.008,0.128,0.049,0.159
			l2.009,1.061c0.057,0.03,0.128,0.008,0.158-0.05l0.963-1.823c0.029-0.059,0.009-0.129-0.05-0.16L25.38,49.71z"/>
		<path fill="#F07D00" d="M21.939,47.857c-0.057-0.03-0.127-0.008-0.158,0.049l-0.962,1.825c-0.03,0.058-0.008,0.128,0.05,0.158
			l2.007,1.061c0.058,0.03,0.128,0.009,0.158-0.049l0.964-1.824c0.03-0.058,0.009-0.129-0.05-0.16L21.939,47.857z"/>
		<path fill="#F07D00" d="M28.804,51.443c-0.057-0.031-0.128-0.009-0.159,0.049l-0.963,1.825c-0.03,0.058-0.007,0.129,0.05,0.159
			l2.007,1.06c0.059,0.031,0.128,0.009,0.159-0.048l0.962-1.825c0.03-0.058,0.009-0.129-0.049-0.159L28.804,51.443z"/>
		<path fill="#F07D00" d="M65.678,61.005c-0.841-4.081-3.207-15.576-3.581-17.387c-0.638-3.097-1.244-6.05-1.827-8.878
			c-0.008-0.041-0.064-0.051-0.082-0.012c-0.366,0.804-0.783,1.652-1.253,2.539c-0.028,0.057-0.038,0.123-0.024,0.187
			c0.436,2.111,0.884,4.288,1.348,6.543c0.262,1.275,0.531,2.579,0.804,3.906c0.008,0.037-0.002,0.077-0.033,0.101l-0.953,0.79
			c-0.049,0.041-0.055,0.115-0.012,0.163l1.544,1.747c0.025,0.029,0.043,0.064,0.051,0.103l1.824,8.853
			c0.005,0.026-0.022,0.045-0.049,0.035c-0.807-0.303-9.471-3.559-13.805-5.187c-0.033-0.013-0.055-0.045-0.057-0.08
			c-0.064-0.628-0.129-1.25-0.193-1.867c-0.242-2.363-0.654-6.357-0.819-7.956c-0.008-0.076-0.036-0.147-0.078-0.211
			c-0.456-0.676-0.908-1.357-1.345-2.045c-0.498-0.784-0.968-1.548-1.408-2.293c-0.033-0.058-0.107-0.083-0.164-0.047l-10.687,6.751
			c-0.02,0.013-0.049,0.008-0.049-0.016c0-0.992,0-1.974,0-2.935c-0.002-4.653-0.002-8.987,0-13.042
			c0-0.026,0.016-0.053,0.041-0.061c0.41-0.133,0.815-0.263,1.224-0.395c0.026-0.008,0.048,0.019,0.056,0.045l0.341,1.284
			c0.017,0.063,0.08,0.1,0.144,0.084l1.992-0.53c0.063-0.017,0.1-0.081,0.084-0.143l-0.372-1.402c-0.008-0.027,0-0.062,0.027-0.07
			c0.852-0.274,1.7-0.548,2.543-0.821c0.069-0.021,0.12-0.086,0.112-0.158c-0.013-0.117-0.023-0.235-0.03-0.35
			c-0.051-0.403-0.086-0.793-0.086-1.155c0-0.065,0-0.131,0.002-0.196c0.002-0.057-0.05-0.101-0.104-0.083
			c-2.259,0.729-4.541,1.466-6.857,2.212c-0.033,0.01-0.068,0.013-0.1,0.004c-3.916-1.263-7.749-2.501-11.499-3.71
			c-0.002-0.001-0.004-0.001-0.006-0.001c-0.178-0.057-0.372-0.061-0.557-0.005l-0.006,0.001c-0.317,0.131-0.54,0.426-0.576,0.77
			c-0.465,4.326-0.964,8.974-1.499,13.982c-0.58,5.412-1.014,8.586-1.696,14.962c-0.037,0.341,0.113,0.675,0.395,0.872
			c4.66,1.897,10.164,4.139,15.078,6.14c0.035,0.016,0.071,0.028,0.107,0.041c0.099,0.034,0.2,0.053,0.304,0.053
			c0.12,0,0.239-0.022,0.353-0.069c4.936-2.011,9.74-3.967,14.419-5.872c0.037-0.015,0.078-0.015,0.115,0
			c5.08,1.908,10.294,3.868,15.65,5.881c0.107,0.04,0.219,0.06,0.33,0.06c0.221,0,0.438-0.078,0.61-0.226
			C65.629,61.688,65.746,61.34,65.678,61.005z M21.811,39.164c0.256-2.476,0.5-4.856,0.736-7.151
			c0.001-0.02,0.026-0.021,0.038-0.005l3.594,5.525c0.018,0.028,0.014,0.066-0.011,0.09l-4.64,4.645
			c-0.012,0.014-0.037,0.011-0.035-0.008C21.6,41.211,21.707,40.177,21.811,39.164z M33.093,53.52c0,0.024-0.03,0.027-0.052,0.017
			l-0.826-0.438c-0.059-0.03-0.129-0.009-0.16,0.049l-0.963,1.825c-0.03,0.058-0.009,0.129,0.048,0.159l1.901,1.003
			c0.031,0.018,0.052,0.049,0.052,0.084c0,1.153,0,2.327,0,3.517c0,0.027-0.026,0.047-0.052,0.036
			c-4.356-1.775-8.609-3.506-12.767-5.199c-0.035-0.016-0.044-0.059-0.04-0.098c0.084-0.805,0.165-1.6,0.246-2.389
			c0.228-2.203,0.447-4.339,0.659-6.41c0.005-0.035,0.021-0.066,0.045-0.093l5.929-6.507c0.021-0.021,0.057-0.02,0.072,0.006
			l5.876,9.033c0.017,0.027,0.031,0.057,0.031,0.089C33.093,49.93,33.093,51.703,33.093,53.52z M33.093,43.803
			c0,0.694,0,1.398,0,2.107c0,0.02-0.021,0.036-0.032,0.02l-5.17-7.706l-0.637-0.949l-4.519-6.732
			c-0.02-0.029-0.031-0.062-0.027-0.097c0.104-0.996,0.204-1.976,0.302-2.938c0.003-0.022,0.023-0.04,0.044-0.033
			c3.272,1.055,6.605,2.131,10,3.226c0.024,0.008,0.039,0.033,0.039,0.061C33.093,34.816,33.093,39.15,33.093,43.803z
			 M47.791,54.572c-4.157,1.693-8.41,3.424-12.767,5.199c-0.021,0.009-0.052,0.002-0.052-0.022c0-1.831,0-3.625,0-5.372
			c0-0.015,0.024-0.005,0.033,0.008l0.539,0.806c0.037,0.055,0.11,0.068,0.164,0.032l1.886-1.265
			c0.054-0.036,0.068-0.109,0.031-0.163l-1.146-1.714c-0.037-0.054-0.109-0.068-0.164-0.032l-1.294,0.868
			c-0.022,0.015-0.049-0.004-0.049-0.03c0-1.307,0-2.59,0-3.848c0-0.038,0.018-0.073,0.049-0.093l5.218-3.501
			c0.023-0.016,0.058-0.003,0.063,0.024l0.188,0.709c0.016,0.063,0.081,0.1,0.144,0.083l1.992-0.529
			c0.064-0.017,0.101-0.081,0.084-0.145l-0.391-1.473c-0.009-0.033,0.005-0.069,0.034-0.089l4.07-2.731
			c0.02-0.013,0.051-0.011,0.053,0.013c0.194,1.891,0.395,3.835,0.602,5.841c0,0.014-0.021,0.01-0.028-0.002l-0.717-1.07
			c-0.035-0.053-0.108-0.068-0.163-0.032l-1.886,1.267c-0.054,0.036-0.067,0.109-0.032,0.163l1.146,1.714
			c0.037,0.054,0.109,0.068,0.164,0.032l1.568-1.052c0.02-0.013,0.05-0.009,0.053,0.016c0.21,2.045,0.427,4.147,0.65,6.317
			C47.837,54.532,47.819,54.561,47.791,54.572z"/>
		<path fill="#F07D00" d="M47.744,41.961c0.764,1.2,1.449,2.215,1.946,2.933c0.248,0.359,0.45,0.643,0.587,0.839
			c0.06,0.083,0.923,1.267,1.191,1.635c0.036,0.051,0.111,0.064,0.148,0.014l0.981-1.339c0.022-0.031,2.17-2.97,4.353-6.695
			c1.089-1.863,2.184-3.917,3.018-5.917c0.831-2.003,1.43-3.94,1.439-5.71c-0.002-3.21-1.045-6.14-2.796-8.308
			c-1.74-2.161-4.243-3.581-7.05-3.584c-0.004,0-0.009,0-0.014,0h-0.001h-0.001c-2.811,0-5.317,1.419-7.061,3.585
			c-1.75,2.167-2.795,5.096-2.797,8.306c0.01,1.771,0.608,3.708,1.438,5.71C44.381,36.421,46.218,39.559,47.744,41.961z
			 M51.439,19.93c3.194,0,5.786,2.593,5.786,5.792c0,3.199-2.592,5.791-5.786,5.791c-3.195,0-5.785-2.592-5.785-5.791
			C45.654,22.523,48.244,19.93,51.439,19.93z"/>
	</g>
</g>
<g id="Layer_2">
	<path fill="#F07D00" d="M42.5,5.997c20.129,0,36.503,16.375,36.503,36.503c0,20.127-16.374,36.502-36.503,36.502
		c-20.127,0-36.503-16.375-36.503-36.502C5.997,22.372,22.373,5.997,42.5,5.997 M42.5,0C19.028,0,0,19.027,0,42.5
		C0,65.971,19.028,85,42.5,85C65.973,85,85,65.971,85,42.5C85,19.027,65.973,0,42.5,0L42.5,0z"/>
</g>
</svg>
