<?xml version="1.0" encoding="utf-8"?>
<!-- Generator: Adobe Illustrator 16.0.0, SVG Export Plug-In . SVG Version: 6.00 Build 0)  -->
<!DOCTYPE svg PUBLIC "-//W3C//DTD SVG 1.1//EN" "http://www.w3.org/Graphics/SVG/1.1/DTD/svg11.dtd">
<svg version="1.1" xmlns="http://www.w3.org/2000/svg" xmlns:xlink="http://www.w3.org/1999/xlink" x="0px" y="0px" width="85px"
	 height="85px" viewBox="0 0 85 85" enable-background="new 0 0 85 85" xml:space="preserve">
<g id="Layer_1">
	<path fill="#F07D00" d="M60.547,25.483c-6.815-3.152-14.892-0.193-18.048,6.603c-3.153-6.796-11.229-9.754-18.039-6.603
		c-7.261,3.359-10.733,11.947-5.003,22.081c4.077,7.2,10.456,12.635,23.042,22.375c12.583-9.74,18.971-15.175,23.043-22.375
		C71.271,37.43,67.803,28.842,60.547,25.483z M63.777,36.783v1.637v1.637v1.637v0.04v1.637v1.637h-1.636h-1.638v3.232h-1.636H57.23
		v1.637v1.637h-1.637h-1.637v1.637v1.636H52.32h-1.636v1.637v1.637h-1.639H47.41v1.637v1.637h-1.637h-1.637v1.637v1.637h-1.638
		h-1.637v-1.637v-1.637h-1.636h-1.638v-1.637v-1.637h-1.636h-1.638v-1.637v-1.637h-1.637h-1.637v-1.636v-1.637h-1.637h-1.637v-1.637
		V48.24h-1.638h-1.636v-3.277h-1.638h-1.636v-1.637v-1.637v-0.04v-1.637V38.42v-0.045v-1.592v-1.637h3.273v-1.637v-1.637h3.273
		v-1.637v-1.637h3.273h3.273v1.637v1.637h3.273v1.637v1.637h1.638h1.636v1.637v1.637h1.637h1.638v-1.637v-1.637h1.637h1.637v-1.637
		v-1.637h3.274v-1.637v-1.637h3.272h3.273v1.637v1.637h3.273v1.637v1.637h3.273V36.783z"/>
</g>
<g id="Layer_2">
	<path fill="#F07D00" d="M42.5,5.997c20.129,0,36.503,16.375,36.503,36.503c0,20.127-16.374,36.502-36.503,36.502
		c-20.127,0-36.503-16.375-36.503-36.502C5.997,22.372,22.373,5.997,42.5,5.997 M42.5,0C19.028,0,0,19.027,0,42.5
		C0,65.971,19.028,85,42.5,85C65.973,85,85,65.971,85,42.5C85,19.027,65.973,0,42.5,0L42.5,0z"/>
</g>
</svg>
