<?xml version="1.0" encoding="utf-8"?>
<!-- Generator: Adobe Illustrator 16.0.0, SVG Export Plug-In . SVG Version: 6.00 Build 0)  -->
<!DOCTYPE svg PUBLIC "-//W3C//DTD SVG 1.1//EN" "http://www.w3.org/Graphics/SVG/1.1/DTD/svg11.dtd">
<svg version="1.1" xmlns="http://www.w3.org/2000/svg" xmlns:xlink="http://www.w3.org/1999/xlink" x="0px" y="0px" width="85px"
	 height="85px" viewBox="0 0 85 85" enable-background="new 0 0 85 85" xml:space="preserve">
<g id="Layer_1">
	<polygon fill="#F07D00" points="20.86,28.749 55.271,28.749 55.271,25.349 17.076,25.349 17.076,46.29 20.86,46.29 	"/>
	<path fill="#F07D00" d="M22.692,30.613v18.737h25.093c0-0.375,0-0.675,0-0.675c0-0.417,0-2.121,0-2.121c0-0.417,0-2.121,0-2.121
		s2.283-2.89,9.063-2.89c0.911,0,1.79,0.03,2.618,0.086V30.613H22.692z M36.197,36.186c-0.541-0.811-1.592-1.487-3.097-1.487
		c-1.652,0-2.628,0.751-3.004,1.804h5.949l-0.72,1.502h-5.501c-0.016,0.15-0.029,0.361-0.029,0.51c0,0.151,0.014,0.316,0.029,0.466
		h5.034l-0.706,1.503h-3.908c0.301,0.827,1.354,1.683,2.932,1.683c1.429,0,2.479-0.632,3.005-1.232v1.803
		c-0.449,0.375-1.652,0.932-3.23,0.932c-2.631,0-4.134-1.458-4.733-3.186h-1.88l0.752-1.503h0.767
		c-0.015-0.209-0.015-0.345-0.015-0.481c0-0.15,0-0.286,0.015-0.496h-1.519l0.752-1.502h1.128c0.524-1.879,2.328-3.307,4.959-3.307
		c1.502,0,2.855,0.526,3.757,1.428L36.197,36.186z"/>
	<g>
		<rect x="61.978" y="48.748" fill="#F07D00" width="0.005" height="0.002"/>
		<path fill="#F07D00" d="M56.506,48.744c-0.066,0-0.132,0.004-0.197,0.006c-0.002,0.148-0.002,0.298-0.002,0.446
			c1.89,0,3.781,0,5.673,0c-0.001-0.149-0.001-0.298-0.002-0.446c-0.065-0.002-0.132-0.005-0.196-0.005
			C60.021,48.744,58.264,48.744,56.506,48.744z"/>
		<rect x="67.652" y="44.758" fill="#F07D00" width="0.002" height="0.004"/>
		<path fill="#F07D00" d="M69.09,44.761c-0.488,0-0.962,0-1.436,0c-0.006,0.021-0.016,0.042-0.016,0.063c0,0.097,0,0.229,0,0.373
			h0.867v1.81h-0.869c0,0.132,0,0.251,0,0.341c0,0.021,0.012,0.042,0.018,0.063c0.479,0,0.959,0,1.436,0
			C69.09,46.82,69.09,45.347,69.09,44.761z"/>
		<path fill="#F07D00" d="M49.772,47.006v-1.81h0.858c0-0.167,0-0.321,0-0.435c-0.479,0-0.957,0-1.434,0c0,0.59,0,2.064,0,2.649
			c0.487,0,0.959,0,1.434,0c0-0.106,0-0.249,0-0.404H49.772z"/>
		<rect x="50.632" y="47.409" fill="#F07D00" width="0.001" height="0.004"/>
		<path fill="#F07D00" d="M61.977,43.469c0-0.143,0-0.285,0-0.427c-1.904,0-3.78,0-5.668,0c0,0.146,0,0.286,0,0.427
			c1.266,0.001,2.53,0.003,3.796,0.003C60.728,43.472,61.353,43.47,61.977,43.469z"/>
		<rect x="56.303" y="43.469" fill="#F07D00" width="0.006" height="0.001"/>
		<path fill="#F07D00" d="M64.836,43.916c0-0.147,0-0.295,0-0.445c-0.971,0-1.911,0-2.854,0c0,0.146,0,0.291,0,0.445
			C62.935,43.916,63.885,43.916,64.836,43.916z"/>
		<rect x="61.98" y="43.468" fill="#F07D00" width="0.001" height="0.004"/>
		<path fill="#F07D00" d="M56.303,43.471c-0.947,0-1.894,0-2.853,0c0,0.154,0,0.3,0,0.445c0.944,0,1.89,0,2.853,0
			C56.303,43.765,56.303,43.617,56.303,43.471z"/>
		<rect x="53.444" y="43.916" fill="#F07D00" width="0.006" height="0.001"/>
		<path fill="#F07D00" d="M52.037,44.35c-0.464,0-0.928,0-1.402,0c0,0.299,0,0.123,0,0.409c0.459,0,0.916,0,1.402,0
			C52.037,44.467,52.037,44.64,52.037,44.35z"/>
		<rect x="50.631" y="44.759" fill="#F07D00" width="0.004" height="0.002"/>
		<rect x="66.245" y="44.347" fill="#F07D00" width="0.002" height="0.005"/>
		<path fill="#F07D00" d="M67.65,44.759c0-0.288,0-0.114,0-0.409c-0.485,0-0.943,0-1.402,0c0,0.289,0,0.114,0,0.409
			C66.725,44.759,67.187,44.759,67.65,44.759z"/>
		<rect x="52.039" y="47.866" fill="#F07D00" width="0.002" height="0.006"/>
		<path fill="#F07D00" d="M50.635,47.412c0,0.288,0,0.16,0,0.456c0.486,0,0.944,0,1.402,0c0-0.289,0-0.16,0-0.456
			C51.563,47.412,51.1,47.412,50.635,47.412z"/>
		<rect x="67.649" y="47.411" fill="#F07D00" width="0.006" height="0.002"/>
		<path fill="#F07D00" d="M66.248,47.868c0.463,0,0.927,0,1.402,0c0-0.299,0-0.168,0-0.456c-0.458,0-0.917,0-1.402,0
			C66.248,47.703,66.248,47.577,66.248,47.868z"/>
		<rect x="56.304" y="48.747" fill="#F07D00" width="0.002" height="0.004"/>
		<path fill="#F07D00" d="M53.45,48.317c0,0.143,0,0.285,0,0.43c0.97,0,1.911,0,2.853,0c0-0.141,0-0.281,0-0.43
			C55.355,48.317,54.403,48.317,53.45,48.317z"/>
		<rect x="64.837" y="48.315" fill="#F07D00" width="0.005" height="0.002"/>
		<path fill="#F07D00" d="M61.982,48.312c0,0.151,0,0.293,0,0.436c0.947,0,1.894,0,2.854,0c0-0.149,0-0.29,0-0.43
			c-0.776-0.002-1.553-0.004-2.329-0.006C62.336,48.311,62.164,48.312,61.982,48.312z"/>
		<rect x="53.445" y="48.314" fill="#F07D00" width="0.002" height="0.004"/>
		<path fill="#F07D00" d="M52.043,47.87c0,0.146,0,0.294,0,0.445c0.485,0,0.943,0,1.401,0c0-0.146,0-0.294,0-0.445
			C52.966,47.87,52.505,47.87,52.043,47.87z"/>
		<path fill="#F07D00" d="M64.842,48.315c0.462,0,0.927,0,1.401,0c0-0.154,0-0.3,0-0.446c-0.463,0-0.928,0-1.401,0
			C64.842,48.021,64.842,48.168,64.842,48.315z"/>
		<rect x="66.244" y="47.868" fill="#F07D00" width="0.004" height="0.001"/>
		<rect x="52.037" y="44.348" fill="#F07D00" width="0.006" height="0.002"/>
		<path fill="#F07D00" d="M53.444,43.918c-0.464,0-0.927,0-1.401,0c0,0.149,0,0.29,0,0.43c0.462,0,0.923,0,1.401,0
			C53.444,44.202,53.444,44.06,53.444,43.918z"/>
		<path fill="#F07D00" d="M66.243,44.348c0-0.141,0-0.284,0-0.43c-0.486,0-0.944,0-1.401,0c0,0.142,0,0.284,0,0.43
			C65.316,44.348,65.78,44.348,66.243,44.348z"/>
		<rect x="64.838" y="43.914" fill="#F07D00" width="0.002" height="0.006"/>
		<rect x="56.311" y="51.385" fill="#F07D00" width="0.002" height="0.006"/>
		<path fill="#F07D00" d="M61.985,51.835c-0.001-0.148-0.002-0.298-0.002-0.446c-0.066-0.002-0.132-0.005-0.196-0.005
			c-1.76-0.001-3.518-0.001-5.275-0.001c-0.066,0-0.132,0.004-0.197,0.006c-0.002,0.148-0.002,0.298-0.002,0.446
			C58.202,51.835,60.094,51.835,61.985,51.835z"/>
		<path fill="#F07D00" d="M67.678,50.03h-0.004l0.004-0.002C67.678,50.028,67.678,50.029,67.678,50.03c0.467,0,0.936,0,1.417,0
			c0-0.762,0-1.914,0-2.643c-0.487,0-0.961,0-1.435,0c-0.006,0.026-0.016,0.053-0.016,0.08c-0.002,0.239-0.002,0.539-0.002,0.85
			h0.948v1.345h-0.948c0,0.126,0,0.259,0,0.366c0,0.027,0.012,0.054,0.018,0.081l0,0C67.662,50.083,67.672,50.057,67.678,50.03z"/>
		<polygon fill="#F07D00" points="67.656,47.388 67.66,47.388 67.66,47.385 		"/>
		<polygon fill="#F07D00" points="67.656,50.109 67.66,50.111 67.66,50.109 		"/>
		<path fill="#F07D00" d="M50.637,50.03c0-0.112,0-0.24,0-0.368h-0.834v-1.345h0.832c0-0.338,0-0.665,0-0.93
			c-0.479,0-0.955,0-1.432,0c0,0.758,0,1.969,0,2.721c0.006,0,0.01,0,0.016,0c0-0.024,0-0.055,0-0.078
			C49.69,50.03,50.162,50.03,50.637,50.03z"/>
		<polygon fill="#F07D00" points="50.635,47.385 50.635,47.387 50.639,47.388 		"/>
		<path fill="#F07D00" d="M52.043,50.508c0-0.288,0-0.101,0-0.396c-0.471,0-0.93,0-1.391,0c0,0.123,0,0.258,0,0.396
			C51.135,50.508,51.589,50.508,52.043,50.508z"/>
		<rect x="66.249" y="50.508" fill="#F07D00" width="0.005" height="0.001"/>
		<polygon fill="#F07D00" points="67.656,50.109 67.656,50.111 67.66,50.111 		"/>
		<path fill="#F07D00" d="M67.656,50.111c-0.458,0-0.917,0-1.402,0c0,0.291,0,0.105,0,0.396c0.463,0,0.927,0,1.402,0
			C67.656,50.209,67.656,50.398,67.656,50.111z"/>
		<rect x="53.453" y="50.954" fill="#F07D00" width="0.002" height="0.004"/>
		<path fill="#F07D00" d="M56.309,51.387c0-0.14,0-0.281,0-0.43c-0.947,0-1.9,0-2.853,0c0,0.143,0,0.285,0,0.43
			C54.425,51.387,55.367,51.387,56.309,51.387z"/>
		<rect x="61.983" y="51.387" fill="#F07D00" width="0.004" height="0.002"/>
		<path fill="#F07D00" d="M64.843,50.957c-0.776-0.002-1.553-0.004-2.33-0.006c-0.171-0.001-0.343,0-0.525,0
			c0,0.151,0,0.294,0,0.436c0.948,0,1.895,0,2.855,0C64.843,51.238,64.843,51.097,64.843,50.957z"/>
		<path fill="#F07D00" d="M53.45,50.955c0-0.146,0-0.294,0-0.445c-0.479,0-0.94,0-1.401,0c0,0.146,0,0.293,0,0.445
			C52.534,50.955,52.991,50.955,53.45,50.955z"/>
		<rect x="52.045" y="50.506" fill="#F07D00" width="0.002" height="0.006"/>
		<path fill="#F07D00" d="M66.249,50.51c-0.463,0-0.929,0-1.401,0c0,0.15,0,0.297,0,0.445c0.462,0,0.927,0,1.401,0
			C66.249,50.8,66.249,50.655,66.249,50.51z"/>
		<rect x="64.843" y="50.955" fill="#F07D00" width="0.005" height="0.002"/>
		<path fill="#F07D00" d="M62.002,54.419c-0.001-0.148-0.001-0.298-0.002-0.446c-0.065-0.002-0.132-0.005-0.197-0.005
			c-1.758-0.001-3.518-0.001-5.275-0.001c-0.065,0-0.131,0.004-0.197,0.006c0,0.148,0,0.298-0.002,0.446
			C58.221,54.419,60.111,54.419,62.002,54.419z"/>
		<rect x="56.327" y="53.97" fill="#F07D00" width="0.002" height="0.004"/>
		<polygon fill="#F07D00" points="67.674,52.693 67.678,52.695 67.678,52.694 		"/>
		<path fill="#F07D00" d="M68.591,50.876v1.345H67.66c0,0.135,0,0.274,0,0.391c0,0.026,0.012,0.053,0.018,0.08l0,0
			c0-0.026,0.012-0.053,0.018-0.079c-0.002,0-0.004,0-0.004,0l0.004-0.002v0.002c0.467,0,0.934,0,1.417,0c0-0.757,0-1.855,0-2.583
			h-0.018c0,0.024,0,0.056,0,0.079c-0.476,0-0.955,0-1.433,0l-0.002,0.002c0,0.222,0,0.488,0,0.765H68.591z"/>
		<path fill="#F07D00" d="M50.641,50.108l-0.004,0.003L50.641,50.108v0.003h0.012c0-0.025,0-0.057,0-0.081h-0.016
			c0,0.024,0,0.056,0,0.078H50.641z"/>
		<polygon fill="#F07D00" points="50.652,50.028 50.652,50.03 50.658,50.03 		"/>
		<path fill="#F07D00" d="M50.652,52.615c0-0.122,0-0.256,0-0.393h-0.85v-1.345h0.85c0-0.128,0-0.248,0-0.369h-0.012
			c0-0.296,0-0.109,0-0.396h-0.004v-0.002c-0.469-0.001-0.936-0.001-1.418-0.001c0,0.757,0,1.855,0,2.583c0,0,0.012,0,0.018,0
			c0-0.023,0-0.054,0-0.077C49.707,52.615,50.18,52.615,50.652,52.615z"/>
		<path fill="#F07D00" d="M52.059,52.695c-0.47,0-0.93,0-1.389,0c0,0.123,0,0.258,0,0.396c0.48,0,0.936,0,1.389,0
			C52.059,52.803,52.059,52.991,52.059,52.695z"/>
		<path fill="#F07D00" d="M67.674,52.695c-0.458,0-0.917,0-1.403,0c0,0.291,0,0.105,0,0.396c0.464,0,0.928,0,1.403,0
			C67.674,52.792,67.674,52.982,67.674,52.695z"/>
		<rect x="66.267" y="53.091" fill="#F07D00" width="0.004" height="0.002"/>
		<polygon fill="#F07D00" points="67.674,52.693 67.674,52.694 67.676,52.695 		"/>
		<path fill="#F07D00" d="M56.326,53.971c0-0.141,0-0.281,0-0.431c-0.948,0-1.9,0-2.854,0c0,0.143,0,0.285,0,0.431
			C54.442,53.971,55.384,53.971,56.326,53.971z"/>
		<rect x="53.469" y="53.537" fill="#F07D00" width="0.002" height="0.004"/>
		<rect x="62.001" y="53.971" fill="#F07D00" width="0.003" height="0.002"/>
		<path fill="#F07D00" d="M64.859,53.54c-0.775-0.002-1.554-0.004-2.329-0.006c-0.172,0-0.344,0-0.525,0c0,0.151,0,0.294,0,0.438
			c0.946,0,1.894,0,2.854,0C64.859,53.821,64.859,53.681,64.859,53.54z"/>
		<rect x="52.062" y="53.09" fill="#F07D00" width="0.001" height="0.004"/>
		<path fill="#F07D00" d="M53.468,53.538c0-0.146,0-0.293,0-0.445c-0.479,0-0.94,0-1.403,0c0,0.147,0,0.294,0,0.445
			C52.551,53.538,53.009,53.538,53.468,53.538z"/>
		<rect x="64.859" y="53.539" fill="#F07D00" width="0.005" height="0.001"/>
		<path fill="#F07D00" d="M66.267,53.093c-0.465,0-0.929,0-1.402,0c0,0.151,0,0.297,0,0.446c0.463,0,0.926,0,1.402,0
			C66.267,53.384,66.267,53.239,66.267,53.093z"/>
		<rect x="62.017" y="56.556" fill="#F07D00" width="0.005" height="0.001"/>
		<path fill="#F07D00" d="M56.545,56.552c-0.065,0-0.131,0.003-0.197,0.005c0,0.149-0.001,0.297-0.002,0.446
			c1.893,0,3.782,0,5.673,0c0-0.148-0.001-0.296-0.002-0.446c-0.065-0.001-0.131-0.005-0.196-0.005
			C60.062,56.552,58.304,56.552,56.545,56.552z"/>
		<path fill="#F07D00" d="M67.678,52.693v0.002c0,0.215,0,0.473,0,0.741h0.913v1.345h-0.915c0,0.145,0,0.292,0,0.416
			c0.002,0.026,0.012,0.054,0.018,0.08h0.002c0-0.025,0.011-0.053,0.017-0.078h-0.005l0.005-0.002v0.002c0.467,0,0.935,0,1.416,0
			c0-0.758,0-1.855,0-2.585c-0.006,0-0.012,0-0.016,0c0,0.025,0,0.056,0,0.079C68.635,52.693,68.156,52.693,67.678,52.693z"/>
		<polygon fill="#F07D00" points="67.691,55.277 67.695,55.279 67.695,55.278 		"/>
		<path fill="#F07D00" d="M50.67,55.199c0-0.13,0-0.271,0-0.418h-0.867v-1.345h0.867c0-0.119,0-0.231,0-0.344h-0.012
			c0-0.295,0-0.108,0-0.396h-0.006v-0.003c-0.467,0-0.935,0-1.416,0c0,0.757,0,1.857,0,2.585h0.018c0-0.024,0-0.055,0-0.078
			C49.725,55.199,50.197,55.199,50.67,55.199z"/>
		<polygon fill="#F07D00" points="50.67,52.612 50.67,52.615 50.676,52.615 		"/>
		<path fill="#F07D00" d="M50.67,52.615c-0.006,0-0.012,0-0.018,0c0,0.023,0,0.054,0,0.077h0.006l-0.006,0.003l0.006-0.002v0.002
			h0.012C50.67,52.669,50.67,52.638,50.67,52.615z"/>
		<path fill="#F07D00" d="M50.686,55.279c0,0.123,0,0.257,0,0.396c0.482,0,0.937,0,1.391,0c0-0.287,0-0.101,0-0.396
			C51.605,55.279,51.146,55.279,50.686,55.279z"/>
		<rect x="52.078" y="55.673" fill="#F07D00" width="0.002" height="0.006"/>
		<path fill="#F07D00" d="M66.287,55.675c0.464,0,0.927,0,1.404,0c0-0.297,0-0.109,0-0.396c-0.46,0-0.918,0-1.404,0
			C66.287,55.569,66.287,55.385,66.287,55.675z"/>
		<polygon fill="#F07D00" points="67.691,55.279 67.695,55.279 67.691,55.278 		"/>
		<rect x="56.344" y="56.553" fill="#F07D00" width="0.001" height="0.006"/>
		<path fill="#F07D00" d="M53.489,56.124c0,0.143,0,0.285,0,0.432c0.97,0,1.912,0,2.853,0c0-0.141,0-0.282,0-0.432
			C55.396,56.124,54.442,56.124,53.489,56.124z"/>
		<path fill="#F07D00" d="M62.021,56.118c0,0.152,0,0.295,0,0.438c0.947,0,1.895,0,2.855,0c0-0.149,0-0.291,0-0.432
			c-0.777-0.002-1.555-0.004-2.33-0.006C62.375,56.118,62.203,56.118,62.021,56.118z"/>
		<rect x="64.877" y="56.123" fill="#F07D00" width="0.004" height="0.001"/>
		<rect x="53.484" y="56.121" fill="#F07D00" width="0.002" height="0.004"/>
		<path fill="#F07D00" d="M52.082,55.677c0,0.147,0,0.295,0,0.445c0.486,0,0.943,0,1.401,0c0-0.146,0-0.293,0-0.445
			C53.005,55.677,52.544,55.677,52.082,55.677z"/>
		<path fill="#F07D00" d="M64.881,56.123c0.463,0,0.927,0,1.402,0c0-0.155,0-0.301,0-0.446c-0.464,0-0.928,0-1.402,0
			C64.881,55.828,64.881,55.976,64.881,56.123z"/>
		<rect x="66.283" y="55.675" fill="#F07D00" width="0.004" height="0.002"/>
		<path fill="#F07D00" d="M62.035,59.587c0-0.148-0.001-0.298-0.001-0.446c-0.066-0.002-0.132-0.005-0.198-0.005
			c-1.758-0.001-3.516-0.001-5.275-0.001c-0.064,0-0.13,0.004-0.195,0.006c-0.001,0.148-0.002,0.298-0.002,0.446
			C58.254,59.587,60.144,59.587,62.035,59.587z"/>
		<rect x="56.362" y="59.138" fill="#F07D00" width="0.002" height="0.004"/>
		<path fill="#F07D00" d="M69.146,55.199c-0.006,0-0.012,0-0.012,0c-0.006,0.024-0.006,0.055-0.006,0.078c-0.476,0-0.955,0-1.433,0
			v0.002c-0.002,0.208-0.002,0.457-0.002,0.716h0.897v1.345h-0.897c0,0.154,0,0.309,0,0.44c0,0.026,0.012,0.054,0.019,0.08
			c0.478,0,0.956,0,1.434,0C69.146,57.102,69.146,55.95,69.146,55.199z"/>
		<polygon fill="#F07D00" points="67.712,57.862 67.712,57.861 67.709,57.86 		"/>
		<polygon fill="#F07D00" points="50.691,57.86 50.686,57.86 50.686,57.862 50.686,57.862 		"/>
		<polygon fill="#F07D00" points="50.686,55.197 50.686,55.198 50.689,55.199 		"/>
		<path fill="#F07D00" d="M50.686,55.199c-0.005,0-0.01,0-0.016,0c0,0.024,0,0.055,0,0.078c0,0,0.004,0,0.006,0l-0.006,0.002
			l0.006-0.002v0.002c0,0,0.007,0,0.01,0C50.686,55.254,50.686,55.223,50.686,55.199z"/>
		<path fill="#F07D00" d="M49.803,57.34v-1.345h0.883c0-0.111,0-0.215,0-0.32c-0.004,0-0.007,0-0.007,0
			c-0.003-0.294-0.003-0.108-0.003-0.396c-0.002,0-0.004,0-0.004,0l-0.002-0.002c-0.468,0-0.936,0-1.416,0c0,0.757,0,1.855,0,2.583
			c0.487,0,0.96,0,1.432,0c0-0.156,0-0.336,0-0.52H49.803z"/>
		<rect x="50.688" y="57.859" fill="#F07D00" width="0.002" height="0.006"/>
		<path fill="#F07D00" d="M52.094,58.26c0-0.288,0-0.102,0-0.397c-0.475,0-0.938,0-1.402,0c0,0.288,0,0.102,0,0.397
			C51.178,58.26,51.636,58.26,52.094,58.26z"/>
		<rect x="66.3" y="58.26" fill="#F07D00" width="0.004" height="0.002"/>
		<path fill="#F07D00" d="M67.695,57.945c0-0.021,0.007-0.042,0.013-0.063c0-0.008,0-0.009,0-0.018h-0.001l0.001-0.001v-0.002
			c-0.46,0-0.918,0-1.404,0c0,0.292,0,0.106,0,0.397c0.46,0,0.919,0,1.39,0C67.693,58.153,67.693,58.039,67.695,57.945z"/>
		<polygon fill="#F07D00" points="67.712,57.862 67.712,57.862 67.712,57.862 		"/>
		<rect x="67.708" y="57.862" fill="#F07D00" width="0.004" height="0.001"/>
		<path fill="#F07D00" d="M56.359,59.139c0-0.141,0-0.281,0-0.43c-0.946,0-1.9,0-2.854,0c0,0.142,0,0.285,0,0.43
			C54.476,59.139,55.419,59.139,56.359,59.139z"/>
		<rect x="53.503" y="58.706" fill="#F07D00" width="0.002" height="0.004"/>
		<rect x="62.034" y="59.139" fill="#F07D00" width="0.004" height="0.002"/>
		<path fill="#F07D00" d="M64.894,58.709c-0.776-0.002-1.554-0.004-2.33-0.006c-0.173-0.001-0.344,0-0.525,0
			c0,0.151,0,0.293,0,0.436c0.946,0,1.895,0,2.855,0C64.894,58.99,64.894,58.849,64.894,58.709z"/>
		<path fill="#F07D00" d="M53.5,58.707c0-0.147,0-0.294,0-0.445c-0.477,0-0.939,0-1.402,0c0,0.146,0,0.294,0,0.445
			C52.584,58.707,53.043,58.707,53.5,58.707z"/>
		<rect x="52.095" y="58.259" fill="#F07D00" width="0.002" height="0.004"/>
		<rect x="64.894" y="58.707" fill="#F07D00" width="0.005" height="0.001"/>
		<path fill="#F07D00" d="M66.3,58.262c-0.464,0-0.929,0-1.401,0c0,0.15,0,0.298,0,0.445c0.463,0,0.926,0,1.401,0
			C66.3,58.553,66.3,58.406,66.3,58.262z"/>
		<path fill="#F07D00" d="M56.561,61.802c-0.064,0-0.13,0.003-0.196,0.005c0,0.149-0.001,0.298-0.001,0.447c1.889,0,3.78,0,5.672,0
			c-0.001-0.149-0.001-0.298-0.001-0.447c-0.066-0.002-0.132-0.005-0.198-0.005C60.078,61.802,58.32,61.801,56.561,61.802z"/>
		<rect x="62.035" y="61.805" fill="#F07D00" width="0.002" height="0.002"/>
		<polygon fill="#F07D00" points="67.712,57.862 67.712,57.862 67.712,57.862 		"/>
		<polygon fill="#F07D00" points="67.708,57.864 67.708,57.865 67.712,57.865 67.712,57.862 67.712,57.862 		"/>
		<polygon fill="#F07D00" points="67.697,60.447 67.693,60.447 67.695,60.458 		"/>
		<path fill="#F07D00" d="M67.708,58.26c-0.005,0-0.009,0-0.015,0c0,0.099,0,0.188,0,0.295h0.897v1.345h-0.897
			c0,0.196,0,0.385,0,0.548l0.006-0.002l-0.002,0.002c0.474,0,0.947,0,1.435,0c0,0.024,0,0.056,0,0.08c0.004,0,0.01,0,0.014,0
			c0-0.759,0-1.91,0-2.662c-0.489,0-0.962,0-1.434,0c-0.002,0.006-0.002,0.012-0.004,0.018
			C67.708,58.129,67.708,57.972,67.708,58.26z"/>
		<polygon fill="#F07D00" points="50.686,57.862 50.686,57.862 50.686,57.862 		"/>
		<g>
			<polygon fill="#F07D00" points="50.686,60.527 50.686,60.529 50.691,60.527 			"/>
			<polygon fill="#F07D00" points="50.479,60.822 50.473,60.314 51.99,60.314 			"/>
		</g>
		<g>
			<polygon fill="#F07D00" points="50.686,57.862 50.686,57.862 50.686,57.862 50.686,57.862 50.686,57.865 50.691,57.865 			"/>
			<polygon fill="#F07D00" points="50.691,58.078 50.473,58.078 50.473,57.522 51.586,58.075 			"/>
		</g>
		<g>
			<path fill="#F07D00" d="M49.803,59.899v-1.345h0.883c0-0.248,0-0.484,0-0.689c-0.478,0-0.956,0-1.434,0c0,0.734,0,1.83,0,2.582
				c0.474,0,0.948,0,1.422,0v-0.002l0.005,0.002c0,0-0.003,0-0.005,0c0,0.024,0,0.055,0,0.08c0.003,0,0.008,0,0.012,0
				c0-0.188,0-0.402,0-0.628H49.803z"/>
			<path fill="#F07D00" d="M50.899,60.74h-0.438v-0.08H49.04v-3.008h1.859v1.115h-0.885v0.919h0.885v0.609l1.085,0.362l-1.085,0.001
				V60.74z M49.465,60.234h0.996v-0.082l0.012,0.004v-0.044h-0.884v-1.771h0.884v-0.264h-1.008V60.234z"/>
		</g>
		<g>
			<polygon fill="#F07D00" points="50.686,60.529 50.691,60.529 50.691,60.527 			"/>
			<polygon fill="#F07D00" points="50.691,60.742 49.382,60.742 50.899,60.234 50.905,60.74 			"/>
		</g>
		<g>
			<rect x="52.095" y="60.924" fill="#F07D00" width="0.002" height="0.004"/>
			<polygon fill="#F07D00" points="52.098,61.14 51.881,61.14 51.881,60.715 52.306,60.713 52.31,61.138 			"/>
		</g>
		<g>
			<path fill="#F07D00" d="M50.691,60.529c0,0.288,0,0.102,0,0.396c0.486,0,0.943,0,1.402,0c0-0.287,0-0.1,0-0.396
				C51.618,60.529,51.156,60.529,50.691,60.529z"/>
			<rect x="50.479" y="60.316" fill="#F07D00" width="1.827" height="0.822"/>
		</g>
		<g>
			<path fill="#F07D00" d="M66.304,60.529c0,0.291,0,0.106,0,0.397c0.456,0,0.91,0,1.378,0c0-0.137,0-0.279,0-0.397
				C67.23,60.529,66.781,60.529,66.304,60.529z"/>
			<rect x="66.092" y="60.316" fill="#F07D00" width="1.801" height="0.823"/>
		</g>
		<g>
			<rect x="56.361" y="61.804" fill="#F07D00" width="0.001" height="0.005"/>
			<polygon fill="#F07D00" points="56.364,62.02 55.463,62.02 56.364,61.593 56.364,61.796 56.455,61.617 56.364,61.807 			"/>
		</g>
		<g>
			<path fill="#F07D00" d="M53.506,61.375c0,0.143,0,0.285,0,0.431c0.97,0,1.911,0,2.854,0c0-0.14,0-0.282,0-0.431
				C55.411,61.375,54.459,61.375,53.506,61.375z"/>
			<path fill="#F07D00" d="M56.571,62.019h-3.277v-0.857h3.277V62.019z M53.719,61.593l2.428-0.006L53.719,61.593z"/>
		</g>
		<g>
			<rect x="64.893" y="61.374" fill="#F07D00" width="0.006" height="0.001"/>
			<polygon fill="#F07D00" points="64.898,61.587 63.996,61.587 64.898,61.161 64.898,61.362 64.987,61.184 64.898,61.375 			"/>
		</g>
		<g>
			<path fill="#F07D00" d="M62.038,61.369c0,0.152,0,0.295,0,0.437c0.946,0,1.895,0,2.854,0c0-0.149,0-0.29,0-0.431
				c-0.775-0.002-1.554-0.004-2.329-0.005C62.391,61.369,62.22,61.369,62.038,61.369z"/>
			<path fill="#F07D00" d="M65.105,62.019h-3.281v-0.863l3.264,0.007l0.018,0.212V62.019z M62.251,61.593l2.428-0.007l-2.428-0.005
				V61.593z"/>
		</g>
		<g>
			<rect x="53.502" y="61.371" fill="#F07D00" width="0.001" height="0.006"/>
			<polygon fill="#F07D00" points="53.506,61.587 52.605,61.587 53.506,61.161 53.506,61.362 53.595,61.184 53.506,61.375 			"/>
		</g>
		<g>
			<path fill="#F07D00" d="M52.098,60.927c0,0.147,0,0.295,0,0.446c0.486,0,0.945,0,1.402,0c0-0.147,0-0.294,0-0.446
				C53.023,60.927,52.561,60.927,52.098,60.927z"/>
			<path fill="#F07D00" d="M53.713,61.586h-1.826v-0.872h1.826V61.586z M52.31,61.161l0.979-0.021L52.31,61.161z"/>
		</g>
		<g>
			<rect x="66.3" y="60.926" fill="#F07D00" width="0.004" height="0.001"/>
			<polygon fill="#F07D00" points="66.304,61.14 65.79,61.14 66.211,60.715 66.304,60.714 66.304,60.922 66.45,60.777 
				66.304,60.927 			"/>
		</g>
		<g>
			<path fill="#F07D00" d="M64.898,61.374c0.463,0,0.926,0,1.401,0c0-0.155,0-0.301,0-0.446c-0.465,0-0.929,0-1.401,0
				C64.898,61.079,64.898,61.226,64.898,61.374z"/>
			<path fill="#F07D00" d="M66.513,61.586h-1.828v-0.872h1.828V61.586z M65.111,61.161l0.977-0.021L65.111,61.161z"/>
		</g>
		<g>
			<path fill="#F07D00" d="M67.682,60.529c0.008,0,0.018,0,0.026,0v-0.001l0.004,0.001l-0.004-0.002h0.004
				c-0.006-0.022-0.015-0.046-0.017-0.069c-0.006,0.023-0.014,0.046-0.014,0.069C67.682,60.528,67.682,60.528,67.682,60.529z"/>
			<polygon fill="#F07D00" points="69.528,61.203 67.676,60.739 67.518,60.739 67.5,60.661 66.81,60.314 67.516,60.314 67.806,59.3 
				67.902,60.388 			"/>
		</g>
	</g>
</g>
<g id="Layer_2">
	<path fill="#F07D00" d="M42.5,5.997c20.129,0,36.503,16.375,36.503,36.503c0,20.127-16.374,36.502-36.503,36.502
		c-20.127,0-36.503-16.375-36.503-36.502C5.997,22.372,22.373,5.997,42.5,5.997 M42.5,0C19.028,0,0,19.027,0,42.5
		C0,65.971,19.028,85,42.5,85C65.973,85,85,65.971,85,42.5C85,19.027,65.973,0,42.5,0L42.5,0z"/>
</g>
</svg>
