<?xml version="1.0" encoding="utf-8"?>
<!-- Generator: Adobe Illustrator 16.0.0, SVG Export Plug-In . SVG Version: 6.00 Build 0)  -->
<!DOCTYPE svg PUBLIC "-//W3C//DTD SVG 1.1//EN" "http://www.w3.org/Graphics/SVG/1.1/DTD/svg11.dtd">
<svg version="1.1" xmlns="http://www.w3.org/2000/svg" xmlns:xlink="http://www.w3.org/1999/xlink" x="0px" y="0px" width="85px"
	 height="85px" viewBox="0 0 85 85" enable-background="new 0 0 85 85" xml:space="preserve">
<g id="Layer_1">
	<g>
		<path fill="#F07D00" d="M53.1,58.734H32.315V33.502l0,0v-7.833h20.783v12.797h2.789V25.291c0-3.528-2.586-6.429-5.898-6.777
			c-0.222-0.023-0.446-0.035-0.673-0.035h-8.176h-5.044c-3.629,0-6.569,3.049-6.569,6.813v8.211v25.544
			c0,3.528,2.584,6.429,5.898,6.777c0.221,0.023,0.444,0.035,0.671,0.035h8.556h4.664c3.629,0,6.571-3.049,6.571-6.812v-2.292H53.1
			V58.734z M39.241,22.06h6.931v1.264h-6.931V22.06z M42.68,64.048c-1.137,0-2.059-0.925-2.059-2.065
			c0-1.14,0.922-2.064,2.059-2.064c1.138,0,2.059,0.925,2.059,2.064C44.738,63.123,43.817,64.048,42.68,64.048z"/>
		<path fill="#F07D00" d="M37.412,40.554l9.626,6.55c0.361,0.261,0.835,0.398,1.353,0.401c0.508-0.003,0.983-0.143,1.335-0.394
			l9.638-6.557c-0.185-0.09-0.382-0.152-0.6-0.165l-20.666-0.002C37.851,40.387,37.624,40.456,37.412,40.554z"/>
		<path fill="#F07D00" d="M59.959,41.491l-0.029,0.021l-9.638,6.558c-0.498,0.358-1.179,0.566-1.898,0.567h-0.006
			c-0.731-0.001-1.403-0.206-1.936-0.589l-9.605-6.535l-0.031-0.021c-0.07,0.206-0.117,0.423-0.117,0.65v10.424
			c0,1.112,0.906,2.021,2.015,2.021h19.349c1.108,0,2.017-0.909,2.017-2.021V42.142C60.078,41.914,60.031,41.697,59.959,41.491z
			 M44.605,48.917l-5.791,4.351c-0.08,0.06-0.174,0.089-0.27,0.089c-0.143,0-0.273-0.064-0.358-0.18
			c-0.073-0.095-0.104-0.213-0.087-0.334c0.018-0.119,0.081-0.225,0.176-0.294l5.794-4.35c0.079-0.06,0.171-0.091,0.27-0.091
			c0.14,0,0.275,0.067,0.359,0.18c0.07,0.1,0.101,0.215,0.083,0.336C44.765,48.742,44.702,48.846,44.605,48.917z M58.694,53.167
			c-0.086,0.115-0.218,0.182-0.36,0.182c-0.095,0-0.188-0.03-0.267-0.088L52.1,48.81c-0.197-0.147-0.239-0.428-0.094-0.627
			c0.087-0.117,0.217-0.184,0.361-0.184c0.096,0,0.189,0.031,0.268,0.09l5.967,4.447c0.098,0.074,0.16,0.178,0.176,0.298
			C58.794,52.952,58.766,53.071,58.694,53.167z"/>
	</g>
</g>
<g id="Layer_2">
	<path fill="#F07D00" d="M42.5,5.997c20.129,0,36.503,16.375,36.503,36.503c0,20.127-16.374,36.502-36.503,36.502
		c-20.127,0-36.503-16.375-36.503-36.502C5.997,22.372,22.373,5.997,42.5,5.997 M42.5,0C19.028,0,0,19.027,0,42.5
		C0,65.971,19.028,85,42.5,85C65.973,85,85,65.971,85,42.5C85,19.027,65.973,0,42.5,0L42.5,0z"/>
</g>
</svg>
