<?xml version="1.0" encoding="utf-8"?>
<!-- Generator: Adobe Illustrator 16.0.0, SVG Export Plug-In . SVG Version: 6.00 Build 0)  -->
<!DOCTYPE svg PUBLIC "-//W3C//DTD SVG 1.1//EN" "http://www.w3.org/Graphics/SVG/1.1/DTD/svg11.dtd">
<svg version="1.1" xmlns="http://www.w3.org/2000/svg" xmlns:xlink="http://www.w3.org/1999/xlink" x="0px" y="0px" width="85px"
	 height="85px" viewBox="0 0 85 85" enable-background="new 0 0 85 85" xml:space="preserve">
<g id="Layer_1">
	<g>
		<polygon fill="#F07D00" points="28.479,64.312 28.479,44.464 22.217,51.044 22.217,64.312 		"/>
	</g>
	<g>
		<g>
			<polygon fill="#F07D00" points="37.97,64.312 37.97,45.401 31.707,42.478 31.707,64.312 			"/>
		</g>
	</g>
	<g>
		<polygon fill="#F07D00" points="47.461,64.312 47.461,49.775 41.197,46.851 41.197,64.312 		"/>
	</g>
	<g>
		<polygon fill="#F07D00" points="56.951,64.312 56.951,34.834 50.688,45.801 50.688,64.312 		"/>
	</g>
	<g>
		<polygon fill="#F07D00" points="21.251,48.212 19.192,46.031 30.495,35.36 45.325,41.816 57.971,21.356 60.523,22.934 
			46.511,45.604 31.114,38.901 		"/>
	</g>
	<g>
		<polygon fill="#F07D00" points="51.159,25.052 56.409,23.826 51.83,31.287 54.448,32.776 59.028,25.313 60.444,30.332 
			63.359,29.65 60.601,19.869 50.374,22.263 		"/>
	</g>
</g>
<g id="Layer_2">
	<path fill="#F07D00" d="M42.5,5.997c20.129,0,36.503,16.375,36.503,36.503c0,20.127-16.374,36.502-36.503,36.502
		c-20.127,0-36.503-16.375-36.503-36.502C5.997,22.372,22.373,5.997,42.5,5.997 M42.5,0C19.028,0,0,19.027,0,42.5
		C0,65.971,19.028,85,42.5,85C65.973,85,85,65.971,85,42.5C85,19.027,65.973,0,42.5,0L42.5,0z"/>
</g>
</svg>
