<?xml version="1.0" encoding="utf-8"?>
<!-- Generator: Adobe Illustrator 16.0.0, SVG Export Plug-In . SVG Version: 6.00 Build 0)  -->
<!DOCTYPE svg PUBLIC "-//W3C//DTD SVG 1.1//EN" "http://www.w3.org/Graphics/SVG/1.1/DTD/svg11.dtd">
<svg version="1.1" xmlns="http://www.w3.org/2000/svg" xmlns:xlink="http://www.w3.org/1999/xlink" x="0px" y="0px" width="85px"
	 height="85px" viewBox="0 0 85 85" enable-background="new 0 0 85 85" xml:space="preserve">
<g id="Layer_1">
	<g>
		<path fill="#F07D00" d="M39.394,53.311c1.521,0,2.571,1.188,2.571,2.927c0,1.731-1.064,2.927-2.62,2.927h-2.032v-5.854H39.394z
			 M38.543,57.977h0.878c0.754,0,1.293-0.702,1.293-1.731c0-1.037-0.567-1.748-1.348-1.748h-0.823V57.977z"/>
		<path fill="#F07D00" d="M46.971,56.706c0,1.547-0.851,2.525-2.205,2.525c-1.362,0-2.232-0.979-2.232-2.525v-3.395h1.229v3.395
			c0,0.794,0.422,1.279,1.01,1.279c0.58,0,0.975-0.485,0.975-1.279v-3.395h1.224V56.706z"/>
		<path fill="#F07D00" d="M50.055,57.517h-0.034h-0.934v1.647h-1.23v-5.854h2.164c1.278,0,2.012,0.736,2.012,2.041
			c0,0.895-0.312,1.539-0.878,1.881l1.016,1.932h-1.396L50.055,57.517z M50.021,56.346c0.532,0,0.843-0.326,0.843-0.945
			c0-0.61-0.311-0.92-0.843-0.92h-0.934v1.865H50.021z"/>
		<path fill="#F07D00" d="M54.093,54.481v1.162h2.309v1.171h-2.309v1.179h2.634v1.171h-3.864v-5.854h3.788v1.171H54.093z
			 M55.089,52.801h-0.913l0.733-1.405l1.078,0.46L55.089,52.801z"/>
		<path fill="#F07D00" d="M58.753,54.481v1.162h2.309v1.171h-2.309v1.179h2.634v1.171h-3.864v-5.854h3.788v1.171H58.753z"/>
		<path fill="#F07D00" d="M45.637,69.798h-2.58l-1.83-2.708l-1.829,2.708H36.89l3.029-4.348l-2.835-4.154h2.508l1.635,2.478
			l1.636-2.478h2.532l-2.799,4.057L45.637,69.798z"/>
		<path fill="#F07D00" d="M54.53,69.798h-2.58l-1.83-2.708l-1.829,2.708h-2.508l3.029-4.348l-2.835-4.154h2.508l1.635,2.478
			l1.636-2.478h2.532l-2.799,4.057L54.53,69.798z"/>
		<path fill="#F07D00" d="M61.219,67.989v1.81h-5.755v-8.502h2.157v6.693H61.219z"/>
	</g>
	<path fill="#F07D00" d="M44.21,47.795c2.435-0.813,4.462-1.953,6.086-3.418c1.621-1.464,2.839-3.214,3.651-5.249
		c0.811-2.035,1.216-4.273,1.216-6.714c0-2.349-0.382-4.511-1.147-6.487c-0.765-1.976-1.947-3.674-3.547-5.092
		c-1.6-1.419-3.628-2.524-6.085-3.313c-2.458-0.79-5.367-1.186-8.728-1.186H22.467v7.254v43.179h7.246V49.016h5.943
		C38.925,49.016,41.775,48.609,44.21,47.795z M29.713,23.59h7.025c1.715,0,3.211,0.203,4.485,0.61
		c1.274,0.407,2.33,0.995,3.165,1.762c0.835,0.767,1.461,1.697,1.877,2.791c0.418,1.092,0.626,2.313,0.626,3.662
		c0,1.419-0.208,2.704-0.626,3.854c-0.416,1.151-1.042,2.127-1.877,2.929s-1.891,1.419-3.165,1.848
		c-1.274,0.431-2.771,0.645-4.485,0.645h-7.025V23.59z"/>
</g>
<g id="Layer_2">
	<path fill="#F07D00" d="M42.5,5.997c20.129,0,36.503,16.375,36.503,36.503c0,20.127-16.374,36.502-36.503,36.502
		c-20.127,0-36.503-16.375-36.503-36.502C5.997,22.372,22.373,5.997,42.5,5.997 M42.5,0C19.028,0,0,19.027,0,42.5
		C0,65.971,19.028,85,42.5,85C65.973,85,85,65.971,85,42.5C85,19.027,65.973,0,42.5,0L42.5,0z"/>
</g>
</svg>
