<?xml version="1.0" encoding="utf-8"?>
<!-- Generator: Adobe Illustrator 16.0.0, SVG Export Plug-In . SVG Version: 6.00 Build 0)  -->
<!DOCTYPE svg PUBLIC "-//W3C//DTD SVG 1.1//EN" "http://www.w3.org/Graphics/SVG/1.1/DTD/svg11.dtd">
<svg version="1.1" id="Layer_1" xmlns="http://www.w3.org/2000/svg" xmlns:xlink="http://www.w3.org/1999/xlink" x="0px" y="0px"
	 width="11px" height="19px" viewBox="0 0 11 19" enable-background="new 0 0 11 19" xml:space="preserve">
<path fill="#666666" d="M3.46,9.326l7.098-6.854c0.273-0.263,0.43-0.621,0.441-1.005c0.01-0.386-0.125-0.751-0.385-1.03
	c-0.514-0.558-1.447-0.585-1.992-0.058l-8.181,7.9C0.161,8.549,0,8.93,0,9.326c0,0.395,0.161,0.777,0.441,1.047l8.182,7.9
	c0.264,0.254,0.606,0.394,0.968,0.394c0.386,0,0.759-0.165,1.024-0.453c0.533-0.576,0.508-1.49-0.057-2.035L3.46,9.326z"/>
</svg>
