<?xml version="1.0" encoding="utf-8"?>
<!-- Generator: Adobe Illustrator 16.0.0, SVG Export Plug-In . SVG Version: 6.00 Build 0)  -->
<!DOCTYPE svg PUBLIC "-//W3C//DTD SVG 1.1//EN" "http://www.w3.org/Graphics/SVG/1.1/DTD/svg11.dtd">
<svg version="1.1" id="Layer_1" xmlns="http://www.w3.org/2000/svg" xmlns:xlink="http://www.w3.org/1999/xlink" x="0px" y="0px"
	 width="64px" height="43px" viewBox="0 0 64 43" enable-background="new 0 0 64 43" xml:space="preserve">
<g>
	<path d="M2.996,43C1.348,43,0,41.65,0,40.001V2.999C0,1.35,1.348,0,2.996,0h58.009C62.652,0,64,1.35,64,2.999v37.003
		C64,41.65,62.652,43,61.004,43H2.996z"/>
	<path fill-rule="evenodd" clip-rule="evenodd" fill="#FFFFFF" d="M63.125,38.916c0,1.649-1.353,2.999-3.006,2.999H4.087
		c-1.654,0-3.006-1.35-3.006-2.999V4.083c0-1.649,1.353-2.999,3.006-2.999h56.031c1.654,0,3.006,1.35,3.006,2.999V38.916z"/>
	<polygon fill-rule="evenodd" clip-rule="evenodd" points="23.295,28.13 27.287,14.917 30.849,14.917 26.856,28.13 23.295,28.13 	
		"/>
	<path fill-rule="evenodd" clip-rule="evenodd" d="M21.703,14.921L18.5,20.522c-0.815,1.467-1.293,2.208-1.522,3.134h-0.048
		c0.057-1.175-0.106-2.619-0.122-3.434l-0.354-5.302h-5.995l-0.062,0.354c1.541,0,2.454,0.777,2.706,2.367L14.27,28.13h3.69
		l7.46-13.209H21.703L21.703,14.921z"/>
	<path fill-rule="evenodd" clip-rule="evenodd" d="M49.857,28.13l-0.099-1.965l-4.489-0.003l-0.918,1.968h-3.904l7.078-13.188h4.79
		l1.2,13.188H49.857L49.857,28.13z M49.445,20.336c-0.041-0.977-0.074-2.302-0.007-3.104h-0.053
		c-0.219,0.656-1.159,2.626-1.572,3.596l-1.337,2.896h3.152L49.445,20.336L49.445,20.336z"/>
	<path fill-rule="evenodd" clip-rule="evenodd" d="M34.587,28.507c-2.514,0-4.183-0.802-5.374-1.515l1.696-2.602
		c1.069,0.6,1.91,1.293,3.842,1.293c0.621,0,1.219-0.162,1.56-0.752c0.495-0.86-0.114-1.322-1.506-2.113l-0.687-0.448
		c-2.063-1.416-2.954-2.759-1.983-5.106c0.622-1.5,2.26-2.637,4.963-2.637c1.864,0,3.612,0.809,4.63,1.601l-1.95,2.296
		c-0.994-0.806-1.817-1.215-2.761-1.215c-0.752,0-1.322,0.291-1.519,0.684c-0.372,0.738,0.119,1.241,1.204,1.917l0.817,0.52
		c2.504,1.587,3.102,3.248,2.473,4.804C38.911,27.909,36.798,28.507,34.587,28.507L34.587,28.507z"/>
	<polygon fill-rule="evenodd" clip-rule="evenodd" points="61.597,32.234 2.718,32.234 2.718,40.069 61.597,40.069 61.597,32.234 	
		"/>
	<polygon fill-rule="evenodd" clip-rule="evenodd" points="61.489,3.039 2.61,3.039 2.61,10.874 61.489,10.874 61.489,3.039 	"/>
</g>
</svg>
