<?xml version="1.0" encoding="utf-8"?>
<!-- Generator: Adobe Illustrator 16.0.0, SVG Export Plug-In . SVG Version: 6.00 Build 0)  -->
<!DOCTYPE svg PUBLIC "-//W3C//DTD SVG 1.1//EN" "http://www.w3.org/Graphics/SVG/1.1/DTD/svg11.dtd">
<svg version="1.1" id="Layer_1" xmlns="http://www.w3.org/2000/svg" xmlns:xlink="http://www.w3.org/1999/xlink" x="0px" y="0px"
	 width="251.156px" height="66.222px" viewBox="0 0 251.156 66.222" enable-background="new 0 0 251.156 66.222"
	 xml:space="preserve">
<g>
	<rect x="128.536" y="3.08" fill-rule="evenodd" clip-rule="evenodd" fill="#DCDCDC" width="10.063" height="10.996"/>
	<rect x="128.536" y="28.984" fill-rule="evenodd" clip-rule="evenodd" fill="#DCDCDC" width="10.063" height="10.997"/>
	<rect x="13.037" y="3.08" fill-rule="evenodd" clip-rule="evenodd" fill="#DCDCDC" width="10.063" height="10.996"/>
	<rect x="59.235" y="3.08" fill-rule="evenodd" clip-rule="evenodd" fill="#DCDCDC" width="10.063" height="10.996"/>
	<rect x="82.338" y="3.08" fill-rule="evenodd" clip-rule="evenodd" fill="#DCDCDC" width="10.062" height="10.996"/>
	<rect x="13.037" y="28.984" fill-rule="evenodd" clip-rule="evenodd" fill="#DCDCDC" width="10.063" height="10.997"/>
	<rect y="3.08" fill="#2864AA" width="13.039" height="57.865"/>
	<rect x="23.098" y="3.08" fill="#00A0DC" width="13.037" height="57.865"/>
	<rect x="46.198" y="3.08" fill="#0AAFAF" width="13.037" height="57.865"/>
	<rect x="69.299" y="3.08" fill="#BEBE00" width="13.039" height="57.865"/>
	<rect x="92.398" y="3.08" fill="#FAB400" width="13.038" height="57.865"/>
	<rect x="115.5" y="3.08" fill="#F07D00" width="13.036" height="57.865"/>
	<rect x="138.599" y="3.08" fill="#E65028" width="13.038" height="36.901"/>
	<path fill-rule="evenodd" clip-rule="evenodd" d="M222.58,21.599h3.142v3.144h-3.142V21.599z M246.812,59.275
		c0.929,0,1.369-0.604,1.369-1.396V56.73h2.918v0.961c0,2.858-2.199,3.569-4.276,3.569c-3.234,0-4.504-1.575-4.504-4.268v-5.82
		c0-1.677,0.604-2.601,1.495-3.188c0.817-0.545,1.976-0.783,2.979-0.783c1.308,0,2.572,0.394,3.416,1.172
		c0.781,0.767,0.947,1.847,0.947,2.64v3.929h-5.748v2.938C245.408,58.679,245.885,59.274,246.812,59.275 M248.181,50.57
		c0-0.799-0.476-1.396-1.405-1.396c-0.928,0-1.367,0.603-1.367,1.396v2.396h2.772V50.57z M246.812,38.316
		c0.929,0,1.369-0.604,1.369-1.396v-1.149h2.918v0.962c0,2.86-2.199,3.569-4.276,3.569c-3.234,0-4.504-1.575-4.504-4.267v-5.822
		c0-1.677,0.604-2.599,1.495-3.188c0.817-0.545,1.976-0.783,2.979-0.783c1.308,0,2.572,0.396,3.416,1.171
		c0.781,0.768,0.947,1.848,0.947,2.639v3.931h-5.748v2.938C245.408,37.718,245.885,38.315,246.812,38.316 M248.181,29.61
		c0-0.798-0.476-1.395-1.405-1.395c-0.928,0-1.367,0.603-1.367,1.395v2.395h2.772V29.61z M209.871,59.275
		c0.926,0,1.367-0.604,1.367-1.396V56.73h2.92v0.961c0,2.858-2.201,3.569-4.279,3.569c-3.232,0-4.502-1.575-4.502-4.268v-5.82
		c0-1.677,0.603-2.601,1.494-3.188c0.819-0.545,1.978-0.783,2.981-0.783c1.308,0,2.567,0.394,3.413,1.172
		c0.781,0.767,0.947,1.847,0.947,2.64v3.929h-5.746v2.938C208.467,58.679,208.942,59.274,209.871,59.275 M211.238,50.57
		c0-0.799-0.476-1.396-1.404-1.396c-0.928,0-1.367,0.603-1.367,1.396v2.396h2.771V50.57z M214.92,38.316
		c0.929,0,1.369-0.604,1.369-1.396v-1.149h2.918v0.962c0,2.86-2.201,3.569-4.276,3.569c-3.231,0-4.504-1.575-4.504-4.267v-5.822
		c0-1.677,0.604-2.599,1.495-3.188c0.82-0.545,1.978-0.783,2.981-0.783c1.304,0,2.569,0.396,3.414,1.171
		c0.779,0.768,0.947,1.848,0.947,2.639v3.931h-5.748v2.938C213.517,37.718,213.994,38.315,214.92,38.316 M216.289,29.61
		c0-0.798-0.476-1.395-1.405-1.395c-0.927,0-1.367,0.603-1.367,1.395v2.395h2.772V29.61z M235.037,47.201
		c3.998,0,4.474,2.293,4.474,3.969v1.16h-3.132v-1.748c0-0.789-0.493-1.379-1.414-1.379c-0.918,0-1.389,0.592-1.389,1.379v7.285
		c0,0.789,0.471,1.379,1.389,1.379c0.921,0,1.414-0.586,1.414-1.379v-1.746h3.132v1.158c0,1.68-0.476,3.97-4.474,3.97
		c-4.012,0-4.594-2.301-4.594-3.97V51.17C230.443,49.502,231.025,47.201,235.037,47.201 M222.348,47.201
		c4,0,4.477,2.293,4.477,3.969v9.776h-3.132V50.582c0-0.789-0.493-1.379-1.413-1.379c-0.919,0-1.391,0.592-1.391,1.379v10.364
		h-3.133V51.17C217.756,49.502,218.338,47.201,222.348,47.201 M186.119,47.201c3.887,0,4.351,2.228,4.351,3.858v6.343
		c0,1.63-0.464,3.858-4.351,3.858c-3.899,0-4.463-2.236-4.463-3.858V51.06C181.656,49.438,182.22,47.201,186.119,47.201
		 M184.736,50.545v7.363c0,0.771,0.469,1.341,1.364,1.341c0.894,0,1.301-0.574,1.301-1.341v-7.363c0-0.771-0.456-1.342-1.352-1.342
		C185.158,49.203,184.736,49.779,184.736,50.545 M177.308,50.021c-0.093,0.206-0.138,0.429-0.158,0.641
		c-0.024,0.211-0.024,0.415-0.024,0.584v9.7h-3.129v-9.674c0-0.924,0.195-1.885,0.793-2.583c0.875-1.063,2.332-1.488,3.781-1.488
		h1.176v2.082h-1.147C177.873,49.283,177.496,49.604,177.308,50.021 M161.58,51.06c0-1.622,0.563-3.858,4.461-3.858
		c3.89,0,4.353,2.228,4.353,3.858v6.343c0,1.63-0.463,3.858-4.353,3.858c-0.439,0-0.957-0.084-1.323-0.264v5.225h-3.138V51.06z
		 M164.662,50.545v7.363c0,0.771,0.467,1.341,1.362,1.341c0.894,0,1.302-0.574,1.302-1.341v-7.363c0-0.771-0.457-1.342-1.351-1.342
		S164.662,49.779,164.662,50.545 M232.545,39.981h-3.131V21.599h3.131V39.981z M195.3,29.058c-0.093,0.205-0.136,0.428-0.158,0.64
		c-0.021,0.211-0.021,0.414-0.021,0.583v9.701h-3.133v-9.673c0-0.925,0.195-1.888,0.793-2.585c0.875-1.063,2.334-1.487,3.781-1.487
		h1.02v2.082h-0.992C195.867,28.318,195.488,28.64,195.3,29.058 M180.455,27.252c0.679-0.643,1.943-1.016,3.595-1.016
		c0.696,0,1.665,0.08,2.518,0.498c1.45,0.7,1.664,1.836,1.664,2.425v10.822h-2.741h-3.326c-2.739,0-2.748-2.171-2.748-3.5
		c0-1.221,0.002-1.844,0.267-2.443c0.261-0.587,1.028-1.105,1.875-1.542c3.262-1.672,3.542-1.819,3.542-1.819l-0.001-1.166
		c0-0.73-0.425-1.272-1.274-1.272c-0.847,0-1.246,0.545-1.246,1.272l-0.002,1.05h-2.877
		C179.699,28.568,179.715,27.955,180.455,27.252 M183.194,34.148c-0.721,0.455-0.804,0.846-0.804,2.075
		c0,1.057,0.195,1.677,0.927,1.677h1.781v-4.774L183.194,34.148z M209.842,6.938c0-1.621,0.566-3.857,4.464-3.857
		c3.887,0,4.351,2.229,4.351,3.857v6.344c0,1.631-0.464,3.858-4.351,3.858c-0.442,0-0.959-0.084-1.326-0.263v5.224h-3.138V6.938z
		 M212.924,6.425v7.362c0,0.771,0.469,1.341,1.363,1.341c0.894,0.001,1.301-0.574,1.301-1.341V6.425
		c0-0.771-0.455-1.341-1.351-1.341C213.345,5.082,212.924,5.657,212.924,6.425 M227.369,3.08c3.887,0,4.349,2.229,4.349,3.857v6.344
		c0,1.631-0.462,3.858-4.349,3.858c-3.899,0-4.465-2.237-4.465-3.858V6.938C222.904,5.316,223.47,3.08,227.369,3.08 M225.987,6.425
		v7.362c0,0.771,0.468,1.341,1.363,1.341c0.894,0.001,1.301-0.574,1.301-1.341V6.425c0-0.771-0.456-1.341-1.352-1.341
		C226.408,5.082,225.987,5.657,225.987,6.425 M201.244,3.08c3.885,0,4.349,2.229,4.349,3.857v6.344c0,1.631-0.464,3.858-4.349,3.858
		c-3.9,0-4.466-2.237-4.466-3.858V6.938C196.778,5.316,197.344,3.08,201.244,3.08 M199.86,6.425v7.362
		c0,0.771,0.47,1.341,1.365,1.341c0.892,0.001,1.299-0.574,1.299-1.341V6.425c0-0.771-0.455-1.341-1.35-1.341
		C200.283,5.082,199.86,5.657,199.86,6.425 M179.779,15.154c0.926,0,1.368-0.603,1.368-1.394v-1.151h2.918l0.001,0.961
		c0,2.858-2.201,3.569-4.277,3.569c-3.233,0-4.502-1.575-4.502-4.268v-5.82c0-1.679,0.602-2.6,1.494-3.188
		c0.817-0.545,1.977-0.783,2.979-0.783c1.307,0,2.569,0.396,3.414,1.17c0.78,0.768,0.946,1.849,0.946,2.642v3.929h-5.748v2.94
		C178.373,14.558,178.851,15.154,179.779,15.154 M181.147,6.447c0-0.797-0.478-1.394-1.403-1.394c-0.929,0-1.371,0.603-1.371,1.394
		v2.397h2.774V6.447z M239.358,5.902c-0.092,0.203-0.136,0.428-0.157,0.639c-0.022,0.211-0.023,0.414-0.023,0.584v9.699h-3.133
		V7.151c0-0.924,0.197-1.887,0.793-2.583c0.877-1.064,2.334-1.488,3.785-1.488h0.974v2.082h-0.947
		C239.925,5.162,239.545,5.482,239.358,5.902 M191.686,5.902c-0.091,0.203-0.136,0.428-0.157,0.639
		c-0.022,0.211-0.022,0.414-0.022,0.584v9.699h-3.131V7.151c0-0.924,0.197-1.887,0.793-2.583c0.875-1.064,2.332-1.488,3.783-1.488
		h1.137v2.082h-1.109C192.252,5.162,191.873,5.482,191.686,5.902 M225.722,39.981h-3.142V26.515h3.142V39.981z M162.818,4.097
		c0.678-0.645,1.941-1.017,3.592-1.017c0.698,0,1.668,0.08,2.519,0.498c1.448,0.7,1.608,1.835,1.608,2.426v10.82h-6.209
		c-2.742,0-2.748-2.17-2.748-3.5c0-1.222,0-1.844,0.266-2.442c0.26-0.589,0.997-1.166,1.857-1.574l3.756-1.788V6.354
		c0-0.73-0.424-1.272-1.274-1.272c-0.849,0-1.246,0.545-1.246,1.272v1.05h-2.878C162.061,5.412,162.078,4.8,162.818,4.097
		 M165.356,10.99c-0.722,0.457-0.805,0.847-0.805,2.078c0,1.057,0.196,1.676,0.926,1.676h1.981V9.97L165.356,10.99z M167.392,28.599
		h-1.461c-1.113,0-1.222,0.989-1.222,1.748v9.635h-3.129v-9.639c0-2.7,1.299-3.828,3.658-3.828h7.275c2.357,0,3.65,1.128,3.65,3.828
		v9.639h-3.129v-9.635c0-0.759-0.108-1.748-1.221-1.748h-1.462v11.383h-2.961V28.599z M239.178,39.981h-3.133V21.599h3.133V39.981z
		 M201.817,36.502c0,1.113,0.289,1.759,1.416,1.759c0.779,0,1.386-0.377,1.386-1.589c0-0.818-0.065-1.28-1.033-1.907l-2.825-1.866
		c-0.193-0.129-0.705-0.578-0.931-0.84c-0.358-0.388-0.78-0.932-0.78-2.376c0-2.814,1.936-3.446,4.325-3.446
		c2.944,0,4.098,1.18,4.098,3.072v1.284h-2.796c-0.002-0.334-0.005-0.57-0.021-0.832c-0.019-0.304-0.058-0.569-0.138-0.789
		c-0.166-0.452-0.504-0.694-1.144-0.694c-0.5,0-1.271,0.09-1.271,1.297c0,0.394,0.036,0.924,1.004,1.552l3.111,2.051
		c0.195,0.131,0.816,0.713,0.923,0.887c0.385,0.513,0.474,1.213,0.474,2.092c0,0.87-0.002,1.898-0.553,2.714
		c-0.545,0.808-1.645,1.424-3.887,1.424c-3.612,0-4.354-1.696-4.354-3.552v-1.145h2.995V36.502z M195.849,47.479l1.974,10.347h0.109
		l1.972-10.347h3.241l-3.227,13.472h-4.084l-3.256-13.472H195.849z M177.871,0h3.758v1.782h-3.758V0z M245.31,5.162h-1.554V3.08
		h1.554V0.578h3.131V3.08h1.997v2.082h-1.997v8.058c0,1.297,0.509,1.838,1.472,1.838h1.244v2.082h-1.272
		c-1.447,0-2.906-0.424-3.781-1.489c-0.599-0.695-0.793-1.658-0.793-2.582V5.162z"/>
</g>
</svg>
