<?xml version="1.0" encoding="utf-8"?>
<!-- Generator: Adobe Illustrator 16.0.0, SVG Export Plug-In . SVG Version: 6.00 Build 0)  -->
<!DOCTYPE svg PUBLIC "-//W3C//DTD SVG 1.1//EN" "http://www.w3.org/Graphics/SVG/1.1/DTD/svg11.dtd">
<svg version="1.1" id="Layer_1" xmlns="http://www.w3.org/2000/svg" xmlns:xlink="http://www.w3.org/1999/xlink" x="0px" y="0px"
	 width="192.43px" height="78.852px" viewBox="0 0 192.43 78.852" enable-background="new 0 0 192.43 78.852" xml:space="preserve">
<g>
	<g>
		<g>
			<g>
				<path d="M19.341,68.589c-0.058,0.128-0.087,0.271-0.101,0.403c-0.013,0.133-0.014,0.261-0.014,0.368v5.94h-1.975v-5.924
					c0-0.584,0.123-1.19,0.5-1.629c0.553-0.673,1.472-0.941,2.386-0.941h0.742v1.314h-0.723
					C19.697,68.121,19.458,68.324,19.341,68.589z"/>
			</g>
			<g>
				<path d="M49.363,68.435c-0.058,0.13-0.086,0.271-0.099,0.404c-0.015,0.132-0.015,0.261-0.015,0.368v6.094h-1.975v-6.077
					c0-0.583,0.123-1.19,0.5-1.63c0.551-0.672,1.471-0.939,2.386-0.939h0.64v1.314h-0.622
					C49.721,67.969,49.482,68.171,49.363,68.435z"/>
			</g>
			<g>
				<path fill-rule="evenodd" clip-rule="evenodd" d="M2.792,71.619c-0.456,0.289-0.507,0.535-0.507,1.312
					c0,0.666,0.124,1.058,0.585,1.058h1.124v-3.013L2.792,71.619z M1.064,67.266c0.428-0.406,1.225-0.641,2.267-0.641
					c0.441,0,1.051,0.05,1.589,0.313c0.915,0.442,1.05,1.158,1.05,1.53v6.832H4.24H2.141c-1.728,0-1.733-1.369-1.733-2.208
					c0-0.771,0.001-1.163,0.167-1.542c0.165-0.371,0.649-0.699,1.184-0.973c2.058-1.056,2.234-1.148,2.234-1.148l-0.002-0.696
					c-0.001-0.132-0.006-0.175-0.015-0.222c-0.02-0.201-0.104-0.624-0.787-0.624c-0.376,0-0.589,0.106-0.692,0.372
					c-0.049,0.125-0.071,0.283-0.083,0.472c-0.011,0.175-0.012,0.381-0.012,0.622H0.586C0.586,68.097,0.596,67.709,1.064,67.266z"/>
			</g>
			<g>
				<path fill-rule="evenodd" clip-rule="evenodd" d="M41.073,68.993v4.14c0,0.479,0.073,1.104,0.835,1.104s0.836-0.625,0.836-1.104
					v-4.14c0-0.479-0.074-1.104-0.836-1.104S41.073,68.514,41.073,68.993z M41.944,66.655c0.633,0,1.366,0.133,1.885,0.463
					c0.738,0.488,0.86,1.203,0.86,1.889v4.143c0,1.509-0.992,2.352-2.853,2.352c-1.368,0-2.038-0.486-2.371-1.037
					c-0.337-0.558-0.338-1.195-0.338-1.516V69.09C39.128,68.066,39.486,66.655,41.944,66.655z"/>
			</g>
			<g>
				<path d="M32.915,68.991v4.14c0,0.479,0.074,1.104,0.837,1.104c0.761,0,0.835-0.625,0.835-1.104v-4.14
					c0-0.479-0.075-1.104-0.835-1.104C32.989,67.888,32.915,68.512,32.915,68.991z M33.752,66.654c0.633,0,1.365,0.134,1.884,0.462
					c0.738,0.488,0.861,1.205,0.861,1.889v4.145c0,1.508-0.992,2.35-2.852,2.35c-0.266,0-0.505-0.018-0.722-0.052L32.91,78.63
					h-1.975v-9.542C30.935,68.066,31.29,66.654,33.752,66.654z"/>
			</g>
			<g>
				<path fill-rule="evenodd" clip-rule="evenodd" d="M24.502,68.991v4.14c0,0.479,0.074,1.104,0.836,1.104s0.835-0.625,0.835-1.104
					v-4.14c0-0.479-0.073-1.104-0.835-1.104S24.502,68.512,24.502,68.991z M25.372,66.654c0.634,0,1.367,0.134,1.887,0.462
					c0.737,0.488,0.859,1.205,0.859,1.889v4.145c0,1.508-0.992,2.35-2.852,2.35c-1.368,0-2.039-0.484-2.373-1.037
					c-0.336-0.557-0.337-1.193-0.337-1.516v-3.857C22.557,68.066,22.913,66.654,25.372,66.654z"/>
			</g>
			<g>
				<path d="M56.948,74.016v1.41l-0.799,0.059c-0.931,0-1.851-0.268-2.404-0.939c-0.376-0.439-0.5-1.048-0.5-1.63v-4.946h-0.979
					v-1.314h0.979v-1.605h1.975v1.605h1.261v1.314h-1.261v4.867c0,0.107,0,0.235,0.014,0.367c0.015,0.135,0.042,0.275,0.1,0.404
					c0.119,0.265,0.359,0.467,0.816,0.467L56.948,74.016z"/>
			</g>
			<g>
				<path d="M66.141,67.867h-0.922c-0.702,0-0.77,0.624-0.77,1.104v6.14h-1.976v-6.144c0-1.703,0.821-2.414,2.309-2.414h4.591
					c1.487,0,2.304,0.711,2.304,2.414v6.144h-1.976v-6.14c0-0.479-0.068-1.104-0.771-1.104h-0.922v7.243h-1.868V67.867z"/>
			</g>
			<g>
				<path fill-rule="evenodd" clip-rule="evenodd" d="M76.925,71.43c-0.455,0.288-0.508,0.533-0.508,1.31
					c0,0.666,0.124,1.058,0.584,1.058h1.125v-3.013L76.925,71.43z M75.197,67.074c0.427-0.405,1.226-0.641,2.267-0.641
					c0.44,0,1.051,0.051,1.59,0.314c0.914,0.441,1.05,1.157,1.05,1.529v6.833h-1.73h-2.098c-1.729,0-1.734-1.37-1.734-2.208
					c0-0.771,0.001-1.164,0.168-1.543c0.165-0.37,0.648-0.698,1.183-0.973c2.058-1.055,2.235-1.147,2.235-1.147l-0.002-0.696
					c-0.002-0.132-0.006-0.174-0.017-0.223c-0.02-0.2-0.104-0.625-0.786-0.625c-0.378,0-0.589,0.108-0.692,0.373
					c-0.049,0.127-0.072,0.283-0.083,0.472c-0.01,0.175-0.012,0.381-0.012,0.622h-1.816C74.719,67.906,74.729,67.518,75.197,67.074z
					"/>
			</g>
			<g>
				<path d="M85.186,68.398c-0.058,0.128-0.085,0.271-0.101,0.403c-0.013,0.133-0.013,0.261-0.013,0.368v5.941h-1.977v-5.925
					c0-0.584,0.124-1.19,0.501-1.629c0.552-0.673,1.473-0.94,2.387-0.94h0.64v1.313h-0.623
					C85.544,67.93,85.303,68.133,85.186,68.398z"/>
			</g>
			<g>
				<g>
					<path fill-rule="evenodd" clip-rule="evenodd" d="M100.219,70.043v-1.422c0-0.563-0.25-0.919-0.841-0.919
						s-0.841,0.356-0.841,0.919v1.422H100.219z M98.531,73.239c0.014,0.121,0.039,0.25,0.092,0.367
						c0.106,0.24,0.324,0.428,0.736,0.428c0.267,0,0.479-0.11,0.615-0.276c0.17-0.218,0.189-0.519,0.191-1.354h1.939v0.632
						c0,1.817-1.404,2.266-2.711,2.266c-2.042,0-2.852-1-2.852-2.703v-3.64c0-1.062,0.383-1.647,0.951-2.023
						c0.519-0.345,1.25-0.495,1.884-0.495c0.823,0,1.624,0.249,2.159,0.742c0.499,0.488,0.604,1.176,0.604,1.675v2.483H98.52v1.571
						C98.52,73.006,98.52,73.12,98.531,73.239z"/>
				</g>
			</g>
			<g>
				<rect x="105.25" y="66.616" fill-rule="evenodd" clip-rule="evenodd" width="1.982" height="8.494"/>
			</g>
			<g>
				<rect x="105.25" y="63.334" fill-rule="evenodd" clip-rule="evenodd" width="1.965" height="1.919"/>
			</g>
			<g>
				<rect x="110.322" y="64.102" fill-rule="evenodd" clip-rule="evenodd" width="1.983" height="11.009"/>
			</g>
			<g>
				<rect x="115.018" y="64.102" fill-rule="evenodd" clip-rule="evenodd" width="1.982" height="11.009"/>
			</g>
			<g>
				<g>
					<path fill-rule="evenodd" clip-rule="evenodd" d="M123.311,70.043v-1.422c0-0.563-0.25-0.919-0.842-0.919
						c-0.59,0-0.84,0.356-0.84,0.919v1.422H123.311z M121.624,73.239c0.013,0.121,0.038,0.25,0.091,0.367
						c0.107,0.24,0.323,0.428,0.736,0.428c0.267,0,0.479-0.11,0.615-0.276c0.172-0.218,0.189-0.519,0.191-1.354h1.939v0.632
						c0,1.817-1.404,2.266-2.711,2.266c-2.042,0-2.851-1-2.851-2.703v-3.64c0-1.062,0.383-1.647,0.949-2.023
						c0.521-0.345,1.253-0.495,1.884-0.495c0.826,0,1.625,0.248,2.16,0.742c0.499,0.488,0.604,1.176,0.604,1.675v2.483h-3.62v1.571
						C121.613,73.006,121.613,73.12,121.624,73.239z"/>
				</g>
			</g>
			<g>
				<path fill-rule="evenodd" clip-rule="evenodd" d="M90.254,72.277v0.637c0,0.706,0.181,1.126,0.893,1.126
					c0.492,0,0.874-0.245,0.874-1.019c0-0.519-0.042-0.815-0.646-1.216l-1.755-1.179c-0.119-0.079-0.435-0.362-0.573-0.527
					c-0.221-0.243-0.481-0.582-0.481-1.492c0-1.764,1.19-2.161,2.67-2.161c1.822,0,2.528,0.74,2.528,1.926v0.84h-1.707
					c0-0.22-0.001-0.378-0.012-0.555c-0.012-0.192-0.036-0.362-0.087-0.502c-0.105-0.293-0.32-0.448-0.723-0.448
					c-0.312,0-0.804,0.06-0.804,0.834c0,0.251,0.025,0.592,0.629,0.991l1.932,1.295c0.12,0.081,0.503,0.449,0.568,0.557
					c0.236,0.318,0.291,0.758,0.291,1.313c0,0.55-0.001,1.195-0.339,1.706c-0.335,0.504-1.012,0.893-2.4,0.893
					c-2.233,0-2.689-1.063-2.689-2.229v-0.788H90.254z"/>
			</g>
			<g>
				<path fill-rule="evenodd" clip-rule="evenodd" d="M182.16,68.791c0-0.072,0-0.171-0.012-0.277
					c-0.013-0.107-0.039-0.225-0.092-0.334c-0.107-0.227-0.324-0.406-0.736-0.406c-0.457,0-0.695,0.202-0.814,0.466
					c-0.059,0.13-0.086,0.271-0.1,0.403s-0.014,0.261-0.014,0.368v3.919c0,0.104,0,0.227,0.014,0.354
					c0.012,0.129,0.04,0.264,0.095,0.387c0.114,0.255,0.345,0.448,0.784,0.448c0.865,0,0.875-0.831,0.875-1.171v-0.916h1.977v0.807
					c0,1.715-0.961,2.554-2.833,2.554c-0.462,0-1.419-0.051-2.112-0.578c-0.67-0.505-0.776-1.171-0.776-1.874v-3.824
					c0-0.582,0.124-1.189,0.501-1.629c0.554-0.673,1.473-0.94,2.388-0.94c0.773,0,1.593,0.2,2.11,0.595
					c0.533,0.423,0.723,0.942,0.723,1.756v0.887h-1.977V68.791z"/>
			</g>
			<g>
				<path fill-rule="evenodd" clip-rule="evenodd" d="M173.719,68.791c0-0.072-0.001-0.171-0.014-0.277
					c-0.012-0.107-0.038-0.225-0.09-0.334c-0.108-0.227-0.324-0.406-0.737-0.406c-0.458,0-0.696,0.202-0.815,0.466
					c-0.059,0.13-0.086,0.271-0.101,0.403c-0.013,0.133-0.013,0.261-0.013,0.368v6.204h-1.977v-6.109
					c0-0.582,0.123-1.189,0.501-1.629c0.552-0.672,1.472-0.939,2.388-0.939c0.773,0,1.592,0.2,2.109,0.594
					c0.532,0.424,0.724,0.943,0.724,1.756v6.328h-1.976V68.791z"/>
			</g>
			<g>
				<path d="M133.551,68.875v4.139c0,0.48,0.074,1.104,0.835,1.104c0.763,0,0.837-0.624,0.837-1.104v-4.139
					c0-0.479-0.074-1.104-0.837-1.104C133.625,67.772,133.551,68.396,133.551,68.875z M134.386,66.537
					c0.633,0,1.366,0.133,1.886,0.462c0.738,0.489,0.86,1.204,0.86,1.888v4.146c0,1.507-0.991,2.35-2.852,2.35
					c-0.266,0-0.505-0.019-0.721-0.052l-0.013,3.184h-1.977v-9.543C131.571,67.949,131.927,66.537,134.386,66.537z"/>
			</g>
			<g>
				<path d="M142.035,68.319c-0.058,0.127-0.086,0.27-0.1,0.402s-0.014,0.262-0.014,0.369v5.94h-1.977v-5.925
					c0-0.582,0.123-1.189,0.5-1.629c0.553-0.672,1.473-0.939,2.388-0.939h0.641v1.314h-0.622
					C142.395,67.852,142.154,68.053,142.035,68.319z"/>
			</g>
			<g>
				<path fill-rule="evenodd" clip-rule="evenodd" d="M147.469,68.875v4.139c0,0.48,0.074,1.104,0.836,1.104
					s0.836-0.624,0.836-1.104v-4.139c0-0.479-0.074-1.104-0.836-1.104S147.469,68.396,147.469,68.875z M148.341,66.537
					c0.632,0,1.364,0.133,1.884,0.462c0.738,0.489,0.861,1.204,0.861,1.888v4.146c0,1.507-0.992,2.35-2.854,2.35
					c-1.367,0-2.039-0.485-2.371-1.037c-0.336-0.557-0.338-1.194-0.338-1.516v-3.858C145.524,67.949,145.879,66.537,148.341,66.537z
					"/>
			</g>
			<g>
				<path fill-rule="evenodd" clip-rule="evenodd" d="M165.309,70.138l0.002-1.448c0-0.562-0.25-0.916-0.84-0.916
					c-0.592,0-0.84,0.354-0.84,0.916l-0.001,1.448H165.309z M163.623,73.332c0.014,0.12,0.039,0.248,0.09,0.365
					c0.107,0.241,0.325,0.428,0.738,0.428c0.266,0,0.477-0.109,0.613-0.276c0.172-0.216,0.189-0.519,0.191-1.351h1.938v0.63
					c0,1.815-1.403,2.264-2.708,2.264c-2.042,0-2.85-0.999-2.85-2.702v-3.635c0-1.061,0.382-1.647,0.948-2.023
					c0.521-0.345,1.251-0.494,1.884-0.494c0.822,0,1.622,0.248,2.159,0.74c0.497,0.489,0.602,1.176,0.602,1.676v2.48h-3.618v1.57
					C163.612,73.098,163.612,73.213,163.623,73.332z"/>
			</g>
			<g>
				<path fill-rule="evenodd" clip-rule="evenodd" d="M190.242,70.141V68.69c0-0.562-0.248-0.916-0.84-0.916
					c-0.591,0-0.84,0.354-0.84,0.916v1.451H190.242z M188.557,73.326c0.014,0.121,0.039,0.248,0.09,0.365
					c0.107,0.24,0.325,0.427,0.738,0.427c0.266,0,0.479-0.108,0.613-0.275c0.172-0.216,0.191-0.508,0.191-1.341h1.94v0.631
					c0,1.818-1.404,2.266-2.71,2.266c-2.043,0-2.852-1-2.852-2.703v-3.641c0-1.06,0.383-1.647,0.95-2.023
					c0.52-0.345,1.251-0.494,1.884-0.494c0.824,0,1.624,0.248,2.16,0.742c0.499,0.488,0.604,1.176,0.604,1.676v2.482h-3.621v1.561
					C188.545,73.092,188.545,73.207,188.557,73.326z"/>
			</g>
			<g>
				<polygon points="155.089,66.715 156.334,73.244 156.404,73.244 157.647,66.715 159.694,66.715 157.656,75.217 155.08,75.217 
					153.025,66.715 				"/>
			</g>
			<g>
				<path fill-rule="evenodd" clip-rule="evenodd" d="M10.52,64.694h2.369v1.123H10.52V64.694z M10.817,73.44
					c0.013,0.121,0.038,0.248,0.09,0.365c0.107,0.241,0.324,0.428,0.737,0.428c0.266,0,0.478-0.109,0.613-0.275
					c0.171-0.217,0.19-0.519,0.19-1.352h1.939v0.631c0,1.814-1.404,2.264-2.708,2.264c-2.042,0-2.849-1-2.849-2.701v-3.637
					c0-1.06,0.381-1.646,0.948-2.021c0.52-0.346,1.251-0.494,1.883-0.494c0.824,0,1.623,0.248,2.159,0.74
					c0.498,0.488,0.602,1.176,0.602,1.675v2.48h-3.618v1.569C10.804,73.205,10.804,73.321,10.817,73.44z M12.501,70.245v-1.419
					c0-0.563-0.249-0.919-0.84-0.919s-0.839,0.355-0.839,0.919v1.419H12.501z"/>
			</g>
		</g>
	</g>
	<g>
		<g>
			<rect x="13.314" y="0.044" fill-rule="evenodd" clip-rule="evenodd" fill="#DCDCDC" width="9.958" height="10.884"/>
		</g>
		<g>
			<rect x="59.041" y="0.044" fill-rule="evenodd" clip-rule="evenodd" fill="#DCDCDC" width="9.959" height="10.884"/>
		</g>
		<g>
			<rect x="81.906" y="0.044" fill-rule="evenodd" clip-rule="evenodd" fill="#DCDCDC" width="9.959" height="10.884"/>
		</g>
		<g>
			<rect x="127.634" y="0.044" fill-rule="evenodd" clip-rule="evenodd" fill="#DCDCDC" width="9.959" height="10.884"/>
		</g>
		<g>
			<rect x="13.314" y="25.684" fill-rule="evenodd" clip-rule="evenodd" fill="#DCDCDC" width="9.958" height="10.884"/>
		</g>
		<g>
			<rect x="127.634" y="25.684" fill-rule="evenodd" clip-rule="evenodd" fill="#DCDCDC" width="9.959" height="10.884"/>
		</g>
		<g>
			<rect x="0.408" y="0.044" fill="#2864AA" width="12.906" height="57.273"/>
		</g>
		<g>
			<rect x="23.272" y="0.044" fill="#00A0DC" width="12.905" height="57.273"/>
		</g>
		<g>
			<rect x="46.136" y="0.044" fill="#0AAFAF" width="12.905" height="57.273"/>
		</g>
		<g>
			<rect x="69.001" y="0.044" fill="#BEBE00" width="12.905" height="57.273"/>
		</g>
		<g>
			<rect x="137.593" y="0.044" fill-rule="evenodd" clip-rule="evenodd" fill="#E65028" width="12.905" height="36.523"/>
		</g>
		<g>
			<rect x="114.729" y="0.044" fill="#F07D00" width="12.905" height="57.273"/>
		</g>
		<g>
			<rect x="91.865" y="0.044" fill="#FAB400" width="12.905" height="57.273"/>
		</g>
	</g>
	<g>
		<g>
			<path fill-rule="evenodd" clip-rule="evenodd" d="M180.828,47.539c0-6.047-1.313-7.549-6.281-7.549H163.08
				c-5.719,0-6.656,1.736-6.656,7.783v9.545h35.741v-7.359h-11.337V47.539z M175.202,49.959h-13.153v-1.482
				c0-0.656,0.328-1.126,1.406-1.126h10.528c0.845,0,1.219,0.188,1.219,1.126V49.959z"/>
		</g>
		<g>
			<path fill-rule="evenodd" clip-rule="evenodd" d="M175.531,23.24c-0.329-2.031-2.11-3.232-5.016-3.232h-7.436
				c-5.719,0-6.656,1.709-6.656,7.668v8.916h35.741v-7.178h-13.588v-1.12c0-0.646,0.328-1.108,1.407-1.108h12.181v-7.178h-11.384
				C177.921,20.008,176.141,21.164,175.531,23.24z M172.296,29.414h-10.247v-1.041c0-0.692,0.328-1.188,1.406-1.188h7.623
				c0.844,0,1.218,0.198,1.218,1.188V29.414z"/>
		</g>
		<g>
			<path fill-rule="evenodd" clip-rule="evenodd" d="M162.846,16.61h22.852c5.438,0,6.656-1.016,6.656-8.26
				c0-7.337-1.172-8.306-6.656-8.306h-22.852c-5.484,0-6.656,0.969-6.656,8.306C156.19,15.594,157.408,16.61,162.846,16.61z
				 M162.94,7.213h22.664c0.656,0,1.125,0.495,1.125,1.139c0,0.594-0.469,1.088-1.125,1.088H162.94
				c-0.657,0-1.125-0.494-1.125-1.088C161.815,7.708,162.282,7.213,162.94,7.213z"/>
		</g>
	</g>
</g>
</svg>
