<?xml version="1.0" encoding="utf-8"?>
<!-- Generator: Adobe Illustrator 16.0.0, SVG Export Plug-In . SVG Version: 6.00 Build 0)  -->
<!DOCTYPE svg PUBLIC "-//W3C//DTD SVG 1.1//EN" "http://www.w3.org/Graphics/SVG/1.1/DTD/svg11.dtd">
<svg version="1.1" id="Layer_1" xmlns="http://www.w3.org/2000/svg" xmlns:xlink="http://www.w3.org/1999/xlink" x="0px" y="0px"
	 width="200px" height="53px" viewBox="0 0 200 53" enable-background="new 0 0 200 53" xml:space="preserve">
<g>
	<g>
		
			<rect x="102.357" y="2.465" opacity="0.6" fill-rule="evenodd" clip-rule="evenodd" fill="#FFFFFF" width="8.013" height="8.802"/>
		
			<rect x="102.357" y="23.197" opacity="0.6" fill-rule="evenodd" clip-rule="evenodd" fill="#FFFFFF" width="8.013" height="8.802"/>
		<rect x="10.382" y="2.465" opacity="0.6" fill-rule="evenodd" clip-rule="evenodd" fill="#FFFFFF" width="8.013" height="8.802"/>
		<rect x="47.172" y="2.465" opacity="0.6" fill-rule="evenodd" clip-rule="evenodd" fill="#FFFFFF" width="8.013" height="8.802"/>
		<rect x="65.566" y="2.465" opacity="0.6" fill-rule="evenodd" clip-rule="evenodd" fill="#FFFFFF" width="8.013" height="8.802"/>
		
			<rect x="10.382" y="23.197" opacity="0.6" fill-rule="evenodd" clip-rule="evenodd" fill="#FFFFFF" width="8.013" height="8.802"/>
		<rect y="2.465" fill="#FFFFFF" width="10.383" height="46.312"/>
		<rect x="18.395" y="2.465" fill="#FFFFFF" width="10.381" height="46.312"/>
		<rect x="36.789" y="2.465" fill="#FFFFFF" width="10.384" height="46.312"/>
		<rect x="55.185" y="2.465" fill="#FFFFFF" width="10.381" height="46.312"/>
		<rect x="73.579" y="2.465" fill="#FFFFFF" width="10.383" height="46.312"/>
		<rect x="91.975" y="2.465" fill="#FFFFFF" width="10.382" height="46.312"/>
		<rect x="110.37" y="2.465" fill="#FFFFFF" width="10.381" height="29.534"/>
		<path fill-rule="evenodd" clip-rule="evenodd" fill="#FFFFFF" d="M177.245,17.286h2.501v2.516h-2.501V17.286z M196.541,47.439
			c0.738,0,1.09-0.482,1.09-1.117v-0.918h2.324v0.77c0,2.286-1.752,2.855-3.406,2.855c-2.573,0-3.585-1.26-3.585-3.415v-4.659
			c0-1.343,0.48-2.081,1.191-2.552c0.65-0.436,1.574-0.626,2.372-0.626c1.039,0,2.047,0.315,2.719,0.936
			c0.623,0.614,0.754,1.479,0.754,2.114v3.145h-4.575v2.351C195.425,46.963,195.803,47.439,196.541,47.439z M197.631,40.474
			c0-0.64-0.379-1.118-1.119-1.118c-0.737,0-1.087,0.482-1.087,1.118v1.916h2.206V40.474z M196.541,30.666
			c0.738,0,1.09-0.483,1.09-1.117v-0.92h2.324v0.77c0,2.288-1.752,2.855-3.406,2.855c-2.573,0-3.585-1.26-3.585-3.413v-4.66
			c0-1.342,0.48-2.08,1.191-2.551c0.65-0.437,1.574-0.627,2.372-0.627c1.039,0,2.047,0.314,2.719,0.937
			c0.623,0.614,0.754,1.479,0.754,2.112v3.146h-4.575v2.352C195.425,30.188,195.803,30.666,196.541,30.666z M197.631,23.698
			c0-0.638-0.379-1.117-1.119-1.117c-0.737,0-1.087,0.483-1.087,1.117v1.916h2.206V23.698z M167.125,47.439
			c0.738,0,1.088-0.482,1.088-1.117v-0.918h2.326v0.77c0,2.286-1.752,2.855-3.406,2.855c-2.576,0-3.586-1.26-3.586-3.415v-4.659
			c0-1.343,0.479-2.081,1.189-2.552c0.652-0.436,1.574-0.626,2.373-0.626c1.041,0,2.047,0.315,2.719,0.936
			c0.623,0.614,0.756,1.479,0.756,2.114v3.145h-4.578v2.351C166.006,46.963,166.385,47.439,167.125,47.439z M168.213,40.474
			c0-0.64-0.379-1.118-1.117-1.118s-1.09,0.482-1.09,1.118v1.916h2.207V40.474z M171.146,30.666c0.738,0,1.09-0.483,1.09-1.117
			v-0.92h2.324v0.77c0,2.288-1.752,2.855-3.406,2.855c-2.573,0-3.585-1.26-3.585-3.413v-4.66c0-1.342,0.48-2.08,1.191-2.551
			c0.65-0.437,1.574-0.627,2.372-0.627c1.039,0,2.047,0.314,2.719,0.937c0.621,0.614,0.754,1.479,0.754,2.112v3.146h-4.575v2.352
			C170.029,30.188,170.408,30.666,171.146,30.666z M172.235,23.698c0-0.638-0.379-1.117-1.119-1.117
			c-0.737,0-1.087,0.483-1.087,1.117v1.916h2.206V23.698z M187.164,37.777c3.185,0,3.563,1.835,3.563,3.176v0.93h-2.494v-1.399
			c0-0.634-0.393-1.104-1.124-1.104c-0.732,0-1.107,0.473-1.107,1.104v5.829c0,0.633,0.375,1.105,1.107,1.105
			c0.731,0,1.124-0.471,1.124-1.105v-1.397h2.494v0.929c0,1.343-0.379,3.176-3.563,3.176c-3.193,0-3.656-1.841-3.656-3.176v-4.891
			C183.508,39.618,183.971,37.777,187.164,37.777z M177.06,37.777c3.187,0,3.565,1.835,3.565,3.176v7.825h-2.493v-8.295
			c0-0.634-0.393-1.104-1.125-1.104s-1.107,0.473-1.107,1.104v8.295h-2.496v-7.825C173.403,39.618,173.866,37.777,177.06,37.777z
			 M148.209,37.777c3.098,0,3.467,1.782,3.467,3.087v5.078c0,1.303-0.369,3.087-3.467,3.087c-3.103,0-3.552-1.79-3.552-3.087v-5.078
			C144.657,39.567,145.106,37.777,148.209,37.777z M147.109,40.452v5.895c0,0.616,0.375,1.073,1.086,1.073s1.037-0.461,1.037-1.073
			v-5.895c0-0.616-0.363-1.073-1.076-1.073C147.445,39.379,147.109,39.84,147.109,40.452z M141.194,40.034
			c-0.074,0.165-0.109,0.344-0.127,0.513c-0.018,0.168-0.018,0.331-0.018,0.467v7.765h-2.494v-7.743c0-0.74,0.156-1.51,0.633-2.066
			c0.695-0.853,1.857-1.191,3.012-1.191h0.934v1.666h-0.912C141.646,39.443,141.343,39.7,141.194,40.034z M128.669,40.864
			c0-1.297,0.451-3.087,3.554-3.087c3.096,0,3.467,1.782,3.467,3.087v5.078c0,1.303-0.371,3.087-3.467,3.087
			c-0.35,0-0.762-0.068-1.055-0.212V53h-2.499V40.864z M131.123,40.452v5.895c0,0.616,0.373,1.073,1.086,1.073
			c0.711,0,1.035-0.461,1.035-1.073v-5.895c0-0.616-0.363-1.073-1.074-1.073S131.123,39.84,131.123,40.452z M185.182,17.286v14.713
			h-2.494V17.286H185.182z M155.521,23.257c-0.072,0.163-0.107,0.341-0.125,0.512c-0.018,0.167-0.018,0.33-0.018,0.468v7.763h-2.493
			v-7.743c0-0.74,0.156-1.51,0.631-2.067c0.696-0.852,1.858-1.191,3.011-1.191h0.814v1.667h-0.791
			C155.974,22.664,155.671,22.921,155.521,23.257z M143.702,21.81c0.539-0.514,1.547-0.813,2.86-0.813
			c0.557,0,1.326,0.065,2.006,0.398c1.154,0.562,1.324,1.471,1.324,1.941v8.662h-2.184h-2.647c-2.182,0-2.188-1.737-2.188-2.801
			c0-0.979,0.002-1.477,0.211-1.955c0.209-0.472,0.82-0.888,1.494-1.234c2.597-1.339,2.819-1.457,2.819-1.457V23.62
			c0-0.587-0.338-1.02-1.016-1.02c-0.673-0.002-0.991,0.437-0.991,1.02l-0.002,0.84h-2.291
			C143.099,22.864,143.112,22.373,143.702,21.81z M145.881,27.329c-0.573,0.365-0.64,0.678-0.64,1.663
			c0,0.846,0.158,1.342,0.737,1.342h1.42v-3.821L145.881,27.329z M167.102,5.553c0-1.298,0.449-3.088,3.555-3.088
			c3.095,0,3.464,1.782,3.464,3.088v5.077c0,1.304-0.369,3.088-3.464,3.088c-0.352,0-0.764-0.069-1.055-0.21v4.181h-2.5V5.553z
			 M169.557,5.141v5.894c0,0.616,0.373,1.074,1.086,1.074c0.71,0,1.034-0.46,1.034-1.074V5.141c0-0.616-0.361-1.072-1.073-1.072
			C169.893,4.066,169.557,4.528,169.557,5.141z M181.059,2.465c3.096,0,3.463,1.782,3.463,3.088v5.077
			c0,1.304-0.367,3.088-3.463,3.088c-3.104,0-3.554-1.79-3.554-3.088V5.553C177.505,4.255,177.954,2.465,181.059,2.465z
			 M179.957,5.141v5.894c0,0.616,0.375,1.074,1.086,1.074s1.037-0.46,1.037-1.074V5.141c0-0.616-0.363-1.072-1.076-1.072
			C180.293,4.066,179.957,4.528,179.957,5.141z M160.255,2.465c3.095,0,3.464,1.782,3.464,3.088v5.077
			c0,1.304-0.369,3.088-3.464,3.088c-3.105,0-3.555-1.79-3.555-3.088V5.553C156.7,4.255,157.149,2.465,160.255,2.465z
			 M159.153,5.141v5.894c0,0.616,0.373,1.074,1.088,1.074c0.709,0,1.035-0.46,1.035-1.074l-0.002-5.894
			c0-0.616-0.361-1.072-1.074-1.072C159.489,4.066,159.153,4.528,159.153,5.141z M143.163,12.13c0.738,0,1.088-0.485,1.088-1.119
			v-0.918h2.323l0.002,0.77c0,2.286-1.753,2.855-3.405,2.855c-2.576,0-3.588-1.26-3.588-3.415v-4.66c0-1.342,0.48-2.08,1.191-2.551
			c0.65-0.437,1.574-0.627,2.373-0.627c1.041,0,2.047,0.316,2.718,0.937c0.623,0.614,0.754,1.478,0.754,2.112v3.146h-4.575v2.352
			C142.044,11.648,142.423,12.128,143.163,12.13z M144.251,5.16c0-0.638-0.379-1.115-1.117-1.115s-1.09,0.481-1.09,1.115v1.918
			h2.207V5.16z M190.606,4.723c-0.072,0.165-0.107,0.343-0.127,0.514c-0.016,0.167-0.018,0.33-0.018,0.466v7.763h-2.494V5.724
			c0-0.74,0.156-1.51,0.633-2.067c0.697-0.852,1.857-1.191,3.012-1.191h0.777v1.667h-0.756
			C191.058,4.132,190.755,4.389,190.606,4.723z M152.645,4.723c-0.072,0.165-0.109,0.343-0.127,0.514
			c-0.018,0.167-0.018,0.33-0.018,0.466v7.763h-2.492V5.724c0-0.74,0.156-1.51,0.631-2.067c0.697-0.852,1.859-1.191,3.012-1.191
			h0.905v1.667h-0.882C153.096,4.132,152.793,4.389,152.645,4.723z M179.746,21.221v10.778h-2.501V21.221H179.746z M129.656,3.277
			c0.539-0.514,1.545-0.813,2.859-0.813c0.557,0,1.328,0.065,2.006,0.398c1.154,0.562,1.281,1.469,1.281,1.941v8.66h-4.945
			c-2.181,0-2.188-1.735-2.188-2.799c0-0.979,0.002-1.479,0.213-1.957c0.207-0.472,0.794-0.935,1.479-1.263l2.99-1.429V5.086
			c0-0.585-0.338-1.02-1.016-1.02c-0.674,0-0.992,0.437-0.992,1.02v0.84h-2.29C129.054,4.332,129.065,3.841,129.656,3.277z
			 M131.676,8.797c-0.574,0.365-0.639,0.678-0.639,1.662c0,0.845,0.156,1.341,0.736,1.341h1.578V7.979L131.676,8.797z
			 M133.299,22.888h-1.164c-0.887,0-0.973,0.793-0.973,1.399v7.712h-2.493v-7.716c0-2.161,1.036-3.063,2.913-3.063h5.795
			c1.876,0,2.907,0.901,2.907,3.063v7.716h-2.494v-7.712c0-0.606-0.084-1.399-0.97-1.399h-1.164v9.111h-2.357V22.888z
			 M190.462,17.286v14.713h-2.494V17.286H190.462z M160.712,29.214c0,0.891,0.23,1.407,1.127,1.407c0.62,0,1.103-0.303,1.103-1.271
			c0-0.655-0.051-1.026-0.819-1.528l-2.252-1.492c-0.154-0.104-0.561-0.463-0.74-0.673c-0.287-0.311-0.621-0.744-0.621-1.902
			c0-2.251,1.541-2.758,3.443-2.758c2.345,0,3.263,0.944,3.263,2.46v1.028h-2.227c-0.002-0.269-0.004-0.457-0.016-0.667
			c-0.016-0.244-0.047-0.456-0.111-0.633c-0.131-0.36-0.4-0.553-0.909-0.553c-0.396,0-1.012,0.07-1.012,1.038
			c0,0.313,0.029,0.737,0.799,1.24l2.478,1.641c0.154,0.104,0.65,0.571,0.734,0.711c0.307,0.41,0.377,0.97,0.377,1.674
			c0,0.695-0.002,1.52-0.439,2.171c-0.434,0.647-1.311,1.141-3.095,1.141c-2.877,0-3.467-1.358-3.467-2.842v-0.917h2.385V29.214z
			 M155.958,37.999l1.57,8.28h0.088l1.572-8.28h2.58L159.2,48.78h-3.252l-2.593-10.781H155.958z M141.642,0h2.992v1.427h-2.992V0z
			 M195.345,4.132h-1.236V2.465h1.236V0.463h2.493v2.002h1.59v1.667h-1.59v6.447c0,1.038,0.404,1.472,1.172,1.472H200v1.667h-1.012
			c-1.154,0-2.314-0.34-3.012-1.191c-0.476-0.558-0.632-1.329-0.632-2.067V4.132z"/>
	</g>
</g>
</svg>
