<?xml version="1.0" encoding="utf-8"?>
<!-- Generator: Adobe Illustrator 16.0.0, SVG Export Plug-In . SVG Version: 6.00 Build 0)  -->
<!DOCTYPE svg PUBLIC "-//W3C//DTD SVG 1.1//EN" "http://www.w3.org/Graphics/SVG/1.1/DTD/svg11.dtd">
<svg version="1.1" id="Layer_1" xmlns="http://www.w3.org/2000/svg" xmlns:xlink="http://www.w3.org/1999/xlink" x="0px" y="0px"
	 width="192.43px" height="78.852px" viewBox="0 0 192.43 78.852" enable-background="new 0 0 192.43 78.852" xml:space="preserve">
<g>
	<rect x="12.949" y="0.033" fill-rule="evenodd" clip-rule="evenodd" fill="#DDDDDD" width="9.993" height="10.922"/>
	<rect x="58.832" y="0.033" fill-rule="evenodd" clip-rule="evenodd" fill="#DDDDDD" width="9.993" height="10.922"/>
	<rect x="81.774" y="0.033" fill-rule="evenodd" clip-rule="evenodd" fill="#DDDDDD" width="9.993" height="10.922"/>
	<rect x="127.656" y="0.033" fill-rule="evenodd" clip-rule="evenodd" fill="#DDDDDD" width="9.994" height="10.922"/>
	<rect x="12.949" y="25.76" fill-rule="evenodd" clip-rule="evenodd" fill="#DDDDDD" width="9.993" height="10.922"/>
	<rect x="127.656" y="25.76" fill-rule="evenodd" clip-rule="evenodd" fill="#DDDDDD" width="9.994" height="10.922"/>
	<rect y="0.033" fill="#2864AA" width="12.949" height="57.469"/>
	<rect x="22.941" y="0.033" fill="#00A0DC" width="12.949" height="57.469"/>
	<rect x="45.883" y="0.033" fill="#0AAFAF" width="12.949" height="57.469"/>
	<rect x="68.825" y="0.033" fill="#BEBE00" width="12.949" height="57.469"/>
	<rect x="137.65" y="0.033" fill-rule="evenodd" clip-rule="evenodd" fill="#E65028" width="12.949" height="36.648"/>
	<rect x="114.709" y="0.033" fill="#F07D00" width="12.947" height="57.469"/>
	<rect x="91.767" y="0.033" fill="#FAB400" width="12.95" height="57.469"/>
	<path fill="#1D1D1B" d="M19.018,68.777c-0.058,0.129-0.087,0.271-0.101,0.404c-0.013,0.133-0.014,0.262-0.014,0.369v5.962h-1.982
		v-5.945c0-0.585,0.124-1.192,0.502-1.635c0.555-0.674,1.477-0.943,2.395-0.943h0.743v1.319h-0.725
		C19.377,68.309,19.136,68.512,19.018,68.777"/>
	<path fill="#1D1D1B" d="M49.142,68.623c-0.058,0.129-0.086,0.271-0.099,0.405c-0.015,0.134-0.015,0.261-0.015,0.369v6.115h-1.982
		v-6.099c0-0.584,0.123-1.194,0.502-1.636c0.553-0.673,1.476-0.942,2.394-0.942h0.643v1.318h-0.624
		C49.501,68.154,49.262,68.358,49.142,68.623"/>
	<path fill-rule="evenodd" clip-rule="evenodd" fill="#1D1D1B" d="M2.414,71.818c-0.458,0.29-0.509,0.535-0.509,1.315
		c0,0.668,0.124,1.061,0.586,1.061h1.127v-3.022L2.414,71.818z M0.679,67.449c0.43-0.406,1.229-0.643,2.274-0.643
		c0.443,0,1.056,0.051,1.595,0.314c0.917,0.443,1.054,1.162,1.054,1.536v6.855H3.866H1.761c-1.734,0-1.739-1.375-1.739-2.216
		c0-0.774,0.001-1.168,0.168-1.547c0.165-0.373,0.651-0.703,1.188-0.977c2.064-1.059,2.241-1.152,2.241-1.152l-0.002-0.699
		c-0.002-0.131-0.006-0.175-0.015-0.223c-0.02-0.201-0.104-0.625-0.79-0.625c-0.378,0-0.591,0.105-0.695,0.373
		c-0.049,0.125-0.072,0.284-0.084,0.473c-0.011,0.176-0.012,0.383-0.012,0.624H0.2C0.2,68.283,0.21,67.895,0.679,67.449"/>
	<path fill-rule="evenodd" clip-rule="evenodd" fill="#1D1D1B" d="M40.824,69.183v4.153c0,0.481,0.075,1.107,0.839,1.107
		c0.765,0,0.839-0.626,0.839-1.107v-4.153c0-0.481-0.075-1.107-0.839-1.107C40.899,68.075,40.824,68.701,40.824,69.183
		 M41.699,66.836c0.634,0,1.37,0.135,1.891,0.464c0.741,0.49,0.864,1.207,0.864,1.896v4.157c0,1.514-0.996,2.359-2.862,2.359
		c-1.373,0-2.046-0.487-2.38-1.041c-0.338-0.56-0.339-1.198-0.339-1.521v-3.871C38.873,68.252,39.231,66.836,41.699,66.836"/>
	<path fill="#1D1D1B" d="M32.638,69.181v4.153c0,0.482,0.074,1.109,0.84,1.109c0.763,0,0.838-0.627,0.838-1.109v-4.153
		c0-0.481-0.075-1.106-0.838-1.106C32.712,68.074,32.638,68.699,32.638,69.181 M33.478,66.836c0.635,0,1.37,0.133,1.891,0.463
		c0.741,0.49,0.863,1.208,0.863,1.895v4.158c0,1.514-0.996,2.358-2.861,2.358c-0.267,0-0.507-0.018-0.724-0.052l-0.013,3.193h-1.982
		v-9.572C30.651,68.252,31.008,66.836,33.478,66.836"/>
	<path fill-rule="evenodd" clip-rule="evenodd" fill="#1D1D1B" d="M24.197,69.181v4.153c0,0.482,0.074,1.109,0.839,1.109
		s0.839-0.627,0.839-1.109v-4.153c0-0.481-0.074-1.106-0.839-1.106S24.197,68.699,24.197,69.181 M25.071,66.836
		c0.636,0,1.371,0.133,1.893,0.463c0.74,0.49,0.863,1.208,0.863,1.895v4.158c0,1.514-0.995,2.358-2.862,2.358
		c-1.373,0-2.045-0.486-2.38-1.041c-0.337-0.558-0.339-1.198-0.339-1.52v-3.87C22.245,68.252,22.603,66.836,25.071,66.836"/>
	<path fill="#1D1D1B" d="M56.753,74.223v1.414l-0.802,0.06c-0.934,0-1.858-0.269-2.412-0.942c-0.378-0.441-0.502-1.051-0.502-1.636
		v-4.964h-0.983v-1.318h0.983v-1.61h1.981v1.61h1.266v1.318h-1.266v4.885c0,0.107,0,0.236,0.015,0.369
		c0.015,0.135,0.043,0.275,0.099,0.406c0.12,0.264,0.361,0.467,0.82,0.467L56.753,74.223z"/>
	<path fill="#1D1D1B" d="M65.978,68.053h-0.926c-0.705,0-0.772,0.627-0.772,1.107v6.16h-1.983v-6.163
		c0-1.709,0.825-2.423,2.317-2.423h4.606c1.492,0,2.312,0.714,2.312,2.423v6.163H69.55v-6.16c0-0.48-0.068-1.107-0.772-1.107h-0.927
		v7.268h-1.873V68.053z"/>
	<path fill-rule="evenodd" clip-rule="evenodd" fill="#1D1D1B" d="M76.798,71.627c-0.457,0.291-0.509,0.535-0.509,1.314
		c0,0.669,0.124,1.062,0.586,1.062h1.129V70.98L76.798,71.627z M75.065,67.258c0.429-0.407,1.229-0.644,2.273-0.644
		c0.442,0,1.056,0.051,1.595,0.315c0.917,0.443,1.054,1.162,1.054,1.535v6.855h-1.736h-2.106c-1.733,0-1.739-1.374-1.739-2.215
		c0-0.775,0.001-1.168,0.169-1.548c0.165-0.371,0.65-0.7,1.187-0.977c2.064-1.06,2.242-1.151,2.242-1.151l-0.002-0.699
		C78,68.6,77.996,68.557,77.985,68.508c-0.019-0.2-0.104-0.627-0.789-0.627c-0.379,0-0.591,0.108-0.694,0.374
		c-0.05,0.127-0.073,0.284-0.084,0.474c-0.01,0.176-0.012,0.382-0.012,0.623h-1.822C74.584,68.092,74.596,67.703,75.065,67.258"/>
	<path fill="#1D1D1B" d="M85.087,68.586c-0.058,0.128-0.086,0.27-0.101,0.404c-0.013,0.133-0.013,0.262-0.013,0.369v5.961h-1.984
		v-5.943c0-0.586,0.125-1.195,0.503-1.636c0.554-0.675,1.478-0.943,2.395-0.943h0.642v1.317h-0.624
		C85.446,68.115,85.206,68.319,85.087,68.586"/>
	<path fill-rule="evenodd" clip-rule="evenodd" fill="#1D1D1B" d="M100.172,70.236V68.81c0-0.565-0.252-0.923-0.844-0.923
		c-0.594,0-0.844,0.357-0.844,0.923v1.427H100.172z M98.479,73.443c0.014,0.121,0.038,0.25,0.092,0.367
		c0.106,0.242,0.324,0.429,0.739,0.429c0.267,0,0.48-0.11,0.616-0.276c0.172-0.218,0.191-0.521,0.191-1.358h1.947v0.634
		c0,1.823-1.408,2.274-2.719,2.274c-2.051,0-2.862-1.004-2.862-2.713v-3.652c0-1.063,0.384-1.653,0.953-2.03
		c0.521-0.347,1.255-0.496,1.892-0.496c0.826,0,1.628,0.25,2.167,0.744c0.5,0.49,0.604,1.18,0.604,1.681v2.491h-3.633v1.577
		C98.467,73.21,98.467,73.323,98.479,73.443"/>
	<rect x="105.221" y="66.799" fill-rule="evenodd" clip-rule="evenodd" fill="#1D1D1B" width="1.988" height="8.521"/>
	<rect x="105.221" y="63.504" fill-rule="evenodd" clip-rule="evenodd" fill="#1D1D1B" width="1.971" height="1.926"/>
	<rect x="110.308" y="64.275" fill-rule="evenodd" clip-rule="evenodd" fill="#1D1D1B" width="1.99" height="11.045"/>
	<rect x="115.021" y="64.275" fill-rule="evenodd" clip-rule="evenodd" fill="#1D1D1B" width="1.989" height="11.045"/>
	<path fill-rule="evenodd" clip-rule="evenodd" fill="#1D1D1B" d="M123.342,70.236V68.81c0-0.565-0.252-0.923-0.844-0.923
		c-0.594,0-0.844,0.357-0.844,0.923v1.427H123.342z M121.649,73.443c0.013,0.121,0.037,0.25,0.09,0.367
		c0.108,0.242,0.325,0.429,0.74,0.429c0.267,0,0.479-0.11,0.616-0.276c0.172-0.218,0.191-0.521,0.191-1.358h1.947v0.634
		c0,1.823-1.408,2.274-2.72,2.274c-2.049,0-2.86-1.004-2.86-2.713v-3.652c0-1.063,0.383-1.653,0.952-2.03
		c0.522-0.347,1.257-0.496,1.892-0.496c0.826,0,1.629,0.248,2.168,0.744c0.498,0.49,0.604,1.18,0.604,1.681v2.491h-3.633v1.577
		C121.637,73.21,121.637,73.323,121.649,73.443"/>
	<path fill-rule="evenodd" clip-rule="evenodd" fill="#1D1D1B" d="M90.172,72.478v0.639c0,0.709,0.183,1.13,0.896,1.13
		c0.494,0,0.877-0.246,0.877-1.022c0-0.521-0.042-0.818-0.648-1.22l-1.762-1.183c-0.119-0.08-0.436-0.364-0.574-0.528
		c-0.222-0.244-0.483-0.584-0.483-1.498c0-1.77,1.194-2.168,2.679-2.168c1.828,0,2.537,0.742,2.537,1.933V69.4H91.98
		c0-0.22-0.002-0.379-0.012-0.557c-0.013-0.192-0.036-0.362-0.087-0.502c-0.106-0.295-0.321-0.45-0.726-0.45
		c-0.313,0-0.807,0.06-0.807,0.837c0,0.252,0.025,0.594,0.631,0.994l1.939,1.301c0.119,0.08,0.506,0.449,0.57,0.558
		c0.236,0.319,0.292,0.76,0.292,1.315c0,0.553-0.001,1.201-0.341,1.714c-0.336,0.505-1.016,0.896-2.408,0.896
		c-2.242,0-2.698-1.068-2.698-2.238v-0.79H90.172z"/>
	<path fill-rule="evenodd" clip-rule="evenodd" fill="#1D1D1B" d="M182.391,68.98c0-0.073,0-0.172-0.012-0.277
		c-0.014-0.109-0.039-0.227-0.092-0.338c-0.107-0.227-0.326-0.406-0.738-0.406c-0.459,0-0.699,0.203-0.818,0.468
		c-0.059,0.13-0.086,0.271-0.1,0.404c-0.014,0.133-0.014,0.262-0.014,0.369v3.933c0,0.104,0,0.228,0.014,0.354
		c0.012,0.13,0.041,0.265,0.094,0.39c0.115,0.254,0.348,0.449,0.787,0.449c0.869,0,0.879-0.835,0.879-1.176v-0.92h1.982v0.813
		c0,1.719-0.963,2.56-2.842,2.56c-0.463,0-1.424-0.051-2.119-0.58c-0.672-0.506-0.779-1.175-0.779-1.879v-3.839
		c0-0.584,0.125-1.193,0.504-1.635c0.555-0.674,1.477-0.942,2.395-0.942c0.775,0,1.598,0.201,2.117,0.597
		c0.535,0.424,0.725,0.945,0.725,1.762v0.89h-1.982V68.98z"/>
	<path fill-rule="evenodd" clip-rule="evenodd" fill="#1D1D1B" d="M173.92,68.98c0-0.073,0-0.172-0.012-0.277
		c-0.014-0.109-0.039-0.227-0.092-0.338c-0.107-0.227-0.324-0.406-0.74-0.406c-0.459,0-0.699,0.203-0.818,0.468
		c-0.057,0.13-0.086,0.271-0.1,0.404c-0.014,0.133-0.014,0.262-0.014,0.369v6.226h-1.984v-6.13c0-0.585,0.125-1.194,0.504-1.634
		c0.553-0.676,1.477-0.943,2.395-0.943c0.777,0,1.6,0.2,2.119,0.596c0.533,0.424,0.725,0.946,0.725,1.763v6.349h-1.982V68.98z"/>
	<path fill="#1D1D1B" d="M133.615,69.064v4.153c0,0.481,0.076,1.108,0.838,1.108c0.766,0,0.84-0.627,0.84-1.108v-4.153
		c0-0.48-0.074-1.107-0.84-1.107C133.691,67.957,133.615,68.584,133.615,69.064 M134.453,66.719c0.637,0,1.371,0.133,1.893,0.463
		c0.74,0.49,0.863,1.208,0.863,1.895v4.16c0,1.512-0.994,2.357-2.861,2.357c-0.266,0-0.506-0.019-0.723-0.051l-0.014,3.193h-1.982
		v-9.574C131.629,68.135,131.986,66.719,134.453,66.719"/>
	<path fill="#1D1D1B" d="M142.131,68.506c-0.059,0.128-0.086,0.271-0.102,0.404c-0.014,0.133-0.014,0.262-0.014,0.369v5.962h-1.982
		v-5.945c0-0.583,0.123-1.194,0.502-1.635c0.553-0.675,1.477-0.942,2.395-0.942h0.643v1.318h-0.625
		C142.49,68.037,142.248,68.239,142.131,68.506"/>
	<path fill-rule="evenodd" clip-rule="evenodd" fill="#1D1D1B" d="M147.58,69.064v4.153c0,0.481,0.074,1.108,0.84,1.108
		c0.764,0,0.84-0.627,0.84-1.108v-4.153c0-0.48-0.076-1.107-0.84-1.107C147.654,67.957,147.58,68.584,147.58,69.064 M148.457,66.719
		c0.633,0,1.367,0.133,1.891,0.463c0.738,0.49,0.863,1.208,0.863,1.895v4.16c0,1.512-0.996,2.357-2.861,2.357
		c-1.373,0-2.049-0.488-2.381-1.041c-0.338-0.559-0.34-1.197-0.34-1.521v-3.869C145.629,68.135,145.986,66.719,148.457,66.719"/>
	<path fill-rule="evenodd" clip-rule="evenodd" fill="#1D1D1B" d="M165.482,70.331l0.002-1.452c0-0.564-0.252-0.92-0.844-0.92
		c-0.594,0-0.842,0.355-0.842,0.92l-0.002,1.452H165.482z M163.791,73.536c0.012,0.121,0.037,0.249,0.09,0.366
		c0.107,0.242,0.326,0.43,0.74,0.43c0.268,0,0.479-0.11,0.617-0.277c0.17-0.217,0.189-0.521,0.189-1.355h1.945v0.633
		c0,1.821-1.406,2.271-2.717,2.271c-2.049,0-2.859-1.003-2.859-2.711v-3.647c0-1.064,0.383-1.652,0.951-2.029
		c0.523-0.347,1.256-0.496,1.891-0.496c0.826,0,1.627,0.249,2.166,0.743c0.5,0.49,0.605,1.18,0.605,1.681v2.488h-3.631v1.578
		C163.779,73.303,163.779,73.418,163.791,73.536"/>
	<path fill-rule="evenodd" clip-rule="evenodd" fill="#1D1D1B" d="M190.5,70.334v-1.455c0-0.564-0.25-0.92-0.842-0.92
		c-0.594,0-0.844,0.355-0.844,0.92v1.455H190.5z M188.809,73.529c0.014,0.123,0.039,0.25,0.09,0.368
		c0.107,0.241,0.326,0.429,0.74,0.429c0.268,0,0.48-0.109,0.617-0.277c0.172-0.217,0.189-0.51,0.189-1.346h1.949v0.633
		c0,1.824-1.41,2.274-2.719,2.274c-2.051,0-2.863-1.004-2.863-2.712v-3.652c0-1.064,0.385-1.654,0.955-2.031
		c0.52-0.347,1.256-0.496,1.891-0.496c0.826,0,1.629,0.249,2.168,0.744c0.5,0.49,0.604,1.18,0.604,1.681v2.492h-3.633v1.565
		C188.797,73.296,188.797,73.41,188.809,73.529"/>
	<polygon fill="#1D1D1B" points="155.227,66.896 156.477,73.448 156.545,73.448 157.795,66.896 159.846,66.896 157.805,75.428 
		155.217,75.428 153.156,66.896 	"/>
	<path fill-rule="evenodd" clip-rule="evenodd" fill="#1D1D1B" d="M10.168,64.869h2.376v1.127h-2.376V64.869z M10.465,73.644
		c0.013,0.122,0.038,0.25,0.091,0.368c0.107,0.241,0.325,0.428,0.74,0.428c0.267,0,0.479-0.109,0.615-0.275
		c0.171-0.217,0.19-0.521,0.19-1.357h1.947v0.634c0,1.821-1.409,2.271-2.718,2.271c-2.048,0-2.858-1.003-2.858-2.712v-3.648
		c0-1.063,0.383-1.651,0.952-2.027c0.521-0.347,1.255-0.496,1.889-0.496c0.826,0,1.628,0.249,2.165,0.743
		c0.5,0.489,0.605,1.179,0.605,1.681v2.488h-3.63v1.574C10.453,73.41,10.453,73.525,10.465,73.644 M12.156,70.439v-1.425
		c0-0.564-0.25-0.921-0.843-0.921c-0.593,0-0.843,0.356-0.843,0.921v1.425H12.156z"/>
	<path fill-rule="evenodd" clip-rule="evenodd" fill="#1D1D1B" d="M192.146,0v7.311l-35.58-0.001V0h3.926v2.725h10.301V0h4.068
		v2.725h13.268V0H192.146z M171.35,14.241h-9.531c-0.918,0-1.326,0.311-1.326,0.974v0.53h12.082v-0.53
		C172.574,14.773,172.166,14.241,171.35,14.241 M192.15,9.771v4.47h-13.867c-0.865,0-1.273,0.399-1.273,0.974v0.53h15.141v4.47
		h-35.584V14.02c0-3.318,1.377-4.248,6.525-4.248h6.271c2.701,0,4.182,0.797,5.098,2.037c0.766-1.327,2.141-2.037,4.74-2.037H192.15
		z M187.303,27.968h-25.699c-0.764,0-1.172,0.298-1.172,0.843c0,0.497,0.408,0.844,1.172,0.844h25.699
		c0.766,0,1.123-0.347,1.123-0.844C188.426,28.266,188.016,27.968,187.303,27.968 M186.283,23.297c5.047,0,6.117,0.842,6.117,5.514
		c0,4.533-1.121,5.515-6.117,5.515h-23.709c-5.027,0-6.16-0.981-6.16-5.515c0-4.672,1.082-5.514,6.16-5.514H186.283z
		 M156.617,45.806V35.094h4.115v2.849h31.418V42.8h-31.418v3.006H156.617z M186.295,46.451c5.049,0,6.119,0.842,6.119,5.508
		c0,4.527-1.123,5.51-6.119,5.51h-7.762v-4.717h8.781c0.766,0,1.121-0.325,1.121-0.793c0-0.514-0.406-0.793-1.121-0.793h-9.438
		c-0.816,0-1.326,0.279-1.785,0.979l-2.191,3.27c-1.072,1.588-2.551,2.055-4.59,2.055h-6.736c-5.027,0-6.16-0.982-6.16-5.51
		c0-4.666,1.082-5.508,6.16-5.508h4.65v4.715h-5.619c-0.766,0-1.174,0.279-1.174,0.793c0,0.468,0.408,0.793,1.174,0.793h7.246
		c0.764,0,1.17-0.187,1.682-0.934l2.396-3.547c0.766-1.12,2.297-1.82,4.387-1.82H186.295z"/>
	<path fill-rule="evenodd" clip-rule="evenodd" fill="#1D1D1B" d="M192.146,0v7.311l-35.58-0.001V0h3.926v2.725h10.301V0h4.068
		v2.725h13.268V0H192.146z M171.35,14.241h-9.531c-0.918,0-1.326,0.311-1.326,0.974v0.53h12.082v-0.53
		C172.574,14.773,172.166,14.241,171.35,14.241 M192.15,9.771v4.47h-13.867c-0.865,0-1.273,0.399-1.273,0.974v0.53h15.141v4.47
		h-35.584V14.02c0-3.318,1.377-4.248,6.525-4.248h6.271c2.701,0,4.182,0.797,5.098,2.037c0.766-1.327,2.141-2.037,4.74-2.037H192.15
		z M187.303,27.968h-25.699c-0.764,0-1.172,0.298-1.172,0.843c0,0.497,0.408,0.844,1.172,0.844h25.699
		c0.766,0,1.123-0.347,1.123-0.844C188.426,28.266,188.016,27.968,187.303,27.968 M186.283,23.297c5.047,0,6.117,0.842,6.117,5.514
		c0,4.533-1.121,5.515-6.117,5.515h-23.709c-5.027,0-6.16-0.981-6.16-5.515c0-4.672,1.082-5.514,6.16-5.514H186.283z
		 M156.617,45.806V35.094h4.115v2.849h31.418V42.8h-31.418v3.006H156.617z M186.295,46.451c5.049,0,6.119,0.842,6.119,5.508
		c0,4.527-1.123,5.51-6.119,5.51h-7.762v-4.717h8.781c0.766,0,1.121-0.325,1.121-0.793c0-0.514-0.406-0.793-1.121-0.793h-9.438
		c-0.816,0-1.326,0.279-1.785,0.979l-2.191,3.27c-1.072,1.588-2.551,2.055-4.59,2.055h-6.736c-5.027,0-6.16-0.982-6.16-5.51
		c0-4.666,1.082-5.508,6.16-5.508h4.65v4.715h-5.619c-0.766,0-1.174,0.279-1.174,0.793c0,0.468,0.408,0.793,1.174,0.793h7.246
		c0.764,0,1.17-0.187,1.682-0.934l2.396-3.547c0.766-1.12,2.297-1.82,4.387-1.82H186.295z"/>
</g>
</svg>
