<?xml version="1.0" encoding="utf-8"?>
<!-- Generator: Adobe Illustrator 16.0.0, SVG Export Plug-In . SVG Version: 6.00 Build 0)  -->
<!DOCTYPE svg PUBLIC "-//W3C//DTD SVG 1.1//EN" "http://www.w3.org/Graphics/SVG/1.1/DTD/svg11.dtd">
<svg version="1.1" id="Layer_1" xmlns="http://www.w3.org/2000/svg" xmlns:xlink="http://www.w3.org/1999/xlink" x="0px" y="0px"
	 width="85px" height="85px" viewBox="0 0 85 85" enable-background="new 0 0 85 85" xml:space="preserve">
<g>
	<rect x="29.378" y="30.874" fill="#F07D00" width="9.96" height="3.052"/>
	<rect x="29.378" y="38.159" fill="#F07D00" width="20.937" height="3.049"/>
	<rect x="29.378" y="42.484" fill="#F07D00" width="20.937" height="3.052"/>
	<rect x="29.378" y="46.952" fill="#F07D00" width="16.114" height="3.051"/>
	<rect x="23" y="23.153" fill="#F07D00" width="3.715" height="36.023"/>
	<polygon fill="#F07D00" points="43.891,28.457 47.61,28.457 47.61,24.957 51.181,28.528 47.684,28.528 47.684,32.243 
		52.979,32.243 52.979,40.234 53.422,40.234 56.235,40.234 56.693,40.234 56.693,31.682 56.688,31.682 56.688,28.528 47.61,19.437 
		43.891,19.437 26.715,19.437 26.715,23.153 43.891,23.153 	"/>
	<rect x="26.787" y="59.282" fill="#F07D00" width="19.818" height="3.718"/>
	<polygon fill="#F07D00" points="60.28,51.35 60.28,43.331 56.595,43.331 56.595,51.35 48.612,51.35 48.612,55.034 56.595,55.034 
		56.595,62.979 60.28,62.979 60.28,55.034 68.261,55.034 68.261,51.35 	"/>
</g>
</svg>
