<?xml version="1.0" encoding="utf-8"?>
<!-- Generator: Adobe Illustrator 16.0.0, SVG Export Plug-In . SVG Version: 6.00 Build 0)  -->
<!DOCTYPE svg PUBLIC "-//W3C//DTD SVG 1.1//EN" "http://www.w3.org/Graphics/SVG/1.1/DTD/svg11.dtd">
<svg version="1.1" id="Layer_1" xmlns="http://www.w3.org/2000/svg" xmlns:xlink="http://www.w3.org/1999/xlink" x="0px" y="0px"
	 width="412px" height="412px" viewBox="0 0 412 412" enable-background="new 0 0 412 412" xml:space="preserve">
<symbol  id="New_Symbol_1" viewBox="116 -15 90 30">
	<polygon fill="#231F20" points="206,15 116,15 116,-15 206,-15 	"/>
	<polygon display="none" fill="none" points="116,15 206,15 206,-15 116,-15 	"/>
</symbol>
<use xlink:href="#New_Symbol_1"  width="90" height="30" id="XMLID_1_" x="116" y="-15" transform="matrix(1 0 0 -1 206 206)" overflow="visible" opacity="0.3"/>
<use xlink:href="#New_Symbol_1"  width="90" height="30" id="XMLID_9_" x="116" y="-15" transform="matrix(0.866 -0.5 -0.5 -0.866 206 206)" overflow="visible" opacity="0.2"/>
<use xlink:href="#New_Symbol_1"  width="90" height="30" id="XMLID_10_" x="116" y="-15" transform="matrix(0.5 -0.866 -0.866 -0.5 206 206)" overflow="visible" opacity="0.1"/>
<use xlink:href="#New_Symbol_1"  width="90" height="30" id="XMLID_2_" x="116" y="-15" transform="matrix(-1 0 0 1 206 206)" overflow="visible" opacity="0.9"/>
<use xlink:href="#New_Symbol_1"  width="90" height="30" id="XMLID_5_" x="116" y="-15" transform="matrix(-0.866 0.5 0.5 0.866 206 206)" overflow="visible" opacity="0.8"/>
<use xlink:href="#New_Symbol_1"  width="90" height="30" id="XMLID_6_" x="116" y="-15" transform="matrix(-0.5 0.866 0.866 0.5 206 206)" overflow="visible" opacity="0.7"/>
<use xlink:href="#New_Symbol_1"  width="90" height="30" id="XMLID_3_" x="116" y="-15" transform="matrix(1.311342e-007 -1 -1 -1.311342e-007 206 206)" overflow="visible"/>
<use xlink:href="#New_Symbol_1"  width="90" height="30" id="XMLID_11_" x="116" y="-15" transform="matrix(-0.5 -0.866 -0.866 0.5 206 206)" overflow="visible"/>
<use xlink:href="#New_Symbol_1"  width="90" height="30" id="XMLID_12_" x="116" y="-15" transform="matrix(-0.866 -0.5 -0.5 0.866 206 206)" overflow="visible"/>
<use xlink:href="#New_Symbol_1"  width="90" height="30" id="XMLID_4_" x="116" y="-15" transform="matrix(-5.960464e-008 1 1 5.960464e-008 206 206)" overflow="visible" opacity="0.6"/>
<use xlink:href="#New_Symbol_1"  width="90" height="30" id="XMLID_7_" x="116" y="-15" transform="matrix(0.5 0.866 0.866 -0.5 206 206)" overflow="visible" opacity="0.5"/>
<use xlink:href="#New_Symbol_1"  width="90" height="30" id="XMLID_8_" x="116" y="-15" transform="matrix(0.866 0.5 0.5 -0.866 206 206)" overflow="visible" opacity="0.4"/>
</svg>
