<?xml version="1.0" encoding="utf-8"?>
<!-- Generator: Adobe Illustrator 16.0.0, SVG Export Plug-In . SVG Version: 6.00 Build 0)  -->
<!DOCTYPE svg PUBLIC "-//W3C//DTD SVG 1.1 Tiny//EN" "http://www.w3.org/Graphics/SVG/1.1/DTD/svg11-tiny.dtd">
<svg version="1.1" baseProfile="tiny" id="Layer_1" xmlns="http://www.w3.org/2000/svg" xmlns:xlink="http://www.w3.org/1999/xlink"
	 x="0px" y="0px" width="46px" height="39px" viewBox="0 0 46 39" xml:space="preserve">
<path fill="#231F20" d="M28.063,0.809c-1.096-1.078-2.835-1.078-3.93,0c-1.098,1.075-1.098,2.781,0,3.854l12.432,12.192H2.744
	C1.193,16.855,0,18.11,0,19.545s1.28,2.691,2.744,2.691h33.821L24.225,34.427c-0.549,0.538-0.823,1.255-0.823,1.881
	c0,0.72,0.274,1.436,0.823,1.883c1.097,1.079,2.833,1.079,3.931,0l17.093-16.764c1.002-0.986,1.002-2.87,0-3.856L28.063,0.809z"/>
</svg>
