<?xml version="1.0" encoding="utf-8"?>
<!-- Generator: Adobe Illustrator 16.0.0, SVG Export Plug-In . SVG Version: 6.00 Build 0)  -->
<!DOCTYPE svg PUBLIC "-//W3C//DTD SVG 1.1 Tiny//EN" "http://www.w3.org/Graphics/SVG/1.1/DTD/svg11-tiny.dtd">
<svg version="1.1" baseProfile="tiny" id="Layer_1" xmlns="http://www.w3.org/2000/svg" xmlns:xlink="http://www.w3.org/1999/xlink"
	 x="0px" y="0px" width="28px" height="32px" viewBox="0 0 28 32" xml:space="preserve">
<path fill="#231F20" d="M25.871,28.84V32h-0.232h-3.895v-2.886H6.256V32H2.361H2.13v-3.16C0.784,28.314,0,26.996,0,24.553
	l0.003-5.373l0.001,0.104L1.535,4.35h2.446V0h9.856h10.182v4.35h2.446l1.53,14.935l0.002-0.104L28,24.553
	C28,26.996,27.216,28.314,25.871,28.84 M3.981,4.35L2.94,17.848H25.06L24.019,4.35H3.981z M11.381,3.298h5.237V1.024h-5.237V3.298z
	 M22.388,21.843c-1.253,0-2.037,0.655-2.037,1.939c0,1.265,0.8,1.938,2.037,1.938h1.028c1.254,0,2.037-0.656,2.037-1.94
	c0-1.265-0.8-1.937-2.037-1.937H22.388z M5.612,21.843H4.585c-1.237,0-2.037,0.672-2.037,1.937c0,1.284,0.783,1.94,2.037,1.94h1.027
	c1.237,0,2.038-0.673,2.038-1.938C7.65,22.498,6.866,21.843,5.612,21.843"/>
</svg>
