<?xml version="1.0" encoding="utf-8"?>
<!-- Generator: Adobe Illustrator 16.0.0, SVG Export Plug-In . SVG Version: 6.00 Build 0)  -->
<!DOCTYPE svg PUBLIC "-//W3C//DTD SVG 1.1//EN" "http://www.w3.org/Graphics/SVG/1.1/DTD/svg11.dtd">
<svg version="1.1" xmlns="http://www.w3.org/2000/svg" xmlns:xlink="http://www.w3.org/1999/xlink" x="0px" y="0px" width="85px"
	 height="85px" viewBox="0 0 85 85" enable-background="new 0 0 85 85" xml:space="preserve">
<g id="icones">
	<g>
		<path fill="#F07D00" d="M52.593,44.556l-1.019,1.021l2.128,0.614l0.611,2.135l1.02-1.022l-0.342-1.192l2.617-2.626l1.308,4.568
			l1.888-1.893l-1.308-4.569l2.69-2.698c0.291-0.292,0.328-0.747,0.11-1.078c-0.031-0.048-0.068-0.093-0.11-0.135
			c-0.041-0.042-0.086-0.078-0.133-0.109c-0.331-0.219-0.785-0.183-1.076,0.109l-2.69,2.699l-4.554-1.312l-1.889,1.895l4.555,1.311
			l-2.618,2.625L52.593,44.556z"/>
		<polygon fill="#F07D00" points="22.813,25.208 21.695,28.056 23.909,28.056 		"/>
		<path fill="#F07D00" d="M16.566,19.905v13.354l0,0v2.412v28.547h2.426V35.563h11.896v28.655h11.129H67.47V35.671v-2.412v-1.089
			V19.905H16.566z M64.994,54.437H33.329l-0.021-18.874h31.686V54.437z M59.349,23.262h6.007v1.539H61.3v1.528h3.662v1.54H61.3
			v1.551h4.176v1.539h-6.127V23.262z M55.359,23.195c1.14,0,2.323,0.505,3.091,1.298l-1.129,1.341c-0.504-0.615-1.25-1-1.93-1
			c-1.217,0-2.138,0.967-2.138,2.232c0,1.286,0.921,2.265,2.138,2.265c0.646,0,1.393-0.352,1.93-0.901l1.141,1.209
			c-0.822,0.846-2.04,1.408-3.169,1.408c-2.313,0-4.035-1.704-4.035-3.959C51.258,24.867,53.023,23.195,55.359,23.195z
			 M43.146,23.262h1.721l3.542,4.75v-4.75h1.819v7.697h-1.722l-3.529-4.74v4.74h-1.831V23.262z M35.759,23.262h6.007v1.539H37.71
			v1.528h3.662v1.54H37.71v1.551h4.177v1.539h-6.128V23.262z M31.341,23.195c1.141,0,2.347,0.44,3.136,1.144l-1.097,1.331
			c-0.559-0.516-1.337-0.835-2.05-0.835c-1.261,0-2.226,0.99-2.226,2.276c0,1.308,0.976,2.298,2.247,2.298
			c0.396,0,0.899-0.143,1.359-0.374v-1.99h1.688v3.002c-0.822,0.583-2.115,1-3.189,1c-2.336,0-4.102-1.693-4.102-3.937
			C27.108,24.878,28.918,23.195,31.341,23.195z M21.87,23.262h2.007l3.233,7.697h-2.083l-0.548-1.419h-3.354l-0.56,1.419H18.56
			L21.87,23.262z"/>
	</g>
</g>
<g id="cercles">
	<path fill="#F07D00" d="M42.5,5.997c20.129,0,36.503,16.375,36.503,36.503c0,20.127-16.374,36.502-36.503,36.502
		c-20.127,0-36.503-16.375-36.503-36.502C5.997,22.372,22.373,5.997,42.5,5.997 M42.5,0C19.028,0,0,19.027,0,42.5
		C0,65.971,19.028,85,42.5,85C65.973,85,85,65.971,85,42.5C85,19.027,65.973,0,42.5,0L42.5,0z"/>
</g>
</svg>
