<?xml version="1.0" encoding="utf-8"?>
<!-- Generator: Adobe Illustrator 16.0.0, SVG Export Plug-In . SVG Version: 6.00 Build 0)  -->
<!DOCTYPE svg PUBLIC "-//W3C//DTD SVG 1.1//EN" "http://www.w3.org/Graphics/SVG/1.1/DTD/svg11.dtd">
<svg version="1.1" xmlns="http://www.w3.org/2000/svg" xmlns:xlink="http://www.w3.org/1999/xlink" x="0px" y="0px" width="85px"
	 height="85px" viewBox="0 0 85 85" enable-background="new 0 0 85 85" xml:space="preserve">
<g id="icones">
	<g>
		<g>
			<path fill="#F07D00" d="M55.367,25.021c-0.045-0.068-0.098-0.134-0.158-0.194s-0.126-0.113-0.195-0.159
				c-0.481-0.317-1.141-0.265-1.563,0.159l-3.912,3.917l-6.624-1.904l-2.746,2.749l6.625,1.905l-3.808,3.811l-1.729-0.498
				l-1.481,1.484l3.096,0.889l0.89,3.099l1.48-1.482l-0.497-1.732l3.807-3.811l1.903,6.631l2.744-2.749l-1.902-6.631l3.914-3.917
				C55.632,26.164,55.685,25.504,55.367,25.021z"/>
		</g>
		<g>
			<polygon fill="#F07D00" points="29.622,21.35 58.686,21.35 58.686,17.221 29.622,17.221 29.622,21.35 25.498,21.35 
				25.498,27.029 29.622,27.029 			"/>
		</g>
		<g>
			<rect x="25.498" y="55.932" fill="#F07D00" width="4.124" height="5.679"/>
		</g>
		<g>
			<polygon fill="#F07D00" points="58.766,21.467 58.766,61.493 29.703,61.493 29.703,65.622 58.766,65.622 58.766,61.493 
				62.891,61.493 62.891,21.467 			"/>
		</g>
		<g>
			<rect x="22" y="31.158" fill="#F07D00" width="10.676" height="4.129"/>
		</g>
		<g>
			<rect x="22" y="47.674" fill="#F07D00" width="10.676" height="4.129"/>
		</g>
		<g>
			<rect x="22" y="39.416" fill="#F07D00" width="10.676" height="4.129"/>
		</g>
	</g>
</g>
<g id="cercles">
	<path fill="#F07D00" d="M42.5,5.997c20.129,0,36.503,16.375,36.503,36.503c0,20.127-16.374,36.502-36.503,36.502
		c-20.127,0-36.503-16.375-36.503-36.502C5.997,22.372,22.373,5.997,42.5,5.997 M42.5,0C19.028,0,0,19.027,0,42.5
		C0,65.971,19.028,85,42.5,85C65.973,85,85,65.971,85,42.5C85,19.027,65.973,0,42.5,0L42.5,0z"/>
</g>
</svg>
