<?xml version="1.0" encoding="utf-8"?>
<!-- Generator: Adobe Illustrator 16.0.0, SVG Export Plug-In . SVG Version: 6.00 Build 0)  -->
<!DOCTYPE svg PUBLIC "-//W3C//DTD SVG 1.1//EN" "http://www.w3.org/Graphics/SVG/1.1/DTD/svg11.dtd">
<svg version="1.1" xmlns="http://www.w3.org/2000/svg" xmlns:xlink="http://www.w3.org/1999/xlink" x="0px" y="0px" width="85px"
	 height="85px" viewBox="0 0 85 85" enable-background="new 0 0 85 85" xml:space="preserve">
<g id="icones">
</g>
<g id="cercles">
	<path fill="#F07D00" d="M42.5,5.997c20.128,0,36.503,16.375,36.503,36.502c0,20.128-16.375,36.503-36.503,36.503
		S5.997,62.627,5.997,42.5C5.997,22.372,22.372,5.997,42.5,5.997 M42.5,0C19.028,0,0,19.028,0,42.5C0,65.972,19.028,85,42.5,85
		C65.973,85,85,65.972,85,42.5C85,19.028,65.973,0,42.5,0L42.5,0z"/>
	<g>
		<polygon fill="#F07D00" points="40.586,32.136 47.184,28.176 42.66,20.642 46.914,18.089 34.831,15.071 31.811,27.156 
			36.063,24.602 		"/>
		<path fill="#F07D00" d="M68.595,24.871l-2.098-3.5l-37.31,22.362l-0.003,0.005v-0.007l-0.002,0.007
			c-0.003-1.556-1.276-2.828-2.832-2.828h-3.247c-1.559,0-2.834,1.275-2.834,2.833v4.08v18.879h8.913V53.125l0.001-4.616
			L68.595,24.871z"/>
	</g>
</g>
</svg>
