<?xml version="1.0" encoding="utf-8"?>
<!-- Generator: Adobe Illustrator 16.0.0, SVG Export Plug-In . SVG Version: 6.00 Build 0)  -->
<!DOCTYPE svg PUBLIC "-//W3C//DTD SVG 1.1//EN" "http://www.w3.org/Graphics/SVG/1.1/DTD/svg11.dtd">
<svg version="1.1" xmlns="http://www.w3.org/2000/svg" xmlns:xlink="http://www.w3.org/1999/xlink" x="0px" y="0px" width="85px"
	 height="85px" viewBox="0 0 85 85" enable-background="new 0 0 85 85" xml:space="preserve">
<g id="icones">
	<g>
		<polygon fill="#F07D00" points="45.061,60.278 40.9,72.253 42.572,72.253 46.744,60.278 		"/>
		<path fill="#F07D00" d="M49.634,63.751c-1.219,0-2.112,0.285-3.149,0.803l0.622,1.374c0.726-0.401,1.451-0.608,2.073-0.608
			c0.959,0,1.451,0.428,1.451,1.167v0.128h-1.918c-1.71,0.013-2.656,0.791-2.656,2.1c0,1.27,0.907,2.177,2.397,2.177
			c0.973,0,1.724-0.323,2.19-0.907v0.817h1.956l-0.013-4.549C52.575,64.684,51.5,63.751,49.634,63.751z M50.631,68.417
			c-0.116,0.595-0.776,1.049-1.62,1.049c-0.674,0-1.088-0.351-1.088-0.881c0-0.557,0.375-0.791,1.141-0.791h1.567V68.417z"/>
		<path fill="#F07D00" d="M58.727,63.751c-1.087,0.014-1.917,0.428-2.41,1.296v-1.218H54.32v6.973h1.996v-3.436
			c0-1.023,0.597-1.774,1.595-1.788c0.854,0,1.374,0.545,1.374,1.425v3.798h1.995v-4.381C61.28,64.788,60.283,63.751,58.727,63.751z
			"/>
		<polygon fill="#F07D00" points="43.611,11.699 37.24,18.281 48.706,30.136 21.313,30.136 21.313,39.447 48.718,39.447 
			37.254,51.301 43.623,57.883 65.964,34.784 		"/>
		<polygon fill="#F07D00" points="19.542,47.3 25.047,52.991 11.895,52.991 11.895,57.461 25.052,57.461 19.548,63.152 
			22.604,66.313 33.332,55.223 22.6,44.14 		"/>
	</g>
</g>
<g id="cercles">
	<path fill="#F07D00" d="M42.5,5.997c20.129,0,36.503,16.375,36.503,36.503c0,20.127-16.374,36.502-36.503,36.502
		c-20.127,0-36.503-16.375-36.503-36.502C5.997,22.372,22.373,5.997,42.5,5.997 M42.5,0C19.028,0,0,19.027,0,42.5
		C0,65.971,19.028,85,42.5,85C65.973,85,85,65.971,85,42.5C85,19.027,65.973,0,42.5,0L42.5,0z"/>
</g>
</svg>
