<?xml version="1.0" encoding="utf-8"?>
<!-- Generator: Adobe Illustrator 16.0.0, SVG Export Plug-In . SVG Version: 6.00 Build 0)  -->
<!DOCTYPE svg PUBLIC "-//W3C//DTD SVG 1.1//EN" "http://www.w3.org/Graphics/SVG/1.1/DTD/svg11.dtd">
<svg version="1.1" xmlns="http://www.w3.org/2000/svg" xmlns:xlink="http://www.w3.org/1999/xlink" x="0px" y="0px" width="214px"
	 height="85px" viewBox="0 0 214 85" enable-background="new 0 0 214 85" xml:space="preserve">
<g id="icones">
	<g>
		<path fill="#E65028" d="M109.681,44.048v9.909h-6.425v-9.909h-9.844v-6.429h9.844v-9.908h6.425v9.908h9.903v6.429H109.681z"/>
	</g>
	<g>
		<path fill="#E65028" d="M41.606,28.021c-1.12-0.991-2.539-1.762-4.259-2.313c-1.721-0.552-3.756-0.829-6.108-0.829h-9.231v5.065
			V60.09h5.072V47.695h4.159c2.288,0,4.282-0.283,5.987-0.851c1.703-0.569,3.123-1.365,4.258-2.388
			c1.136-1.022,1.987-2.244,2.557-3.664c0.566-1.42,0.852-2.983,0.852-4.688c0-1.64-0.269-3.15-0.804-4.529
			C43.554,30.195,42.727,29.009,41.606,28.021z M38.664,38.795c-0.291,0.804-0.729,1.485-1.313,2.046
			c-0.585,0.56-1.323,0.99-2.216,1.29c-0.892,0.301-1.938,0.45-3.14,0.45H27.08V29.943h4.916c1.201,0,2.248,0.143,3.14,0.426
			c0.893,0.285,1.631,0.695,2.216,1.23c0.584,0.536,1.021,1.185,1.313,1.947c0.293,0.764,0.438,1.616,0.438,2.558
			C39.103,37.094,38.957,37.991,38.664,38.795z"/>
		<polygon fill="#E65028" points="48.172,25.029 48.172,30.293 55.037,30.293 55.037,60.122 60.949,60.122 60.949,25.029 		"/>
	</g>
	<g>
		<path fill="#E65028" d="M186.513,37.336c-4.409,0-7.716,1.704-9.57,4.962c-0.2-7.569,2.956-12.683,9.771-12.683
			c2.655,0,5.611,0.801,7.767,2.206l2.305-4.462c-2.855-1.604-7.015-2.657-10.472-2.657c-9.27,0-15.132,7.319-15.132,18.498
			c0,10.778,5.411,17.095,14.28,17.095c7.466,0,12.326-4.511,12.326-11.781C197.787,41.698,193.527,37.336,186.513,37.336z
			 M185.16,55.184c-5.061,0-7.315-3.459-7.266-6.518c-0.05-3.608,2.756-6.668,7.516-6.668c4.259,0,6.865,2.457,6.865,6.468
			C192.275,52.727,189.419,55.184,185.16,55.184z"/>
		<path fill="#E65028" d="M164.859,27.944c-1.119-0.991-2.54-1.762-4.259-2.313c-1.72-0.552-3.757-0.828-6.109-0.828h-9.23v5.064
			v30.146h5.071V47.619h4.159c2.288,0,4.284-0.283,5.987-0.852s3.123-1.364,4.26-2.388c1.135-1.022,1.986-2.243,2.555-3.663
			c0.568-1.421,0.852-2.984,0.852-4.688c0-1.64-0.268-3.149-0.803-4.529C166.807,30.12,165.979,28.934,164.859,27.944z
			 M161.918,38.72c-0.292,0.803-0.73,1.484-1.314,2.045c-0.584,0.56-1.323,0.991-2.216,1.29c-0.892,0.302-1.938,0.451-3.138,0.451
			h-4.918V29.867h4.918c1.199,0,2.246,0.143,3.138,0.427c0.893,0.284,1.632,0.695,2.216,1.23c0.584,0.535,1.022,1.184,1.314,1.947
			c0.291,0.764,0.438,1.616,0.438,2.557C162.355,37.019,162.209,37.916,161.918,38.72z"/>
	</g>
	<path fill="#E65028" d="M42.5,5.997c20.129,0,36.503,16.375,36.503,36.503c0,20.127-16.374,36.502-36.503,36.502
		c-20.127,0-36.503-16.375-36.503-36.502C5.997,22.372,22.373,5.997,42.5,5.997 M42.5,0C19.028,0,0,19.028,0,42.5
		C0,65.971,19.028,85,42.5,85C65.973,85,85,65.971,85,42.5C85,19.028,65.973,0,42.5,0L42.5,0z"/>
	<path fill="#E65028" d="M171.5,5.997c20.129,0,36.503,16.375,36.503,36.503c0,20.127-16.374,36.502-36.503,36.502
		c-20.127,0-36.503-16.375-36.503-36.502C134.997,22.372,151.373,5.997,171.5,5.997 M171.5,0C148.028,0,129,19.028,129,42.5
		c0,23.471,19.028,42.5,42.5,42.5c23.473,0,42.5-19.029,42.5-42.5C214,19.028,194.973,0,171.5,0L171.5,0z"/>
</g>
<g id="cercles">
</g>
</svg>
