<?xml version="1.0" encoding="utf-8"?>
<!-- Generator: Adobe Illustrator 16.0.0, SVG Export Plug-In . SVG Version: 6.00 Build 0)  -->
<!DOCTYPE svg PUBLIC "-//W3C//DTD SVG 1.1//EN" "http://www.w3.org/Graphics/SVG/1.1/DTD/svg11.dtd">
<svg version="1.1" xmlns="http://www.w3.org/2000/svg" xmlns:xlink="http://www.w3.org/1999/xlink" x="0px" y="0px" width="85px"
	 height="85px" viewBox="0 0 85 85" enable-background="new 0 0 85 85" xml:space="preserve">
<g id="icones">
	<g>
		<path fill="#E65028" d="M51.83,54.858l9.096-9.676c3.698-4.01,6.397-7.971,6.397-11.529c0-5.365-4.548-8.823-11.146-8.823
			c-4.499,0-8.947,1.904-12.745,5.013l2.349,4.562c2.949-2.707,6.498-4.411,9.547-4.411c3.648,0,5.847,1.705,5.847,4.512
			c0,2.005-1.699,4.863-4.248,7.47L44.031,55.86v4.312h24.891v-5.314H51.83z"/>
		<path fill="#E65028" d="M35.884,28.071c-1.117-0.991-2.533-1.762-4.248-2.313c-1.716-0.551-3.748-0.829-6.094-0.829h-9.208v5.065
			V60.14h5.059V47.745h4.149c2.282,0,4.271-0.283,5.972-0.852c1.699-0.568,3.115-1.364,4.249-2.387
			c1.132-1.022,1.981-2.244,2.549-3.664c0.566-1.421,0.85-2.983,0.85-4.688c0-1.64-0.268-3.15-0.802-4.529
			C37.826,30.246,37.001,29.06,35.884,28.071z M32.948,38.845c-0.291,0.804-0.727,1.485-1.31,2.046
			c-0.583,0.56-1.319,0.991-2.21,1.29c-0.89,0.301-1.934,0.451-3.132,0.451h-4.904V29.994h4.904c1.198,0,2.242,0.143,3.132,0.426
			c0.891,0.285,1.627,0.695,2.21,1.231c0.583,0.536,1.019,1.185,1.31,1.947c0.292,0.763,0.438,1.615,0.438,2.557
			C33.386,37.145,33.24,38.042,32.948,38.845z"/>
	</g>
</g>
<g id="cercles">
	<path fill="#E65028" d="M42.5,5.997c20.129,0,36.503,16.375,36.503,36.503c0,20.127-16.374,36.502-36.503,36.502
		c-20.127,0-36.503-16.375-36.503-36.502C5.997,22.372,22.373,5.997,42.5,5.997 M42.5,0C19.028,0,0,19.027,0,42.5
		C0,65.971,19.028,85,42.5,85C65.973,85,85,65.971,85,42.5C85,19.027,65.973,0,42.5,0L42.5,0z"/>
</g>
</svg>
