<?xml version="1.0" encoding="utf-8"?>
<!-- Generator: Adobe Illustrator 16.0.0, SVG Export Plug-In . SVG Version: 6.00 Build 0)  -->
<!DOCTYPE svg PUBLIC "-//W3C//DTD SVG 1.1//EN" "http://www.w3.org/Graphics/SVG/1.1/DTD/svg11.dtd">
<svg version="1.1" xmlns="http://www.w3.org/2000/svg" xmlns:xlink="http://www.w3.org/1999/xlink" x="0px" y="0px" width="85px"
	 height="85px" viewBox="0 0 85 85" enable-background="new 0 0 85 85" xml:space="preserve">
<g id="icones">
	<g>
		<path fill="#F07D00" d="M57.876,39.693l-1.798-0.2l9.996-10.828v-3.71H44.782v5.265h13.994l-9.097,9.825v3.458h4.849
			c4.647,0,7.396,1.956,7.396,5.766c0,3.609-2.697,6.016-7.346,6.016c-3.199,0-6.447-1.303-8.946-3.659l-2.449,4.812
			c2.999,2.307,7.497,3.81,11.795,3.81c7.798,0,12.746-4.561,12.746-11.128C67.724,43.603,63.725,40.194,57.876,39.693z"/>
		<path fill="#F07D00" d="M37.082,27.896c-1.116-0.991-2.533-1.762-4.247-2.313c-1.716-0.552-3.748-0.829-6.095-0.829h-9.207v5.065
			v30.146h5.059V47.57h4.148c2.283,0,4.273-0.283,5.973-0.852c1.699-0.568,3.115-1.364,4.249-2.387
			c1.132-1.022,1.982-2.244,2.549-3.664c0.566-1.42,0.85-2.983,0.85-4.688c0-1.639-0.268-3.149-0.802-4.528
			C39.025,30.07,38.199,28.884,37.082,27.896z M34.148,38.67c-0.291,0.804-0.729,1.485-1.311,2.046
			c-0.583,0.56-1.32,0.991-2.209,1.289c-0.891,0.302-1.936,0.451-3.132,0.451h-4.905V29.818h4.905c1.196,0,2.241,0.143,3.132,0.426
			c0.889,0.285,1.626,0.695,2.209,1.23c0.582,0.536,1.02,1.185,1.311,1.948c0.292,0.763,0.437,1.615,0.437,2.556
			C34.585,36.97,34.44,37.866,34.148,38.67z"/>
	</g>
</g>
<g id="cercles">
	<path fill="#F07D00" d="M42.5,5.997c20.129,0,36.503,16.375,36.503,36.503c0,20.127-16.374,36.502-36.503,36.502
		c-20.127,0-36.503-16.375-36.503-36.502C5.997,22.372,22.373,5.997,42.5,5.997 M42.5,0C19.028,0,0,19.027,0,42.5
		C0,65.971,19.028,85,42.5,85C65.973,85,85,65.971,85,42.5C85,19.027,65.973,0,42.5,0L42.5,0z"/>
</g>
</svg>
