<?xml version="1.0" encoding="utf-8"?>
<!-- Generator: Adobe Illustrator 16.0.0, SVG Export Plug-In . SVG Version: 6.00 Build 0)  -->
<!DOCTYPE svg PUBLIC "-//W3C//DTD SVG 1.1//EN" "http://www.w3.org/Graphics/SVG/1.1/DTD/svg11.dtd">
<svg version="1.1" xmlns="http://www.w3.org/2000/svg" xmlns:xlink="http://www.w3.org/1999/xlink" x="0px" y="0px" width="85px"
	 height="85px" viewBox="0 0 85 85" enable-background="new 0 0 85 85" xml:space="preserve">
<g id="icones">
	<g>
		<g>
			<g>
				<path fill="#E65028" d="M47.504,32.555l-7.71-1.168l-4.705,4.72c-0.001,0.001-0.001,0.001-0.002,0.002
					c-1.731,1.736-2.314,3.482-1.344,5.739l2.636,6.128c0,0,0.652-0.194,1.278-0.822c0.091-0.092,0.182-0.192,0.27-0.302
					c1.114-1.252,0.855-3.836,0.769-4.726c-0.088-0.887-0.156-2.558-0.156-2.558c1.146-1.15,1.568-1.573,1.568-1.573l5.419,3.464
					c2.024,1.382,5.07,1.095,6.798-0.638c0.002-0.001,0.002-0.001,0.002-0.001c0.186-0.186,0.365-0.367,0.543-0.544l1.848,1.853
					l3.027,3.038c0.118-0.2,0.252-0.394,0.424-0.565l2.464-2.473L49.294,30.757L47.504,32.555z"/>
				<g>
					<path fill="#E65028" d="M31.549,52.513l-2.712,2.72c-0.406,0.408-0.406,1.075,0,1.483l1.479,1.483
						c0.407,0.408,1.072,0.408,1.479,0l2.711-2.719c0.813-0.816,0.813-2.15,0-2.967C33.692,51.697,32.362,51.697,31.549,52.513z"/>
					<path fill="#E65028" d="M26.618,49.547l-1.231,1.235c-0.407,0.408-0.407,1.076,0,1.484l1.479,1.483
						c0.407,0.408,1.072,0.408,1.479,0l1.232-1.236c0.813-0.816,0.813-2.151,0-2.966C28.764,48.73,27.432,48.73,26.618,49.547z"/>
					<path fill="#E65028" d="M36.478,55.479l-3.697,3.708c-0.406,0.408-0.406,1.076,0,1.483l1.479,1.484
						c0.406,0.408,1.071,0.408,1.479,0l3.697-3.708c0.813-0.816,0.813-2.15,0-2.966C38.621,54.663,37.291,54.663,36.478,55.479z"/>
					<path fill="#E65028" d="M41.9,63.885c0.813-0.816,0.813-2.15,0-2.966c-0.814-0.816-2.146-0.816-2.958,0l-1.726,1.73
						c-0.406,0.408-0.406,1.075,0,1.483l1.479,1.483c0.407,0.408,1.072,0.408,1.479,0L41.9,63.885z"/>
				</g>
			</g>
			<path fill="#E65028" d="M63.097,42.624l6.407-6.428L55.703,22.352l-6.409,6.429L63.097,42.624z M61.617,37.185l1.973-1.978
				l1.972,1.978l-1.972,1.978L61.617,37.185z"/>
		</g>
		<g>
			<path fill="#E65028" d="M52.845,42.229c-2.242,1.832-5.668,2.035-8.085,0.399l-4.457-2.853l-0.342,0.344
				c0.027,0.554,0.072,1.362,0.122,1.881c0.109,1.109,0.397,4.043-1.09,5.751c-0.108,0.136-0.227,0.267-0.351,0.39
				c-0.834,0.836-1.703,1.125-1.868,1.173l-1.186,0.353l-0.49-1.139L32.462,42.4c-1.14-2.65-0.603-5.032,1.642-7.283l2.867-2.876
				l-1.972-1.978L24.154,41.14l3.943,3.957c0.682,0.684,0.934,1.642,0.757,2.53c0.627,0.139,1.223,0.443,1.708,0.93
				c0.631,0.634,0.956,1.451,1,2.28c1.29-0.598,2.868-0.378,3.93,0.688c0.63,0.632,0.955,1.449,1,2.279
				c1.289-0.6,2.868-0.378,3.93,0.687c1.207,1.211,1.335,3.093,0.398,4.454c0.755,0.087,1.487,0.405,2.065,0.985
				c0.802,0.804,1.118,1.904,0.974,2.954l0.013,0.013c0.542,0.543,1.429,0.543,1.973,0l0.984-0.989c0.542-0.544,0.542-1.435,0-1.978
				l-0.984-0.989l0.984-0.988l1.479,1.482c0.542,0.544,1.43,0.545,1.972,0l0.985-0.989c0.543-0.543,0.543-1.434,0-1.978
				l-1.479-1.484l0.985-0.989l1.973,1.979c0.542,0.544,1.429,0.544,1.972,0l0.986-0.99c0.541-0.543,0.541-1.434,0-1.978
				l-1.973-1.978l0.986-0.989l1.972,1.978c0.542,0.543,1.43,0.543,1.972,0l0.986-0.989c0.453-0.455,0.521-1.148,0.218-1.682
				c-0.061-0.105-0.129-0.207-0.218-0.296L52.845,42.229z"/>
			<path fill="#E65028" d="M34.999,28.286l-5.915-5.934l-13.31,13.35l5.916,5.933L34.999,28.286z M20.703,37.68
				c-0.542-0.543-0.542-1.434,0-1.978c0.542-0.543,1.43-0.543,1.972,0c0.543,0.544,0.543,1.434,0,1.978
				C22.133,38.224,21.245,38.224,20.703,37.68z"/>
		</g>
	</g>
</g>
<g id="cercles">
	<path fill="#E65028" d="M42.5,5.997c20.129,0,36.503,16.375,36.503,36.503c0,20.127-16.374,36.502-36.503,36.502
		c-20.127,0-36.503-16.375-36.503-36.502C5.997,22.372,22.373,5.997,42.5,5.997 M42.5,0C19.028,0,0,19.027,0,42.5
		C0,65.971,19.028,85,42.5,85C65.973,85,85,65.971,85,42.5C85,19.027,65.973,0,42.5,0L42.5,0z"/>
</g>
</svg>
