<?xml version="1.0" encoding="utf-8"?>
<!-- Generator: Adobe Illustrator 16.0.0, SVG Export Plug-In . SVG Version: 6.00 Build 0)  -->
<!DOCTYPE svg PUBLIC "-//W3C//DTD SVG 1.1//EN" "http://www.w3.org/Graphics/SVG/1.1/DTD/svg11.dtd">
<svg version="1.1" xmlns="http://www.w3.org/2000/svg" xmlns:xlink="http://www.w3.org/1999/xlink" x="0px" y="0px" width="85px"
	 height="85px" viewBox="0 0 85 85" enable-background="new 0 0 85 85" xml:space="preserve">
<g id="icones">
	<g>
		<path fill="none" d="M37.686,24.476c0.082,0.214,0.284,0.335,0.449,0.271c0.166-0.065,0.232-0.291,0.15-0.504
			c-0.041-0.106,0.208-0.315,0.126-0.364c-0.081-0.049-0.493,0.063-0.576,0.095c-0.089,0.034-0.469,0.24-0.494,0.34
			C37.32,24.399,37.646,24.376,37.686,24.476z"/>
		<path fill="none" d="M23.197,24.47c0,0.434,0.35,0.785,0.781,0.785c0.433,0,0.783-0.352,0.783-0.785
			c0-0.217,0.746-0.414,0.604-0.555c-0.142-0.143-1.171-0.229-1.388-0.229c-0.23,0-1.272,0.099-1.415,0.259
			C22.438,24.083,23.197,24.268,23.197,24.47z"/>
		<path fill="#F07D00" d="M30.184,39.497c0-0.806-0.016-2.16-0.734-3.314c-0.658-1.057-2.047-2.156-5.307-2.156
			c-4.424,0-6.405,1.845-6.405,4.967l0.008,8.408h3.625v-8.396c0-1.147,0.176-3.179,2.592-3.179c2.414,0,2.591,2.031,2.591,3.179
			l0.002,8.34h3.629V39.497z"/>
		<rect x="21.37" y="51.039" fill="#F07D00" width="5.185" height="15.713"/>
		<path fill="#F07D00" d="M20.736,27.688v2.093c0,1.884,1.11,3.103,3.198,3.103c2.118,0,3.199-1.193,3.199-3.103v-2.093
			c0-0.24-1.11-0.46-3.197-0.46C21.817,27.229,20.736,27.448,20.736,27.688z"/>
		<path fill="#F07D00" d="M23.9,26.152c2.018,0,3.309,0.3,3.309,0.3l1.977-2.283c0,0-1.414-1.322-5.203-1.322
			c-3.788,0-5.277,1.322-5.277,1.322l1.976,2.283C20.681,26.452,21.883,26.152,23.9,26.152z M22.563,23.945
			c0.143-0.16,1.185-0.259,1.415-0.259c0.217,0,1.246,0.086,1.388,0.229c0.142,0.142-0.604,0.338-0.604,0.555
			c0,0.434-0.351,0.785-0.783,0.785c-0.432,0-0.781-0.352-0.781-0.785C23.197,24.268,22.438,24.083,22.563,23.945z"/>
		<rect x="17.752" y="50.019" fill="#F07D00" width="3.596" height="0.997"/>
		<rect x="17.752" y="48.248" fill="#F07D00" width="3.596" height="0.905"/>
		<rect x="26.591" y="49.964" fill="#F07D00" width="3.597" height="0.996"/>
		<rect x="26.591" y="48.206" fill="#F07D00" width="3.597" height="0.905"/>
		<rect x="36.516" y="50.935" fill="#F07D00" width="5.184" height="15.713"/>
		<path fill="#F07D00" d="M35.947,28.177c-0.022,0.181-0.034,0.369-0.034,0.565v0.772c0,1.884,1.111,3.102,3.198,3.102
			c2.119,0,3.2-1.194,3.2-3.102v-0.772c0-1.413-0.624-2.452-1.817-2.883c0,0-1.002,0.182-2.484,0.925
			C36.527,27.528,35.947,28.177,35.947,28.177z"/>
		<path fill="#F07D00" d="M37.496,25.779c1.036-0.504,2.352-0.801,2.352-0.801s-1.561-1.892-1.744-1.908
			c-0.316-0.026-0.631,0.211-1.648,1.103c-0.752,0.66-0.977-0.19-1.602-0.003c-0.625,0.188,0.483,3.006,0.483,3.006
			S36.461,26.284,37.496,25.779z M37.835,23.972c0.083-0.032,0.495-0.144,0.576-0.095c0.082,0.049-0.167,0.258-0.126,0.364
			c0.082,0.213,0.016,0.439-0.15,0.504c-0.165,0.064-0.367-0.057-0.449-0.271c-0.039-0.1-0.365-0.076-0.345-0.164
			C37.366,24.212,37.746,24.006,37.835,23.972z"/>
		<polygon fill="#F07D00" points="44.599,42.945 44.605,42.943 42.043,34.393 36.1,34.393 33.537,42.943 33.545,42.945 
			33.566,42.971 31.217,50.927 35.017,50.927 36.333,46.245 36.334,46.246 38.915,37.061 39.069,37.061 39.074,37.061 
			39.229,37.061 41.81,46.246 41.811,46.246 43.126,50.927 46.927,50.927 44.576,42.971 		"/>
		<path fill="#F07D00" d="M65.477,19.704c-0.052-0.078-0.111-0.152-0.18-0.221c-0.068-0.068-0.141-0.127-0.219-0.178
			c-0.544-0.359-1.286-0.3-1.764,0.178L58.9,23.911l-7.472-2.152l-3.097,3.107l7.472,2.151l-4.294,4.307l-1.951-0.562l-1.672,1.676
			l3.493,1.005l1.002,3.502l1.671-1.675l-0.561-1.958l4.295-4.307l2.145,7.494l3.098-3.106L60.884,25.9l4.413-4.427
			C65.775,20.994,65.834,20.249,65.477,19.704z"/>
	</g>
</g>
<g id="cercles">
	<path fill="#F07D00" d="M42.5,5.997c20.129,0,36.503,16.375,36.503,36.503c0,20.127-16.374,36.502-36.503,36.502
		c-20.127,0-36.503-16.375-36.503-36.502C5.997,22.372,22.373,5.997,42.5,5.997 M42.5,0C19.028,0,0,19.027,0,42.5
		C0,65.971,19.028,85,42.5,85C65.973,85,85,65.971,85,42.5C85,19.027,65.973,0,42.5,0L42.5,0z"/>
</g>
</svg>
