<?xml version="1.0" encoding="utf-8"?>
<!-- Generator: Adobe Illustrator 16.0.0, SVG Export Plug-In . SVG Version: 6.00 Build 0)  -->
<!DOCTYPE svg PUBLIC "-//W3C//DTD SVG 1.1 Tiny//EN" "http://www.w3.org/Graphics/SVG/1.1/DTD/svg11-tiny.dtd">
<svg version="1.1" baseProfile="tiny" id="Layer_1" xmlns="http://www.w3.org/2000/svg" xmlns:xlink="http://www.w3.org/1999/xlink"
	 x="0px" y="0px" width="16px" height="16px" viewBox="0 0 16 16" xml:space="preserve">
<path fill="#231F20" d="M15.121,15.125h-2.917V12.85h2.917V15.125z M8.427,12.849h2.897v2.275H8.427V12.849z M4.65,12.849h2.897
	v2.275H4.65V12.849z M0.879,12.849H3.77v2.275H0.879V12.849z M0.879,2.087h1.719C2.784,2.802,3.433,3.333,4.21,3.333
	c0.777,0,1.426-0.531,1.614-1.246h4.327c0.189,0.715,0.837,1.246,1.614,1.246s1.426-0.531,1.614-1.246h1.742v3.252H0.879V2.087z
	 M3.416,1.667c0-0.173,0.067-0.327,0.163-0.457C3.723,1.012,3.946,0.875,4.21,0.875c0.264,0,0.486,0.137,0.63,0.334
	c0.096,0.13,0.164,0.284,0.164,0.457c0,0.157-0.058,0.296-0.138,0.42c-0.142,0.218-0.377,0.37-0.656,0.37
	c-0.279,0-0.515-0.152-0.656-0.37C3.474,1.962,3.416,1.823,3.416,1.667 M10.971,1.667c0-0.173,0.067-0.327,0.163-0.457
	c0.143-0.197,0.367-0.334,0.631-0.334c0.263,0,0.486,0.137,0.629,0.334c0.097,0.13,0.164,0.284,0.164,0.457
	c0,0.157-0.057,0.296-0.137,0.42c-0.143,0.218-0.377,0.37-0.656,0.37c-0.28,0-0.515-0.152-0.657-0.37
	C11.028,1.962,10.971,1.823,10.971,1.667 M12.204,9.533h2.917v2.44h-2.917V9.533z M8.427,9.533h2.897v2.44H8.427V9.533z M4.65,9.533
	h2.897v2.44H4.65V9.533z M0.879,9.533H3.77v2.44H0.879V9.533z M3.769,8.657H0.878V6.217h2.891V8.657z M7.548,8.657H4.651V6.217
	h2.897V8.657z M11.324,8.657H8.427V6.217h2.897V8.657z M15.121,8.657h-2.917V6.217h2.917V8.657z M15.121,1.209h-1.755
	C13.166,0.514,12.527,0,11.765,0s-1.402,0.514-1.603,1.209H5.811C5.612,0.514,4.973,0,4.21,0C3.446,0,2.808,0.514,2.608,1.209H0.879
	C0.394,1.209,0,1.602,0,2.087v13.038C0,15.607,0.394,16,0.879,16h14.242C15.605,16,16,15.607,16,15.125V2.087
	C16,1.602,15.605,1.209,15.121,1.209"/>
</svg>
