<?xml version="1.0" encoding="utf-8"?>
<!-- Generator: Adobe Illustrator 16.0.0, SVG Export Plug-In . SVG Version: 6.00 Build 0)  -->
<!DOCTYPE svg PUBLIC "-//W3C//DTD SVG 1.1 Tiny//EN" "http://www.w3.org/Graphics/SVG/1.1/DTD/svg11-tiny.dtd">
<svg version="1.1" baseProfile="tiny" id="Layer_1" xmlns="http://www.w3.org/2000/svg" xmlns:xlink="http://www.w3.org/1999/xlink"
	 x="0px" y="0px" width="46px" height="38px" viewBox="0 0 46 38" xml:space="preserve">
<path fill="#231F20" d="M3.232,32.87C1.188,31.988,0,29.883,0,26.062l0.005-5.231c0-1.877,0.321-3.188,0.784-4.118L7.513,2.599
	h3.187L10.693,0h24.613l-0.004,2.599h3.188l6.723,14.114c0.461,0.93,0.783,2.241,0.783,4.118L46,26.062
	c0,3.821-1.188,5.926-3.23,6.808L42.747,38h-6.014l-0.005-4.625H23.164H9.273L9.268,38H3.25L3.232,32.87z M8.219,21.093H6.586
	c-1.964,0-3.232,1.078-3.232,3.105c0,2.058,1.243,3.107,3.232,3.107h1.633c1.963,0,3.233-1.078,3.233-3.107
	C11.452,22.142,10.208,21.093,8.219,21.093 M37.783,21.093c-1.993,0-3.234,1.049-3.234,3.105c0,2.029,1.27,3.107,3.234,3.107h1.632
	c1.988,0,3.233-1.049,3.233-3.107c0-2.027-1.272-3.105-3.233-3.105H37.783z M10.699,2.599L6.076,14.933h33.851L35.302,2.599H10.699z
	"/>
</svg>
