<?xml version="1.0" encoding="utf-8"?>
<!-- Generator: Adobe Illustrator 16.0.0, SVG Export Plug-In . SVG Version: 6.00 Build 0)  -->
<!DOCTYPE svg PUBLIC "-//W3C//DTD SVG 1.1 Tiny//EN" "http://www.w3.org/Graphics/SVG/1.1/DTD/svg11-tiny.dtd">
<svg version="1.1" baseProfile="tiny" id="Layer_1" xmlns="http://www.w3.org/2000/svg" xmlns:xlink="http://www.w3.org/1999/xlink"
	 x="0px" y="0px" width="52px" height="43px" viewBox="0 0 52 43" xml:space="preserve">
<g>
	<path fill="#231F20" d="M51.994,23.571c0-2.123-0.362-3.606-0.883-4.659L43.509,2.94h-3.602l5.225,13.958H6.868L12.093,2.94H8.49
		L0.89,18.912c-0.521,1.053-0.886,2.537-0.886,4.659L0,29.491c0,4.327,1.343,6.707,3.651,7.706L3.674,43h6.801l0.007-5.235h15.702
		h15.334L41.522,43h6.802l0.024-5.803C50.656,36.198,52,33.818,52,29.491L51.994,23.571z M36.106,31.483H15.894v-4.559h20.213
		V31.483z"/>
	<polygon fill="#231F20" points="39.91,0 12.09,0 12.093,2.94 39.907,2.94 	"/>
</g>
</svg>
