<?xml version="1.0" encoding="utf-8"?>
<!-- Generator: Adobe Illustrator 16.0.0, SVG Export Plug-In . SVG Version: 6.00 Build 0)  -->
<!DOCTYPE svg PUBLIC "-//W3C//DTD SVG 1.1//EN" "http://www.w3.org/Graphics/SVG/1.1/DTD/svg11.dtd">
<svg version="1.1" id="Layer_1" xmlns="http://www.w3.org/2000/svg" xmlns:xlink="http://www.w3.org/1999/xlink" x="0px" y="0px"
	 width="44px" height="44px" viewBox="0 0 44 44" enable-background="new 0 0 44 44" xml:space="preserve">
<g>
	<polygon fill="#231F20" points="9.265,44 9.265,24.351 3.028,30.865 3.028,44 	"/>
	<g>
		<polygon fill="#231F20" points="18.716,44 18.716,25.278 12.478,22.383 12.478,44 		"/>
	</g>
	<polygon fill="#231F20" points="28.167,44 28.167,29.609 21.93,26.713 21.93,44 	"/>
	<polygon fill="#231F20" points="37.619,44 37.619,14.816 31.381,25.674 31.381,44 	"/>
	<polygon fill="#231F20" points="2.082,28.084 0,25.878 11.268,15.305 26.032,21.694 38.614,1.455 41.195,3.051 27.229,25.513 
		11.893,18.876 	"/>
	<polygon fill="#231F20" points="31.852,5.131 37.078,3.917 32.519,11.305 35.126,12.779 39.688,5.389 41.098,10.359 44,9.684 
		41.252,0 31.068,2.371 	"/>
</g>
</svg>
