<?xml version="1.0" encoding="utf-8"?>
<!-- Generator: Adobe Illustrator 16.0.0, SVG Export Plug-In . SVG Version: 6.00 Build 0)  -->
<!DOCTYPE svg PUBLIC "-//W3C//DTD SVG 1.1 Tiny//EN" "http://www.w3.org/Graphics/SVG/1.1/DTD/svg11-tiny.dtd">
<svg version="1.1" baseProfile="tiny" id="Layer_1" xmlns="http://www.w3.org/2000/svg" xmlns:xlink="http://www.w3.org/1999/xlink"
	 x="0px" y="0px" width="17px" height="17px" viewBox="0 0 17 17" xml:space="preserve">
<g>
	<path fill="#231F20" d="M14.875,11.604L17,14.017C15.314,15.83,12.843,17,10.463,17c-3.879,0-6.998-2.411-8.061-5.874H0V9.36h2.055
		C2.033,9.073,2.01,8.763,2.01,8.452c0-0.357,0.023-0.691,0.045-1.026H0V5.659h2.449C3.58,2.292,6.722,0,10.625,0
		C12.981,0,15.407,1.074,17,2.77l-2.125,2.675c-1.109-1.313-2.703-2.173-4.228-2.173c-1.779,0-3.326,0.931-4.181,2.388h5.336v1.767
		H5.821C5.751,7.737,5.729,8.07,5.729,8.404c0,0.334,0.023,0.645,0.069,0.956h6.005v1.766H6.444
		c0.855,1.481,2.402,2.436,4.204,2.436C12.104,13.562,13.697,12.798,14.875,11.604z"/>
</g>
</svg>
