<?xml version="1.0" encoding="utf-8"?>
<!-- Generator: Adobe Illustrator 16.0.0, SVG Export Plug-In . SVG Version: 6.00 Build 0)  -->
<!DOCTYPE svg PUBLIC "-//W3C//DTD SVG 1.1//EN" "http://www.w3.org/Graphics/SVG/1.1/DTD/svg11.dtd">
<svg version="1.1" id="Layer_1" xmlns="http://www.w3.org/2000/svg" xmlns:xlink="http://www.w3.org/1999/xlink" x="0px" y="0px"
	 width="24px" height="20px" viewBox="0 0 24 20" enable-background="new 0 0 24 20" xml:space="preserve">
<g>
	<rect x="9.408" y="10.396" fill="none" width="0.006" height="0.313"/>
	<rect x="0.019" y="5.527" fill="none" width="1.117" height="0.062"/>
	<rect x="9.431" y="14.484" fill="none" width="0.008" height="0.314"/>
	<polygon fill="none" points="9.405,10.395 9.399,10.395 9.4,10.396 	"/>
	<polygon fill="none" points="1.165,13.766 1.165,13.766 1.17,13.766 	"/>
	<polygon fill="none" points="1.149,7.635 1.153,7.633 1.149,7.633 1.149,7.571 0.031,7.571 0.031,7.633 1.149,7.633 	"/>
	<polygon fill="none" points="1.162,9.679 1.167,9.679 1.167,9.677 	"/>
	<polygon fill="none" points="9.426,14.484 9.431,14.484 9.431,14.482 	"/>
	<polygon fill="none" points="1.167,9.677 1.162,9.677 1.162,9.679 	"/>
	<rect x="9.402" y="10.394" fill="none" width="0.001" height="0.004"/>
	<rect x="9.417" y="12.44" fill="none" width="0.009" height="0.313"/>
	<polygon fill="none" points="22.868,16.527 22.865,16.527 22.865,16.529 	"/>
	<polygon fill="none" points="22.865,16.543 22.855,16.594 22.855,16.842 22.865,16.842 	"/>
	<polygon fill="none" points="9.443,16.527 9.438,16.527 9.443,16.529 	"/>
	<polygon fill="none" points="22.865,16.529 22.865,16.529 22.865,16.529 	"/>
	<polygon fill="none" points="9.414,12.44 9.417,12.44 9.417,12.439 	"/>
	<polygon fill="none" points="9.426,14.484 9.431,14.482 9.426,14.482 9.426,14.42 8.308,14.42 8.308,14.482 9.426,14.482 	"/>
	<polygon fill="none" points="9.417,12.438 9.414,12.438 9.414,12.44 	"/>
	<polygon fill="none" points="22.829,10.395 22.828,10.395 22.829,10.396 	"/>
	<polygon fill="none" points="1.149,7.635 1.153,7.635 1.153,7.633 	"/>
	<polygon fill="none" points="22.854,18.572 22.858,18.572 22.858,18.57 	"/>
	<polygon fill="none" points="22.855,14.482 22.855,14.484 22.855,14.482 	"/>
	<rect x="1.141" y="5.591" fill="none" width="0.009" height="0.313"/>
	<polygon fill="none" points="23.974,12.377 22.855,12.377 22.843,12.439 23.974,12.439 	"/>
	<rect x="1.156" y="7.635" fill="none" width="0.006" height="0.313"/>
	<polygon fill="none" points="22.865,14.42 22.868,14.42 22.869,14.42 	"/>
	<polygon fill="none" points="22.852,12.377 22.855,12.377 22.855,12.375 	"/>
	<polygon fill="none" points="22.829,10.395 23.96,10.395 23.96,10.333 22.842,10.333 	"/>
	<polygon fill="none" points="22.855,14.482 23.986,14.482 23.986,14.42 22.868,14.42 	"/>
	<polygon fill="none" points="1.136,5.589 1.136,5.591 1.141,5.589 	"/>
	<polygon fill="none" points="22.825,8.261 22.824,8.261 22.823,8.263 22.821,8.263 22.821,8.28 	"/>
	<polygon fill="none" points="22.84,10.333 22.842,10.333 22.842,10.331 	"/>
	<polygon fill="none" points="1.136,5.591 1.141,5.591 1.141,5.589 	"/>
	<rect x="18.346" y="9.318" fill="#F07D00" width="0.002" height="0.001"/>
	<polygon fill="#F07D00" points="13.873,9.319 13.872,9.673 18.347,9.673 18.346,9.319 14.029,9.314 	"/>
	<rect x="22.822" y="6.163" fill="#F07D00" width="0.001" height="0.004"/>
	<rect x="13.869" y="5.144" fill="#F07D00" width="0.005" height="0.001"/>
	<rect x="18.35" y="5.145" fill="#F07D00" width="2.251" height="0.353"/>
	<rect x="18.347" y="5.142" fill="#F07D00" width="0.001" height="0.005"/>
	<rect x="11.619" y="5.145" fill="#F07D00" width="2.25" height="0.353"/>
	<rect x="11.616" y="5.497" fill="#F07D00" width="0.003" height="0.001"/>
	<rect x="9.399" y="5.841" fill="#F07D00" width="1.105" height="0.323"/>
	<rect x="9.396" y="6.164" fill="#F07D00" width="0.004" height="0.001"/>
	<rect x="21.712" y="5.838" fill="#F07D00" width="0.001" height="0.004"/>
	<rect x="21.715" y="5.841" fill="#F07D00" width="1.105" height="0.323"/>
	<rect x="10.505" y="8.621" fill="#F07D00" width="0.002" height="0.005"/>
	<rect x="22.821" y="8.261" fill="#F07D00" width="0.003" height="0.002"/>
	<rect x="13.871" y="9.317" fill="#F07D00" width="0.001" height="0.004"/>
	<rect x="11.619" y="8.978" fill="#F07D00" width="2.25" height="0.341"/>
	<rect x="20.602" y="8.977" fill="#F07D00" width="0.003" height="0.001"/>
	<rect x="18.349" y="8.978" fill="#F07D00" width="2.253" height="0.341"/>
	<rect x="11.616" y="8.975" fill="#F07D00" width="0.002" height="0.004"/>
	<rect x="10.51" y="8.624" fill="#F07D00" width="1.105" height="0.352"/>
	<rect x="20.604" y="8.624" fill="#F07D00" width="1.106" height="0.353"/>
	<rect x="21.711" y="8.623" fill="#F07D00" width="0.004" height="0.001"/>
	<rect x="10.505" y="5.839" fill="#F07D00" width="0.005" height="0.002"/>
	<rect x="10.51" y="5.498" fill="#F07D00" width="1.105" height="0.341"/>
	<rect x="20.605" y="5.498" fill="#F07D00" width="1.105" height="0.341"/>
	<rect x="20.603" y="5.495" fill="#F07D00" width="0.001" height="0.005"/>
	<rect x="13.875" y="11.405" fill="#F07D00" width="0.002" height="0.004"/>
	<rect x="13.879" y="11.408" fill="#F07D00" width="4.472" height="0.352"/>
	<polygon fill="#F07D00" points="22.842,10.333 22.84,10.333 22.842,10.331 22.842,10.333 23.96,10.333 23.96,8.242 23.956,8.242 
		23.956,6.165 22.824,6.165 22.812,6.215 22.811,6.51 23.495,6.51 23.495,7.941 22.811,7.941 22.811,8.211 22.824,8.261 
		22.825,8.261 22.821,8.28 22.821,8.263 21.715,8.263 21.715,8.623 22.815,8.623 22.814,8.978 23.562,8.978 23.562,10.042 
		22.814,10.042 22.814,10.331 22.828,10.395 22.829,10.395 	"/>
	<polygon fill="#F07D00" points="8.74,10.042 8.74,8.978 9.399,8.978 9.399,8.623 10.505,8.623 10.505,8.263 9.399,8.263 
		9.399,8.243 9.396,8.243 9.396,7.941 8.718,7.941 8.718,6.51 9.396,6.51 9.396,6.165 8.264,6.165 8.264,6.598 5.614,6.602 
		5.613,6.954 8.264,6.954 8.264,8.261 8.269,8.261 8.269,8.642 5.628,8.646 5.626,8.998 8.269,8.998 8.269,10.395 8.277,10.395 
		8.281,10.333 9.399,10.333 9.399,10.042 	"/>
	<polygon fill="#F07D00" points="9.399,8.242 9.405,8.243 9.399,8.241 	"/>
	<rect x="9.414" y="10.396" fill="#F07D00" width="1.096" height="0.313"/>
	<rect x="21.716" y="10.71" fill="#F07D00" width="0.001" height="0.002"/>
	<polygon fill="#F07D00" points="22.825,10.396 22.825,10.396 22.828,10.396 	"/>
	<rect x="21.719" y="10.396" fill="#F07D00" width="1.106" height="0.313"/>
	<rect x="11.621" y="11.062" fill="#F07D00" width="0.001" height="0.005"/>
	<rect x="11.624" y="11.065" fill="#F07D00" width="2.25" height="0.341"/>
	<rect x="18.35" y="11.406" fill="#F07D00" width="0.004" height="0.002"/>
	<rect x="18.354" y="11.063" fill="#F07D00" width="2.252" height="0.346"/>
	<rect x="10.514" y="10.712" fill="#F07D00" width="1.105" height="0.353"/>
	<rect x="10.511" y="10.709" fill="#F07D00" width="0.002" height="0.004"/>
	<rect x="20.609" y="10.712" fill="#F07D00" width="1.106" height="0.353"/>
	<rect x="20.606" y="11.064" fill="#F07D00" width="0.003" height="0.001"/>
	<polygon fill="#F07D00" points="13.891,13.451 13.89,13.805 18.364,13.805 18.363,13.451 14.048,13.447 	"/>
	<rect x="13.888" y="13.448" fill="#F07D00" width="0.002" height="0.004"/>
	<polygon fill="#F07D00" points="22.839,12.439 22.842,12.44 22.842,12.439 	"/>
	<polygon fill="#F07D00" points="22.852,12.377 22.855,12.375 22.855,12.377 23.974,12.377 23.974,10.333 23.96,10.333 
		23.96,10.395 22.829,10.395 22.829,10.396 22.828,10.395 22.825,10.395 22.829,10.396 22.828,11.002 23.562,11.002 23.562,12.066 
		22.828,12.066 22.828,12.375 22.842,12.439 22.843,12.439 22.855,12.377 	"/>
	<polygon fill="#F07D00" points="9.416,10.333 9.414,10.331 9.414,10.332 	"/>
	<polygon fill="#F07D00" points="9.414,12.377 9.414,12.066 8.74,12.066 8.74,11.002 9.414,11.002 9.414,10.71 9.408,10.71 
		9.405,10.396 9.401,10.396 9.4,10.396 9.399,10.395 8.281,10.395 8.281,10.686 5.642,10.689 5.64,11.043 8.281,11.043 
		8.281,12.438 8.295,12.438 8.295,12.377 	"/>
	<polygon fill="#F07D00" points="9.4,10.396 9.405,10.395 9.405,10.396 9.414,10.396 9.414,10.333 9.399,10.333 9.399,10.395 
		9.405,10.395 	"/>
	<rect x="9.426" y="12.44" fill="#F07D00" width="1.097" height="0.313"/>
	<rect x="21.732" y="12.44" fill="#F07D00" width="1.106" height="0.313"/>
	<rect x="21.729" y="12.754" fill="#F07D00" width="0.003" height="0.002"/>
	<polygon fill="#F07D00" points="22.839,12.44 22.842,12.44 22.839,12.439 	"/>
	<rect x="11.637" y="13.109" fill="#F07D00" width="2.25" height="0.34"/>
	<rect x="11.634" y="13.106" fill="#F07D00" width="0.003" height="0.005"/>
	<rect x="18.364" y="13.449" fill="#F07D00" width="0.002" height="0.003"/>
	<polygon fill="#F07D00" points="18.367,13.449 20.619,13.449 20.619,13.109 18.367,13.104 	"/>
	<rect x="10.523" y="12.753" fill="#F07D00" width="0.002" height="0.003"/>
	<rect x="10.525" y="12.756" fill="#F07D00" width="1.106" height="0.352"/>
	<rect x="20.619" y="13.107" fill="#F07D00" width="0.004" height="0.002"/>
	<rect x="20.623" y="12.756" fill="#F07D00" width="1.105" height="0.352"/>
	<rect x="18.377" y="15.494" fill="#F07D00" width="0.003" height="0.001"/>
	<rect x="13.905" y="15.494" fill="#F07D00" width="4.473" height="0.354"/>
	<polygon fill="#F07D00" points="22.868,14.42 22.865,14.42 22.869,14.42 22.868,14.42 23.986,14.42 23.986,12.377 23.974,12.377 
		23.974,12.439 22.843,12.439 22.842,12.44 22.842,13.027 23.562,13.027 23.562,14.09 22.841,14.09 22.842,14.42 22.855,14.482 
		22.855,14.482 	"/>
	<rect x="22.853" y="14.482" fill="#F07D00" width="0.002" height="0.003"/>
	<polygon fill="#F07D00" points="9.426,14.42 9.426,14.09 8.74,14.09 8.74,13.027 9.426,13.027 9.426,12.754 9.417,12.754 
		9.417,12.44 9.414,12.44 9.414,12.438 8.295,12.438 8.295,12.729 5.654,12.732 5.653,13.086 8.295,13.086 8.295,14.482 
		8.308,14.482 8.308,14.42 	"/>
	<polygon fill="#F07D00" points="9.426,12.375 9.426,12.377 9.431,12.377 	"/>
	<polygon fill="#F07D00" points="9.414,12.44 9.417,12.439 9.417,12.44 9.426,12.44 9.426,12.377 9.417,12.377 9.414,12.438 
		9.417,12.438 	"/>
	<rect x="9.438" y="14.484" fill="#F07D00" width="1.097" height="0.314"/>
	<rect x="10.537" y="14.797" fill="#F07D00" width="0" height="0.004"/>
	<rect x="21.746" y="14.484" fill="#F07D00" width="1.106" height="0.314"/>
	<rect x="13.902" y="15.492" fill="#F07D00" width="0" height="0.004"/>
	<rect x="11.649" y="15.152" fill="#F07D00" width="2.251" height="0.342"/>
	<rect x="18.381" y="15.152" fill="#F07D00" width="2.252" height="0.342"/>
	<rect x="20.633" y="15.152" fill="#F07D00" width="0.002" height="0.001"/>
	<rect x="11.646" y="15.15" fill="#F07D00" width="0.002" height="0.004"/>
	<rect x="10.539" y="14.799" fill="#F07D00" width="1.106" height="0.354"/>
	<rect x="20.636" y="14.799" fill="#F07D00" width="1.106" height="0.354"/>
	<rect x="21.742" y="14.799" fill="#F07D00" width="0.004" height="0"/>
	<polygon fill="#F07D00" points="13.918,17.539 13.917,17.891 18.392,17.891 18.391,17.539 14.073,17.533 	"/>
	<rect x="13.915" y="17.536" fill="#F07D00" width="0.002" height="0.004"/>
	<polygon fill="#F07D00" points="22.865,16.525 22.869,16.527 22.868,16.527 	"/>
	<polygon fill="#F07D00" points="9.443,14.42 9.438,14.418 9.438,14.42 	"/>
	<polygon fill="#F07D00" points="9.431,14.482 9.426,14.484 9.431,14.482 9.431,14.484 9.438,14.484 9.438,14.42 9.426,14.42 
		9.426,14.482 	"/>
	<rect x="9.439" y="16.525" fill="#F07D00" width="0.003" height="0.003"/>
	<polygon fill="#F07D00" points="9.443,16.842 10.548,16.842 10.548,16.527 9.443,16.527 9.443,16.529 	"/>
	<rect x="21.756" y="16.842" fill="#F07D00" width="0.003" height="0.002"/>
	<polygon fill="#F07D00" points="22.865,16.543 22.865,16.529 22.865,16.529 22.865,16.529 22.865,16.527 21.759,16.527 
		21.759,16.842 22.855,16.842 22.855,16.594 	"/>
	<polygon fill="#F07D00" points="22.865,16.529 22.865,16.529 22.867,16.529 22.869,16.527 22.865,16.527 22.865,16.527 
		22.868,16.527 	"/>
	<rect x="11.662" y="17.197" fill="#F07D00" width="2.252" height="0.34"/>
	<rect x="11.66" y="17.194" fill="#F07D00" width="0.002" height="0.004"/>
	<rect x="18.391" y="17.537" fill="#F07D00" width="0.003" height="0.002"/>
	<polygon fill="#F07D00" points="20.646,17.197 18.394,17.191 18.394,17.537 20.646,17.537 	"/>
	<rect x="10.553" y="16.844" fill="#F07D00" width="1.105" height="0.352"/>
	<rect x="10.549" y="16.84" fill="#F07D00" width="0.002" height="0.005"/>
	<rect x="20.645" y="17.194" fill="#F07D00" width="0.004" height="0.002"/>
	<rect x="20.649" y="16.844" fill="#F07D00" width="1.106" height="0.352"/>
	<polygon fill="#F07D00" points="13.918,19.648 13.917,20 18.392,20 18.39,19.648 14.073,19.643 	"/>
	<rect x="18.39" y="19.646" fill="#F07D00" width="0.003" height="0.002"/>
	<polygon fill="#F07D00" points="22.856,18.58 22.858,18.572 22.854,18.572 	"/>
	<polygon fill="#F07D00" points="23.986,14.42 23.986,14.482 22.855,14.482 22.855,14.484 22.854,15.051 23.562,15.051 
		23.562,16.115 22.854,16.115 22.854,16.463 22.868,16.525 24,16.525 24,14.42 	"/>
	<polygon fill="#F07D00" points="22.865,16.543 22.865,16.842 22.855,16.842 22.854,17.076 23.562,17.076 23.562,18.139 
		22.854,18.139 22.854,18.572 22.858,18.57 22.858,18.572 23.989,18.572 23.989,18.635 24,18.635 24,16.529 22.868,16.529 	"/>
	<polygon fill="#F07D00" points="9.438,18.635 9.438,18.637 9.443,18.635 	"/>
	<polygon fill="#F07D00" points="9.438,16.527 9.438,16.529 9.443,16.529 	"/>
	<polygon fill="#F07D00" points="8.74,18.139 8.74,17.076 9.438,17.076 9.438,16.529 8.308,16.529 8.308,18.572 9.429,18.572 
		9.429,18.57 9.434,18.572 9.431,18.572 9.429,18.635 9.438,18.635 9.438,18.139 	"/>
	<polygon fill="#F07D00" points="9.438,18.637 9.443,18.637 9.443,18.635 	"/>
	<rect x="10.55" y="18.949" fill="#F07D00" width="0" height="0.004"/>
	<rect x="9.443" y="18.637" fill="#F07D00" width="1.104" height="0.314"/>
	<rect x="21.759" y="18.637" fill="#F07D00" width="1.086" height="0.314"/>
	<rect x="13.914" y="19.646" fill="#F07D00" width="0.002" height="0.004"/>
	<rect x="11.662" y="19.307" fill="#F07D00" width="2.252" height="0.34"/>
	<rect x="20.646" y="19.305" fill="#F07D00" width="0.004" height="0.002"/>
	<polygon fill="#F07D00" points="18.394,19.646 20.646,19.646 20.646,19.307 18.394,19.301 	"/>
	<rect x="11.66" y="19.304" fill="#F07D00" width="0" height="0.004"/>
	<rect x="10.552" y="18.951" fill="#F07D00" width="1.106" height="0.354"/>
	<rect x="21.755" y="18.951" fill="#F07D00" width="0.004" height="0"/>
	<rect x="20.649" y="18.951" fill="#F07D00" width="1.105" height="0.354"/>
	<polygon fill="#F07D00" points="22.845,18.637 22.865,18.637 22.865,18.637 22.868,18.637 22.865,18.635 22.868,18.635 
		22.856,18.58 22.845,18.635 	"/>
	<rect x="10.082" y="4.514" fill="#F07D00" width="0.004" height="0.001"/>
	<rect x="5.611" y="4.515" fill="#F07D00" width="4.472" height="0.353"/>
	<rect x="14.559" y="1.357" fill="#F07D00" width="0.001" height="0.004"/>
	<polygon fill="#F07D00" points="15.231,4.55 15.231,4.806 13.874,4.806 13.874,5.144 18.345,5.144 18.345,4.806 15.692,4.806 
		15.692,1.359 14.562,1.359 14.548,1.409 14.548,1.704 15.231,1.704 15.231,3.136 14.547,3.136 14.548,3.405 14.561,3.455 
		15.231,3.455 	"/>
	<rect x="5.611" fill="#F07D00" width="4.47" height="0.338"/>
	<rect x="5.606" y="0.338" fill="#F07D00" width="0.005" height="0.001"/>
	<rect x="10.086" y="0.339" fill="#F07D00" width="2.252" height="0.353"/>
	<rect x="10.084" y="0.337" fill="#F07D00" width="0.001" height="0.003"/>
	<rect x="3.355" y="0.339" fill="#F07D00" width="2.251" height="0.353"/>
	<rect x="3.352" y="0.691" fill="#F07D00" width="0.003" height="0.001"/>
	<rect x="1.136" y="1.035" fill="#F07D00" width="1.105" height="0.323"/>
	<rect x="1.131" y="1.358" fill="#F07D00" width="0.005" height="0.002"/>
	<rect x="13.449" y="1.032" fill="#F07D00" width="0.002" height="0.005"/>
	<rect x="13.452" y="1.035" fill="#F07D00" width="1.105" height="0.323"/>
	<rect x="2.243" y="3.815" fill="#F07D00" width="0.001" height="0.004"/>
	<rect x="14.559" y="3.455" fill="#F07D00" width="0.001" height="0.003"/>
	<rect x="13.451" y="3.457" fill="#F07D00" width="1.106" height="0.359"/>
	<rect x="5.607" y="4.512" fill="#F07D00" width="0.002" height="0.004"/>
	<rect x="3.355" y="4.172" fill="#F07D00" width="2.251" height="0.341"/>
	<rect x="12.339" y="4.171" fill="#F07D00" width="0.003" height="0.001"/>
	<rect x="10.086" y="4.169" fill="#F07D00" width="2.253" height="0.347"/>
	<rect x="3.353" y="4.169" fill="#F07D00" width="0.001" height="0.004"/>
	<rect x="2.245" y="3.818" fill="#F07D00" width="1.106" height="0.353"/>
	<rect x="12.342" y="3.818" fill="#F07D00" width="1.106" height="0.353"/>
	<rect x="13.448" y="3.816" fill="#F07D00" width="0.003" height="0.002"/>
	<rect x="2.241" y="1.033" fill="#F07D00" width="0.004" height="0.002"/>
	<rect x="2.245" y="0.692" fill="#F07D00" width="1.106" height="0.341"/>
	<rect x="12.343" y="0.692" fill="#F07D00" width="1.104" height="0.341"/>
	<rect x="12.341" y="0.69" fill="#F07D00" width="0.001" height="0.003"/>
	<rect x="5.612" y="6.599" fill="#F07D00" width="0.001" height="0.004"/>
	<polygon fill="#F07D00" points="1.136,5.527 1.136,5.236 0.479,5.236 0.479,4.173 1.136,4.173 1.136,3.816 2.241,3.816 
		2.241,3.457 1.136,3.457 1.136,3.438 1.131,3.438 1.131,3.136 0.455,3.136 0.455,1.704 1.131,1.704 1.131,1.36 0,1.36 0,3.455 
		0.005,3.455 0.005,5.589 0.019,5.589 0.019,5.527 	"/>
	<polygon fill="#F07D00" points="1.136,3.437 1.139,3.438 1.136,3.436 	"/>
	<rect x="1.149" y="5.591" fill="#F07D00" width="1.097" height="0.313"/>
	<rect x="3.358" y="6.256" fill="#F07D00" width="0.002" height="0.005"/>
	<rect x="3.36" y="6.26" fill="#F07D00" width="2.25" height="0.341"/>
	<rect x="2.25" y="5.905" fill="#F07D00" width="1.105" height="0.353"/>
	<rect x="2.248" y="5.903" fill="#F07D00" width="0.001" height="0.004"/>
	<rect x="5.625" y="8.643" fill="#F07D00" width="0.002" height="0.004"/>
	<polygon fill="#F07D00" points="1.141,5.589 1.136,5.591 1.141,5.589 1.141,5.591 1.149,5.591 1.149,5.527 1.136,5.527 
		1.136,5.589 	"/>
	<polygon fill="#F07D00" points="1.152,5.527 1.149,5.525 1.149,5.527 	"/>
	<polygon fill="#F07D00" points="1.149,7.571 1.149,7.261 0.479,7.261 0.479,6.196 1.149,6.196 1.149,5.904 1.141,5.904 
		1.141,5.591 1.136,5.591 1.136,5.589 0.019,5.589 0.019,7.633 0.031,7.633 0.031,7.571 	"/>
	<rect x="1.162" y="7.635" fill="#F07D00" width="1.097" height="0.313"/>
	<rect x="3.373" y="8.304" fill="#F07D00" width="2.251" height="0.34"/>
	<rect x="3.371" y="8.301" fill="#F07D00" width="0.001" height="0.004"/>
	<rect x="2.26" y="7.947" fill="#F07D00" width="0.003" height="0.004"/>
	<rect x="2.263" y="7.95" fill="#F07D00" width="1.106" height="0.352"/>
	<polygon fill="#F07D00" points="1.162,9.615 1.162,9.284 0.479,9.284 0.479,8.221 1.162,8.221 1.162,7.948 1.156,7.948 
		1.153,7.635 1.149,7.635 1.149,7.633 0.031,7.633 0.031,9.677 0.045,9.677 0.045,9.615 	"/>
	<polygon fill="#F07D00" points="1.162,7.569 1.162,7.571 1.167,7.571 	"/>
	<polygon fill="#F07D00" points="1.153,7.633 1.149,7.635 1.153,7.633 1.153,7.635 1.162,7.635 1.162,7.571 1.149,7.571 
		1.149,7.633 	"/>
	<rect x="1.176" y="9.679" fill="#F07D00" width="1.097" height="0.313"/>
	<rect x="2.273" y="9.991" fill="#F07D00" width="0.001" height="0.004"/>
	<rect x="5.639" y="10.687" fill="#F07D00" width="0.001" height="0.004"/>
	<rect x="3.387" y="10.347" fill="#F07D00" width="2.251" height="0.342"/>
	<rect x="3.384" y="10.344" fill="#F07D00" width="0.001" height="0.005"/>
	<rect x="2.276" y="9.993" fill="#F07D00" width="1.105" height="0.353"/>
	<rect x="5.652" y="12.73" fill="#F07D00" width="0.001" height="0.004"/>
	<polygon fill="#F07D00" points="1.176,11.721 1.176,11.723 1.181,11.721 	"/>
	<polygon fill="#F07D00" points="1.176,9.613 1.176,9.615 1.179,9.615 	"/>
	<polygon fill="#F07D00" points="1.162,9.679 1.167,9.677 1.167,9.679 1.173,9.679 1.176,9.615 1.167,9.615 1.162,9.677 
		1.167,9.677 	"/>
	<polygon fill="#F07D00" points="0.479,11.309 0.479,10.245 1.176,10.245 1.176,9.992 1.167,9.992 1.167,9.679 1.162,9.679 
		1.162,9.677 0.045,9.677 0.045,11.721 1.176,11.721 1.176,11.309 	"/>
	<polygon fill="#F07D00" points="1.181,11.721 1.176,11.723 1.181,11.723 	"/>
	<rect x="1.181" y="11.723" fill="#F07D00" width="1.104" height="0.314"/>
	<rect x="3.399" y="12.391" fill="#F07D00" width="2.251" height="0.342"/>
	<rect x="3.397" y="12.388" fill="#F07D00" width="0.001" height="0.004"/>
	<rect x="2.289" y="12.037" fill="#F07D00" width="1.106" height="0.353"/>
	<rect x="2.287" y="12.035" fill="#F07D00" width="0.001" height="0.004"/>
	<polygon fill="#F07D00" points="8.308,15.195 8.308,16.525 9.438,16.525 9.438,16.115 8.74,16.115 8.74,15.051 9.438,15.051 
		9.438,14.799 9.431,14.799 9.431,14.484 9.426,14.484 9.426,14.482 8.308,14.482 8.308,14.838 5.654,14.842 5.653,15.195 	"/>
	<polygon fill="#F07D00" points="1.176,13.83 1.176,13.832 1.18,13.83 	"/>
	<rect x="1.176" y="11.723" fill="#F07D00" width="0" height="0.002"/>
	<polygon fill="#F07D00" points="0.479,13.333 0.479,12.27 1.176,12.27 1.176,11.725 0.045,11.725 0.045,13.766 1.165,13.766 
		1.165,13.766 1.17,13.766 1.165,13.766 1.165,13.83 1.172,13.83 1.176,13.333 	"/>
	<polygon fill="#F07D00" points="1.176,13.832 1.179,13.832 1.18,13.83 	"/>
	<rect x="2.286" y="14.144" fill="#F07D00" width="0.002" height="0.004"/>
	<rect x="1.18" y="13.832" fill="#F07D00" width="1.105" height="0.312"/>
	<rect x="5.652" y="14.84" fill="#F07D00" width="0" height="0.004"/>
	<rect x="3.399" y="14.5" fill="#F07D00" width="2.251" height="0.342"/>
	<rect x="3.396" y="14.498" fill="#F07D00" width="0.002" height="0.003"/>
	<rect x="2.289" y="14.146" fill="#F07D00" width="1.106" height="0.352"/>
</g>
</svg>
