<?xml version="1.0" encoding="utf-8"?>
<!-- Generator: Adobe Illustrator 16.0.0, SVG Export Plug-In . SVG Version: 6.00 Build 0)  -->
<!DOCTYPE svg PUBLIC "-//W3C//DTD SVG 1.1 Tiny//EN" "http://www.w3.org/Graphics/SVG/1.1/DTD/svg11-tiny.dtd">
<svg version="1.1" baseProfile="tiny" id="Layer_1" xmlns="http://www.w3.org/2000/svg" xmlns:xlink="http://www.w3.org/1999/xlink"
	 x="0px" y="0px" width="8px" height="12px" viewBox="0 0 8 12" xml:space="preserve">
<path fill="#231F20" d="M0.108,7.582c1.2,1.427,2.4,2.854,3.6,4.281C3.796,11.968,3.9,12.005,4,12
	c0.101,0.006,0.204-0.031,0.292-0.137c1.2-1.427,2.4-2.854,3.599-4.281C8.113,7.318,7.985,6.885,7.6,6.885c-0.504,0-1.007,0-1.51,0
	c0-2.159,0-4.317,0-6.476C6.09,0.187,5.901,0,5.676,0C4.56,0,3.442,0,2.324,0C2.099,0,1.911,0.187,1.911,0.409
	c0,2.158,0,4.316,0,6.476c-0.504,0-1.007,0-1.51,0C0.015,6.885-0.113,7.318,0.108,7.582z"/>
</svg>
