<?xml version="1.0" encoding="utf-8"?>
<!-- Generator: Adobe Illustrator 16.0.0, SVG Export Plug-In . SVG Version: 6.00 Build 0)  -->
<!DOCTYPE svg PUBLIC "-//W3C//DTD SVG 1.1 Tiny//EN" "http://www.w3.org/Graphics/SVG/1.1/DTD/svg11-tiny.dtd">
<svg version="1.1" baseProfile="tiny" id="Layer_1" xmlns="http://www.w3.org/2000/svg" xmlns:xlink="http://www.w3.org/1999/xlink"
	 x="0px" y="0px" width="16px" height="21px" viewBox="0 0 16 21" xml:space="preserve">
<g>
	<path fill="#1D1D1B" d="M0.41,6.207l1.816,13.804C2.227,20.552,2.68,21,3.273,21H8h4.727c0.592,0,1.047-0.448,1.047-0.989
		L15.59,6.207H0.41z"/>
	<path fill="#1D1D1B" d="M14.5,1.484c0.818,0,1.5,0.315,1.5,0.719v1.575c0,0.404-0.682,0.315-1.5,0.315h-13
		C0.68,4.093,0,4.182,0,3.778V2.203c0-0.404,0.68-0.719,1.5-0.719l3-0.271L5.59,0h4.684l1.137,1.213L14.5,1.484z"/>
</g>
</svg>
