<?xml version="1.0" encoding="utf-8"?>
<!-- Generator: Adobe Illustrator 16.0.0, SVG Export Plug-In . SVG Version: 6.00 Build 0)  -->
<!DOCTYPE svg PUBLIC "-//W3C//DTD SVG 1.1//EN" "http://www.w3.org/Graphics/SVG/1.1/DTD/svg11.dtd">
<svg version="1.1" id="Layer_1" xmlns="http://www.w3.org/2000/svg" xmlns:xlink="http://www.w3.org/1999/xlink" x="0px" y="0px"
	 width="29px" height="29px" viewBox="0 0 29 29" enable-background="new 0 0 29 29" xml:space="preserve">
<g>
	<path d="M28.782,13.952c0-0.012-0.002-0.023-0.002-0.035c-0.001-0.006-0.001-0.012-0.002-0.019
		c-0.001-0.008-0.002-0.017-0.003-0.025c0-0.01-0.002-0.02-0.004-0.029c0-0.001,0-0.003,0-0.003
		c-0.035-0.224-0.14-0.432-0.301-0.592c-0.917-1.089-2.01-2.058-3.121-2.942C22.956,8.401,20.22,6.806,17.2,6.164
		c-1.746-0.371-3.502-0.386-5.256-0.073C10.347,6.377,8.809,6.97,7.369,7.706c-2.253,1.151-4.312,2.739-6.104,4.519
		c-0.332,0.329-0.662,0.666-0.963,1.023c-0.402,0.477-0.402,1.04,0,1.516c0.917,1.089,2.01,2.057,3.121,2.942
		c2.392,1.906,5.128,3.5,8.148,4.143c1.745,0.371,3.502,0.386,5.256,0.073c1.596-0.286,3.134-0.879,4.574-1.615
		c2.253-1.151,4.312-2.738,6.104-4.518c0.332-0.33,0.662-0.666,0.964-1.023c0.161-0.161,0.266-0.37,0.301-0.592
		c0-0.001,0-0.002,0-0.004c0.002-0.01,0.003-0.02,0.004-0.03c0.001-0.008,0.002-0.017,0.004-0.025c0-0.006,0.001-0.012,0.001-0.018
		c0.001-0.012,0.002-0.023,0.003-0.035c0.001-0.018,0.001-0.035,0.001-0.054S28.782,13.97,28.782,13.952z M14.392,19.544
		c-3.059,0-5.538-2.479-5.538-5.538s2.479-5.538,5.538-5.538c3.059,0,5.538,2.479,5.538,5.538S17.45,19.544,14.392,19.544z"/>
	<circle cx="14.392" cy="14.006" r="1.833"/>
</g>
</svg>
