<?xml version="1.0" encoding="utf-8"?>
<!-- Generator: Adobe Illustrator 16.0.0, SVG Export Plug-In . SVG Version: 6.00 Build 0)  -->
<!DOCTYPE svg PUBLIC "-//W3C//DTD SVG 1.1//EN" "http://www.w3.org/Graphics/SVG/1.1/DTD/svg11.dtd">
<svg version="1.1" id="Layer_1" xmlns="http://www.w3.org/2000/svg" xmlns:xlink="http://www.w3.org/1999/xlink" x="0px" y="0px"
	 width="41px" height="41px" viewBox="0 0 41 41" enable-background="new 0 0 41 41" xml:space="preserve">
<path fill="#231F20" d="M34.083,3.966C28.953,1.553,22.875,3.818,20.5,9.021c-2.374-5.203-8.452-7.468-13.577-5.055
	C1.459,6.538-1.154,13.113,3.158,20.87C6.226,26.382,11.028,30.542,20.5,38c9.47-7.458,14.278-11.618,17.342-17.13
	C42.154,13.113,39.543,6.538,34.083,3.966z M36.515,12.616v1.253v1.253v1.253v0.032v1.253v1.253h-1.232h-1.231v2.474h-1.232h-1.231
	v1.253v1.253h-1.232h-1.232v1.253V26.4h-1.232H26.66v1.253v1.253h-1.232h-1.232v1.253v1.252h-1.232h-1.232v1.253v1.253H20.5h-1.232
	v-1.253v-1.253h-1.231h-1.231V30.16v-1.253h-1.232h-1.232v-1.253V26.4h-1.232h-1.232v-1.253v-1.253h-1.232H9.413v-1.253v-1.253
	H8.181H6.95v-2.509H5.718H4.486v-1.253v-1.253v-0.031v-1.253v-1.219v-0.034v-1.219v-1.253H6.95V10.11V8.857h2.463V7.604V6.351h2.464
	h2.464v1.253v1.253h2.464v1.253v1.253h1.231h1.231v1.253v1.253H20.5h1.232v-1.253v-1.253h1.232h1.232V10.11V8.857h2.464V7.604V6.351
	h2.463h2.464v1.253v1.253h2.464v1.253v1.253h2.464V12.616z"/>
</svg>
