<?xml version="1.0" encoding="utf-8"?>
<!-- Generator: Adobe Illustrator 16.0.0, SVG Export Plug-In . SVG Version: 6.00 Build 0)  -->
<!DOCTYPE svg PUBLIC "-//W3C//DTD SVG 1.1 Tiny//EN" "http://www.w3.org/Graphics/SVG/1.1/DTD/svg11-tiny.dtd">
<svg version="1.1" baseProfile="tiny" id="Layer_1" xmlns="http://www.w3.org/2000/svg" xmlns:xlink="http://www.w3.org/1999/xlink"
	 x="0px" y="0px" width="20px" height="34px" viewBox="0 0 20 34" xml:space="preserve">
<g>
	<path fill="#231F20" d="M10.996,5.625c1.546,0.119,2.895-1.043,3.015-2.586c0.119-1.552-1.025-2.91-2.568-3.029
		C9.896-0.113,8.548,1.039,8.43,2.591C8.307,4.144,9.458,5.501,10.996,5.625z"/>
	<path fill="#231F20" d="M8.627,6.774c0.55-0.381,1.229-0.639,1.963-0.583c0.962,0.081,1.759,0.676,2.23,1.41l2.824,5.635
		l3.853,2.665c0.334,0.256,0.527,0.67,0.5,1.118c-0.056,0.7-0.665,1.215-1.369,1.163c-0.204-0.011-0.37-0.094-0.571-0.189
		l-4.205-2.911c-0.129-0.107-0.231-0.231-0.313-0.376l-1.063-2.113l-1.264,5.627l4.967,5.897c0.113,0.189,0.188,0.394,0.231,0.607
		l1.342,7.129c-0.01,0.157,0.018,0.261,0.008,0.39c-0.083,1.051-0.997,1.832-2.043,1.75c-0.858-0.063-1.504-0.718-1.708-1.508
		l-1.266-6.684l-4.028-4.446l-0.942,4.336c-0.03,0.205-0.298,0.631-0.381,0.808l-3.865,6.563c-0.394,0.604-1.035,0.984-1.78,0.931
		c-1.042-0.085-1.824-1.008-1.742-2.057c0.024-0.295,0.148-0.604,0.255-0.818l3.603-6.079l2.993-13.387l-1.958,1.6l-1.035,4.77
		c-0.138,0.604-0.693,1.106-1.349,1.048c-0.692-0.053-1.213-0.662-1.162-1.366c0.007-0.052,0.017-0.109,0.024-0.167l1.24-5.56
		c0.063-0.252,0.203-0.454,0.387-0.613L8.627,6.774z"/>
</g>
</svg>
