<?xml version="1.0" encoding="utf-8"?>
<!-- Generator: Adobe Illustrator 16.0.0, SVG Export Plug-In . SVG Version: 6.00 Build 0)  -->
<!DOCTYPE svg PUBLIC "-//W3C//DTD SVG 1.1//EN" "http://www.w3.org/Graphics/SVG/1.1/DTD/svg11.dtd">
<svg version="1.1" id="Layer_1" xmlns="http://www.w3.org/2000/svg" xmlns:xlink="http://www.w3.org/1999/xlink" x="0px" y="0px"
	 width="22px" height="22px" viewBox="0 0 22 22" enable-background="new 0 0 22 22" xml:space="preserve">
<g>
	<g>
		<path fill="#575756" d="M9.861,6.756c0-0.582,0.324-0.873,0.973-0.873s0.973,0.291,0.973,0.873c0,0.277-0.081,0.493-0.243,0.647
			s-0.405,0.231-0.729,0.231C10.186,7.635,9.861,7.342,9.861,6.756z M11.725,15H9.938V8.449h1.787V15z"/>
	</g>
	<g>
		<path fill="#575756" d="M11,22C4.935,22,0,17.065,0,11S4.935,0,11,0s11,4.935,11,11S17.065,22,11,22z M11,2c-4.962,0-9,4.038-9,9
			s4.038,9,9,9s9-4.038,9-9S15.962,2,11,2z"/>
	</g>
</g>
</svg>
