<?xml version="1.0" encoding="utf-8"?>
<!-- Generator: Adobe Illustrator 16.0.0, SVG Export Plug-In . SVG Version: 6.00 Build 0)  -->
<!DOCTYPE svg PUBLIC "-//W3C//DTD SVG 1.1//EN" "http://www.w3.org/Graphics/SVG/1.1/DTD/svg11.dtd">
<svg version="1.1" id="Layer_1" xmlns="http://www.w3.org/2000/svg" xmlns:xlink="http://www.w3.org/1999/xlink" x="0px" y="0px"
	 width="63px" height="63px" viewBox="0 0 63 63" enable-background="new 0 0 63 63" xml:space="preserve">
<g>
	<rect x="29.113" y="28.41" fill="#231F20" width="27.428" height="3.083"/>
	<rect x="29.113" y="33.688" fill="#231F20" width="27.428" height="3.081"/>
	<rect x="29.113" y="38.798" fill="#231F20" width="24.32" height="3.081"/>
	<polygon fill="#231F20" points="62.996,21.868 62.996,18.683 53.803,9.5 50.04,9.5 10.781,9.5 10.781,13.253 50.04,13.253 
		50.04,18.61 53.803,18.61 53.803,15.075 57.42,18.683 53.876,18.683 53.876,22.434 59.238,22.434 59.238,49.748 10.781,49.748 
		10.781,13.253 7.019,13.253 7.019,19.062 0,19.062 7.019,53.5 63,53.5 63,49.748 63,21.868 	"/>
	<rect x="14.227" y="28.426" fill="#231F20" width="11.689" height="13.41"/>
	<rect x="14.236" y="43.947" fill="#231F20" width="42.158" height="3.081"/>
	<path fill="#231F20" d="M15.167,22.478h1.017c0.842,0,1.466-0.16,1.874-0.481c0.408-0.323,0.611-0.829,0.611-1.521
		c0-0.693-0.2-1.206-0.598-1.539c-0.4-0.332-1.033-0.498-1.902-0.498h-1.967v5.717h0.966V22.478z M15.167,19.313h0.983
		c0.526,0,0.911,0.083,1.157,0.245c0.246,0.164,0.369,0.444,0.369,0.837c0,0.397-0.098,0.696-0.292,0.901
		c-0.193,0.204-0.559,0.307-1.094,0.307h-1.124V19.313z"/>
	<path fill="#231F20" d="M20.775,22.232h1.271l1.37,1.923h1.229l-1.5-2.078c0.826-0.246,1.237-0.839,1.237-1.783
		c0-0.648-0.188-1.12-0.564-1.414c-0.377-0.295-1.004-0.441-1.878-0.441h-2.131v5.717h0.967V22.232z M20.775,19.313h1.23
		c0.518,0,0.88,0.069,1.082,0.209c0.202,0.139,0.303,0.395,0.303,0.769s-0.097,0.645-0.294,0.813
		c-0.197,0.169-0.569,0.255-1.115,0.255h-1.206V19.313z"/>
	<polygon fill="#231F20" points="29.9,23.247 26.743,23.247 26.743,21.717 29.491,21.717 29.491,20.858 26.743,20.858 
		26.743,19.346 29.8,19.346 29.8,18.438 25.775,18.438 25.775,24.155 29.9,24.155 	"/>
	<path fill="#231F20" d="M33.081,23.321c-0.624,0-1.225-0.251-1.803-0.752l-0.608,0.728c0.694,0.615,1.49,0.923,2.385,0.923
		c0.613,0,1.107-0.155,1.485-0.465c0.377-0.311,0.564-0.716,0.564-1.216c0-0.499-0.148-0.875-0.446-1.132
		c-0.298-0.257-0.739-0.455-1.328-0.597c-0.587-0.142-0.971-0.274-1.152-0.396c-0.18-0.123-0.27-0.299-0.27-0.531
		c0-0.231,0.09-0.405,0.27-0.52c0.181-0.114,0.412-0.172,0.693-0.172c0.283,0,0.565,0.048,0.856,0.147
		c0.291,0.098,0.521,0.224,0.689,0.376l0.517-0.728c-0.262-0.218-0.574-0.386-0.935-0.506c-0.36-0.121-0.724-0.181-1.09-0.181
		c-0.568,0-1.045,0.144-1.43,0.429c-0.386,0.286-0.579,0.694-0.579,1.223c0,0.529,0.169,0.921,0.508,1.178
		c0.169,0.136,0.364,0.246,0.582,0.331c0.22,0.084,0.54,0.178,0.96,0.277c0.42,0.103,0.716,0.214,0.89,0.336
		c0.171,0.123,0.257,0.294,0.257,0.515c0,0.221-0.092,0.399-0.275,0.532C33.639,23.254,33.392,23.321,33.081,23.321z"/>
	<path fill="#231F20" d="M38.244,23.321c-0.623,0-1.224-0.251-1.803-0.752l-0.606,0.728c0.693,0.615,1.489,0.923,2.383,0.923
		c0.614,0,1.109-0.155,1.486-0.465c0.376-0.311,0.564-0.716,0.564-1.216c0-0.499-0.149-0.875-0.447-1.132
		c-0.297-0.257-0.74-0.455-1.327-0.597c-0.588-0.142-0.971-0.274-1.152-0.396c-0.18-0.123-0.271-0.299-0.271-0.531
		c0-0.231,0.091-0.405,0.271-0.52c0.181-0.114,0.413-0.172,0.693-0.172c0.282,0,0.567,0.048,0.856,0.147
		c0.29,0.098,0.52,0.224,0.688,0.376l0.517-0.728c-0.262-0.218-0.574-0.386-0.935-0.506c-0.36-0.121-0.723-0.181-1.089-0.181
		c-0.569,0-1.045,0.144-1.432,0.429c-0.385,0.286-0.578,0.694-0.578,1.223c0,0.529,0.17,0.921,0.508,1.178
		c0.169,0.136,0.364,0.246,0.582,0.331c0.219,0.084,0.539,0.178,0.959,0.277c0.421,0.103,0.718,0.214,0.891,0.336
		c0.171,0.123,0.257,0.294,0.257,0.515c0,0.221-0.091,0.399-0.274,0.532C38.804,23.254,38.557,23.321,38.244,23.321z"/>
	<polygon fill="#231F20" points="45.591,23.247 42.434,23.247 42.434,21.717 45.181,21.717 45.181,20.858 42.434,20.858 
		42.434,19.346 45.491,19.346 45.491,18.438 41.468,18.438 41.468,24.155 45.591,24.155 	"/>
</g>
</svg>
