<?xml version="1.0" encoding="utf-8"?>
<!-- Generator: Adobe Illustrator 16.0.0, SVG Export Plug-In . SVG Version: 6.00 Build 0)  -->
<!DOCTYPE svg PUBLIC "-//W3C//DTD SVG 1.1//EN" "http://www.w3.org/Graphics/SVG/1.1/DTD/svg11.dtd">
<svg version="1.1" id="Layer_1" xmlns="http://www.w3.org/2000/svg" xmlns:xlink="http://www.w3.org/1999/xlink" x="0px" y="0px"
	 width="50px" height="50px" viewBox="0 0 50 50" enable-background="new 0 0 50 50" xml:space="preserve">
<g>
	<g>
		<g>
			<g>
				<path fill="#F07D00" d="M20.977,16.483c-0.659-0.583-1.495-1.037-2.507-1.361c-1.012-0.325-2.211-0.487-3.595-0.487H9.442v2.979
					v17.733h2.985v-7.291h2.448c1.346,0,2.521-0.167,3.523-0.5c1.003-0.334,1.838-0.803,2.507-1.405
					c0.668-0.602,1.169-1.319,1.503-2.155c0.334-0.835,0.501-1.755,0.501-2.758c0-0.965-0.157-1.852-0.472-2.664
					C22.123,17.763,21.635,17.065,20.977,16.483z M19.245,22.82c-0.171,0.473-0.43,0.874-0.773,1.204
					c-0.344,0.33-0.779,0.582-1.304,0.758c-0.525,0.177-1.142,0.266-1.848,0.266h-2.894v-7.435h2.894
					c0.706,0,1.323,0.084,1.848,0.252c0.524,0.167,0.959,0.409,1.304,0.723c0.343,0.315,0.602,0.697,0.773,1.146
					c0.172,0.449,0.257,0.95,0.257,1.503C19.502,21.82,19.417,22.348,19.245,22.82z"/>
			</g>
		</g>
	</g>
	<g>
		<path fill="#F07D00" d="M34.377,23.343c0.613-0.838,0.92-1.687,0.92-2.545c0-0.858-0.327-1.589-0.981-2.192
			s-1.482-0.905-2.484-0.905c-1.759,0-3.22,0.9-4.385,2.699l-2.914-1.687c0.94-1.411,1.978-2.474,3.113-3.189
			c1.135-0.715,2.596-1.073,4.385-1.073c1.789,0,3.358,0.567,4.708,1.702c1.349,1.135,2.024,2.684,2.024,4.646
			c0,1.104-0.287,2.157-0.859,3.159c-0.572,1.002-1.625,2.29-3.159,3.864l-5.029,5.121h9.721v3.465H24.779v-3.066l6.501-6.532
			C32.731,25.336,33.764,24.182,34.377,23.343z"/>
	</g>
</g>
</svg>
