<?xml version="1.0" encoding="utf-8"?>
<!-- Generator: Adobe Illustrator 16.0.0, SVG Export Plug-In . SVG Version: 6.00 Build 0)  -->
<!DOCTYPE svg PUBLIC "-//W3C//DTD SVG 1.1//EN" "http://www.w3.org/Graphics/SVG/1.1/DTD/svg11.dtd">
<svg version="1.1" id="Layer_1" xmlns="http://www.w3.org/2000/svg" xmlns:xlink="http://www.w3.org/1999/xlink" x="0px" y="0px"
	 width="50px" height="50px" viewBox="0 0 50 50" enable-background="new 0 0 50 50" xml:space="preserve">
<path fill="#F07D00" d="M20.977,16.483c-0.659-0.583-1.495-1.037-2.507-1.361c-1.012-0.325-2.211-0.487-3.595-0.487H9.442v2.979
	v17.733h2.985v-7.291h2.448c1.346,0,2.521-0.167,3.523-0.5c1.003-0.334,1.838-0.803,2.507-1.405
	c0.668-0.602,1.169-1.319,1.503-2.155c0.334-0.835,0.501-1.755,0.501-2.758c0-0.965-0.157-1.852-0.472-2.664
	C22.123,17.763,21.635,17.065,20.977,16.483z M19.245,22.82c-0.171,0.473-0.43,0.874-0.773,1.204
	c-0.344,0.33-0.779,0.582-1.304,0.758c-0.525,0.177-1.142,0.266-1.848,0.266h-2.894v-7.435h2.894c0.706,0,1.323,0.084,1.848,0.252
	c0.524,0.167,0.959,0.409,1.304,0.723c0.343,0.315,0.602,0.697,0.773,1.146c0.172,0.449,0.257,0.95,0.257,1.503
	C19.502,21.82,19.417,22.348,19.245,22.82z"/>
<path fill="#F07D00" d="M35.334,27.729v-3.925h3.435v3.925h2.576v3.281h-2.576v5.397h-3.435V31.01h-9.2v-3.189l7.881-12.85h3.956
	l-7.758,12.757H35.334z"/>
</svg>
