<?xml version="1.0" encoding="utf-8"?>
<!-- Generator: Adobe Illustrator 16.0.0, SVG Export Plug-In . SVG Version: 6.00 Build 0)  -->
<!DOCTYPE svg PUBLIC "-//W3C//DTD SVG 1.1//EN" "http://www.w3.org/Graphics/SVG/1.1/DTD/svg11.dtd">
<svg version="1.1" id="Layer_1" xmlns="http://www.w3.org/2000/svg" xmlns:xlink="http://www.w3.org/1999/xlink" x="0px" y="0px"
	 width="50px" height="50px" viewBox="0 0 50 50" enable-background="new 0 0 50 50" xml:space="preserve">
<path fill="#F07D00" d="M20.977,16.483c-0.659-0.583-1.494-1.037-2.507-1.361c-1.012-0.325-2.212-0.487-3.595-0.487H9.442v2.979
	v17.733h2.985v-7.291h2.448c1.346,0,2.521-0.167,3.523-0.5c1.002-0.334,1.838-0.803,2.507-1.405
	c0.668-0.602,1.169-1.319,1.503-2.155c0.335-0.835,0.502-1.755,0.502-2.758c0-0.965-0.157-1.852-0.473-2.664
	C22.123,17.763,21.635,17.065,20.977,16.483z M19.245,22.82c-0.171,0.473-0.431,0.874-0.773,1.204
	c-0.345,0.33-0.779,0.582-1.304,0.758c-0.525,0.177-1.142,0.266-1.848,0.266h-2.894v-7.435h2.894c0.706,0,1.322,0.084,1.848,0.252
	c0.524,0.167,0.959,0.409,1.304,0.723c0.343,0.315,0.603,0.697,0.773,1.146c0.172,0.449,0.257,0.95,0.257,1.503
	C19.502,21.82,19.417,22.348,19.245,22.82z"/>
<path fill="#F07D00" d="M38.904,14.941v3.281h-9.047v5.274c0.899-0.491,1.922-0.736,3.066-0.736c2.004,0,3.73,0.603,5.183,1.809
	c1.452,1.207,2.177,2.842,2.177,4.907c0,2.065-0.756,3.777-2.269,5.137c-1.513,1.36-3.374,2.039-5.581,2.039
	c-2.883,0-5.184-0.96-6.9-2.882l1.932-2.637c0.164,0.164,0.384,0.358,0.66,0.583c0.275,0.225,0.843,0.526,1.701,0.905
	c0.859,0.378,1.799,0.567,2.822,0.567c1.021,0,1.951-0.307,2.79-0.92s1.257-1.507,1.257-2.683c0-1.175-0.443-2.085-1.334-2.729
	c-0.889-0.644-2.014-0.966-3.373-0.966s-2.652,0.337-3.879,1.012l-1.533-1.656V14.941H38.904z"/>
</svg>
