<?xml version="1.0" encoding="utf-8"?>
<!-- Generator: Adobe Illustrator 16.0.0, SVG Export Plug-In . SVG Version: 6.00 Build 0)  -->
<!DOCTYPE svg PUBLIC "-//W3C//DTD SVG 1.1//EN" "http://www.w3.org/Graphics/SVG/1.1/DTD/svg11.dtd">
<svg version="1.1" id="Layer_1" xmlns="http://www.w3.org/2000/svg" xmlns:xlink="http://www.w3.org/1999/xlink" x="0px" y="0px"
	 width="50px" height="50px" viewBox="0 0 50 50" enable-background="new 0 0 50 50" xml:space="preserve">
<path fill="#F07D00" d="M28.6,16.167c1.369-1.083,3.087-1.625,5.152-1.625c2.064,0,3.782,0.542,5.152,1.625
	c1.369,1.084,2.055,2.448,2.055,4.094c0,1.646-0.768,3.103-2.301,4.37c2.064,1.309,3.098,3.148,3.098,5.52
	c0,1.84-0.736,3.384-2.208,4.63c-1.472,1.248-3.403,1.871-5.796,1.871s-4.324-0.623-5.796-1.871
	c-1.472-1.247-2.208-2.791-2.208-4.63c0-2.372,1.032-4.211,3.098-5.52c-1.533-1.268-2.301-2.724-2.301-4.37
	C26.545,18.616,27.23,17.251,28.6,16.167z M30.746,32.62c0.94,0.603,1.942,0.904,3.006,0.904c1.063,0,2.064-0.301,3.006-0.904
	c0.939-0.603,1.41-1.467,1.41-2.591s-0.45-1.994-1.35-2.607s-1.922-0.92-3.066-0.92s-2.168,0.307-3.066,0.92
	c-0.9,0.613-1.35,1.482-1.35,2.607S29.807,32.017,30.746,32.62z M31.038,22.868c0.767,0.624,1.671,0.935,2.714,0.935
	s1.947-0.312,2.714-0.935s1.149-1.39,1.149-2.3c0-0.909-0.383-1.671-1.149-2.285s-1.671-0.92-2.714-0.92s-1.947,0.307-2.714,0.92
	s-1.149,1.375-1.149,2.285C29.889,21.478,30.271,22.245,31.038,22.868z"/>
<path fill="#F07D00" d="M20.977,16.483c-0.659-0.583-1.494-1.037-2.507-1.361c-1.012-0.325-2.212-0.487-3.595-0.487H9.441v2.979
	v17.733h2.985v-7.291h2.448c1.346,0,2.521-0.167,3.523-0.5c1.002-0.334,1.838-0.803,2.507-1.405
	c0.668-0.602,1.169-1.319,1.503-2.155c0.335-0.835,0.502-1.755,0.502-2.758c0-0.965-0.157-1.852-0.473-2.664
	C22.123,17.763,21.635,17.065,20.977,16.483z M19.245,22.82c-0.171,0.473-0.431,0.874-0.773,1.204
	c-0.345,0.33-0.779,0.582-1.304,0.758c-0.525,0.177-1.142,0.266-1.848,0.266h-2.894v-7.435h2.894c0.706,0,1.322,0.084,1.848,0.252
	c0.524,0.167,0.959,0.409,1.304,0.723c0.343,0.315,0.603,0.697,0.773,1.146c0.172,0.449,0.257,0.95,0.257,1.503
	C19.502,21.82,19.417,22.348,19.245,22.82z"/>
</svg>
