<?xml version="1.0" encoding="utf-8"?>
<!-- Generator: Adobe Illustrator 16.0.0, SVG Export Plug-In . SVG Version: 6.00 Build 0)  -->
<!DOCTYPE svg PUBLIC "-//W3C//DTD SVG 1.1//EN" "http://www.w3.org/Graphics/SVG/1.1/DTD/svg11.dtd">
<svg version="1.1" id="Layer_1" xmlns="http://www.w3.org/2000/svg" xmlns:xlink="http://www.w3.org/1999/xlink" x="0px" y="0px"
	 width="50px" height="50px" viewBox="0 0 50 50" enable-background="new 0 0 50 50" xml:space="preserve">
<path fill="#F07D00" d="M20.977,16.483c-0.659-0.583-1.494-1.037-2.507-1.361c-1.012-0.325-2.212-0.487-3.595-0.487H9.441v2.979
	v17.733h2.985v-7.291h2.448c1.346,0,2.521-0.167,3.523-0.5c1.002-0.334,1.838-0.803,2.507-1.405
	c0.668-0.602,1.169-1.319,1.503-2.155c0.335-0.835,0.502-1.755,0.502-2.758c0-0.965-0.157-1.852-0.473-2.664
	C22.123,17.763,21.635,17.065,20.977,16.483z M19.245,22.82c-0.171,0.473-0.431,0.874-0.773,1.204
	c-0.345,0.33-0.779,0.582-1.304,0.758c-0.525,0.177-1.142,0.266-1.848,0.266h-2.894v-7.435h2.894c0.706,0,1.322,0.084,1.848,0.252
	c0.524,0.167,0.959,0.409,1.304,0.723c0.343,0.315,0.603,0.697,0.773,1.146c0.172,0.449,0.257,0.95,0.257,1.503
	C19.502,21.82,19.417,22.348,19.245,22.82z"/>
<path fill="#F07D00" d="M32.157,33.402c1.901,0,3.302-0.644,4.201-1.932c0.899-1.288,1.359-3.025,1.38-5.213
	c-0.511,0.572-1.247,1.109-2.207,1.61c-0.962,0.501-2.024,0.751-3.189,0.751c-1.922,0-3.532-0.639-4.83-1.917
	c-1.299-1.277-1.947-2.975-1.947-5.09c0-2.116,0.699-3.818,2.1-5.106c1.4-1.288,3.164-1.932,5.291-1.932
	c3.434,0,5.806,1.533,7.114,4.6c0.735,1.758,1.104,3.741,1.104,5.949s-0.236,4.048-0.706,5.52c-0.47,1.472-1.114,2.637-1.932,3.496
	c-1.595,1.677-3.553,2.515-5.873,2.515s-4.421-0.725-6.302-2.177l1.809-2.668c0.471,0.409,1.1,0.777,1.887,1.104
	C30.844,33.238,31.544,33.402,32.157,33.402z M32.816,25.429c1.236,0,2.27-0.342,3.098-1.027c0.828-0.685,1.242-1.574,1.242-2.668
	s-0.398-2.034-1.196-2.821s-1.794-1.181-2.99-1.181s-2.183,0.353-2.959,1.058c-0.777,0.705-1.165,1.61-1.165,2.714
	s0.352,2.035,1.058,2.791C30.608,25.051,31.58,25.429,32.816,25.429z"/>
</svg>
