<?xml version="1.0" encoding="utf-8"?>
<!-- Generator: Adobe Illustrator 16.0.0, SVG Export Plug-In . SVG Version: 6.00 Build 0)  -->
<!DOCTYPE svg PUBLIC "-//W3C//DTD SVG 1.1//EN" "http://www.w3.org/Graphics/SVG/1.1/DTD/svg11.dtd">
<svg version="1.1" id="Layer_1" xmlns="http://www.w3.org/2000/svg" xmlns:xlink="http://www.w3.org/1999/xlink" x="0px" y="0px"
	 width="85px" height="85px" viewBox="0 0 85 85" enable-background="new 0 0 85 85" xml:space="preserve">
<path fill="#F07D00" d="M57.617,59.013v4.063h-0.292h-4.911v-3.711H32.887v3.711h-4.91h-0.293v-4.063
	C25.988,58.337,25,56.641,25,53.499l0.004-6.909l0.002,0.134l1.929-19.206h3.084v-5.594h12.427h12.837v5.594h3.084l1.929,19.206
	l0.003-0.134l0.004,6.909C60.302,56.641,59.314,58.337,57.617,59.013 M30.019,27.518l-1.312,17.359h27.888l-1.313-17.359H30.019z
	 M39.35,26.165h6.602v-2.922H39.35V26.165z M53.226,50.015c-1.58,0-2.567,0.842-2.567,2.493c0,1.626,1.009,2.492,2.567,2.492h1.297
	c1.58,0,2.567-0.842,2.567-2.494c0-1.626-1.008-2.491-2.567-2.491H53.226z M32.075,50.015h-1.296c-1.56,0-2.568,0.865-2.568,2.491
	c0,1.652,0.988,2.494,2.568,2.494h1.296c1.56,0,2.569-0.866,2.569-2.492C34.645,50.857,33.656,50.015,32.075,50.015"/>
</svg>
