<?xml version="1.0" encoding="utf-8"?>
<!-- Generator: Adobe Illustrator 16.0.0, SVG Export Plug-In . SVG Version: 6.00 Build 0)  -->
<!DOCTYPE svg PUBLIC "-//W3C//DTD SVG 1.1//EN" "http://www.w3.org/Graphics/SVG/1.1/DTD/svg11.dtd">
<svg version="1.1" id="Layer_1" xmlns="http://www.w3.org/2000/svg" xmlns:xlink="http://www.w3.org/1999/xlink" x="0px" y="0px"
	 width="85px" height="85px" viewBox="0 0 85 85" enable-background="new 0 0 85 85" xml:space="preserve">
<g>
	<path fill="#F07D00" d="M42.491,38.734c-6.835,0-9.896,2.841-9.896,7.653l0.003,4.261v4.997l5.61-0.015v-9.226
		c0-1.768,0.271-4.894,4.003-4.894c3.73,0,4.003,3.126,4.003,4.894l0.003,9.226h5.609v-8.469c0-1.242-0.025-3.327-1.136-5.105
		C49.673,40.429,47.525,38.734,42.491,38.734z"/>
	<path fill="#F07D00" d="M59.087,36.792c2.733,0,4.127-1.535,4.127-3.989v-0.992c0-2.423-1.433-3.989-4.123-3.989
		c-2.733,0-4.125,1.533-4.125,3.989v0.992C54.966,35.225,56.396,36.792,59.087,36.792z"/>
	<path fill="#F07D00" d="M25.495,36.792c2.732,0,4.127-1.535,4.127-3.989v-0.992c0-2.423-1.434-3.989-4.124-3.989
		c-2.732,0-4.126,1.533-4.126,3.989v0.992C21.372,35.225,22.804,36.792,25.495,36.792z"/>
	<path fill="#F07D00" d="M66.027,41.238c-0.862-1.381-2.686-2.82-6.958-2.82c-3.899,0-6.345,1.094-7.534,3.049
		c0.01,0.015,0.021,0.026,0.031,0.042c1.292,2.07,1.292,4.489,1.292,5.653v5.603l2.575-0.006V44.93c0-1.5,0.23-4.154,3.397-4.154
		c3.166,0,3.397,2.654,3.397,4.154l0.003,7.829h4.761v-7.188C66.992,44.518,66.971,42.748,66.027,41.238z"/>
	<path fill="#F07D00" d="M42.513,36.817c3.22,0,4.861-1.808,4.861-4.7v-1.168c0-2.854-1.688-4.7-4.857-4.7
		c-3.22,0-4.861,1.808-4.861,4.7v1.168C37.655,34.971,39.341,36.817,42.513,36.817z"/>
	<path fill="#F07D00" d="M32.722,41.768c-0.085-0.179-0.179-0.356-0.287-0.53c-0.862-1.381-2.685-2.82-6.958-2.82
		c-5.802,0-8.398,2.413-8.398,6.496l0.003,3.616v4.24l4.76-0.012V44.93c0-1.5,0.231-4.154,3.398-4.154
		c3.166,0,3.396,2.654,3.396,4.154l0.002,7.829h2.927v-2.109l-0.003-4.262C31.562,44.855,31.853,43.212,32.722,41.768z"/>
</g>
</svg>
