<?xml version="1.0" encoding="utf-8"?>
<!-- Generator: Adobe Illustrator 16.0.0, SVG Export Plug-In . SVG Version: 6.00 Build 0)  -->
<!DOCTYPE svg PUBLIC "-//W3C//DTD SVG 1.1//EN" "http://www.w3.org/Graphics/SVG/1.1/DTD/svg11.dtd">
<svg version="1.1" id="Layer_1" xmlns="http://www.w3.org/2000/svg" xmlns:xlink="http://www.w3.org/1999/xlink" x="0px" y="0px"
	 width="50px" height="50px" viewBox="0 0 50 50" enable-background="new 0 0 50 50" xml:space="preserve">
<g>
	<text transform="matrix(0.85 0 0 1 19.3096 35.4604)" fill="#F07D00" font-family="'Montserrat-Bold'" font-size="4.9149">Chèque </text>
	<text transform="matrix(0.8 0 0 1 19.3096 40.3755)" fill="#F07D00" font-family="'Montserrat-Bold'" font-size="4.9149">parking</text>
	<path fill="#F07D00" d="M25.934,28.115c1.436-0.479,2.633-1.149,3.59-2.011c0.957-0.861,1.675-1.89,2.155-3.087
		c0.478-1.197,0.718-2.514,0.718-3.951c0-1.382-0.226-2.653-0.678-3.815c-0.451-1.163-1.148-2.162-2.093-2.996
		c-0.943-0.834-2.14-1.485-3.59-1.949c-1.45-0.464-3.166-0.697-5.149-0.697h-7.782v4.267v25.399h4.275V28.832h3.507
		C22.816,28.832,24.497,28.594,25.934,28.115z M17.38,13.876h4.145c1.012,0,1.894,0.12,2.646,0.358
		c0.752,0.24,1.375,0.586,1.868,1.038c0.493,0.451,0.861,0.998,1.107,1.64c0.246,0.644,0.369,1.361,0.369,2.154
		c0,0.835-0.123,1.59-0.369,2.268c-0.246,0.677-0.615,1.25-1.107,1.723c-0.493,0.472-1.115,0.834-1.868,1.087
		c-0.752,0.254-1.635,0.38-2.646,0.38H17.38V13.876z"/>
</g>
</svg>
