<?xml version="1.0" encoding="utf-8"?>
<!-- Generator: Adobe Illustrator 16.0.0, SVG Export Plug-In . SVG Version: 6.00 Build 0)  -->
<!DOCTYPE svg PUBLIC "-//W3C//DTD SVG 1.1//EN" "http://www.w3.org/Graphics/SVG/1.1/DTD/svg11.dtd">
<svg version="1.1" id="Layer_1" xmlns="http://www.w3.org/2000/svg" xmlns:xlink="http://www.w3.org/1999/xlink" x="0px" y="0px"
	 width="85px" height="85px" viewBox="0 0 85 85" enable-background="new 0 0 85 85" xml:space="preserve">
<g>
	<path fill="#F07D00" d="M49.989,18.489c-0.222-0.023-0.446-0.035-0.673-0.035h-8.176h-5.044c-3.629,0-6.569,3.049-6.569,6.812
		v8.212v25.544c0,3.528,2.584,6.429,5.898,6.777c0.221,0.023,0.444,0.035,0.671,0.035h8.556h4.664c3.629,0,6.571-3.049,6.571-6.813
		V50.81V25.266C55.888,21.738,53.302,18.837,49.989,18.489z M39.242,22.035h6.93v1.264h-6.93V22.035z M42.68,64.023
		c-1.137,0-2.059-0.924-2.059-2.065c0-1.14,0.922-2.064,2.059-2.064c1.138,0,2.059,0.924,2.059,2.064
		C44.738,63.099,43.817,64.023,42.68,64.023z M53.1,58.709H32.315V33.478l0,0v-7.834h20.783V50.81H53.1V58.709z"/>
	<rect x="44.327" y="39.566" fill="#F07D00" width="0.001" height="0.001"/>
	<polygon fill="#F07D00" points="41.729,38.921 41.729,38.919 41.729,38.919 	"/>
	<path fill="#F07D00" d="M45.633,43.557c0-0.023,0-0.047,0-0.068c0.223,0,0.434,0,0.65,0c0,0.218,0,0.431,0,0.65
		c0.219,0,0.432,0,0.651,0c0,0.221,0,0.434,0,0.647c0.438,0,0.87,0,1.309,0c0-0.218,0-0.431,0-0.651c0.219,0,0.433,0,0.652,0
		c0-0.22,0-0.433,0-0.654c0.436,0,0.866,0,1.302,0c0-0.22,0-0.432,0-0.652c0.218,0,0.432,0,0.646,0c0-0.22,0-0.433,0-0.652
		c-0.217,0-0.431,0-0.644,0c0-0.657,0-1.306,0-1.961c0.217,0,0.429,0,0.648,0c0-0.22,0-0.434,0-0.648c0.218,0,0.428,0,0.646,0
		c0,0.216,0,0.43,0,0.647c0.223,0,0.437,0,0.651,0c0-0.437,0-0.869,0-1.302c-0.435,0-0.865,0-1.305,0c0,0.217,0,0.431,0,0.646
		c-0.22,0-0.43,0-0.646,0c0-0.436,0-0.867,0-1.301c-0.221,0-0.435,0-0.651,0c0,0.438,0,0.871,0,1.31c0.219,0,0.431,0,0.643,0
		c0,0.217,0,0.43,0,0.645c-0.431,0-0.858,0-1.292,0c0-0.652,0-1.302,0-1.954c-0.44,0-0.873,0-1.307,0c0,0.437,0,0.869,0,1.308
		c0.218,0,0.432,0,0.643,0c0,0.22,0,0.432,0,0.646c-0.431,0-0.858,0-1.294,0c0-1.09,0-2.177,0-3.261c-0.224,0-0.438,0-0.656,0
		c0,0.218,0,0.431,0,0.644c-0.218,0-0.43,0-0.649,0c0-0.654,0-1.303,0-1.958c-0.221,0-0.432,0-0.646,0c0-0.434,0-0.863,0-1.3
		c0.078,0,0.156,0.001,0.234,0c0.135-0.001,0.271-0.004,0.406-0.006c0,0.218,0,0.436,0,0.655c0.445,0,0.876,0,1.309,0
		c0-0.656,0-1.305,0-1.956c-0.436,0-0.866,0-1.305,0c0,0.218,0,0.431,0,0.653c-0.221,0-0.434,0-0.652,0c0,0.22,0,0.433,0,0.65
		c-0.026,0-0.048,0-0.07,0c-0.371,0-0.742,0-1.114,0c-0.037,0-0.075-0.002-0.112-0.004c0,0.218,0,0.435,0,0.654
		c-0.44,0-0.87,0-1.305,0c0-0.434,0-0.867,0-1.299c-0.221,0-0.435,0-0.655,0c0,0.872,0,1.739,0,2.605c-0.218,0-0.43,0-0.649,0
		c0-0.218,0-0.433,0-0.646c-0.22,0-0.432,0-0.646,0c0,0.22,0,0.436,0,0.658c0.217,0,0.429,0,0.647,0c0,0.655,0,1.304,0,1.961
		c0.222,0,0.435,0,0.65,0c0,0.163,0,0.317,0.001,0.473c0,0.062,0.003,0.123,0.006,0.185c0.15-0.002,0.3-0.004,0.45-0.006
		c0.063-0.001,0.126-0.001,0.197-0.001c0,0.221,0,0.436,0,0.65c0.219,0,0.431,0,0.65,0c0-0.435,0-0.867,0-1.298
		c0.22,0,0.433,0,0.651,0c0,0.218,0,0.431,0,0.65c0.22,0,0.433,0,0.649,0c0,0.221,0,0.437,0,0.652c0.214,0,0.428,0,0.65,0
		c0-0.653,0-1.302,0-1.955c0.22,0,0.431,0,0.649,0c0,0.212,0,0.427,0,0.646c0.22,0,0.433,0,0.648,0c0,0.655,0,1.304,0,1.958
		c-0.214,0-0.427,0-0.643,0c0,0.221,0,0.435,0,0.654c0.214,0,0.426,0,0.64,0c0.003,0.014,0.007,0.022,0.007,0.031
		c0.001,0.198,0.001,0.395,0,0.592c0,0.012-0.003,0.022-0.006,0.034c-0.147-0.001-0.296-0.003-0.444-0.003
		c-0.279-0.001-0.561,0-0.849,0c0,0.217,0,0.431,0,0.654c-0.223,0-0.438,0-0.653,0c0,0.217,0,0.433,0,0.656c0.222,0,0.435,0,0.647,0
		c0,0.22,0,0.431,0,0.645c-0.651,0-1.299,0-1.952,0c0-0.219,0-0.432,0-0.651c-0.22,0-0.432,0-0.647,0c0-0.219,0-0.434,0-0.647
		c-0.215,0-0.432,0-0.653,0c0,0.651,0,1.3,0,1.951c-0.22,0-0.433,0-0.652,0c0-0.436,0-0.868,0-1.297c-0.221,0-0.435,0-0.652,0
		c0,0.435,0,0.866,0,1.301c-0.107,0-0.209,0.001-0.312,0c-0.11-0.001-0.22-0.004-0.33-0.006c-0.003,0.005-0.007,0.01-0.007,0.01
		c0,0.219,0.001,0.433,0.002,0.646c-0.015,0.002-0.03,0.004-0.046,0.004c-0.403,0-0.807,0-1.21,0c-0.014,0-0.027-0.001-0.048-0.002
		c0-0.219,0-0.433,0-0.652c-0.22,0-0.433,0-0.651,0c0-0.218,0-0.433,0-0.655c-0.221,0-0.435,0-0.647,0c0-0.22,0-0.432,0-0.652
		c0.219,0,0.432,0,0.65,0c0-0.221,0-0.434,0-0.653c0.218,0,0.433,0,0.65,0c0-0.22,0-0.432,0-0.647c0.217,0,0.428,0,0.647,0
		c0,0.218,0,0.431,0,0.645c0.439,0,0.87,0,1.302,0c0-1.307,0-2.609,0-3.92c-0.217,0-0.431,0-0.646,0c0-0.22,0-0.431,0-0.648
		c0.217,0,0.431,0,0.645,0c0-0.223,0-0.438,0-0.66c-0.216,0-0.431,0-0.649,0c0-0.22,0-0.433,0-0.649c-0.436,0-0.867,0-1.301,0
		c0,0.656,0,1.307,0,1.964c0.217,0,0.429,0,0.644,0c0,0.218,0,0.43,0,0.649c-0.217,0-0.429,0-0.648,0c0,0.438,0,0.869,0,1.304
		c-0.219,0-0.429,0-0.646,0c0-0.217,0-0.432,0-0.652c-0.22,0-0.432,0-0.647,0c0-0.218,0-0.431,0-0.651c0.218,0,0.431,0,0.646,0
		c0-0.221,0-0.434,0-0.651c-0.217,0-0.433,0-0.654,0c0,0.217,0,0.43,0,0.65c-0.437,0-0.867,0-1.304,0c0,0.221,0,0.434,0,0.648
		c-0.218,0-0.429,0-0.649,0c0-0.437,0-0.868,0-1.298c-0.438,0-0.869,0-1.3,0c0,0.438,0,0.87,0,1.309c0.435,0,0.865,0,1.3,0
		c0,0.219,0,0.432,0,0.647c0.221,0,0.435,0,0.656,0c0-0.217,0-0.432,0-0.644c0.436,0,0.865,0,1.299,0c0,0.217,0,0.43,0,0.648
		c0.219,0,0.431,0,0.644,0c0,0.22,0,0.434,0,0.646c-1.301,0-2.598,0-3.9,0c0-0.217,0-0.43,0-0.646c-0.22,0-0.434,0-0.65,0
		c0,0.653,0,1.302,0,1.954c0.435,0,0.865,0,1.305,0c0-0.217,0-0.431,0-0.645c0.219,0,0.431,0,0.647,0c0,0.217,0,0.429,0,0.649
		c0.652,0,1.301,0,1.947,0c0,0.221,0,0.436,0,0.654c-0.65,0-1.297,0-1.945,0c0,0.219,0,0.433,0,0.655c0.652,0,1.3,0,1.953,0
		c0,0.22,0,0.433,0,0.651c0.218,0,0.43,0,0.645,0c0,0.22,0,0.434,0,0.648c-0.432,0-0.859,0-1.294,0c0-0.218,0-0.432,0-0.646
		c-0.222,0-0.436,0-0.657,0c0,0.218,0,0.432,0,0.646c-0.218,0-0.428,0-0.646,0c0-0.218,0-0.433,0-0.65c-0.224,0-0.439,0-0.656,0
		c0,0.435,0,0.868,0,1.309c-0.438,0-0.867,0-1.299,0c0,0.221,0,0.434,0,0.654c0.435,0,0.864,0,1.301,0c0,0.22,0,0.433,0,0.65
		c0.22,0,0.436,0,0.656,0c0-0.436,0-0.866,0-1.3c0.436,0,0.863,0,1.293,0c0,0.217,0,0.43,0,0.648c-0.216,0-0.429,0-0.644,0
		c0,0.219,0,0.434,0,0.656c0.867,0,1.731,0,2.604,0c0,0.222,0,0.437,0,0.656c0.438,0,0.867,0,1.298,0c0,0.217,0,0.429,0,0.648
		c-0.217,0-0.429,0-0.649,0c0,0.655,0,1.304,0,1.96c-0.22,0-0.432,0-0.645,0c0,0.44,0,0.874,0,1.313c0.218,0,0.429,0,0.65,0
		c0,0.22,0,0.433,0,0.646c0.872,0,1.736,0,2.605,0c0-0.434,0-0.865,0-1.297c0.218,0,0.433,0,0.652,0c0,0.218,0,0.432,0,0.649
		c0.142,0,0.276-0.001,0.41,0c0.078,0.001,0.155,0.004,0.233,0.006c0.002-0.156,0.003-0.313,0.005-0.469
		c0.002-0.062,0-0.124,0-0.192c0.222,0,0.435,0,0.648,0c0-0.222,0-0.436,0-0.659c-0.217,0-0.431,0-0.645,0c0-0.437,0-0.865,0-1.3
		c0.217,0,0.431,0,0.648,0c0-0.438,0-0.869,0-1.307c0.437,0,0.867,0,1.298,0c0-0.224,0-0.439,0-0.661c-0.219,0-0.43,0-0.643,0
		c0-0.872,0-1.736,0-2.604c0.217,0,0.43,0,0.648,0c0,0.218,0,0.431,0,0.646c0.219,0,0.433,0,0.646,0
		c0.002-0.023,0.004-0.047,0.004-0.071C45.633,44.33,45.633,43.944,45.633,43.557z M48.884,43.479c-0.213,0-0.424,0-0.639,0
		c0-0.215,0-0.428,0-0.645c0.211,0,0.421,0,0.639,0C48.884,43.05,48.884,43.262,48.884,43.479z M48.245,41.526
		c0.212,0,0.426,0,0.646,0c0-0.22,0-0.432,0-0.649c0.216,0,0.427,0,0.643,0c0,0.648,0,1.297,0,1.95c-0.215,0-0.425,0-0.64,0
		c0-0.216,0-0.429,0-0.648c-0.219,0-0.433,0-0.648,0C48.245,41.958,48.245,41.747,48.245,41.526z M45.632,33.903
		c0.001-0.07,0.001-0.141,0.001-0.216c0.215,0,0.428,0,0.644,0c0,0.212,0,0.424,0,0.642c-0.215,0-0.433,0-0.649,0
		C45.629,34.188,45.631,34.045,45.632,33.903z M42.371,37.597c-0.215,0-0.428,0-0.644,0c0-0.431,0-0.86,0-1.293
		c0.214,0,0.428,0,0.644,0C42.371,36.734,42.371,37.164,42.371,37.597z M43.673,37.597c-0.215,0-0.427,0-0.644,0
		c0-0.648,0-1.296,0-1.948c0.215,0,0.428,0,0.644,0C43.673,36.299,43.673,36.946,43.673,37.597z M44.324,38.252
		c-0.217,0-0.428,0-0.643,0c0-0.215,0-0.428,0-0.643c0.215,0,0.427,0,0.643,0C44.324,37.822,44.324,38.034,44.324,38.252z
		 M44.325,35.636c-0.215,0-0.427,0-0.644,0c0-0.212,0-0.424,0-0.64c0.215,0,0.426,0,0.644,0
		C44.325,35.211,44.325,35.422,44.325,35.636z M44.334,35.648c0.213,0,0.425,0,0.641,0c0,0.215,0,0.428,0,0.643
		c-0.216,0-0.427,0-0.641,0C44.334,36.076,44.334,35.864,44.334,35.648z M44.977,37.596c-0.216,0-0.427,0-0.643,0
		c0-0.213,0-0.425,0-0.641c0.213,0,0.425,0,0.643,0C44.977,37.171,44.977,37.382,44.977,37.596z M47.58,44.133
		c-0.213,0-0.423,0-0.638,0c0-0.214,0-0.428,0-0.646c0.212,0,0.422,0,0.638,0C47.58,43.705,47.58,43.917,47.58,44.133z
		 M46.473,41.525c0.346-0.001,0.691-0.001,1.036-0.001c0.022,0,0.043,0,0.072,0c0,0.218,0,0.431,0,0.653c0.222,0,0.435,0,0.651,0
		c0,0.22,0,0.433,0,0.649c-0.43,0-0.858,0-1.294,0c0-0.215,0-0.429,0-0.647c-0.22,0-0.432,0-0.65,0
		c-0.001-0.026-0.003-0.047-0.003-0.068c-0.001-0.174,0-0.346-0.001-0.519c0-0.021-0.005-0.043-0.008-0.063
		C46.343,41.527,46.408,41.525,46.473,41.525z M39.125,36.957c0.211,0,0.423,0,0.639,0c0,0.213,0,0.425,0,0.641
		c-0.214,0-0.424,0-0.639,0C39.125,37.385,39.125,37.172,39.125,36.957z M39.123,40.223c0.212,0,0.425,0,0.642,0
		c0,0.214,0,0.427,0,0.646c-0.217,0-0.427,0-0.642,0C39.123,40.652,39.123,40.44,39.123,40.223z M37.82,40.875
		c0.212,0,0.425,0,0.64,0c0,0.214,0,0.427,0,0.644c-0.213,0-0.425,0-0.64,0C37.82,41.304,37.82,41.091,37.82,40.875z M37.17,41.528
		c0.212,0,0.424,0,0.638,0c0,0.215,0,0.427,0,0.644c-0.211,0-0.422,0-0.638,0C37.17,41.959,37.17,41.746,37.17,41.528z
		 M37.808,46.09c-0.211,0-0.422,0-0.64,0c0-0.215,0-0.426,0-0.642c0.214,0,0.426,0,0.64,0C37.808,45.664,37.808,45.875,37.808,46.09
		z M38.46,45.438c-0.213,0-0.425,0-0.64,0c0-0.213,0-0.426,0-0.643c0.212,0,0.424,0,0.64,0C38.46,45.01,38.46,45.223,38.46,45.438z
		 M38.472,45.449c0.213,0,0.423,0,0.64,0c0.002,0.021,0.004,0.043,0.004,0.063c0,0.172,0,0.343,0,0.515
		c0,0.021,0.004,0.042,0.006,0.063c-0.216,0-0.431,0-0.649,0C38.472,45.876,38.472,45.665,38.472,45.449z M39.763,46.744
		c-0.211,0-0.422,0-0.64,0c0-0.217,0-0.435,0-0.652c0.053,0.003,0.106,0.007,0.16,0.007c0.157,0.001,0.316,0,0.479,0
		C39.763,46.315,39.763,46.527,39.763,46.744z M42.378,44.141c0.432,0,0.86,0,1.294,0c0,0.432,0,0.863,0,1.297
		c-0.213,0-0.426,0-0.645,0c0-0.214,0-0.426,0-0.646c-0.218,0-0.431,0-0.649,0C42.378,44.568,42.378,44.356,42.378,44.141z
		 M41.729,45.449c0.213,0,0.426,0,0.647,0c0,0.215,0,0.429,0,0.643c-0.214,0-0.429,0-0.647,0
		C41.729,45.879,41.729,45.666,41.729,45.449z M40.319,44.791c0.03,0,0.061,0,0.096,0c0,0.217,0,0.429,0,0.646
		c-0.212,0-0.426,0-0.642,0c0-0.217,0-0.433,0-0.65C39.955,44.788,40.138,44.79,40.319,44.791z M41.719,50.016
		c-0.215,0-0.429,0-0.646,0c0,0.438,0,0.869,0,1.306c-0.438,0-0.864,0-1.301,0c0-0.217,0-0.431,0-0.651c-0.22,0-0.431,0-0.648,0
		c0-0.218,0-0.43,0-0.648c0.214,0,0.426,0,0.646,0c0-0.22,0-0.434,0-0.653c0.437,0,0.865,0,1.3,0c0-0.222,0-0.438,0-0.659
		c-0.214,0-0.426,0-0.642,0c0-0.218,0-0.431,0-0.646c0.43,0,0.858,0,1.292,0C41.719,48.713,41.719,49.36,41.719,50.016z
		 M42.371,47.396c-0.863,0-1.728,0-2.596,0c0-0.21,0-0.422,0-0.643c0.213,0,0.428,0,0.645,0c0-0.219,0-0.43,0-0.647
		c0.218,0,0.432,0,0.65,0c0,0.212,0,0.425,0,0.646c0.437,0,0.866,0,1.301,0C42.371,46.971,42.371,47.181,42.371,47.396z
		 M43.021,48.704c-0.213,0-0.426,0-0.644,0c0-0.216,0-0.426,0-0.639c0.214,0,0.426,0,0.644,0
		C43.021,48.275,43.021,48.487,43.021,48.704z M43.673,46.745c-0.432,0-0.862,0-1.295,0c0-0.219,0-0.436,0-0.651
		c0.023,0.002,0.046,0.005,0.069,0.005c0.383,0,0.767,0,1.15,0c0.023,0,0.047,0,0.075,0C43.673,46.316,43.673,46.528,43.673,46.745z
		"/>
	<polygon fill="#F07D00" points="43.021,51.334 43.021,51.334 43.021,51.335 	"/>
	<rect x="45.628" y="44.788" fill="#F07D00" width="0.001" height="0.001"/>
	<polygon fill="#F07D00" points="43.678,34.329 43.679,34.329 43.68,34.328 	"/>
	<polygon fill="#F07D00" points="39.776,44.13 39.776,44.13 39.776,44.13 	"/>
	<path fill="#F07D00" d="M52.145,50.016c-0.216,0-0.428,0-0.644,0c0-0.654,0-1.301,0-1.957c0.218,0,0.431,0,0.645,0
		c0-0.44,0-0.873,0-1.312c-0.217,0-0.431,0-0.647,0c0-0.44,0-0.873,0-1.305c-0.216,0-0.431,0-0.654,0c0-0.221,0-0.436,0-0.655
		c-0.219,0-0.432,0-0.651,0c0-0.22,0-0.434,0-0.647c-0.221,0-0.435,0-0.654,0c0,0.218,0,0.43,0,0.65c-0.22,0-0.433,0-0.646,0
		c0,0.222,0,0.437,0,0.657c0.217,0,0.429,0,0.642,0c0,0.219,0,0.432,0,0.644c-0.433,0-0.861,0-1.295,0c0-0.218,0-0.431,0-0.65
		c-0.653,0-1.301,0-1.954,0c0-0.219,0-0.431,0-0.651c-0.223,0-0.438,0-0.655,0c0,0.217,0,0.433,0,0.656c-0.221,0-0.434,0-0.646,0
		c0,0.221,0,0.434,0,0.654c0.217,0,0.43,0,0.648,0c0,0.221,0,0.434,0,0.655c0.219,0,0.432,0,0.646,0c0,0.438,0,0.868,0,1.303
		c-0.217,0-0.429,0-0.648,0c0,0.656,0,1.305,0,1.954c-0.219,0-0.43,0-0.649,0c0-0.654,0-1.304,0-1.952c-0.222,0-0.434,0-0.646,0
		c0,0.873,0,1.741,0,2.618c0.218,0,0.431,0,0.649,0c0,0.221,0,0.434,0,0.646c0.219,0,0.433,0,0.651,0c0-0.435,0-0.865,0-1.298
		c0.219,0,0.431,0,0.649,0c0,0.652,0,1.301,0,1.953c0.438,0,0.868,0,1.303,0c0-0.218,0-0.432,0-0.653c-0.215,0-0.427,0-0.643,0
		c0-0.22,0-0.432,0-0.65c0.214,0,0.426,0,0.646,0c0-0.437,0-0.869,0-1.302c0.221,0,0.432,0,0.648,0c0,0.434,0,0.865,0,1.303
		c0.437,0,0.867,0,1.296,0c0,0.22,0,0.432,0,0.65c-0.434,0-0.863,0-1.293,0c0,0.222,0,0.436,0,0.65c0.654,0,1.303,0,1.958,0
		c0-0.436,0-0.866,0-1.303c0.653,0,1.3,0,1.947,0C52.145,50.45,52.145,50.237,52.145,50.016z M46.928,50.011
		c-0.212,0-0.423,0-0.64,0c0-0.217,0-0.427,0-0.64c0.214,0,0.424,0,0.64,0C46.928,49.583,46.928,49.794,46.928,50.011z
		 M48.883,48.705c-0.648,0-1.294,0-1.941,0c0-0.65,0-1.295,0-1.946c0.646,0,1.291,0,1.941,0
		C48.883,47.406,48.883,48.053,48.883,48.705z M50.199,45.448c0.214,0,0.424,0,0.639,0c0,0.65,0,1.297,0,1.95
		c-0.211,0-0.424,0-0.639,0C50.199,46.749,50.199,46.102,50.199,45.448z M50.839,49.359c-0.023,0.001-0.044,0.003-0.065,0.003
		c-0.176,0-0.35,0.002-0.524-0.001c-0.049-0.001-0.061,0.016-0.061,0.062c0.002,0.388,0.001,0.778,0.001,1.166
		c0,0.023,0,0.047,0,0.076c-0.216,0-0.428,0-0.643,0c0-0.648,0-1.295,0-1.949c0.215,0,0.427,0,0.646,0c0-0.22,0-0.434,0-0.651
		c0.223,0,0.432,0,0.646,0C50.839,48.496,50.839,48.925,50.839,49.359z M51.488,48.051c-0.212,0-0.423,0-0.638,0
		c0-0.212,0-0.423,0-0.64c0.214,0,0.423,0,0.638,0C51.488,47.624,51.488,47.835,51.488,48.051z"/>
	<path fill="#F07D00" d="M37.813,33.03c-1.521,0-3.036,0-4.559,0c0,1.526,0,3.047,0,4.572c1.521,0,3.038,0,4.559,0
		C37.813,36.076,37.813,34.555,37.813,33.03z M37.156,36.943c-1.083,0-2.162,0-3.25,0c0-0.023,0-0.045,0-0.066
		c0-1.042,0-2.083-0.001-3.124c0-0.055,0.013-0.071,0.069-0.071c1.038,0.002,2.076,0.001,3.114,0.001c0.022,0,0.044,0,0.067,0
		C37.156,34.773,37.156,35.855,37.156,36.943z"/>
	<path fill="#F07D00" d="M33.255,51.977c1.521,0,3.038,0,4.559,0c0-1.525,0-3.046,0-4.572c-1.521,0-3.035,0-4.559,0
		C33.255,48.931,33.255,50.452,33.255,51.977z M33.906,48.132c0-0.022,0-0.044,0-0.067c1.087,0,2.166,0,3.25,0
		c0,1.085,0,2.168,0,3.26c-0.023,0-0.045,0-0.065,0c-1.039,0-2.077-0.001-3.115,0.001c-0.055,0-0.071-0.014-0.07-0.07
		C33.906,50.214,33.906,49.173,33.906,48.132z"/>
	<path fill="#F07D00" d="M39.769,34.987c0.222,0,0.437,0,0.653,0c0-0.439,0-0.874,0-1.308c-0.215,0-0.432,0-0.654,0
		c0-0.221,0-0.435,0-0.647c-0.221,0-0.434,0-0.646,0c0,0.436,0,0.868,0,1.306c0.216,0,0.428,0,0.647,0
		C39.769,34.559,39.769,34.772,39.769,34.987z"/>
	<rect x="51.498" y="45.441" fill="#F07D00" width="0.001" height="0.001"/>
	<path fill="#F07D00" d="M52.145,43.487c-0.435,0-0.866,0-1.297,0c0,0.218,0,0.433,0,0.652c0.217,0,0.428,0,0.646,0
		c0,0.029,0,0.054,0,0.077c0,0.385,0,0.77,0,1.154c0,0.023,0.003,0.047,0.005,0.071c0.216,0,0.431,0,0.646,0
		C52.145,44.785,52.145,44.136,52.145,43.487z"/>
	<polygon fill="#F07D00" points="39.776,44.13 39.777,44.129 39.776,44.129 	"/>
	<path fill="#F07D00" d="M39.771,42.899c0-0.021,0-0.043,0-0.066c-0.438,0-0.87,0-1.303,0c0,0.218,0,0.431,0,0.651
		c0.216,0,0.428,0,0.647,0c0,0.22,0,0.434,0,0.653c0.023,0,0.039,0,0.055,0c0.186,0,0.37,0.001,0.555,0
		c0.018,0,0.034-0.005,0.052-0.007c-0.002-0.021-0.006-0.044-0.006-0.065C39.771,43.676,39.771,43.288,39.771,42.899z"/>
	<rect x="34.552" y="44.135" fill="#F07D00" width="0.001" height="0.001"/>
	<path fill="#F07D00" d="M34.559,43.528c0-0.014-0.003-0.027-0.005-0.041c-0.436,0-0.865,0-1.299,0c0,0.435,0,0.867,0,1.3
		c0.218,0,0.431,0,0.652,0c0-0.217,0-0.432,0-0.652c0.22,0,0.433,0,0.645,0c0.003-0.014,0.006-0.026,0.007-0.04
		C34.559,43.906,34.559,43.716,34.559,43.528z"/>
	<path fill="#F07D00" d="M44.325,33.683c0-0.223,0-0.437,0-0.652c-0.435,0-0.865,0-1.296,0c0,0.436,0,0.869,0,1.302
		c0.014,0.002,0.023,0.004,0.032,0.004c0.193,0,0.386,0,0.578,0c0.013,0,0.025-0.006,0.038-0.01c0-0.212,0-0.425,0-0.645
		C43.896,33.683,44.111,33.683,44.325,33.683z"/>
	<polygon fill="#F07D00" points="43.678,34.329 43.68,34.327 43.678,34.327 	"/>
	<path fill="#F07D00" d="M44.329,40.873c-0.221,0-0.437,0-0.652,0c0,0.433,0,0.867,0,1.304c0.222,0,0.436,0,0.649,0
		c0.001-0.375,0.002-0.751,0.003-1.126C44.329,40.992,44.329,40.935,44.329,40.873z"/>
	<rect x="44.327" y="42.176" fill="#F07D00" width="0.001" height="0.002"/>
	<polygon fill="#F07D00" points="51.503,41.52 51.501,41.52 51.501,41.522 51.501,41.521 51.503,41.521 	"/>
	<path fill="#F07D00" d="M51.494,42.781c0,0.015,0.003,0.03,0.005,0.045c0.219,0,0.432,0,0.646,0c0-0.436,0-0.868,0-1.305
		c-0.217,0-0.429,0-0.642,0c-0.003,0.018-0.009,0.034-0.009,0.051C51.494,41.975,51.494,42.378,51.494,42.781z"/>
	<polygon fill="#F07D00" points="43.021,51.334 43.021,51.335 43.021,51.335 	"/>
	<path fill="#F07D00" d="M44.325,51.977c0-0.219,0-0.432,0-0.649c-0.013-0.001-0.022-0.003-0.032-0.003c-0.408,0-0.818,0-1.228,0
		c-0.015,0-0.03,0.006-0.044,0.01c0,0.214,0,0.427,0,0.642C43.464,51.977,43.895,51.977,44.325,51.977z"/>
	<path fill="#F07D00" d="M39.115,34.99c-0.217,0-0.43,0-0.646,0c0,0.218,0,0.435,0,0.651c0.218,0,0.432,0,0.646,0
		C39.115,35.422,39.115,35.208,39.115,34.99z"/>
	<path fill="#F07D00" d="M41.068,33.673c0-0.214,0-0.427,0-0.642c-0.217,0-0.431,0-0.645,0c0,0.219,0,0.432,0,0.647
		c0.211,0.001,0.423,0.002,0.635,0.002C41.063,33.68,41.064,33.676,41.068,33.673z"/>
	<polygon fill="#F07D00" points="40.424,33.678 40.422,33.678 40.422,33.678 40.422,33.679 40.424,33.679 	"/>
	<path fill="#F07D00" d="M51.497,51.976c0.222,0,0.436,0,0.648,0c0-0.218,0-0.43,0-0.646c-0.218,0-0.432,0-0.648,0
		C51.497,51.548,51.497,51.76,51.497,51.976z"/>
	<polygon fill="#F07D00" points="41.729,38.92 41.729,38.919 41.729,38.92 	"/>
	<path fill="#F07D00" d="M41.232,38.909c-0.052,0-0.104,0-0.158,0c0,0.221,0,0.435,0,0.652c0.218,0,0.431,0,0.649,0
		c0-0.057,0-0.111,0-0.165c0.002-0.159,0.003-0.317,0.005-0.476c-0.021-0.004-0.042-0.011-0.063-0.011
		C41.521,38.908,41.377,38.909,41.232,38.909z"/>
	<path fill="#F07D00" d="M44.327,39.567c-0.215,0-0.431,0-0.65,0c0,0.219,0,0.435,0,0.652c0.214,0,0.429,0,0.65,0
		C44.327,39.999,44.327,39.782,44.327,39.567z"/>
	<rect x="43.676" y="40.219" fill="#F07D00" width="0.001" height="0.001"/>
	<path fill="#F07D00" d="M43.029,40.22c0,0.22,0,0.434,0,0.651c0.219,0,0.433,0,0.646,0c0-0.217,0-0.434,0-0.651
		C43.461,40.22,43.246,40.22,43.029,40.22z"/>
	<rect x="43.675" y="40.872" fill="#F07D00" width="0.002" height="0.001"/>
	<path fill="#F07D00" d="M43.021,41.527c-0.218,0-0.43,0-0.644,0c0,0.22,0,0.435,0,0.652c0.215,0,0.43,0,0.644,0
		C43.021,41.954,43.021,41.74,43.021,41.527z"/>
	<polygon fill="#F07D00" points="42.378,42.179 42.376,42.179 42.376,42.179 42.376,42.181 42.378,42.181 	"/>
	<path fill="#F07D00" d="M50.847,40.875c0,0.217,0,0.43,0,0.645c0.22,0,0.438,0,0.654,0c0-0.215,0-0.429,0-0.645
		C51.276,40.875,51.062,40.875,50.847,40.875z"/>
	<path fill="#F07D00" d="M48.195,48.062c0.04,0,0.047-0.018,0.046-0.052c-0.001-0.188,0-0.378-0.001-0.566
		c0-0.013-0.004-0.026-0.007-0.038c-0.218,0-0.431,0-0.646,0c0,0.218,0,0.433,0,0.649c0.013,0.003,0.021,0.006,0.031,0.006
		C47.811,48.061,48.004,48.06,48.195,48.062z"/>
	<path fill="#F07D00" d="M36.511,34.337c-0.655,0-1.303,0-1.952,0c0,0.654,0,1.305,0,1.959c0.023,0.001,0.043,0.003,0.063,0.003
		c0.607,0,1.216,0,1.824,0.002c0.056,0,0.07-0.016,0.07-0.071c-0.002-0.61-0.001-1.22-0.001-1.83
		C36.515,34.379,36.513,34.357,36.511,34.337z"/>
	<path fill="#F07D00" d="M36.515,50.624c0-0.62-0.001-1.239,0.001-1.859c0-0.055-0.024-0.057-0.065-0.057
		c-0.61,0.001-1.221,0-1.831,0.001c-0.021,0-0.041,0.002-0.063,0.003c0,0.656,0,1.304,0,1.958c0.654,0,1.304,0,1.955,0
		C36.513,50.652,36.515,50.638,36.515,50.624z"/>
	<path fill="#F07D00" d="M52.144,33.032c-1.522,0-3.039,0-4.557,0c0,1.526,0,3.046,0,4.569c1.524,0,3.042,0,4.557,0
		C52.144,36.073,52.144,34.552,52.144,33.032z M51.494,36.877c0,0.02,0,0.039,0,0.063c-1.084,0-2.163,0-3.25,0
		c0-1.085,0-2.168,0-3.258c0.022,0,0.043,0,0.063,0c1.04,0,2.079,0.001,3.12-0.001c0.057,0,0.068,0.018,0.068,0.071
		C51.494,34.794,51.494,35.836,51.494,36.877z"/>
	<path fill="#F07D00" d="M48.887,34.388c0,0.618,0.001,1.235-0.001,1.854c-0.001,0.053,0.021,0.059,0.063,0.059
		c0.612-0.001,1.225-0.001,1.838-0.001c0.018,0,0.035-0.002,0.056-0.003c0-0.658,0-1.309,0-1.959c-0.653,0-1.302,0-1.951,0
		C48.889,34.356,48.887,34.372,48.887,34.388z"/>
</g>
</svg>
