<?xml version="1.0" encoding="utf-8"?>
<!-- Generator: Adobe Illustrator 16.0.0, SVG Export Plug-In . SVG Version: 6.00 Build 0)  -->
<!DOCTYPE svg PUBLIC "-//W3C//DTD SVG 1.1//EN" "http://www.w3.org/Graphics/SVG/1.1/DTD/svg11.dtd">
<svg version="1.1" id="Layer_1" xmlns="http://www.w3.org/2000/svg" xmlns:xlink="http://www.w3.org/1999/xlink" x="0px" y="0px"
	 width="85px" height="85px" viewBox="0 0 85 85" enable-background="new 0 0 85 85" xml:space="preserve">
<g>
	<rect x="55.548" y="42.443" fill="#F07D00" width="0.004" height="0.004"/>
	<path fill="#F07D00" d="M46.925,42.437c-0.104,0-0.207,0.006-0.311,0.009c-0.001,0.235-0.002,0.47-0.003,0.704
		c2.979,0,5.958,0,8.938,0c0-0.234-0.002-0.469-0.002-0.704c-0.104-0.003-0.207-0.008-0.311-0.008
		C52.465,42.438,49.695,42.437,46.925,42.437z"/>
	<rect x="64.486" y="36.157" fill="#F07D00" width="0.002" height="0.008"/>
	<path fill="#F07D00" d="M66.751,36.162c-0.769,0-1.516,0-2.26,0c-0.01,0.033-0.026,0.066-0.026,0.099
		c-0.001,0.153-0.001,0.361-0.001,0.587h1.367V39.7h-1.368c0,0.207,0,0.397,0,0.539c0,0.033,0.018,0.066,0.027,0.099
		c0.754,0,1.51,0,2.261,0C66.751,39.406,66.751,37.085,66.751,36.162z"/>
	<path fill="#F07D00" d="M36.317,39.7v-2.852h1.352c0-0.264,0-0.506,0-0.686c-0.754,0-1.507,0-2.26,0c0,0.931,0,3.252,0,4.174
		c0.77,0,1.514,0,2.26,0c0-0.168,0-0.393,0-0.636H36.317z"/>
	<rect x="37.67" y="40.335" fill="#F07D00" width="0.003" height="0.006"/>
	<path fill="#F07D00" d="M55.545,34.127c0-0.225,0-0.449,0-0.673c-3,0-5.956,0-8.929,0c0,0.229,0,0.451,0,0.673
		c1.993,0.001,3.986,0.004,5.979,0.004C53.578,34.131,54.563,34.128,55.545,34.127z"/>
	<rect x="46.608" y="34.126" fill="#F07D00" width="0.007" height="0.004"/>
	<path fill="#F07D00" d="M60.05,34.831c0-0.231,0-0.463,0-0.701c-1.53,0-3.012,0-4.495,0c0,0.229,0,0.458,0,0.701
		C57.054,34.831,58.552,34.831,60.05,34.831z"/>
	<rect x="55.55" y="34.124" fill="#F07D00" width="0.002" height="0.008"/>
	<path fill="#F07D00" d="M46.606,34.13c-1.492,0-2.983,0-4.496,0c0,0.242,0,0.473,0,0.701c1.489,0,2.979,0,4.496,0
		C46.606,34.593,46.606,34.361,46.606,34.13z"/>
	<rect x="42.102" y="34.831" fill="#F07D00" width="0.009" height="0.002"/>
	<path fill="#F07D00" d="M39.885,35.516c-0.73,0-1.46,0-2.207,0c0,0.47,0,0.193,0,0.645c0.721,0,1.441,0,2.207,0
		C39.885,35.699,39.885,35.972,39.885,35.516z"/>
	<rect x="37.669" y="36.16" fill="#F07D00" width="0.009" height="0.002"/>
	<rect x="62.269" y="35.51" fill="#F07D00" width="0.003" height="0.008"/>
	<path fill="#F07D00" d="M64.483,36.16c0-0.455,0-0.18,0-0.645c-0.767,0-1.487,0-2.209,0c0,0.454,0,0.18,0,0.645
		C63.025,36.16,63.755,36.16,64.483,36.16z"/>
	<rect x="39.887" y="41.056" fill="#F07D00" width="0.001" height="0.006"/>
	<path fill="#F07D00" d="M37.678,40.34c0,0.454,0,0.252,0,0.718c0.765,0,1.486,0,2.207,0c0-0.454,0-0.252,0-0.718
		C39.137,40.34,38.406,40.34,37.678,40.34z"/>
	<rect x="64.485" y="40.337" fill="#F07D00" width="0.004" height="0.004"/>
	<path fill="#F07D00" d="M62.274,41.058c0.729,0,1.461,0,2.21,0c0-0.471,0-0.265,0-0.718c-0.722,0-1.445,0-2.21,0
		C62.274,40.799,62.274,40.599,62.274,41.058z"/>
	<rect x="46.609" y="42.44" fill="#F07D00" width="0.003" height="0.008"/>
	<path fill="#F07D00" d="M42.11,41.764c0,0.224,0,0.449,0,0.679c1.528,0,3.012,0,4.496,0c0-0.222,0-0.444,0-0.679
		C45.113,41.764,43.613,41.764,42.11,41.764z"/>
	<rect x="60.051" y="41.762" fill="#F07D00" width="0.007" height="0.002"/>
	<path fill="#F07D00" d="M55.553,41.755c0,0.238,0,0.463,0,0.688c1.493,0,2.985,0,4.498,0c0-0.235,0-0.458,0-0.679
		c-1.225-0.003-2.446-0.006-3.67-0.009C56.11,41.755,55.84,41.755,55.553,41.755z"/>
	<rect x="42.104" y="41.758" fill="#F07D00" width="0.003" height="0.009"/>
	<path fill="#F07D00" d="M39.894,41.061c0,0.231,0,0.463,0,0.701c0.765,0,1.486,0,2.208,0c0-0.23,0-0.463,0-0.701
		C41.349,41.061,40.621,41.061,39.894,41.061z"/>
	<path fill="#F07D00" d="M60.058,41.762c0.729,0,1.461,0,2.21,0c0-0.244,0-0.473,0-0.702c-0.731,0-1.462,0-2.21,0
		C60.058,41.297,60.058,41.53,60.058,41.762z"/>
	<rect x="62.268" y="41.058" fill="#F07D00" width="0.007" height="0.003"/>
	<rect x="39.885" y="35.513" fill="#F07D00" width="0.009" height="0.003"/>
	<path fill="#F07D00" d="M42.102,34.833c-0.729,0-1.461,0-2.208,0c0,0.235,0,0.458,0,0.679c0.728,0,1.455,0,2.208,0
		C42.102,35.282,42.102,35.057,42.102,34.833z"/>
	<path fill="#F07D00" d="M62.267,35.513c0-0.224,0-0.449,0-0.679c-0.765,0-1.487,0-2.208,0c0,0.224,0,0.448,0,0.679
		C60.808,35.513,61.538,35.513,62.267,35.513z"/>
	<rect x="60.053" y="34.828" fill="#F07D00" width="0.003" height="0.009"/>
	<rect x="46.618" y="46.599" fill="#F07D00" width="0.003" height="0.008"/>
	<path fill="#F07D00" d="M55.559,47.308c-0.002-0.234-0.002-0.469-0.004-0.703c-0.104-0.003-0.206-0.008-0.311-0.008
		c-2.77-0.001-5.541-0.002-8.31-0.001c-0.104,0-0.209,0.005-0.312,0.009c-0.001,0.234-0.002,0.469-0.003,0.703
		C49.599,47.308,52.577,47.308,55.559,47.308z"/>
	<path fill="#F07D00" d="M64.526,44.464c-0.003,0-0.005,0-0.005,0l0.005-0.003V44.464c0.735,0,1.474,0,2.232,0
		c0-1.2,0-3.016,0-4.164c-0.769,0-1.515,0-2.259,0c-0.01,0.042-0.026,0.085-0.026,0.127c-0.001,0.377-0.002,0.848-0.002,1.338h1.493
		v2.119h-1.493c0,0.198,0,0.408,0,0.577c0,0.042,0.018,0.085,0.027,0.127H64.5C64.501,44.547,64.517,44.505,64.526,44.464z"/>
	<polygon fill="#F07D00" points="64.492,40.3 64.497,40.3 64.5,40.297 	"/>
	<polygon fill="#F07D00" points="64.493,44.588 64.5,44.591 64.499,44.588 	"/>
	<path fill="#F07D00" d="M37.678,44.465c0-0.179,0-0.379,0-0.581h-1.315v-2.119h1.315c0-0.533,0-1.048,0-1.464
		c-0.755,0-1.507,0-2.26,0c0,1.194,0,3.102,0,4.286c0.01,0,0.018,0,0.018,0c0.008-0.038,0.008-0.086,0.008-0.122
		C36.188,44.465,36.933,44.465,37.678,44.465z"/>
	<polygon fill="#F07D00" points="37.678,40.297 37.678,40.299 37.688,40.301 	"/>
	<path fill="#F07D00" d="M39.895,45.216c0-0.453,0-0.159,0-0.625c-0.742,0-1.466,0-2.189,0c0,0.194,0,0.406,0,0.625
		C38.463,45.216,39.178,45.216,39.895,45.216z"/>
	<rect x="62.276" y="45.216" fill="#F07D00" width="0.007" height="0.002"/>
	<polygon fill="#F07D00" points="64.493,44.589 64.493,44.591 64.498,44.591 	"/>
	<path fill="#F07D00" d="M64.493,44.591c-0.722,0-1.444,0-2.21,0c0,0.459,0,0.167,0,0.625c0.73,0,1.462,0,2.21,0
		C64.493,44.745,64.493,45.043,64.493,44.591z"/>
	<rect x="42.114" y="45.917" fill="#F07D00" width="0.003" height="0.01"/>
	<path fill="#F07D00" d="M46.615,46.602c0-0.222,0-0.443,0-0.678c-1.493,0-2.994,0-4.495,0c0,0.224,0,0.449,0,0.678
		C43.647,46.602,45.131,46.602,46.615,46.602z"/>
	<rect x="55.555" y="46.603" fill="#F07D00" width="0.008" height="0.002"/>
	<path fill="#F07D00" d="M60.06,45.923c-1.224-0.004-2.447-0.007-3.67-0.01c-0.271,0-0.541,0-0.827,0c0,0.239,0,0.463,0,0.689
		c1.491,0,2.983,0,4.497,0C60.06,46.366,60.06,46.145,60.06,45.923z"/>
	<path fill="#F07D00" d="M42.11,45.92c0-0.231,0-0.463,0-0.702c-0.752,0-1.479,0-2.208,0c0,0.232,0,0.463,0,0.702
		C40.668,45.92,41.39,45.92,42.11,45.92z"/>
	<rect x="39.897" y="45.213" fill="#F07D00" width="0.003" height="0.008"/>
	<path fill="#F07D00" d="M62.276,45.219c-0.73,0-1.462,0-2.21,0c0,0.237,0,0.469,0,0.702c0.73,0,1.46,0,2.21,0
		C62.276,45.677,62.276,45.448,62.276,45.219z"/>
	<rect x="60.061" y="45.92" fill="#F07D00" width="0.005" height="0.004"/>
	<path fill="#F07D00" d="M55.584,51.379c0-0.234-0.002-0.469-0.002-0.704c-0.104-0.002-0.207-0.008-0.311-0.008
		c-2.771,0-5.541-0.001-8.311,0c-0.104,0-0.208,0.005-0.312,0.008c0,0.235-0.002,0.47-0.003,0.704
		C49.626,51.379,52.604,51.379,55.584,51.379z"/>
	<rect x="46.645" y="50.67" fill="#F07D00" width="0.002" height="0.008"/>
	<polygon fill="#F07D00" points="64.52,48.659 64.526,48.662 64.525,48.66 	"/>
	<path fill="#F07D00" d="M65.965,45.797v2.119h-1.467c0,0.213,0,0.432,0,0.616c0,0.042,0.018,0.085,0.027,0.127h0.002
		c0-0.041,0.016-0.083,0.025-0.124h-0.007l0.008-0.003c-0.001,0.001-0.001,0.002-0.001,0.003c0.736,0,1.474,0,2.233,0
		c0-1.193,0-2.923,0-4.071c-0.01,0-0.018,0-0.027,0c0,0.038,0,0.087,0,0.124c-0.75,0-1.505,0-2.259,0v0.003
		c-0.001,0.35-0.001,0.769-0.002,1.207H65.965z"/>
	<path fill="#F07D00" d="M37.688,44.587l-0.01,0.004L37.688,44.587v0.004c0,0,0.012,0,0.018,0c0-0.039,0-0.089,0-0.126
		c-0.01,0-0.018,0-0.027,0c0,0.037,0,0.086,0,0.122C37.678,44.587,37.683,44.587,37.688,44.587z"/>
	<polygon fill="#F07D00" points="37.705,44.461 37.705,44.463 37.711,44.465 	"/>
	<path fill="#F07D00" d="M37.705,48.535c0-0.191,0-0.403,0-0.619h-1.343v-2.119h1.343c0-0.202,0-0.392,0-0.582
		c-0.006,0-0.012,0-0.012,0c-0.006-0.465-0.006-0.172-0.006-0.625c-0.005,0-0.007,0-0.007,0l-0.003-0.004c-0.737,0-1.473,0-2.234,0
		c0,1.194,0,2.924,0,4.071c0.01,0,0.02,0,0.027,0c0-0.038,0-0.086,0-0.123C36.215,48.535,36.959,48.535,37.705,48.535z"/>
	<path fill="#F07D00" d="M39.921,48.662c-0.743,0-1.467,0-2.19,0c0,0.193,0,0.406,0,0.625c0.759,0,1.475,0,2.19,0
		C39.921,48.834,39.921,49.128,39.921,48.662z"/>
	<path fill="#F07D00" d="M64.52,48.662c-0.723,0-1.444,0-2.21,0c0,0.459,0,0.167,0,0.625c0.729,0,1.462,0,2.21,0
		C64.52,48.816,64.52,49.114,64.52,48.662z"/>
	<rect x="62.303" y="49.287" fill="#F07D00" width="0.007" height="0.002"/>
	<polygon fill="#F07D00" points="64.52,48.66 64.52,48.662 64.526,48.662 	"/>
	<path fill="#F07D00" d="M46.642,50.673c0-0.222,0-0.443,0-0.679c-1.493,0-2.994,0-4.495,0c0,0.225,0,0.449,0,0.679
		C43.674,50.673,45.158,50.673,46.642,50.673z"/>
	<rect x="42.143" y="49.99" fill="#F07D00" width="0.002" height="0.006"/>
	<rect x="55.582" y="50.673" fill="#F07D00" width="0.008" height="0.002"/>
	<path fill="#F07D00" d="M60.086,49.994c-1.224-0.003-2.446-0.006-3.67-0.009c-0.271-0.001-0.541,0-0.826,0c0,0.239,0,0.463,0,0.688
		c1.491,0,2.983,0,4.496,0C60.086,50.438,60.086,50.216,60.086,49.994z"/>
	<rect x="39.924" y="49.286" fill="#F07D00" width="0.002" height="0.005"/>
	<path fill="#F07D00" d="M42.138,49.992c0-0.231,0-0.462,0-0.702c-0.754,0-1.481,0-2.21,0c0,0.231,0,0.463,0,0.702
		C40.695,49.992,41.415,49.992,42.138,49.992z"/>
	<rect x="60.086" y="49.992" fill="#F07D00" width="0.008" height="0.002"/>
	<path fill="#F07D00" d="M62.303,49.289c-0.731,0-1.462,0-2.209,0c0,0.238,0,0.47,0,0.703c0.73,0,1.46,0,2.209,0
		C62.303,49.748,62.303,49.519,62.303,49.289z"/>
	<rect x="55.609" y="54.745" fill="#F07D00" width="0.007" height="0.002"/>
	<path fill="#F07D00" d="M46.986,54.737c-0.103,0-0.207,0.006-0.31,0.009c-0.002,0.234-0.002,0.47-0.004,0.704
		c2.979,0,5.958,0,8.938,0c-0.001-0.234-0.001-0.47-0.002-0.704c-0.105-0.003-0.209-0.008-0.312-0.008
		C52.527,54.737,49.756,54.737,46.986,54.737z"/>
	<path fill="#F07D00" d="M64.527,48.659l-0.001,0.003c-0.001,0.339-0.001,0.745-0.001,1.167h1.439v2.119h-1.44
		c0,0.228,0,0.46,0.001,0.655c0,0.042,0.018,0.084,0.027,0.127h0.001c0.001-0.042,0.017-0.083,0.025-0.124h-0.007l0.008-0.003
		c0,0,0,0.002-0.001,0.003c0.737,0,1.475,0,2.233,0c0-1.193,0-2.923,0-4.071c-0.009,0-0.018,0-0.026,0c0,0.039,0,0.087,0,0.124
		C66.034,48.659,65.281,48.659,64.527,48.659z"/>
	<polygon fill="#F07D00" points="64.547,52.73 64.553,52.732 64.553,52.73 	"/>
	<path fill="#F07D00" d="M37.73,52.606c0-0.204,0-0.426,0-0.658h-1.368V49.83h1.368c0-0.188,0-0.365,0-0.542
		c-0.006,0-0.012,0-0.018,0c0-0.465,0-0.172,0-0.625h-0.008v-0.004c-0.737,0-1.474,0-2.234,0c0,1.193,0,2.925,0,4.071
		c0.01,0,0.018,0,0.028,0c0-0.038,0-0.086,0-0.123C36.241,52.606,36.985,52.606,37.73,52.606z"/>
	<polygon fill="#F07D00" points="37.73,48.531 37.73,48.535 37.74,48.535 	"/>
	<path fill="#F07D00" d="M37.73,48.535c-0.008,0-0.018,0-0.018,0c-0.008,0.038-0.008,0.086-0.008,0.123h0.008l-0.008,0.004
		l0.008-0.003v0.003c0.006,0,0.012,0,0.018,0C37.73,48.623,37.73,48.573,37.73,48.535z"/>
	<path fill="#F07D00" d="M37.756,52.733c0,0.193,0,0.406,0,0.625c0.76,0,1.476,0,2.191,0c0-0.454,0-0.159,0-0.625
		C39.205,52.733,38.481,52.733,37.756,52.733z"/>
	<rect x="39.95" y="53.356" fill="#F07D00" width="0.003" height="0.008"/>
	<path fill="#F07D00" d="M62.337,53.358c0.729,0,1.46,0,2.21,0c0-0.471,0-0.173,0-0.626c-0.723,0-1.445,0-2.21,0
		C62.337,53.191,62.337,52.9,62.337,53.358z"/>
	<polygon fill="#F07D00" points="64.547,52.732 64.553,52.732 64.547,52.73 	"/>
	<rect x="46.671" y="54.741" fill="#F07D00" width="0.003" height="0.008"/>
	<path fill="#F07D00" d="M42.173,54.065c0,0.225,0,0.449,0,0.679c1.527,0,3.013,0,4.496,0c0-0.221,0-0.444,0-0.679
		C45.176,54.065,43.674,54.065,42.173,54.065z"/>
	<path fill="#F07D00" d="M55.616,54.056c0,0.238,0,0.464,0,0.688c1.491,0,2.983,0,4.497,0c0-0.236,0-0.458,0-0.679
		c-1.224-0.003-2.447-0.006-3.671-0.009C56.172,54.055,55.902,54.056,55.616,54.056z"/>
	<rect x="60.114" y="54.063" fill="#F07D00" width="0.004" height="0.003"/>
	<rect x="42.166" y="54.061" fill="#F07D00" width="0.002" height="0.005"/>
	<path fill="#F07D00" d="M39.955,53.361c0,0.231,0,0.463,0,0.701c0.767,0,1.487,0,2.209,0c0-0.23,0-0.462,0-0.701
		C41.411,53.361,40.684,53.361,39.955,53.361z"/>
	<path fill="#F07D00" d="M60.119,54.063c0.731,0,1.462,0,2.21,0c0-0.244,0-0.473,0-0.703c-0.731,0-1.462,0-2.21,0
		C60.119,53.599,60.119,53.831,60.119,54.063z"/>
	<rect x="62.329" y="53.358" fill="#F07D00" width="0.008" height="0.002"/>
	<path fill="#F07D00" d="M55.638,59.521c0-0.234-0.002-0.469-0.002-0.703c-0.104-0.003-0.208-0.008-0.311-0.008
		c-2.771-0.001-5.541-0.001-8.313-0.001c-0.103,0-0.206,0.006-0.311,0.009c0,0.234-0.002,0.468-0.002,0.703
		C49.679,59.521,52.658,59.521,55.638,59.521z"/>
	<rect x="46.697" y="58.813" fill="#F07D00" width="0.002" height="0.008"/>
	<path fill="#F07D00" d="M66.839,52.606c-0.009,0-0.018,0-0.026,0c0,0.038,0,0.087,0,0.124c-0.751,0-1.506,0-2.259,0l-0.001,0.002
		c0,0.329-0.001,0.721-0.001,1.129h1.413v2.119h-1.414c0.001,0.242,0.001,0.487,0.001,0.694c0,0.042,0.018,0.083,0.027,0.125
		c0.755,0,1.509,0,2.26,0C66.839,55.606,66.839,53.791,66.839,52.606z"/>
	<polygon fill="#F07D00" points="64.58,56.804 64.579,56.802 64.573,56.801 	"/>
	<polygon fill="#F07D00" points="37.766,56.801 37.76,56.801 37.756,56.805 37.756,56.805 	"/>
	<polygon fill="#F07D00" points="37.756,52.603 37.756,52.605 37.766,52.606 	"/>
	<path fill="#F07D00" d="M37.756,52.606c-0.008,0-0.016,0-0.025,0c0,0.038,0,0.086,0,0.123h0.01l-0.01,0.004l0.01-0.003
		c0,0,0,0.001,0,0.003c0.006,0,0.012,0,0.016,0C37.756,52.693,37.756,52.645,37.756,52.606z"/>
	<path fill="#F07D00" d="M36.362,55.981v-2.119h1.394c0-0.174,0-0.337,0-0.503c-0.004,0-0.01,0-0.016,0c0-0.466,0-0.172,0-0.625
		h-0.01c0-0.002,0-0.003,0-0.003c-0.736-0.001-1.473-0.001-2.231-0.001c0,1.193,0,2.924,0,4.071c0.769,0,1.513,0,2.257,0
		c0-0.246,0-0.531,0-0.82H36.362z"/>
	<rect x="37.759" y="56.799" fill="#F07D00" width="0.004" height="0.011"/>
	<path fill="#F07D00" d="M39.973,57.43c0-0.454,0-0.159,0-0.625c-0.747,0-1.477,0-2.207,0c0,0.453,0,0.159,0,0.625
		C38.531,57.43,39.252,57.43,39.973,57.43z"/>
	<rect x="62.357" y="57.43" fill="#F07D00" width="0.006" height="0.002"/>
	<path fill="#F07D00" d="M64.553,56.934c0-0.032,0.012-0.064,0.021-0.098c0-0.013,0-0.015,0-0.028h-0.001l0.001-0.001v-0.003
		c-0.723,0-1.445,0-2.21,0c0,0.459,0,0.167,0,0.626c0.724,0,1.447,0,2.189,0C64.553,57.262,64.553,57.081,64.553,56.934z"/>
	<polygon fill="#F07D00" points="64.58,56.804 64.58,56.804 64.58,56.804 	"/>
	<rect x="64.573" y="56.803" fill="#F07D00" width="0.007" height="0.002"/>
	<path fill="#F07D00" d="M46.694,58.816c0-0.222,0-0.444,0-0.68c-1.491,0-2.994,0-4.496,0c0,0.225,0,0.449,0,0.68
		C43.727,58.816,45.211,58.816,46.694,58.816z"/>
	<rect x="42.194" y="58.132" fill="#F07D00" width="0.002" height="0.006"/>
	<rect x="55.636" y="58.816" fill="#F07D00" width="0.006" height="0.002"/>
	<path fill="#F07D00" d="M60.139,58.136c-1.223-0.003-2.446-0.006-3.669-0.009c-0.271-0.001-0.542,0-0.828,0
		c0,0.238,0,0.464,0,0.688c1.492,0,2.984,0,4.497,0C60.139,58.58,60.139,58.358,60.139,58.136z"/>
	<path fill="#F07D00" d="M42.19,58.133c0-0.231,0-0.462,0-0.702c-0.753,0-1.48,0-2.208,0c0,0.232,0,0.465,0,0.702
		C40.748,58.133,41.469,58.133,42.19,58.133z"/>
	<rect x="39.977" y="57.426" fill="#F07D00" width="0.002" height="0.01"/>
	<rect x="60.14" y="58.134" fill="#F07D00" width="0.006" height="0.002"/>
	<path fill="#F07D00" d="M62.357,57.432c-0.733,0-1.463,0-2.211,0c0,0.238,0,0.471,0,0.703c0.73,0,1.46,0,2.211,0
		C62.357,57.891,62.357,57.661,62.357,57.432z"/>
	<path fill="#F07D00" d="M47.013,63.01c-0.103,0-0.206,0.006-0.311,0.009c0,0.234-0.002,0.468-0.002,0.703c2.979,0,5.958,0,8.938,0
		c-0.002-0.234-0.002-0.469-0.004-0.703c-0.103-0.003-0.207-0.008-0.31-0.008C52.554,63.01,49.784,63.01,47.013,63.01z"/>
	<rect x="55.635" y="63.017" fill="#F07D00" width="0.006" height="0.003"/>
	<polygon fill="#F07D00" points="64.58,56.804 64.58,56.804 64.58,56.804 	"/>
	<polygon fill="#F07D00" points="64.573,56.807 64.573,56.808 64.577,56.808 64.58,56.804 64.579,56.804 	"/>
	<path fill="#F07D00" d="M64.559,60.875h-0.008c0,0.006,0.004,0.012,0.004,0.018C64.557,60.887,64.557,60.881,64.559,60.875z"/>
	<path fill="#F07D00" d="M64.573,57.43c0,0-0.015,0-0.021,0c-0.001,0.155-0.001,0.297-0.001,0.465h1.413v2.118h-1.414
		c0,0.31,0,0.607,0,0.863l0.008-0.003v0.003c0.744,0,1.491,0,2.26,0c0,0.038,0,0.088,0,0.126c0.007,0,0.014,0,0.021,0
		c0-1.194,0-3.01,0-4.194c-0.77,0-1.515,0-2.26,0c-0.002,0.009-0.004,0.019-0.006,0.028C64.573,57.223,64.573,56.976,64.573,57.43z"
		/>
	<polygon fill="#F07D00" points="37.756,56.805 37.756,56.805 37.756,56.805 	"/>
	<polygon fill="#F07D00" points="37.756,61.001 37.756,61.005 37.766,61.001 	"/>
	<polygon fill="#F07D00" points="37.756,56.805 37.756,56.805 37.756,56.805 37.756,56.804 37.756,56.808 37.766,56.808 	"/>
	<path fill="#F07D00" d="M36.362,60.013v-2.118h1.394c0-0.392,0-0.764,0-1.087c-0.753,0-1.506,0-2.257,0c0,1.157,0,2.885,0,4.069
		c0.744,0,1.49,0,2.237,0v-0.004l0.01,0.004c-0.004,0-0.006,0-0.006,0c-0.004,0.037-0.004,0.087-0.004,0.125c0,0,0.014,0,0.02,0
		c0-0.295,0-0.631,0-0.988H36.362z"/>
	<polygon fill="#F07D00" points="37.756,61.005 37.766,61.005 37.766,61.002 	"/>
	<rect x="39.975" y="61.627" fill="#F07D00" width="0.003" height="0.008"/>
	<path fill="#F07D00" d="M37.766,61.005c0,0.454,0,0.16,0,0.625c0.766,0,1.486,0,2.207,0c0-0.453,0-0.158,0-0.625
		C39.225,61.005,38.496,61.005,37.766,61.005z"/>
	<path fill="#F07D00" d="M62.363,61.005c0,0.459,0,0.167,0,0.626c0.717,0,1.434,0,2.168,0c0-0.217,0.001-0.439,0.001-0.626
		C63.822,61.005,63.114,61.005,62.363,61.005z"/>
	<rect x="46.696" y="63.015" fill="#F07D00" width="0.002" height="0.006"/>
	<path fill="#F07D00" d="M42.198,62.337c0,0.225,0,0.449,0,0.68c1.528,0,3.013,0,4.496,0c0-0.223,0-0.444,0-0.68
		C45.201,62.337,43.7,62.337,42.198,62.337z"/>
	<rect x="60.139" y="62.335" fill="#F07D00" width="0.008" height="0.002"/>
	<path fill="#F07D00" d="M55.642,62.329c0,0.238,0,0.464,0,0.688c1.491,0,2.984,0,4.497,0c0-0.236,0-0.458,0-0.68
		c-1.223-0.003-2.446-0.006-3.67-0.009C56.197,62.328,55.928,62.329,55.642,62.329z"/>
	<rect x="42.192" y="62.333" fill="#F07D00" width="0.002" height="0.006"/>
	<path fill="#F07D00" d="M39.98,61.633c0,0.232,0,0.465,0,0.702c0.768,0,1.487,0,2.21,0c0-0.231,0-0.462,0-0.702
		C41.438,61.633,40.71,61.633,39.98,61.633z"/>
	<rect x="62.355" y="61.631" fill="#F07D00" width="0.008" height="0.002"/>
	<path fill="#F07D00" d="M60.146,62.335c0.73,0,1.46,0,2.209,0c0-0.244,0-0.473,0-0.703c-0.731,0-1.462,0-2.209,0
		C60.146,61.871,60.146,62.104,60.146,62.335z"/>
	<path fill="#F07D00" d="M64.532,61.005c0.014,0,0.027,0,0.04,0v-0.001l0.007,0.001l-0.007-0.003h0.007
		c-0.009-0.036-0.021-0.073-0.024-0.109c-0.009,0.036-0.022,0.073-0.022,0.109V61.005z"/>
</g>
<g>
	<rect x="39.042" y="32.871" fill="#F07D00" width="0.006" height="0.003"/>
	<path fill="#F07D00" d="M30.421,32.865c-0.104,0-0.208,0.006-0.312,0.009c-0.001,0.234-0.002,0.469-0.003,0.703
		c2.979,0,5.958,0,8.938,0c-0.002-0.234-0.002-0.468-0.004-0.703c-0.104-0.003-0.206-0.009-0.311-0.009
		C35.961,32.865,33.191,32.864,30.421,32.865z"/>
	<rect x="47.983" y="26.586" fill="#F07D00" width="0.001" height="0.005"/>
	<path fill="#F07D00" d="M50.246,26.589c-0.77,0-1.516,0-2.26,0c-0.01,0.033-0.026,0.066-0.026,0.099
		c0,0.153-0.001,0.361-0.001,0.587h1.367v2.853h-1.368c0,0.206,0,0.396,0.001,0.538c0,0.033,0.017,0.066,0.026,0.099
		c0.755,0,1.509,0,2.261,0C50.246,29.833,50.246,27.513,50.246,26.589z"/>
	<path fill="#F07D00" d="M50.246,29.406c-0.77,0-0.147,0-0.893,0c-0.01,0.032-0.026,0.065-0.026,0.099
		c-0.001,0.152-0.001,0.36-0.001,0.587l0,0v2.852l0,0c0,0.207,0,0.396,0,0.538c0,0.033,0.018,0.066,0.027,0.1
		c0.755,0,0.141,0,0.893,0C50.246,32.65,50.246,30.329,50.246,29.406z"/>
	<path fill="#F07D00" d="M19.813,30.128v-2.853h1.351c0-0.265,0-0.505,0-0.685c-0.754,0-1.507,0-2.26,0c0,0.93,0,3.251,0,4.174
		c0.77,0,1.515,0,2.26,0c0-0.169,0-0.392,0-0.636H19.813z"/>
	<rect x="21.166" y="30.763" fill="#F07D00" width="0.002" height="0.006"/>
	<path fill="#F07D00" d="M39.039,24.554c0-0.225,0-0.449,0-0.672c-3,0-5.954,0-8.928,0c0,0.229,0,0.451,0,0.672
		c1.992,0.001,3.986,0.004,5.979,0.004C37.074,24.558,38.057,24.555,39.039,24.554z"/>
	<rect x="30.103" y="24.554" fill="#F07D00" width="0.009" height="0.002"/>
	<path fill="#F07D00" d="M43.545,25.259c0-0.232,0-0.464,0-0.702c-1.528,0-3.012,0-4.496,0c0,0.229,0,0.458,0,0.702
		C40.549,25.259,42.047,25.259,43.545,25.259z"/>
	<rect x="39.045" y="24.553" fill="#F07D00" width="0.002" height="0.006"/>
	<path fill="#F07D00" d="M30.103,24.557c-1.493,0-2.985,0-4.496,0c0,0.243,0,0.472,0,0.702c1.489,0,2.979,0,4.496,0
		C30.103,25.02,30.103,24.789,30.103,24.557z"/>
	<rect x="25.599" y="25.258" fill="#F07D00" width="0.006" height="0.004"/>
	<path fill="#F07D00" d="M23.38,25.943c-0.729,0-1.459,0-2.208,0c0,0.469,0,0.193,0,0.644c0.722,0,1.441,0,2.208,0
		C23.38,26.127,23.38,26.399,23.38,25.943z"/>
	<rect x="21.164" y="26.587" fill="#F07D00" width="0.008" height="0.003"/>
	<rect x="45.765" y="25.938" fill="#F07D00" width="0.003" height="0.009"/>
	<path fill="#F07D00" d="M47.979,26.587c0-0.455,0-0.18,0-0.644c-0.765,0-1.486,0-2.208,0c0,0.454,0,0.18,0,0.644
		C46.521,26.587,47.251,26.587,47.979,26.587z"/>
	<rect x="23.382" y="31.482" fill="#F07D00" width="0.003" height="0.008"/>
	<path fill="#F07D00" d="M21.172,30.767c0,0.454,0,0.253,0,0.717c0.767,0,1.487,0,2.208,0c0-0.454,0-0.251,0-0.717
		C22.632,30.767,21.903,30.767,21.172,30.767z"/>
	<rect x="47.979" y="30.764" fill="#F07D00" width="0.007" height="0.003"/>
	<path fill="#F07D00" d="M45.77,31.484c0.73,0,1.462,0,2.21,0c0-0.47,0-0.264,0-0.717c-0.723,0-1.444,0-2.21,0
		C45.77,31.226,45.77,31.026,45.77,31.484z"/>
	<rect x="30.104" y="32.869" fill="#F07D00" width="0.003" height="0.007"/>
	<path fill="#F07D00" d="M25.606,32.191c0,0.226,0,0.449,0,0.679c1.527,0,3.011,0,4.496,0c0-0.222,0-0.443,0-0.679
		C28.609,32.191,27.107,32.191,25.606,32.191z"/>
	<rect x="43.547" y="32.189" fill="#F07D00" width="0.006" height="0.002"/>
	<path fill="#F07D00" d="M39.049,32.183c0,0.239,0,0.463,0,0.689c1.492,0,2.984,0,4.498,0c0-0.236,0-0.458,0-0.68
		c-1.224-0.003-2.447-0.006-3.671-0.009C39.605,32.183,39.336,32.183,39.049,32.183z"/>
	<rect x="25.601" y="32.186" fill="#F07D00" width="0.002" height="0.009"/>
	<path fill="#F07D00" d="M23.388,31.487c0,0.232,0,0.464,0,0.702c0.767,0,1.488,0,2.21,0c0-0.231,0-0.463,0-0.702
		C24.844,31.487,24.117,31.487,23.388,31.487z"/>
	<path fill="#F07D00" d="M43.553,32.189c0.73,0,1.461,0,2.21,0c0-0.243,0-0.473,0-0.702c-0.731,0-1.462,0-2.21,0
		C43.553,31.725,43.553,31.957,43.553,32.189z"/>
	<rect x="45.763" y="31.484" fill="#F07D00" width="0.007" height="0.003"/>
	<rect x="23.38" y="25.94" fill="#F07D00" width="0.008" height="0.003"/>
	<path fill="#F07D00" d="M25.598,25.261c-0.73,0-1.461,0-2.21,0c0,0.236,0,0.458,0,0.68c0.729,0,1.456,0,2.21,0
		C25.598,25.709,25.598,25.485,25.598,25.261z"/>
	<path fill="#F07D00" d="M45.762,25.94c0-0.225,0-0.449,0-0.68c-0.766,0-1.486,0-2.207,0c0,0.225,0,0.448,0,0.68
		C44.303,25.94,45.033,25.94,45.762,25.94z"/>
	<rect x="43.551" y="25.257" fill="#F07D00" width="0.002" height="0.006"/>
	<rect x="30.112" y="37.027" fill="#F07D00" width="0.002" height="0.008"/>
	<path fill="#F07D00" d="M36.029,37.734c-0.002-0.234-0.002-0.468-0.004-0.703c-0.103-0.003-0.206-0.008-0.31-0.008
		c-2.77-0.001-2.517-0.001-5.287-0.001c-0.103,0-0.206,0.006-0.312,0.009c0,0.234-0.002,0.469-0.002,0.703
		C33.095,37.734,33.05,37.734,36.029,37.734z"/>
	<polygon fill="#F07D00" points="47.987,30.727 47.995,30.727 47.996,30.724 	"/>
	<path fill="#F07D00" d="M21.172,34.892c0-0.178,0-0.378,0-0.581h-1.313v-2.118h1.313c0-0.534,0-1.048,0-1.465
		c-0.753,0-1.506,0-2.258,0c0,1.194,0,3.103,0,4.286c0.01,0,0.018,0,0.027,0c0-0.037,0-0.086,0-0.122
		C19.684,34.892,20.428,34.892,21.172,34.892z"/>
	<polygon fill="#F07D00" points="21.172,30.724 21.172,30.727 21.178,30.728 	"/>
	<path fill="#F07D00" d="M23.39,35.643c0-0.453,0-0.158,0-0.625c-0.743,0-1.466,0-2.19,0c0,0.194,0,0.407,0,0.625
		C21.958,35.643,22.674,35.643,23.39,35.643z"/>
	<rect x="25.611" y="36.346" fill="#F07D00" width="0.003" height="0.006"/>
	<path fill="#F07D00" d="M30.109,37.03c0-0.222,0-0.444,0-0.679c-1.492,0-2.993,0-4.494,0c0,0.225,0,0.449,0,0.679
		C27.143,37.03,28.627,37.03,30.109,37.03z"/>
	<rect x="36.025" y="37.03" fill="#F07D00" width="0.008" height="0.002"/>
	<path fill="#F07D00" d="M25.606,36.348c0-0.231,0-0.463,0-0.702c-0.754,0-1.481,0-2.209,0c0,0.232,0,0.464,0,0.702
		C24.164,36.348,24.885,36.348,25.606,36.348z"/>
	<rect x="23.393" y="35.641" fill="#F07D00" width="0.003" height="0.006"/>
	<path fill="#F07D00" d="M36.055,41.806c0-0.234-0.002-0.469-0.002-0.703c-0.104-0.003-0.207-0.008-0.311-0.008
		c-2.771-0.001-2.516-0.002-5.286-0.001c-0.104,0-0.208,0.005-0.312,0.009c0,0.234-0.002,0.469-0.004,0.703
		C33.121,41.806,33.076,41.806,36.055,41.806z"/>
	<rect x="30.139" y="41.098" fill="#F07D00" width="0.003" height="0.008"/>
	<path fill="#F07D00" d="M21.182,35.014l-0.01,0.004L21.182,35.014v0.004c0.006,0,0.012,0,0.018,0c0-0.039,0-0.088,0-0.126
		c-0.01,0-0.018,0-0.027,0c0,0.037,0,0.086,0,0.122C21.176,35.014,21.178,35.014,21.182,35.014z"/>
	<polygon fill="#F07D00" points="21.199,34.888 21.199,34.891 21.205,34.892 	"/>
	<path fill="#F07D00" d="M21.199,38.963c0-0.192,0-0.404,0-0.62h-1.34v-2.119h1.34c0-0.201,0-0.392,0-0.582
		c-0.006,0-0.012,0-0.018,0c0-0.464,0-0.171,0-0.625c0,0-0.006,0-0.01,0v-0.004c-0.735,0-1.472,0-2.23,0c0,1.194,0,2.924,0,4.071
		c0.008,0,0.018,0,0.025,0c0-0.038,0-0.086,0-0.122C19.71,38.963,20.454,38.963,21.199,38.963z"/>
	<path fill="#F07D00" d="M23.416,39.089c-0.742,0-1.466,0-2.19,0c0,0.193,0,0.406,0,0.625c0.758,0,1.475,0,2.19,0
		C23.416,39.261,23.416,39.555,23.416,39.089z"/>
	<path fill="#F07D00" d="M30.137,41.1c0-0.221,0-0.443,0-0.678c-1.492,0-2.994,0-4.496,0c0,0.225,0,0.449,0,0.678
		C27.169,41.1,28.654,41.1,30.137,41.1z"/>
	<rect x="25.635" y="40.417" fill="#F07D00" width="0.003" height="0.008"/>
	<rect x="36.053" y="41.101" fill="#F07D00" width="0.008" height="0.002"/>
	<rect x="23.421" y="39.714" fill="#F07D00" width="0.002" height="0.004"/>
	<path fill="#F07D00" d="M25.633,40.419c0-0.231,0-0.463,0-0.702c-0.753,0-1.48,0-2.209,0c0,0.232,0,0.463,0,0.702
		C24.19,40.419,24.911,40.419,25.633,40.419z"/>
	<rect x="36.08" y="45.172" fill="#F07D00" width="0.006" height="0.002"/>
	<path fill="#F07D00" d="M30.481,45.166c-0.103,0-0.206,0.005-0.31,0.008c-0.002,0.235-0.002,0.469-0.004,0.704
		c2.98,0,2.935,0,5.914,0c0-0.234-0.002-0.469-0.002-0.704c-0.104-0.002-0.208-0.008-0.311-0.008
		C32.998,45.166,33.252,45.165,30.481,45.166z"/>
	<path fill="#F07D00" d="M21.226,43.034c0-0.203,0-0.427,0-0.658h-1.366v-2.119h1.366c0-0.188,0-0.364,0-0.542
		c-0.006,0-0.013,0-0.013,0c-0.006-0.465-0.006-0.172-0.006-0.625h-0.008c0-0.001,0-0.003,0-0.003
		c-0.736-0.001-1.473-0.001-2.232-0.001c0,1.194,0,2.924,0,4.072c0.009,0,0.018,0,0.026,0c0-0.038,0-0.086,0-0.123
		C19.736,43.034,20.48,43.034,21.226,43.034z"/>
	<polygon fill="#F07D00" points="21.226,38.959 21.226,38.963 21.234,38.963 	"/>
	<path fill="#F07D00" d="M21.226,38.963c-0.009,0-0.019,0-0.026,0c0,0.038,0,0.086,0,0.122h0.008l-0.008,0.004l0.008-0.003
		c0,0,0,0.001,0,0.003c0,0,0.013,0,0.019,0C21.226,39.05,21.226,39,21.226,38.963z"/>
	<path fill="#F07D00" d="M21.253,43.161c0,0.193,0,0.406,0,0.625c0.758,0,1.474,0,2.19,0c0-0.453,0-0.159,0-0.625
		C22.7,43.161,21.976,43.161,21.253,43.161z"/>
	<rect x="23.445" y="43.784" fill="#F07D00" width="0.003" height="0.006"/>
	<rect x="30.167" y="45.169" fill="#F07D00" width="0.003" height="0.008"/>
	<path fill="#F07D00" d="M25.668,44.492c0,0.225,0,0.449,0,0.68c1.528,0,3.013,0,4.496,0c0-0.222,0-0.443,0-0.68
		C28.672,44.492,27.17,44.492,25.668,44.492z"/>
	<rect x="25.662" y="44.486" fill="#F07D00" width="0.002" height="0.01"/>
	<path fill="#F07D00" d="M23.451,43.789c0,0.231,0,0.463,0,0.702c0.766,0,1.486,0,2.207,0c0-0.231,0-0.463,0-0.702
		C24.906,43.789,24.179,43.789,23.451,43.789z"/>
	<path fill="#F07D00" d="M36.107,49.949c0-0.234,0-0.468-0.002-0.704c-0.104-0.003-0.207-0.008-0.311-0.008
		c-2.771-0.001-2.516-0.001-5.287-0.001c-0.103,0-0.207,0.006-0.311,0.009c-0.001,0.235-0.002,0.469-0.003,0.704
		C33.174,49.949,33.129,49.949,36.107,49.949z"/>
	<rect x="30.192" y="49.24" fill="#F07D00" width="0.002" height="0.008"/>
	<polygon fill="#F07D00" points="21.262,47.229 21.253,47.229 21.253,47.232 21.253,47.232 	"/>
	<polygon fill="#F07D00" points="21.253,43.031 21.253,43.034 21.259,43.034 	"/>
	<path fill="#F07D00" d="M21.253,43.034c-0.01,0-0.019,0-0.019,0c-0.009,0.038-0.009,0.086-0.009,0.123h0.009l-0.009,0.004
		l0.009-0.003v0.003c0.006,0,0.013,0,0.013,0C21.253,43.122,21.253,43.072,21.253,43.034z"/>
	<path fill="#F07D00" d="M19.859,46.408v-2.119h1.394c0-0.175,0-0.337,0-0.503c0,0-0.012,0-0.019,0c0-0.465,0-0.172,0-0.625h-0.009
		c0,0,0-0.003,0-0.004c-0.735,0-1.474,0-2.232,0c0,1.193,0,2.924,0,4.071c0.769,0,1.515,0,2.26,0c0-0.246,0-0.531,0-0.82H19.859z"/>
	<rect x="21.256" y="47.228" fill="#F07D00" width="0.003" height="0.009"/>
	<path fill="#F07D00" d="M23.469,47.857c0-0.453,0-0.159,0-0.625c-0.748,0-1.478,0-2.207,0c0,0.453,0,0.159,0,0.625
		C22.026,47.857,22.747,47.857,23.469,47.857z"/>
	<path fill="#F07D00" d="M30.189,49.243c0-0.222,0-0.444,0-0.68c-1.491,0-2.993,0-4.496,0c0,0.225,0,0.449,0,0.68
		C27.223,49.243,28.707,49.243,30.189,49.243z"/>
	<rect x="25.689" y="48.559" fill="#F07D00" width="0.002" height="0.006"/>
	<rect x="36.105" y="49.243" fill="#F07D00" width="0.008" height="0.002"/>
	<path fill="#F07D00" d="M25.686,48.561c0-0.23,0-0.462,0-0.701c-0.753,0-1.48,0-2.209,0c0,0.231,0,0.463,0,0.701
		C24.242,48.561,24.964,48.561,25.686,48.561z"/>
	<rect x="23.472" y="47.855" fill="#F07D00" width="0.003" height="0.006"/>
	<path fill="#F07D00" d="M30.508,53.438c-0.103,0-0.207,0.006-0.311,0.009c-0.001,0.234-0.002,0.468-0.003,0.704
		c2.979,0,2.935,0,5.913,0c0-0.235-0.002-0.469-0.002-0.704c-0.104-0.003-0.207-0.008-0.311-0.008
		C33.024,53.438,33.278,53.438,30.508,53.438z"/>
	<rect x="36.105" y="53.444" fill="#F07D00" width="0.008" height="0.002"/>
	<polygon fill="#F07D00" points="21.253,47.232 21.253,47.232 21.253,47.232 	"/>
	<polygon fill="#F07D00" points="21.252,51.43 21.252,51.434 21.261,51.43 	"/>
	<polygon fill="#F07D00" points="21.253,47.232 21.253,47.232 21.253,47.232 21.252,47.231 21.252,47.235 21.258,47.235 	"/>
	<path fill="#F07D00" d="M19.859,50.44v-2.119h1.393c0-0.39,0-0.763,0-1.086c-0.754,0-1.508,0-2.259,0c0,1.156,0,2.885,0,4.068
		c0.745,0,1.491,0,2.238,0v-0.003l0.009,0.003h-0.009c0,0.038,0,0.087,0,0.126c0.007,0,0.014,0,0.014,0
		c0.007-0.297,0.007-0.633,0.007-0.989H19.859z"/>
	<polygon fill="#F07D00" points="21.252,51.434 21.258,51.434 21.261,51.431 	"/>
	<rect x="23.471" y="52.056" fill="#F07D00" width="0.003" height="0.008"/>
	<path fill="#F07D00" d="M21.261,51.434c0,0.453,0,0.159,0,0.625c0.766,0,1.486,0,2.208,0c0-0.454,0-0.159,0-0.625
		C22.721,51.434,21.991,51.434,21.261,51.434z"/>
	<rect x="30.192" y="53.441" fill="#F07D00" width="0.003" height="0.008"/>
	<path fill="#F07D00" d="M25.693,52.765c0,0.225,0,0.449,0,0.68c1.528,0,3.014,0,4.496,0c0-0.222,0-0.444,0-0.68
		C28.698,52.765,27.195,52.765,25.693,52.765z"/>
	<rect x="25.688" y="52.76" fill="#F07D00" width="0.002" height="0.006"/>
	<path fill="#F07D00" d="M23.477,52.061c0,0.231,0,0.463,0,0.701c0.766,0,1.487,0,2.209,0c0-0.231,0-0.462,0-0.701
		C24.933,52.061,24.205,52.061,23.477,52.061z"/>
</g>
</svg>
