<?xml version="1.0" encoding="utf-8"?>
<!-- Generator: Adobe Illustrator 16.0.0, SVG Export Plug-In . SVG Version: 6.00 Build 0)  -->
<!DOCTYPE svg PUBLIC "-//W3C//DTD SVG 1.1//EN" "http://www.w3.org/Graphics/SVG/1.1/DTD/svg11.dtd">
<svg version="1.1" id="Layer_1" xmlns="http://www.w3.org/2000/svg" xmlns:xlink="http://www.w3.org/1999/xlink" x="0px" y="0px"
	 width="85px" height="85px" viewBox="0 0 85 85" enable-background="new 0 0 85 85" xml:space="preserve">
<g>
	<path fill="#F07D00" d="M42.788,28.311l-5.697-5.716l-2.176,2.183l5.697,5.715C41.241,29.673,41.972,28.941,42.788,28.311z"/>
	<path fill="#F07D00" d="M59.44,30.492l5.698-5.715l-2.175-2.183l-5.698,5.716C58.082,28.941,58.812,29.673,59.44,30.492z"/>
	<path fill="#F07D00" d="M51.565,25.94v-8.082h-3.077v8.082c0.504-0.065,1.017-0.11,1.539-0.11S51.061,25.875,51.565,25.94z"/>
	<path fill="#F07D00" d="M61.804,36.209c0.064,0.507,0.109,1.019,0.109,1.543c0,0.524-0.045,1.037-0.109,1.543h8.058v-3.086H61.804z
		"/>
	<path fill="#F07D00" d="M57.343,47.127H55.92v-2.139c2.094-1.719,3.445-4.316,3.445-7.236c0-5.164-4.189-9.367-9.338-9.367
		c-3.982,0-7.382,2.518-8.722,6.046h-9.671v2.176h-2.169v2.176h-2.169v3.992H20.57v2.176h-2.171v2.176H16.23v8.328h2.169v2.175
		h2.171v2.176h22.013h0.897h10.269V57.63h2.171v-2.176h2.169v-7.433l4.875,4.89l2.175-2.183l-5.698-5.716
		C58.833,45.804,58.126,46.511,57.343,47.127z M50.027,31.472c3.452,0,6.261,2.818,6.261,6.28c0,2.063-1.002,3.892-2.539,5.038
		v-0.015h-6.727v-3.992h-2.169v-2.176h-0.979C44.413,33.689,46.964,31.472,50.027,31.472z M54.126,53.654h-2.17v2.177H43.48h-0.897
		h-20.22v-2.176h-2.169v-4.729h2.169V46.75h8.896v-0.899v-3.076v-2.193h2.17v-2.176h7.462v2.176h2.169v6.168h0.897h7.999v2.177h2.17
		V53.654z"/>
</g>
</svg>
