<?xml version="1.0" encoding="utf-8"?>
<!-- Generator: Adobe Illustrator 16.0.0, SVG Export Plug-In . SVG Version: 6.00 Build 0)  -->
<!DOCTYPE svg PUBLIC "-//W3C//DTD SVG 1.1//EN" "http://www.w3.org/Graphics/SVG/1.1/DTD/svg11.dtd">
<svg version="1.1" id="Layer_1" xmlns="http://www.w3.org/2000/svg" xmlns:xlink="http://www.w3.org/1999/xlink" x="0px" y="0px"
	 width="85px" height="85px" viewBox="0 0 85 85" enable-background="new 0 0 85 85" xml:space="preserve">
<g>
	<path fill="#F07D00" d="M32.996,30.269l-7.381-7.404l-2.818,2.827l7.381,7.404C30.992,32.035,31.938,31.086,32.996,30.269z"/>
	<path fill="#F07D00" d="M26.975,42.5c0-0.679,0.059-1.343,0.143-1.999H16.68v3.998h10.438C27.033,43.843,26.975,43.179,26.975,42.5
		z"/>
	<path fill="#F07D00" d="M54.566,33.096l7.381-7.404l-2.818-2.827l-7.381,7.404C52.806,31.086,53.752,32.035,54.566,33.096z"/>
	<path fill="#F07D00" d="M44.365,27.2V16.731h-3.986V27.2c0.654-0.086,1.316-0.145,1.993-0.145S43.711,27.114,44.365,27.2z"/>
	<path fill="#F07D00" d="M40.379,57.8v10.469h3.986V57.8c-0.654,0.085-1.316,0.145-1.993,0.145S41.033,57.885,40.379,57.8z"/>
	<path fill="#F07D00" d="M57.627,40.5c0.084,0.656,0.143,1.32,0.143,1.999s-0.059,1.343-0.143,1.999h10.438V40.5H57.627z"/>
	<path fill="#F07D00" d="M30.178,51.904l-7.381,7.404l2.818,2.827l7.381-7.404C31.938,53.914,30.992,52.965,30.178,51.904z"/>
	<path fill="#F07D00" d="M51.748,54.731l7.381,7.404l2.818-2.827l-7.381-7.404C53.752,52.965,52.806,53.914,51.748,54.731z"/>
	<path fill="#F07D00" d="M42.372,30.366c-6.67,0-12.098,5.443-12.098,12.133c0,6.69,5.428,12.134,12.098,12.134
		S54.47,49.189,54.47,42.5C54.47,35.809,49.042,30.366,42.372,30.366z M42.372,50.635c-4.473,0-8.111-3.65-8.111-8.136
		c0-4.485,3.639-8.135,8.111-8.135s8.111,3.649,8.111,8.135C50.483,46.985,46.845,50.635,42.372,50.635z"/>
</g>
</svg>
