<?xml version="1.0" encoding="utf-8"?>
<!-- Generator: Adobe Illustrator 16.0.0, SVG Export Plug-In . SVG Version: 6.00 Build 0)  -->
<!DOCTYPE svg PUBLIC "-//W3C//DTD SVG 1.1//EN" "http://www.w3.org/Graphics/SVG/1.1/DTD/svg11.dtd">
<svg version="1.1" id="Layer_1" xmlns="http://www.w3.org/2000/svg" xmlns:xlink="http://www.w3.org/1999/xlink" x="0px" y="0px"
	 width="85px" height="85px" viewBox="0 0 85 85" enable-background="new 0 0 85 85" xml:space="preserve">
<path fill="#F07D00" d="M49.901,18.488c-0.221-0.023-0.443-0.035-0.671-0.035h-8.15h-5.03c-3.618,0-6.551,3.041-6.551,6.792v8.188
	v25.47c0,3.518,2.578,6.41,5.882,6.758c0.22,0.023,0.443,0.035,0.669,0.035h8.531h4.649c3.619,0,6.552-3.041,6.552-6.793v-8.188
	v-25.47C55.782,21.729,53.205,18.836,49.901,18.488z M39.186,22.025h6.911v1.26h-6.911V22.025z M42.613,63.89
	c-1.134,0-2.053-0.921-2.053-2.059c0-1.137,0.919-2.059,2.053-2.059s2.054,0.921,2.054,2.059
	C44.667,62.969,43.747,63.89,42.613,63.89z M53.003,58.591H32.28V33.433h-0.001v-7.811h20.723v25.093h0.001V58.591z"/>
</svg>
