<?xml version="1.0" encoding="utf-8"?>
<!-- Generator: Adobe Illustrator 16.0.0, SVG Export Plug-In . SVG Version: 6.00 Build 0)  -->
<!DOCTYPE svg PUBLIC "-//W3C//DTD SVG 1.1//EN" "http://www.w3.org/Graphics/SVG/1.1/DTD/svg11.dtd">
<svg version="1.1" id="Layer_1" xmlns="http://www.w3.org/2000/svg" xmlns:xlink="http://www.w3.org/1999/xlink" x="0px" y="0px"
	 width="214px" height="85px" viewBox="0 0 214 85" enable-background="new 0 0 214 85" xml:space="preserve">
<g>
	<path fill="#F07D00" d="M183.685,37.788l-4.812,0.05v-7.569h15.933l-0.049-5.315h-21.346v18.549
		c2.355-0.251,7.116-0.451,9.221-0.451c4.509,0,7.265,2.206,7.265,5.765c0,3.961-2.756,6.316-7.314,6.316
		c-3.157,0-6.664-1.353-9.471-3.709l-2.354,4.813c3.456,2.406,8.317,4.011,12.476,4.011c7.867,0,12.978-4.662,12.978-11.782
		C196.21,42.299,191.3,37.788,183.685,37.788z"/>
	<path fill="#F07D00" d="M165.537,27.945c-1.119-0.991-2.539-1.762-4.258-2.313c-1.721-0.552-3.758-0.828-6.109-0.828h-9.23v5.064
		v30.146h5.071V47.619h4.159c2.288,0,4.283-0.283,5.987-0.851c1.703-0.568,3.123-1.364,4.259-2.388
		c1.135-1.022,1.986-2.244,2.556-3.663c0.567-1.421,0.852-2.984,0.852-4.688c0-1.64-0.269-3.15-0.803-4.529
		C167.484,30.121,166.657,28.935,165.537,27.945z M162.596,38.72c-0.292,0.803-0.729,1.484-1.313,2.045
		c-0.585,0.56-1.323,0.991-2.216,1.291c-0.892,0.301-1.938,0.45-3.14,0.45h-4.916V29.868h4.916c1.201,0,2.248,0.143,3.14,0.427
		c0.893,0.284,1.631,0.694,2.216,1.23c0.584,0.536,1.021,1.185,1.313,1.948c0.292,0.763,0.438,1.614,0.438,2.556
		C163.033,37.02,162.888,37.916,162.596,38.72z"/>
</g>
<g>
	<path fill="#F07D00" d="M109.231,44.048v9.908h-6.425v-9.908h-9.844v-6.429h9.844v-9.908h6.425v9.908h9.903v6.429H109.231z"/>
</g>
<g>
	<path fill="#F07D00" d="M52.252,54.858l9.119-9.676c3.708-4.01,6.413-7.971,6.413-11.529c0-5.365-4.56-8.823-11.174-8.823
		c-4.509,0-8.968,1.904-12.776,5.013l2.354,4.562c2.956-2.707,6.514-4.411,9.57-4.411c3.657,0,5.862,1.705,5.862,4.512
		c0,2.005-1.703,4.863-4.259,7.47L44.436,55.86v4.312h24.951v-5.314H52.252z"/>
	<path fill="#F07D00" d="M36.266,28.071c-1.119-0.991-2.539-1.762-4.258-2.313c-1.721-0.551-3.758-0.829-6.109-0.829h-9.23v5.065
		V60.14h5.071V47.745h4.159c2.288,0,4.283-0.283,5.987-0.851c1.703-0.569,3.124-1.365,4.259-2.388
		c1.135-1.022,1.986-2.244,2.556-3.664c0.567-1.421,0.852-2.983,0.852-4.688c0-1.64-0.268-3.15-0.803-4.529
		C38.213,30.246,37.386,29.06,36.266,28.071z M33.324,38.845c-0.291,0.804-0.729,1.485-1.313,2.046
		c-0.585,0.56-1.323,0.991-2.216,1.29c-0.892,0.301-1.938,0.451-3.139,0.451h-4.917V29.994h4.917c1.2,0,2.247,0.143,3.139,0.426
		c0.893,0.285,1.631,0.695,2.216,1.231c0.584,0.536,1.022,1.185,1.313,1.947c0.292,0.763,0.438,1.615,0.438,2.557
		C33.763,37.145,33.616,38.042,33.324,38.845z"/>
</g>
<path fill="#F07D00" d="M42.5,5.997c20.129,0,36.503,16.375,36.503,36.503c0,20.127-16.374,36.502-36.503,36.502
	c-20.127,0-36.503-16.375-36.503-36.502C5.997,22.372,22.373,5.997,42.5,5.997 M42.5,0C19.028,0,0,19.028,0,42.5
	C0,65.971,19.028,85,42.5,85C65.973,85,85,65.971,85,42.5C85,19.028,65.973,0,42.5,0L42.5,0z"/>
<path fill="#F07D00" d="M171.5,5.997c20.129,0,36.503,16.375,36.503,36.503c0,20.127-16.374,36.502-36.503,36.502
	c-20.127,0-36.503-16.375-36.503-36.502C134.997,22.372,151.373,5.997,171.5,5.997 M171.5,0C148.028,0,129,19.028,129,42.5
	c0,23.471,19.028,42.5,42.5,42.5c23.473,0,42.5-19.029,42.5-42.5C214,19.028,194.973,0,171.5,0L171.5,0z"/>
</svg>
