<?xml version="1.0" encoding="utf-8"?>
<!-- Generator: Adobe Illustrator 16.0.0, SVG Export Plug-In . SVG Version: 6.00 Build 0)  -->
<!DOCTYPE svg PUBLIC "-//W3C//DTD SVG 1.1//EN" "http://www.w3.org/Graphics/SVG/1.1/DTD/svg11.dtd">
<svg version="1.1" id="Layer_1" xmlns="http://www.w3.org/2000/svg" xmlns:xlink="http://www.w3.org/1999/xlink" x="0px" y="0px"
	 width="85px" height="85px" viewBox="0 0 85 85" enable-background="new 0 0 85 85" xml:space="preserve">
<g>
	<path fill="#F07D00" d="M55.645,24.704c-7.447,0-12.296,4.511-12.296,11.781c0,6.818,4.249,11.179,11.246,11.179
		c4.397,0,7.697-1.704,9.546-4.963c0.2,7.57-2.948,12.684-9.746,12.684c-2.648,0-5.598-0.802-7.747-2.206l-2.299,4.462
		c2.849,1.604,6.997,2.657,10.445,2.657c9.247,0,15.095-7.319,15.095-18.498C69.889,31.02,64.49,24.704,55.645,24.704z
		 M55.693,43.001c-4.248,0-6.847-2.456-6.847-6.467c0-4.261,2.849-6.718,7.097-6.718c5.049,0,7.298,3.459,7.248,6.518
		C63.241,39.943,60.442,43.001,55.693,43.001z"/>
	<path fill="#F07D00" d="M35.35,27.944c-1.117-0.991-2.533-1.762-4.248-2.313c-1.716-0.552-3.748-0.828-6.094-0.828h-9.209v5.064
		v30.146h5.06V47.619h4.149c2.281,0,4.271-0.283,5.972-0.851c1.699-0.568,3.115-1.365,4.248-2.388
		c1.133-1.022,1.982-2.243,2.55-3.663c0.566-1.421,0.85-2.984,0.85-4.688c0-1.64-0.268-3.149-0.801-4.529
		C37.292,30.12,36.467,28.934,35.35,27.944z M32.415,38.72c-0.292,0.803-0.728,1.484-1.311,2.045c-0.583,0.56-1.319,0.991-2.21,1.29
		c-0.89,0.301-1.934,0.45-3.132,0.45h-4.904V29.867h4.904c1.198,0,2.242,0.143,3.132,0.427c0.891,0.284,1.627,0.694,2.21,1.229
		c0.583,0.536,1.019,1.185,1.311,1.948c0.291,0.764,0.437,1.615,0.437,2.557C32.852,37.019,32.706,37.916,32.415,38.72z"/>
</g>
</svg>
