<?xml version="1.0" encoding="utf-8"?>
<!-- Generator: Adobe Illustrator 16.0.0, SVG Export Plug-In . SVG Version: 6.00 Build 0)  -->
<!DOCTYPE svg PUBLIC "-//W3C//DTD SVG 1.1//EN" "http://www.w3.org/Graphics/SVG/1.1/DTD/svg11.dtd">
<svg version="1.1" id="Layer_1" xmlns="http://www.w3.org/2000/svg" xmlns:xlink="http://www.w3.org/1999/xlink" x="0px" y="0px"
	 width="85px" height="85px" viewBox="0 0 85 85" enable-background="new 0 0 85 85" xml:space="preserve">
<path fill="#F07D00" d="M64.055,41.948V28.957c0-3.929-3.283-7.114-7.332-7.114H27.471c-4.049,0-7.332,3.185-7.332,7.114v14.313
	c0,3.929,3.283,7.114,7.332,7.114h21.262v-3.019H27.471c-2.33,0-4.221-1.833-4.221-4.095V28.957c0-2.262,1.891-4.096,4.221-4.096
	h29.252c2.33,0,4.221,1.834,4.221,4.096v12.93L64.055,41.948z"/>
<path fill="#F07D00" d="M36.371,30.431c3.203,0,5.844,2.325,6.227,5.33h-7.795v1.509h7.795c-0.383,3.003-3.023,5.33-6.227,5.33
	h-2.434c-3.467,0-6.275-2.724-6.275-6.084c0-3.361,2.809-6.084,6.275-6.084H36.371z M55.895,39.935c0,1.472-1.23,2.665-2.746,2.665
	h-8.749v-5.33h8.749C54.664,37.27,55.895,38.463,55.895,39.935 M53.148,35.761h-8.749v-5.33h8.749c1.516,0,2.746,1.193,2.746,2.664
	C55.895,34.567,54.664,35.761,53.148,35.761"/>
<path fill="#F07D00" d="M51.143,54.612c0-1.206,1.164-1.238,1.164-1.238v-6.073h2.153v-1.962h7.396v1.962h2.153v6.073
	c0,0,1.164,0.032,1.164,1.238v7.133c0,1.207-1.01,2.186-2.253,2.186h-9.525c-1.244,0-2.252-0.979-2.252-2.186V54.612z M54.46,53.374
	h7.396v-6.072H54.46V53.374z"/>
</svg>
