<?xml version="1.0" encoding="utf-8"?>
<!-- Generator: Adobe Illustrator 16.0.0, SVG Export Plug-In . SVG Version: 6.00 Build 0)  -->
<!DOCTYPE svg PUBLIC "-//W3C//DTD SVG 1.1//EN" "http://www.w3.org/Graphics/SVG/1.1/DTD/svg11.dtd">
<svg version="1.1" id="Layer_1" xmlns="http://www.w3.org/2000/svg" xmlns:xlink="http://www.w3.org/1999/xlink" x="0px" y="0px"
	 width="52px" height="79px" viewBox="0 0 52 79" enable-background="new 0 0 52 79" xml:space="preserve">
<path fill="#191917" d="M50.174,15.026c-1.215-3.096-3.096-5.757-5.639-7.978c-2.545-2.223-5.771-3.953-9.678-5.19
	C30.949,0.622,26.32,0,20.976,0H0v11.363V79h11.524V51.19h9.451c5.2,0,9.734-0.635,13.605-1.91c3.871-1.274,7.096-3.061,9.678-5.356
	c2.579-2.294,4.514-5.033,5.806-8.219C51.354,32.516,52,29.01,52,25.187C52,21.507,51.391,18.12,50.174,15.026 M37.85,31.224
	c-0.663,1.803-1.658,3.332-2.986,4.589c-1.326,1.257-3.007,2.223-5.033,2.894c-2.027,0.676-4.406,1.011-7.133,1.011H11.524V11.363
	h11.173c2.727,0,5.105,0.32,7.133,0.956c2.026,0.638,3.707,1.558,5.033,2.761c1.328,1.203,2.323,2.659,2.986,4.37
	c0.665,1.713,0.996,3.625,0.996,5.737C38.846,27.408,38.515,29.42,37.85,31.224"/>
</svg>
