<?xml version="1.0" encoding="utf-8"?>
<!-- Generator: Adobe Illustrator 16.0.0, SVG Export Plug-In . SVG Version: 6.00 Build 0)  -->
<!DOCTYPE svg PUBLIC "-//W3C//DTD SVG 1.1 Tiny//EN" "http://www.w3.org/Graphics/SVG/1.1/DTD/svg11-tiny.dtd">
<svg version="1.1" baseProfile="tiny" id="Layer_1" xmlns="http://www.w3.org/2000/svg" xmlns:xlink="http://www.w3.org/1999/xlink"
	 x="0px" y="0px" width="20px" height="20px" viewBox="0 0 20 20" xml:space="preserve">
<g>
	<path fill="#1D1D1B" d="M14.471,0.949l4.582,4.58c1.264-1.266,1.264-3.316,0-4.58C17.787-0.316,15.736-0.316,14.471,0.949z"/>
	<path fill="#1D1D1B" d="M17.799,6.783l-4.58-4.58l-9.977,9.976L0,20l7.822-3.241L17.799,6.783z M7.344,15.978L2.85,17.84
		L2.16,17.15l1.863-4.494c0,0,0.832,0.148,1.248,0.565C5.688,13.638,5.574,14.426,5.4,14.6c0.176-0.174,0.963-0.287,1.379,0.13
		S7.344,15.978,7.344,15.978z"/>
</g>
</svg>
