<?xml version="1.0" encoding="utf-8"?>
<!-- Generator: Adobe Illustrator 16.0.0, SVG Export Plug-In . SVG Version: 6.00 Build 0)  -->
<!DOCTYPE svg PUBLIC "-//W3C//DTD SVG 1.1//EN" "http://www.w3.org/Graphics/SVG/1.1/DTD/svg11.dtd">
<svg version="1.1" id="Layer_1" xmlns="http://www.w3.org/2000/svg" xmlns:xlink="http://www.w3.org/1999/xlink" x="0px" y="0px"
	 width="16px" height="22px" viewBox="0 0 16 22" enable-background="new 0 0 16 22" xml:space="preserve">
<g>
	<path fill="#231F20" d="M6.667,17.999h2.667c0.368,0,0.667,0.299,0.667,0.667v2.667
		C10,21.701,9.702,22,9.333,22H6.667C6.298,22,6,21.701,6,21.333v-2.667C6,18.298,6.298,17.999,6.667,17.999z"/>
	<path fill="#231F20" d="M12.667,12h2.667C15.701,12,16,12.299,16,12.666v2.667
		C16,15.702,15.701,16,15.334,16h-2.667C12.299,16,12,15.702,12,15.333v-2.667C12,12.299,12.299,12,12.667,12z"/>
	<path fill="#231F20" d="M6.667,12h2.667C9.702,12,10,12.299,10,12.666v2.667
		C10,15.702,9.702,16,9.333,16H6.667C6.298,16,6,15.702,6,15.333v-2.667C6,12.299,6.298,12,6.667,12z"/>
	<path fill="#231F20" d="M0.667,12h2.667c0.368,0,0.667,0.299,0.667,0.667v2.667
		C4.001,15.702,3.702,16,3.334,16H0.667C0.299,16,0,15.702,0,15.333v-2.667C0,12.299,0.299,12,0.667,12z"/>
	<path fill="#231F20" d="M12.667,6h2.667C15.701,6,16,6.298,16,6.667v2.667
		C16,9.701,15.701,10,15.334,10h-2.667C12.299,10,12,9.701,12,9.333V6.667C12,6.298,12.299,6,12.667,6z"/>
	<path fill="#231F20" d="M6.667,6h2.667C9.702,6,10,6.298,10,6.667v2.667C10,9.701,9.702,10,9.333,10
		H6.667C6.298,10,6,9.701,6,9.333V6.667C6,6.298,6.298,6,6.667,6z"/>
	<path fill="#231F20" d="M0.667,6h2.667c0.368,0,0.667,0.298,0.667,0.666v2.667
		C4.001,9.701,3.702,10,3.334,10H0.667C0.299,10,0,9.701,0,9.333V6.667C0,6.298,0.299,6,0.667,6z"/>
	<path fill="#231F20" d="M12.667,0h2.667C15.701,0,16,0.298,16,0.667v2.667C16,3.701,15.701,4,15.334,4
		h-2.667C12.299,4,12,3.701,12,3.334V0.667C12,0.298,12.299,0,12.667,0z"/>
	<path fill="#231F20" d="M6.667,0h2.667C9.702,0,10,0.298,10,0.667v2.667C10,3.701,9.702,4,9.333,4
		H6.667C6.298,4,6,3.701,6,3.334V0.667C6,0.298,6.298,0,6.667,0z"/>
	<path fill="#231F20" d="M0.667,0h2.667c0.368,0,0.667,0.298,0.667,0.667v2.667
		C4.001,3.701,3.702,4,3.334,4H0.667C0.299,4,0,3.701,0,3.334V0.667C0,0.298,0.299,0,0.667,0z"/>
</g>
</svg>
