<?xml version="1.0" encoding="utf-8"?>
<!-- Generator: Adobe Illustrator 16.0.0, SVG Export Plug-In . SVG Version: 6.00 Build 0)  -->
<!DOCTYPE svg PUBLIC "-//W3C//DTD SVG 1.1 Tiny//EN" "http://www.w3.org/Graphics/SVG/1.1/DTD/svg11-tiny.dtd">
<svg version="1.1" baseProfile="tiny" id="Layer_1" xmlns="http://www.w3.org/2000/svg" xmlns:xlink="http://www.w3.org/1999/xlink"
	 x="0px" y="0px" width="44px" height="34px" viewBox="0 0 44 34" xml:space="preserve">
<g>
	<path fill="#231F20" d="M19.269,16.789L16.312,0.014L16.383,0l9.236,3.364l2.96,16.816l13.438,4.892
		c1.564,0.566,2.369,2.293,1.8,3.857c-0.567,1.562-2.292,2.365-3.855,1.797L2.099,16.939l0.05-0.139L0,4.904l6.283,2.287l1.01,5.234
		L19.269,16.789z"/>
	<path fill="#231F20" d="M14.792,24.656c0.304-0.841,1.238-1.276,2.083-0.967c0.844,0.307,1.279,1.237,0.971,2.082
		c-0.31,0.845-1.239,1.276-2.083,0.972C14.921,26.434,14.488,25.503,14.792,24.656"/>
	<path fill="#231F20" d="M18.917,26.162c0.304-0.845,1.241-1.278,2.08-0.974c0.848,0.311,1.284,1.241,0.973,2.088
		c-0.307,0.839-1.238,1.276-2.079,0.972C19.044,27.939,18.614,27.005,18.917,26.162"/>
	<path fill="#231F20" d="M34.447,31.82c0.302-0.845,1.238-1.282,2.078-0.972c0.847,0.305,1.282,1.239,0.974,2.082
		c-0.307,0.843-1.24,1.276-2.085,0.973C34.574,33.593,34.139,32.661,34.447,31.82"/>
</g>
</svg>
