<?xml version="1.0" encoding="utf-8"?>
<!-- Generator: Adobe Illustrator 16.0.0, SVG Export Plug-In . SVG Version: 6.00 Build 0)  -->
<!DOCTYPE svg PUBLIC "-//W3C//DTD SVG 1.1//EN" "http://www.w3.org/Graphics/SVG/1.1/DTD/svg11.dtd">
<svg version="1.1" id="Layer_1" xmlns="http://www.w3.org/2000/svg" xmlns:xlink="http://www.w3.org/1999/xlink" x="0px" y="0px"
	 width="61px" height="61px" viewBox="0 0 61 61" enable-background="new 0 0 61 61" xml:space="preserve">
<g>
	<polygon fill="#231F20" points="4.4,12.962 44.418,12.962 44.418,9 0,9 0,33.4 4.4,33.4 	"/>
	<path fill="#231F20" d="M6.531,15.135v21.832h29.182c0-0.438,0-0.787,0-0.787c0-0.486,0-2.472,0-2.472c0-0.486,0-2.471,0-2.471
		s2.655-3.368,10.541-3.368c1.059,0,2.081,0.035,3.044,0.101V15.135H6.531z M22.236,21.627c-0.629-0.945-1.852-1.733-3.601-1.733
		c-1.922,0-3.057,0.875-3.494,2.102h6.92l-0.838,1.75h-6.398c-0.018,0.175-0.034,0.421-0.034,0.595c0,0.177,0.016,0.369,0.034,0.543
		h5.855l-0.82,1.752h-4.545c0.35,0.963,1.574,1.96,3.409,1.96c1.661,0,2.883-0.735,3.496-1.435v2.101
		c-0.523,0.438-1.922,1.086-3.758,1.086c-3.059,0-4.808-1.699-5.505-3.712h-2.185l0.874-1.752h0.892
		c-0.018-0.244-0.018-0.402-0.018-0.56c0-0.176,0-0.334,0.018-0.579h-1.765l0.874-1.75h1.312c0.611-2.189,2.708-3.853,5.768-3.853
		c1.747,0,3.321,0.613,4.37,1.664L22.236,21.627z"/>
	<g>
		<rect x="52.219" y="36.264" fill="#231F20" width="0.005" height="0.002"/>
		<path fill="#231F20" d="M45.854,36.259c-0.077,0-0.153,0.004-0.229,0.007c-0.001,0.172-0.001,0.347-0.001,0.519
			c2.198,0,4.397,0,6.597,0c-0.001-0.174-0.001-0.347-0.002-0.519c-0.076-0.002-0.154-0.006-0.229-0.006
			C49.944,36.259,47.899,36.259,45.854,36.259z"/>
		<rect x="58.818" y="31.614" fill="#231F20" width="0.001" height="0.006"/>
		<path fill="#231F20" d="M60.489,31.619c-0.567,0-1.118,0-1.668,0c-0.007,0.024-0.02,0.049-0.02,0.073c0,0.113,0,0.267,0,0.435
			h1.009v2.108H58.8c0,0.153,0,0.293,0,0.398c0,0.025,0.014,0.049,0.021,0.074c0.556,0,1.113,0,1.668,0
			C60.489,34.017,60.489,32.302,60.489,31.619z"/>
		<path fill="#231F20" d="M38.025,34.234v-2.108h0.997c0-0.196,0-0.374,0-0.507c-0.556,0-1.112,0-1.667,0c0,0.688,0,2.405,0,3.087
			c0.568,0,1.117,0,1.667,0c0-0.125,0-0.29,0-0.471H38.025z"/>
		<rect x="39.024" y="34.704" fill="#231F20" width="0.001" height="0.006"/>
		<path fill="#231F20" d="M52.217,30.113c0-0.166,0-0.332,0-0.497c-2.215,0-4.396,0-6.591,0c0,0.17,0,0.333,0,0.497
			c1.471,0.001,2.942,0.004,4.414,0.004C50.765,30.117,51.492,30.114,52.217,30.113z"/>
		<rect x="45.62" y="30.113" fill="#231F20" width="0.007" height="0.001"/>
		<path fill="#231F20" d="M55.542,30.634c0-0.172,0-0.344,0-0.519c-1.128,0-2.223,0-3.318,0c0,0.169,0,0.339,0,0.519
			C53.331,30.634,54.437,30.634,55.542,30.634z"/>
		<rect x="52.22" y="30.111" fill="#231F20" width="0.001" height="0.007"/>
		<path fill="#231F20" d="M45.62,30.115c-1.102,0-2.203,0-3.318,0c0,0.18,0,0.349,0,0.519c1.099,0,2.198,0,3.318,0
			C45.62,30.457,45.62,30.286,45.62,30.115z"/>
		<rect x="42.295" y="30.634" fill="#231F20" width="0.006" height="0.001"/>
		<path fill="#231F20" d="M40.658,31.14c-0.54,0-1.079,0-1.631,0c0,0.348,0,0.143,0,0.476c0.533,0,1.065,0,1.631,0
			C40.658,31.276,40.658,31.478,40.658,31.14z"/>
		<rect x="39.022" y="31.616" fill="#231F20" width="0.005" height="0.002"/>
		<rect x="57.181" y="31.136" fill="#231F20" width="0.002" height="0.006"/>
		<path fill="#231F20" d="M58.816,31.616c0-0.335,0-0.133,0-0.476c-0.565,0-1.098,0-1.631,0c0,0.336,0,0.132,0,0.476
			C57.74,31.616,58.277,31.616,58.816,31.616z"/>
		<rect x="40.66" y="35.237" fill="#231F20" width="0.002" height="0.006"/>
		<path fill="#231F20" d="M39.027,34.708c0,0.335,0,0.186,0,0.531c0.566,0,1.098,0,1.631,0c0-0.336,0-0.187,0-0.531
			C40.106,34.708,39.566,34.708,39.027,34.708z"/>
		<rect x="58.815" y="34.706" fill="#231F20" width="0.006" height="0.002"/>
		<path fill="#231F20" d="M57.185,35.239c0.539,0,1.078,0,1.631,0c0-0.348,0-0.195,0-0.531c-0.533,0-1.067,0-1.631,0
			C57.185,35.046,57.185,34.9,57.185,35.239z"/>
		<rect x="45.621" y="36.262" fill="#231F20" width="0.002" height="0.005"/>
		<path fill="#231F20" d="M42.301,35.762c0,0.166,0,0.332,0,0.501c1.127,0,2.223,0,3.318,0c0-0.164,0-0.328,0-0.501
			C44.518,35.762,43.409,35.762,42.301,35.762z"/>
		<rect x="55.543" y="35.76" fill="#231F20" width="0.006" height="0.002"/>
		<path fill="#231F20" d="M52.224,35.755c0,0.176,0,0.342,0,0.508c1.101,0,2.202,0,3.319,0c0-0.174,0-0.338,0-0.501
			c-0.903-0.002-1.806-0.005-2.708-0.007C52.635,35.754,52.436,35.755,52.224,35.755z"/>
		<rect x="42.297" y="35.758" fill="#231F20" width="0.002" height="0.006"/>
		<path fill="#231F20" d="M40.665,35.241c0,0.171,0,0.342,0,0.519c0.564,0,1.098,0,1.63,0c0-0.171,0-0.343,0-0.519
			C41.739,35.241,41.202,35.241,40.665,35.241z"/>
		<path fill="#231F20" d="M55.549,35.76c0.538,0,1.077,0,1.63,0c0-0.18,0-0.349,0-0.52c-0.539,0-1.079,0-1.63,0
			C55.549,35.416,55.549,35.588,55.549,35.76z"/>
		<rect x="57.179" y="35.239" fill="#231F20" width="0.006" height="0.001"/>
		<rect x="40.658" y="31.138" fill="#231F20" width="0.006" height="0.002"/>
		<path fill="#231F20" d="M42.295,30.636c-0.54,0-1.079,0-1.63,0c0,0.174,0,0.337,0,0.502c0.537,0,1.074,0,1.63,0
			C42.295,30.967,42.295,30.801,42.295,30.636z"/>
		<path fill="#231F20" d="M57.179,31.138c0-0.166,0-0.332,0-0.502c-0.565,0-1.098,0-1.63,0c0,0.165,0,0.331,0,0.502
			C56.102,31.138,56.641,31.138,57.179,31.138z"/>
		<rect x="55.545" y="30.632" fill="#231F20" width="0.002" height="0.007"/>
		<rect x="45.627" y="39.336" fill="#231F20" width="0.003" height="0.007"/>
		<path fill="#231F20" d="M52.228,39.861c-0.001-0.173-0.002-0.347-0.002-0.52c-0.078-0.003-0.154-0.006-0.229-0.006
			c-2.045,0-4.09,0-6.135,0c-0.077,0-0.153,0.004-0.229,0.007c-0.001,0.172-0.002,0.346-0.002,0.52
			C47.829,39.861,50.028,39.861,52.228,39.861z"/>
		<path fill="#231F20" d="M58.847,37.758c-0.001,0-0.003,0-0.004,0l0.005-0.002C58.848,37.755,58.848,37.757,58.847,37.758
			c0.543,0,1.088,0,1.648,0c0-0.887,0-2.23,0-3.079c-0.567,0-1.117,0-1.667,0c-0.007,0.031-0.02,0.062-0.02,0.094
			c-0.001,0.279-0.001,0.628-0.001,0.99h1.102v1.566h-1.102c0,0.147,0,0.302,0,0.427c0,0.032,0.013,0.063,0.021,0.095l0,0
			C58.829,37.819,58.84,37.788,58.847,37.758z"/>
		<polygon fill="#231F20" points="58.822,34.679 58.828,34.679 58.828,34.676 		"/>
		<polygon fill="#231F20" points="58.823,37.85 58.828,37.852 58.828,37.85 		"/>
		<path fill="#231F20" d="M39.029,37.758c0-0.131,0-0.28,0-0.429h-0.971v-1.566h0.969c0-0.394,0-0.775,0-1.083
			c-0.556,0-1.111,0-1.666,0c0,0.883,0,2.294,0,3.17c0.007,0,0.013,0,0.019,0c0-0.029,0-0.064,0-0.091
			C37.929,37.758,38.478,37.758,39.029,37.758z"/>
		<polygon fill="#231F20" points="39.027,34.676 39.027,34.678 39.034,34.679 		"/>
		<path fill="#231F20" d="M40.665,38.314c0-0.335,0-0.117,0-0.462c-0.547,0-1.082,0-1.616,0c0,0.143,0,0.3,0,0.462
			C39.607,38.314,40.137,38.314,40.665,38.314z"/>
		<rect x="57.186" y="38.314" fill="#231F20" width="0.006" height="0.001"/>
		<polygon fill="#231F20" points="58.823,37.85 58.823,37.852 58.827,37.852 		"/>
		<path fill="#231F20" d="M58.823,37.852c-0.534,0-1.067,0-1.631,0c0,0.339,0,0.123,0,0.462c0.539,0,1.078,0,1.631,0
			C58.823,37.966,58.823,38.187,58.823,37.852z"/>
		<rect x="42.302" y="38.833" fill="#231F20" width="0.003" height="0.006"/>
		<path fill="#231F20" d="M45.625,39.338c0-0.163,0-0.327,0-0.501c-1.101,0-2.21,0-3.318,0c0,0.166,0,0.332,0,0.501
			C43.435,39.338,44.531,39.338,45.625,39.338z"/>
		<rect x="52.226" y="39.338" fill="#231F20" width="0.004" height="0.003"/>
		<path fill="#231F20" d="M55.55,38.837c-0.904-0.003-1.806-0.005-2.71-0.006c-0.198-0.002-0.398,0-0.611,0c0,0.176,0,0.342,0,0.507
			c1.103,0,2.204,0,3.321,0C55.55,39.165,55.55,39.001,55.55,38.837z"/>
		<path fill="#231F20" d="M42.301,38.834c0-0.17,0-0.342,0-0.518c-0.555,0-1.094,0-1.629,0c0,0.17,0,0.342,0,0.518
			C41.236,38.834,41.768,38.834,42.301,38.834z"/>
		<rect x="40.667" y="38.312" fill="#231F20" width="0.002" height="0.007"/>
		<path fill="#231F20" d="M57.186,38.316c-0.54,0-1.08,0-1.63,0c0,0.175,0,0.347,0,0.518c0.539,0,1.078,0,1.63,0
			C57.186,38.655,57.186,38.485,57.186,38.316z"/>
		<rect x="55.55" y="38.834" fill="#231F20" width="0.005" height="0.003"/>
		<path fill="#231F20" d="M52.247,42.871c-0.001-0.173-0.001-0.347-0.002-0.52c-0.076-0.002-0.153-0.006-0.229-0.006
			c-2.045-0.001-4.09-0.001-6.135-0.001c-0.077,0-0.153,0.005-0.229,0.007c-0.001,0.173-0.001,0.347-0.002,0.52
			C47.848,42.871,50.048,42.871,52.247,42.871z"/>
		<rect x="45.647" y="42.347" fill="#231F20" width="0.002" height="0.006"/>
		<polygon fill="#231F20" points="58.842,40.86 58.848,40.863 58.847,40.862 		"/>
		<path fill="#231F20" d="M59.909,38.744v1.567h-1.083c0,0.158,0,0.32,0,0.457c0,0.031,0.013,0.062,0.02,0.093h0.001
			c0-0.03,0.013-0.062,0.02-0.092c-0.002,0-0.003,0-0.005,0l0.005-0.002v0.002c0.544,0,1.087,0,1.648,0c0-0.882,0-2.162,0-3.01
			c-0.007,0-0.014,0-0.021,0c0,0.028,0,0.065,0,0.092c-0.554,0-1.11,0-1.667,0l-0.001,0.002c0,0.258,0,0.569-0.001,0.892H59.909z"/>
		<path fill="#231F20" d="M39.034,37.849l-0.005,0.003L39.034,37.849v0.003c0.005,0,0.009,0,0.014,0c0-0.029,0-0.066,0-0.094
			c-0.007,0-0.014,0-0.02,0c0,0.028,0,0.065,0,0.091C39.029,37.849,39.032,37.849,39.034,37.849z"/>
		<polygon fill="#231F20" points="39.048,37.755 39.048,37.758 39.055,37.758 		"/>
		<path fill="#231F20" d="M39.048,40.77c0-0.143,0-0.3,0-0.459h-0.99v-1.567h0.99c0-0.149,0-0.289,0-0.43c-0.005,0-0.009,0-0.014,0
			c0-0.345,0-0.127,0-0.462c-0.002,0-0.004,0-0.004,0l-0.001-0.002c-0.544-0.001-1.087-0.001-1.648-0.001c0,0.882,0,2.162,0,3.01
			c0.007,0,0.013,0,0.02,0c0-0.027,0-0.063,0-0.089C37.948,40.77,38.499,40.77,39.048,40.77z"/>
		<path fill="#231F20" d="M40.684,40.863c-0.547,0-1.082,0-1.617,0c0,0.143,0,0.3,0,0.461c0.56,0,1.088,0,1.617,0
			C40.684,40.988,40.684,41.207,40.684,40.863z"/>
		<path fill="#231F20" d="M58.842,40.863c-0.532,0-1.066,0-1.631,0c0,0.338,0,0.123,0,0.461c0.539,0,1.078,0,1.631,0
			C58.842,40.977,58.842,41.197,58.842,40.863z"/>
		<rect x="57.207" y="41.324" fill="#231F20" width="0.004" height="0.002"/>
		<polygon fill="#231F20" points="58.842,40.86 58.842,40.862 58.848,40.863 		"/>
		<path fill="#231F20" d="M45.646,42.349c0-0.164,0-0.328,0-0.502c-1.102,0-2.21,0-3.319,0c0,0.167,0,0.333,0,0.502
			C43.455,42.349,44.55,42.349,45.646,42.349z"/>
		<rect x="42.323" y="41.843" fill="#231F20" width="0.002" height="0.006"/>
		<rect x="52.245" y="42.35" fill="#231F20" width="0.006" height="0.001"/>
		<path fill="#231F20" d="M55.569,41.847c-0.902-0.002-1.806-0.004-2.708-0.006c-0.2,0-0.399,0-0.61,0c0,0.176,0,0.342,0,0.509
			c1.101,0,2.202,0,3.319,0C55.569,42.175,55.569,42.011,55.569,41.847z"/>
		<rect x="40.687" y="41.322" fill="#231F20" width="0.001" height="0.007"/>
		<path fill="#231F20" d="M42.321,41.845c0-0.17,0-0.342,0-0.519c-0.556,0-1.093,0-1.63,0c0,0.171,0,0.344,0,0.519
			C41.255,41.845,41.789,41.845,42.321,41.845z"/>
		<rect x="55.569" y="41.846" fill="#231F20" width="0.006" height="0.001"/>
		<path fill="#231F20" d="M57.207,41.327c-0.541,0-1.08,0-1.631,0c0,0.176,0,0.347,0,0.52c0.539,0,1.077,0,1.631,0
			C57.207,41.666,57.207,41.496,57.207,41.327z"/>
		<rect x="52.264" y="45.36" fill="#231F20" width="0.005" height="0.001"/>
		<path fill="#231F20" d="M45.9,45.356c-0.076,0-0.152,0.004-0.229,0.006c0,0.174-0.001,0.347-0.002,0.52c2.2,0,4.399,0,6.598,0
			c0-0.173-0.001-0.345-0.002-0.52c-0.077-0.001-0.152-0.006-0.229-0.006C49.99,45.356,47.945,45.356,45.9,45.356z"/>
		<path fill="#231F20" d="M58.848,40.86v0.002c-0.001,0.25-0.001,0.55-0.001,0.863h1.063v1.568h-1.063c0,0.168,0,0.339,0,0.484
			c0.001,0.031,0.014,0.062,0.021,0.093h0.001c0.001-0.029,0.012-0.062,0.019-0.091c-0.002,0-0.003,0-0.005,0l0.005-0.002v0.002
			c0.544,0,1.087,0,1.648,0c0-0.884,0-2.162,0-3.012c-0.007,0-0.014,0-0.019,0c0,0.03,0,0.065,0,0.092
			C59.96,40.86,59.404,40.86,58.848,40.86z"/>
		<polygon fill="#231F20" points="58.863,43.871 58.867,43.873 58.867,43.872 		"/>
		<path fill="#231F20" d="M39.067,43.78c0-0.151,0-0.316,0-0.486h-1.009v-1.568h1.009c0-0.138,0-0.269,0-0.401
			c-0.005,0-0.008,0-0.012,0c0-0.343,0-0.126,0-0.461c-0.002,0-0.005,0-0.007,0v-0.004c-0.544,0-1.087,0-1.648,0
			c0,0.883,0,2.164,0,3.012c0.007,0,0.014,0,0.02,0c0-0.028,0-0.064,0-0.091C37.968,43.78,38.518,43.78,39.067,43.78z"/>
		<polygon fill="#231F20" points="39.067,40.766 39.067,40.77 39.074,40.77 		"/>
		<path fill="#231F20" d="M39.067,40.77c-0.007,0-0.012,0-0.019,0c0,0.026,0,0.062,0,0.089c0.002,0,0.004,0,0.007,0l-0.007,0.004
			l0.007-0.002v0.002c0.003,0,0.007,0,0.012,0C39.067,40.833,39.067,40.796,39.067,40.77z"/>
		<path fill="#231F20" d="M39.087,43.873c0,0.144,0,0.3,0,0.462c0.561,0,1.088,0,1.617,0c0-0.335,0-0.117,0-0.462
			C40.156,43.873,39.621,43.873,39.087,43.873z"/>
		<rect x="40.706" y="44.333" fill="#231F20" width="0.002" height="0.006"/>
		<path fill="#231F20" d="M57.23,44.335c0.539,0,1.078,0,1.632,0c0-0.347,0-0.128,0-0.462c-0.534,0-1.067,0-1.632,0
			C57.23,44.212,57.23,43.997,57.23,44.335z"/>
		<polygon fill="#231F20" points="58.863,43.873 58.867,43.873 58.863,43.872 		"/>
		<rect x="45.667" y="45.358" fill="#231F20" width="0.001" height="0.005"/>
		<path fill="#231F20" d="M42.347,44.858c0,0.166,0,0.332,0,0.502c1.127,0,2.223,0,3.318,0c0-0.164,0-0.328,0-0.502
			C44.563,44.858,43.455,44.858,42.347,44.858z"/>
		<path fill="#231F20" d="M52.27,44.852c0,0.177,0,0.343,0,0.509c1.101,0,2.203,0,3.321,0c0-0.173,0-0.339,0-0.502
			c-0.904-0.002-1.808-0.005-2.71-0.006C52.681,44.852,52.48,44.852,52.27,44.852z"/>
		<rect x="55.59" y="44.857" fill="#231F20" width="0.004" height="0.001"/>
		<rect x="42.343" y="44.854" fill="#231F20" width="0.002" height="0.006"/>
		<path fill="#231F20" d="M40.71,44.337c0,0.172,0,0.343,0,0.519c0.565,0,1.098,0,1.63,0c0-0.171,0-0.341,0-0.519
			C41.784,44.337,41.247,44.337,40.71,44.337z"/>
		<path fill="#231F20" d="M55.595,44.857c0.539,0,1.078,0,1.631,0c0-0.181,0-0.351,0-0.52c-0.541,0-1.08,0-1.631,0
			C55.595,44.513,55.595,44.685,55.595,44.857z"/>
		<rect x="57.226" y="44.335" fill="#231F20" width="0.004" height="0.002"/>
		<path fill="#231F20" d="M52.285,48.893c0-0.173-0.001-0.347-0.001-0.52c-0.077-0.002-0.153-0.005-0.229-0.005
			c-2.046-0.001-4.09-0.001-6.136-0.001c-0.076,0-0.152,0.004-0.228,0.007c-0.001,0.173-0.002,0.347-0.002,0.52
			C47.888,48.893,50.086,48.893,52.285,48.893z"/>
		<rect x="45.687" y="48.368" fill="#231F20" width="0.002" height="0.007"/>
		<path fill="#231F20" d="M60.554,43.78c-0.006,0-0.013,0-0.02,0c0,0.029,0,0.064,0,0.091c-0.554,0-1.111,0-1.667,0v0.002
			c-0.001,0.243-0.001,0.532-0.001,0.834h1.043v1.567h-1.043c0,0.18,0,0.361,0,0.513c0,0.031,0.012,0.063,0.02,0.094
			c0.557,0,1.114,0,1.668,0C60.554,45.998,60.554,44.655,60.554,43.78z"/>
		<polygon fill="#231F20" points="58.886,46.883 58.886,46.882 58.882,46.881 		"/>
		<polygon fill="#231F20" points="39.094,46.881 39.087,46.881 39.087,46.883 39.087,46.883 		"/>
		<polygon fill="#231F20" points="39.087,43.778 39.087,43.779 39.094,43.78 		"/>
		<path fill="#231F20" d="M39.087,43.78c-0.006,0-0.013,0-0.02,0c0,0.029,0,0.064,0,0.091c0.002,0,0.004,0,0.007,0l-0.007,0.002
			l0.007-0.002v0.002c0.004,0,0.009,0,0.013,0C39.087,43.845,39.087,43.809,39.087,43.78z"/>
		<path fill="#231F20" d="M38.058,46.275v-1.567h1.029c0-0.129,0-0.25,0-0.373c-0.005,0-0.008,0-0.013,0c0-0.343,0-0.127,0-0.462
			c-0.002,0-0.005,0-0.007,0v-0.002c-0.544,0-1.087,0-1.647,0c0,0.882,0,2.162,0,3.011c0.568,0,1.117,0,1.667,0
			c0-0.182,0-0.393,0-0.606H38.058z"/>
		<rect x="39.089" y="46.88" fill="#231F20" width="0.002" height="0.007"/>
		<path fill="#231F20" d="M40.724,47.347c0-0.336,0-0.119,0-0.463c-0.552,0-1.091,0-1.63,0c0,0.335,0,0.119,0,0.463
			C39.659,47.347,40.191,47.347,40.724,47.347z"/>
		<rect x="57.245" y="47.347" fill="#231F20" width="0.004" height="0.002"/>
		<path fill="#231F20" d="M58.867,46.98c0-0.025,0.008-0.049,0.015-0.073c0-0.009,0-0.01,0-0.02h-0.001l0.001-0.001v-0.002
			c-0.533,0-1.067,0-1.632,0c0,0.34,0,0.124,0,0.463c0.535,0,1.069,0,1.617,0C58.866,47.223,58.866,47.089,58.867,46.98z"/>
		<polygon fill="#231F20" points="58.886,46.883 58.886,46.883 58.886,46.883 		"/>
		<rect x="58.882" y="46.883" fill="#231F20" width="0.005" height="0.001"/>
		<path fill="#231F20" d="M45.684,48.371c0-0.163,0-0.327,0-0.501c-1.101,0-2.21,0-3.318,0c0,0.166,0,0.332,0,0.501
			C43.493,48.371,44.59,48.371,45.684,48.371z"/>
		<rect x="42.361" y="47.865" fill="#231F20" width="0.003" height="0.007"/>
		<rect x="52.284" y="48.371" fill="#231F20" width="0.004" height="0.002"/>
		<path fill="#231F20" d="M55.609,47.87c-0.904-0.003-1.806-0.005-2.709-0.007c-0.2-0.001-0.4,0-0.611,0c0,0.177,0,0.343,0,0.508
			c1.102,0,2.204,0,3.321,0C55.609,48.197,55.609,48.033,55.609,47.87z"/>
		<path fill="#231F20" d="M42.359,47.867c0-0.171,0-0.342,0-0.518c-0.555,0-1.093,0-1.63,0c0,0.17,0,0.342,0,0.518
			C41.294,47.867,41.827,47.867,42.359,47.867z"/>
		<rect x="40.726" y="47.345" fill="#231F20" width="0.002" height="0.006"/>
		<rect x="55.609" y="47.867" fill="#231F20" width="0.005" height="0.002"/>
		<path fill="#231F20" d="M57.245,47.349c-0.54,0-1.08,0-1.63,0c0,0.175,0,0.347,0,0.518c0.538,0,1.077,0,1.63,0
			C57.245,47.688,57.245,47.517,57.245,47.349z"/>
		<path fill="#231F20" d="M45.919,51.474c-0.076,0-0.152,0.003-0.229,0.005c0,0.174-0.001,0.347-0.001,0.521
			c2.198,0,4.397,0,6.596,0c-0.001-0.174-0.001-0.347-0.001-0.521c-0.077-0.002-0.153-0.005-0.23-0.005
			C50.009,51.474,47.965,51.473,45.919,51.474z"/>
		<rect x="52.284" y="51.478" fill="#231F20" width="0.004" height="0.001"/>
		<polygon fill="#231F20" points="58.886,46.883 58.886,46.883 58.886,46.883 		"/>
		<polygon fill="#231F20" points="58.882,46.886 58.882,46.887 58.886,46.887 58.886,46.883 58.886,46.883 		"/>
		<polygon fill="#231F20" points="58.871,49.895 58.866,49.895 58.869,49.908 		"/>
		<path fill="#231F20" d="M58.882,47.347c-0.006,0-0.01,0-0.016,0c0,0.115,0,0.219,0,0.343h1.043v1.567h-1.044
			c0.001,0.229,0.001,0.448,0.001,0.638l0.006-0.002l-0.001,0.002c0.551,0,1.101,0,1.669,0c0,0.028,0,0.065,0,0.093
			c0.004,0,0.01,0,0.015,0c0-0.883,0-2.225,0-3.101c-0.568,0-1.118,0-1.668,0c-0.002,0.007-0.002,0.014-0.004,0.02
			C58.882,47.194,58.882,47.011,58.882,47.347z"/>
		<polygon fill="#231F20" points="39.087,46.883 39.087,46.883 39.087,46.883 		"/>
		<g>
			<polygon fill="#231F20" points="39.087,49.988 39.087,49.991 39.094,49.988 			"/>
			<polygon fill="#231F20" points="38.847,50.332 38.84,49.74 40.604,49.74 			"/>
		</g>
		<g>
			<polygon fill="#231F20" points="39.087,46.883 39.087,46.883 39.087,46.883 39.087,46.883 39.087,46.887 39.094,46.887 			"/>
			<polygon fill="#231F20" points="39.094,47.135 38.84,47.135 38.84,46.487 40.133,47.131 			"/>
		</g>
		<g>
			<path fill="#231F20" d="M38.058,49.257V47.69h1.029c0-0.289,0-0.564,0-0.803c-0.557,0-1.113,0-1.667,0c0,0.855,0,2.132,0,3.008
				c0.55,0,1.102,0,1.652,0v-0.002l0.007,0.002c-0.002,0-0.004,0-0.007,0c0,0.028,0,0.064,0,0.093c0.004,0,0.01,0,0.015,0
				c0-0.219,0-0.468,0-0.731H38.058z"/>
			<path fill="#231F20" d="M39.333,50.236h-0.508v-0.094h-1.653v-3.504h2.162v1.299h-1.029v1.072h1.029v0.709l1.263,0.422
				l-1.263,0.001V50.236z M37.666,49.647h1.159v-0.095l0.015,0.004v-0.051h-1.029v-2.063h1.029v-0.307h-1.174V49.647z"/>
		</g>
		<g>
			<polygon fill="#231F20" points="39.087,49.991 39.094,49.991 39.094,49.988 			"/>
			<polygon fill="#231F20" points="39.094,50.238 37.569,50.238 39.333,49.647 39.34,50.236 			"/>
		</g>
		<g>
			<rect x="40.725" y="50.45" fill="#231F20" width="0.002" height="0.006"/>
			<polygon fill="#231F20" points="40.729,50.703 40.477,50.703 40.477,50.207 40.97,50.205 40.976,50.7 			"/>
		</g>
		<g>
			<path fill="#231F20" d="M39.094,49.991c0,0.335,0,0.118,0,0.461c0.565,0,1.097,0,1.63,0c0-0.334,0-0.117,0-0.461
				C40.171,49.991,39.633,49.991,39.094,49.991z"/>
			<rect x="38.847" y="49.742" fill="#231F20" width="2.124" height="0.958"/>
		</g>
		<g>
			<path fill="#231F20" d="M57.25,49.991c0,0.338,0,0.124,0,0.462c0.53,0,1.059,0,1.602,0c0-0.16,0-0.325,0-0.462
				C58.328,49.991,57.805,49.991,57.25,49.991z"/>
			<rect x="57.002" y="49.742" fill="#231F20" width="2.096" height="0.959"/>
		</g>
		<g>
			<rect x="45.687" y="51.476" fill="#231F20" width="0.001" height="0.006"/>
			<polygon fill="#231F20" points="45.69,51.727 44.643,51.727 45.69,51.23 45.69,51.467 45.795,51.258 45.69,51.479 			"/>
		</g>
		<g>
			<path fill="#231F20" d="M42.366,50.975c0,0.167,0,0.333,0,0.503c1.127,0,2.223,0,3.318,0c0-0.164,0-0.329,0-0.503
				C44.582,50.975,43.474,50.975,42.366,50.975z"/>
			<path fill="#231F20" d="M45.931,51.726H42.12v-0.998h3.812V51.726z M42.613,51.23l2.824-0.006L42.613,51.23z"/>
		</g>
		<g>
			<rect x="55.608" y="50.974" fill="#231F20" width="0.007" height="0.001"/>
			<polygon fill="#231F20" points="55.615,51.224 54.566,51.224 55.615,50.726 55.615,50.961 55.719,50.754 55.615,50.975 			"/>
		</g>
		<g>
			<path fill="#231F20" d="M52.289,50.969c0,0.177,0,0.343,0,0.509c1.102,0,2.204,0,3.319,0c0-0.174,0-0.338,0-0.503
				c-0.902-0.001-1.806-0.004-2.708-0.005C52.7,50.969,52.5,50.969,52.289,50.969z"/>
			<path fill="#231F20" d="M55.855,51.726h-3.813v-1.005l3.792,0.008l0.021,0.247V51.726z M52.536,51.23l2.826-0.008l-2.826-0.005
				V51.23z"/>
		</g>
		<g>
			<rect x="42.362" y="50.971" fill="#231F20" width="0.001" height="0.007"/>
			<polygon fill="#231F20" points="42.366,51.224 41.318,51.224 42.366,50.726 42.366,50.961 42.47,50.754 42.366,50.975 			"/>
		</g>
		<g>
			<path fill="#231F20" d="M40.729,50.455c0,0.171,0,0.344,0,0.52c0.565,0,1.098,0,1.63,0c0-0.172,0-0.342,0-0.52
				C41.804,50.455,41.266,50.455,40.729,50.455z"/>
			<path fill="#231F20" d="M42.606,51.222h-2.124v-1.015h2.124V51.222z M40.976,50.726l1.136-0.023L40.976,50.726z"/>
		</g>
		<g>
			<rect x="57.245" y="50.453" fill="#231F20" width="0.004" height="0.001"/>
			<polygon fill="#231F20" points="57.25,50.703 56.653,50.703 57.142,50.207 57.25,50.206 57.25,50.449 57.42,50.279 57.25,50.455 
							"/>
		</g>
		<g>
			<path fill="#231F20" d="M55.615,50.974c0.538,0,1.077,0,1.63,0c0-0.181,0-0.35,0-0.52c-0.541,0-1.08,0-1.63,0
				C55.615,50.631,55.615,50.802,55.615,50.974z"/>
			<path fill="#231F20" d="M57.492,51.222h-2.124v-1.015h2.124V51.222z M55.862,50.726l1.136-0.023L55.862,50.726z"/>
		</g>
		<g>
			<path fill="#231F20" d="M58.851,49.991c0.011,0,0.021,0,0.031,0V49.99l0.004,0.001l-0.004-0.003c0.001,0,0.002,0,0.004,0
				c-0.007-0.026-0.016-0.053-0.018-0.08c-0.007,0.027-0.018,0.053-0.018,0.08C58.851,49.99,58.851,49.99,58.851,49.991z"/>
			<polygon fill="#231F20" points="61,50.775 58.846,50.235 58.663,50.235 58.641,50.144 57.838,49.74 58.66,49.74 58.997,48.559 
				59.109,49.825 			"/>
		</g>
	</g>
</g>
</svg>
