<?xml version="1.0" encoding="utf-8"?>
<!-- Generator: Adobe Illustrator 16.0.0, SVG Export Plug-In . SVG Version: 6.00 Build 0)  -->
<!DOCTYPE svg PUBLIC "-//W3C//DTD SVG 1.1//EN" "http://www.w3.org/Graphics/SVG/1.1/DTD/svg11.dtd">
<svg version="1.1" id="Layer_1" xmlns="http://www.w3.org/2000/svg" xmlns:xlink="http://www.w3.org/1999/xlink" x="0px" y="0px"
	 width="18px" height="18px" viewBox="0 0 18 18" enable-background="new 0 0 18 18" xml:space="preserve">
<path fill="#FFFFFF" d="M10.414,9l7.293-7.293c0.391-0.391,0.391-1.023,0-1.414s-1.023-0.391-1.414,0L9,7.586L1.707,0.293
	c-0.391-0.391-1.023-0.391-1.414,0s-0.391,1.023,0,1.414L7.586,9l-7.293,7.293c-0.391,0.391-0.391,1.023,0,1.414
	s1.023,0.391,1.414,0L9,10.414l7.293,7.293C16.488,17.902,16.744,18,17,18s0.512-0.098,0.707-0.293c0.391-0.391,0.391-1.023,0-1.414
	L10.414,9z"/>
</svg>
