<?xml version="1.0" encoding="utf-8"?>
<!-- Generator: Adobe Illustrator 16.0.0, SVG Export Plug-In . SVG Version: 6.00 Build 0)  -->
<!DOCTYPE svg PUBLIC "-//W3C//DTD SVG 1.1//EN" "http://www.w3.org/Graphics/SVG/1.1/DTD/svg11.dtd">
<svg version="1.1" id="Layer_1" xmlns="http://www.w3.org/2000/svg" xmlns:xlink="http://www.w3.org/1999/xlink" x="0px" y="0px"
	 width="29px" height="28px" viewBox="0 0 29 28" enable-background="new 0 0 29 28" xml:space="preserve">
<g>
	<path fill="#E65028" d="M8.454,10.173c-0.565,0-0.955,0.399-0.955,0.976c0,0.587,0.39,0.988,0.955,0.988
		c0.562,0,0.964-0.4,0.964-0.988C9.418,10.573,9.016,10.173,8.454,10.173z"/>
	<path fill="#E65028" d="M8.326,5.39c0.518,0,0.828,0.235,0.828,0.764c0,1.163-1.415,1.258-1.415,3.08h1.484
		c0-1.412,1.761-1.623,1.761-3.409c0-1.317-0.943-2.047-2.474-2.047c-1.621,0-2.6,0.988-2.623,2.67l1.53,0.011
		C7.429,5.729,7.751,5.39,8.326,5.39z"/>
	<path fill="#E65028" d="M20.455,14.472c0.519,0,0.829,0.235,0.829,0.764c0,1.164-1.415,1.257-1.415,3.079h1.484
		c0-1.41,1.76-1.623,1.76-3.408c0-1.317-0.943-2.046-2.473-2.046c-1.623,0-2.6,0.987-2.623,2.668l1.53,0.012
		C19.558,14.813,19.88,14.472,20.455,14.472z"/>
	<path fill="#E65028" d="M20.582,19.254c-0.564,0-0.955,0.4-0.955,0.976c0,0.588,0.391,0.99,0.955,0.99
		c0.563,0,0.966-0.401,0.966-0.99C21.548,19.655,21.146,19.254,20.582,19.254z"/>
	<path fill="#E65028" d="M27.125,11.877V24.63l-2.608-2.664H13.991v-9.704c0-0.099,0.041-0.195,0.114-0.271
		c0.073-0.074,0.167-0.114,0.264-0.114H27.125V9.96H16.884V3.302c0-0.612-0.236-1.19-0.663-1.626C15.796,1.24,15.231,1,14.63,1
		H1.875v1.917H14.63c0.099,0,0.192,0.041,0.264,0.115c0.074,0.074,0.114,0.171,0.114,0.27V9.96H14.37c-0.6,0-1.166,0.24-1.591,0.677
		c-0.427,0.436-0.662,1.014-0.662,1.625v0.745H4.483L1.875,15.67V2.917H0v12.79h1.875l1.305,1.333l2.083-2.122l6.853,0.004v7.044
		h1.87v1.917l9.75-0.005L25.82,26l1.305-1.333H29v-12.79H27.125z"/>
</g>
</svg>
