<?xml version="1.0" encoding="utf-8"?>
<!-- Generator: Adobe Illustrator 16.0.0, SVG Export Plug-In . SVG Version: 6.00 Build 0)  -->
<!DOCTYPE svg PUBLIC "-//W3C//DTD SVG 1.1//EN" "http://www.w3.org/Graphics/SVG/1.1/DTD/svg11.dtd">
<svg version="1.1" id="Layer_1" xmlns="http://www.w3.org/2000/svg" xmlns:xlink="http://www.w3.org/1999/xlink" x="0px" y="0px"
	 width="29px" height="28px" viewBox="0 0 29 28" enable-background="new 0 0 29 28" xml:space="preserve">
<g>
	<g>
		<path fill="#E65028" d="M20.952,5.189c-0.024-0.036-0.052-0.071-0.085-0.103C20.834,5.054,20.8,5.025,20.762,5
			c-0.259-0.169-0.614-0.142-0.842,0.086L17.817,7.19l-3.565-1.022l-1.477,1.476l3.563,1.022l-2.048,2.047l-0.931-0.268
			l-0.797,0.797l1.666,0.479l0.479,1.665l0.797-0.797l-0.268-0.929l2.048-2.047l1.024,3.562l1.477-1.477l-1.024-3.561l2.106-2.104
			C21.095,5.804,21.123,5.45,20.952,5.189z"/>
	</g>
	<g>
		<polygon fill="#E65028" points="7.101,3.219 22.738,3.219 22.738,1 7.101,1 7.101,3.219 4.882,3.219 4.882,6.27 7.101,6.27 		"/>
	</g>
	<g>
		<rect x="4.882" y="21.794" fill="#E65028" width="2.219" height="3.05"/>
	</g>
	<g>
		<polygon fill="#E65028" points="22.763,3 22.763,24.755 7,24.755 7,27 22.763,27 22.763,24.755 25,24.755 25,3 		"/>
	</g>
	<g>
		<rect x="3" y="8.487" fill="#E65028" width="5.744" height="2.218"/>
	</g>
	<g>
		<rect x="3" y="17.359" fill="#E65028" width="5.744" height="2.218"/>
	</g>
	<g>
		<rect x="3" y="12.922" fill="#E65028" width="5.744" height="2.219"/>
	</g>
</g>
</svg>
