<?xml version="1.0" encoding="utf-8"?>
<!-- Generator: Adobe Illustrator 16.0.0, SVG Export Plug-In . SVG Version: 6.00 Build 0)  -->
<!DOCTYPE svg PUBLIC "-//W3C//DTD SVG 1.1//EN" "http://www.w3.org/Graphics/SVG/1.1/DTD/svg11.dtd">
<svg version="1.1" id="Layer_1" xmlns="http://www.w3.org/2000/svg" xmlns:xlink="http://www.w3.org/1999/xlink" x="0px" y="0px"
	 width="29px" height="28px" viewBox="0 0 29 28" enable-background="new 0 0 29 28" xml:space="preserve">
<g>
	<polygon fill="#E65028" points="26.182,19.163 22.91,22.292 22.91,14.818 20.339,14.818 20.339,22.295 17.066,19.167 15.25,20.904 
		21.626,27 28,20.902 	"/>
	<rect x="6.731" y="7.612" fill="#E65028" width="5.828" height="1.764"/>
	<rect x="6.731" y="11.822" fill="#E65028" width="12.248" height="1.764"/>
	<rect x="6.731" y="14.322" fill="#E65028" width="12.248" height="1.765"/>
	<rect x="6.731" y="16.728" fill="#E65028" width="9.429" height="1.764"/>
	<rect x="3" y="3" fill="#E65028" width="2" height="21"/>
	<polygon fill="#E65028" points="15.49,6.205 17.722,6.205 17.722,4.184 19.866,6.245 17.765,6.245 17.765,8.389 20.943,8.389 
		20.943,13 21.21,13 22.902,13 23.174,13 23.174,8.065 23.172,8.065 23.172,6.245 17.722,1 15.49,1 5.174,1 5.174,3.145 
		15.49,3.145 	"/>
	<rect x="5" y="24" fill="#E65028" width="12" height="2"/>
</g>
</svg>
