<?xml version="1.0" encoding="utf-8"?>
<!-- Generator: Adobe Illustrator 16.0.0, SVG Export Plug-In . SVG Version: 6.00 Build 0)  -->
<!DOCTYPE svg PUBLIC "-//W3C//DTD SVG 1.1//EN" "http://www.w3.org/Graphics/SVG/1.1/DTD/svg11.dtd">
<svg version="1.1" id="Layer_1" xmlns="http://www.w3.org/2000/svg" xmlns:xlink="http://www.w3.org/1999/xlink" x="0px" y="0px"
	 width="64px" height="64px" viewBox="0 0 64 64" enable-background="new 0 0 64 64" xml:space="preserve">
<g>
	<g>
		<g>
			<path fill="#231F20" d="M37.794,18.441l-9.183-1.366l-5.605,5.525c0,0-0.001,0.001-0.002,0.002
				c-2.062,2.032-2.757,4.075-1.601,6.717l3.139,7.174c0,0,0.777-0.228,1.523-0.962c0.109-0.108,0.217-0.226,0.321-0.354
				c1.328-1.466,1.019-4.49,0.916-5.531c-0.104-1.038-0.186-2.994-0.186-2.994c1.366-1.347,1.868-1.842,1.868-1.842l6.455,4.055
				c2.412,1.619,6.039,1.283,8.098-0.747c0.001-0.001,0.002-0.001,0.002-0.001c0.221-0.217,0.435-0.429,0.646-0.636l2.201,2.168
				l3.607,3.557c0.14-0.234,0.299-0.461,0.503-0.662l2.936-2.895L39.927,16.339L37.794,18.441z"/>
			<g>
				<path fill="#231F20" d="M18.79,41.806l-3.229,3.183c-0.485,0.478-0.485,1.258,0,1.735l1.761,1.736
					c0.485,0.478,1.277,0.478,1.762,0l3.229-3.184c0.969-0.955,0.969-2.517,0-3.471C21.344,40.85,19.758,40.85,18.79,41.806z"/>
				<path fill="#231F20" d="M12.917,38.332l-1.468,1.447c-0.485,0.477-0.485,1.259,0,1.736l1.761,1.735
					c0.485,0.478,1.278,0.478,1.763,0l1.468-1.445c0.968-0.956,0.968-2.52,0-3.474C15.471,37.377,13.886,37.377,12.917,38.332z"/>
				<path fill="#231F20" d="M24.661,45.276l-4.403,4.342c-0.485,0.478-0.485,1.259,0,1.735l1.761,1.736
					c0.485,0.478,1.277,0.478,1.761,0l4.404-4.34c0.969-0.956,0.969-2.518,0-3.474C27.215,44.321,25.629,44.321,24.661,45.276z"/>
				<path fill="#231F20" d="M31.119,55.115c0.97-0.955,0.97-2.517,0-3.472c-0.969-0.955-2.554-0.955-3.522,0l-2.055,2.026
					c-0.485,0.478-0.485,1.257,0,1.735l1.76,1.736c0.485,0.478,1.278,0.478,1.763,0L31.119,55.115z"/>
			</g>
		</g>
		<path fill="#231F20" d="M56.367,30.229L64,22.705L47.561,6.5l-7.634,7.524L56.367,30.229z M54.606,23.862l2.347-2.314l2.351,2.314
			l-2.351,2.315L54.606,23.862z"/>
	</g>
	<g>
		<path fill="#231F20" d="M44.156,29.768c-2.67,2.146-6.751,2.382-9.63,0.467l-5.309-3.338l-0.407,0.401
			c0.033,0.648,0.086,1.595,0.146,2.202c0.13,1.298,0.473,4.733-1.298,6.732c-0.13,0.158-0.27,0.313-0.418,0.456
			c-0.993,0.979-2.028,1.316-2.225,1.373l-1.413,0.413l-0.583-1.332l-3.141-7.175c-1.357-3.103-0.718-5.891,1.955-8.525l3.416-3.367
			L22.9,15.76L9.982,28.492l4.697,4.631c0.813,0.801,1.113,1.922,0.902,2.962c0.746,0.162,1.456,0.52,2.034,1.091
			c0.751,0.74,1.139,1.695,1.192,2.667c1.536-0.7,3.416-0.442,4.679,0.805c0.751,0.74,1.139,1.697,1.192,2.668
			c1.536-0.702,3.416-0.442,4.681,0.805c1.437,1.417,1.59,3.621,0.474,5.213c0.9,0.103,1.772,0.475,2.461,1.152
			c0.954,0.941,1.332,2.23,1.159,3.458l0.015,0.015c0.646,0.637,1.703,0.637,2.349,0l1.173-1.157c0.647-0.637,0.647-1.68,0-2.315
			l-1.173-1.157l1.173-1.157l1.763,1.735c0.646,0.637,1.702,0.638,2.348,0l1.175-1.156c0.645-0.637,0.645-1.68,0-2.314l-1.762-1.738
			l1.174-1.157l2.35,2.315c0.646,0.638,1.701,0.638,2.348,0l1.175-1.158c0.646-0.636,0.646-1.677,0-2.314l-2.349-2.315l1.174-1.157
			l2.35,2.314c0.645,0.638,1.702,0.638,2.347,0l1.175-1.157c0.54-0.532,0.622-1.344,0.259-1.969
			c-0.072-0.123-0.153-0.241-0.259-0.346L44.156,29.768z"/>
		<path fill="#231F20" d="M22.9,13.445L15.853,6.5L0,22.127l7.048,6.944L22.9,13.445z M5.871,24.441
			c-0.646-0.636-0.646-1.678,0-2.314c0.646-0.636,1.704-0.636,2.349,0c0.646,0.637,0.646,1.679,0,2.314
			C7.575,25.078,6.517,25.078,5.871,24.441z"/>
	</g>
</g>
</svg>
