<?xml version="1.0" encoding="utf-8"?>
<!-- Generator: Adobe Illustrator 16.0.0, SVG Export Plug-In . SVG Version: 6.00 Build 0)  -->
<!DOCTYPE svg PUBLIC "-//W3C//DTD SVG 1.1 Tiny//EN" "http://www.w3.org/Graphics/SVG/1.1/DTD/svg11-tiny.dtd">
<svg version="1.1" baseProfile="tiny" id="Layer_1" xmlns="http://www.w3.org/2000/svg" xmlns:xlink="http://www.w3.org/1999/xlink"
	 x="0px" y="0px" width="44px" height="64px" viewBox="0 0 44 64" xml:space="preserve">
<g>
	<path fill="#231F20" d="M42.17,36h-6.536l-8.807-6h2.667C30.527,30,31,28.919,31,27.887v-2.253c0-1.033-0.466-1.878-1.5-1.878
		S28,24.601,28,25.634V26h-4V1.878C24,0.845,23.032,0,22.001,0C20.968,0,20,0.845,20,1.878V26h-4v-0.366
		c0-1.033-0.966-1.878-2-1.878s-2,0.845-2,1.878v2.253C12,28.919,13.252,30,14.285,30h2.761l-8.807,6H1.704
		C0.67,36,0,36.899,0,37.932v24.317C0,63.283,0.67,64,1.704,64h40.372C43.109,64,44,63.283,44,62.249V37.932
		C44,36.899,43.203,36,42.17,36z M21.891,30.836L29.21,36H14.706L21.891,30.836z M40,60H3V40h5.458c0.243,0,0.496,0,0.745,0H40V60z"
		/>
	<path fill="#231F20" d="M23.204,44.223c-0.376-0.376-0.845-0.563-1.313-0.563c-0.47,0-0.939,0.187-1.316,0.563l-4.693,4.694
		c-0.751,0.751-0.751,1.878,0,2.629c0.752,0.751,1.871,0.751,2.623,0L20,50.045v4.6c0,1.033,0.968,1.878,2.001,1.878
		c1.031,0,1.999-0.845,1.999-1.878v-4.549l1.386,1.544c0.376,0.376,0.788,0.563,1.256,0.563s0.91-0.188,1.286-0.657
		c0.75-0.751,0.735-1.878-0.015-2.629L23.204,44.223z"/>
</g>
</svg>
