<?xml version="1.0" encoding="utf-8"?>
<!-- Generator: Adobe Illustrator 16.0.0, SVG Export Plug-In . SVG Version: 6.00 Build 0)  -->
<!DOCTYPE svg PUBLIC "-//W3C//DTD SVG 1.1//EN" "http://www.w3.org/Graphics/SVG/1.1/DTD/svg11.dtd">
<svg version="1.1" id="Layer_1" xmlns="http://www.w3.org/2000/svg" xmlns:xlink="http://www.w3.org/1999/xlink" x="0px" y="0px"
	 width="51px" height="51px" viewBox="0 0 51 51" enable-background="new 0 0 51 51" xml:space="preserve">
<g>
	<path fill="#231F20" d="M36.095,28.034l-1.02,1.037l2.132,0.623l0.613,2.168l1.021-1.037l-0.343-1.212l2.624-2.666l1.309,4.639
		l1.892-1.922l-1.311-4.641l2.696-2.74c0.292-0.297,0.328-0.759,0.11-1.094c-0.031-0.049-0.068-0.095-0.11-0.138
		c-0.041-0.043-0.087-0.079-0.133-0.11c-0.332-0.223-0.787-0.186-1.078,0.11L41.8,23.793l-4.563-1.334l-1.893,1.925l4.564,1.331
		l-2.623,2.665L36.095,28.034z"/>
	<polygon fill="#231F20" points="6.258,8.384 5.139,11.277 7.356,11.277 	"/>
	<path fill="#231F20" d="M0,3v13.562l0,0v2.448V48h2.431V18.9H14.35V48H25.5H51V19.01v-2.448v-1.107V3H0z M48.521,38.067H16.794
		L16.774,18.9h31.747V38.067z M42.863,6.408h6.019v1.564h-4.063v1.552h3.669v1.564h-3.669v1.573h4.185v1.564h-6.14V6.408z
		 M38.867,6.341c1.142,0,2.328,0.514,3.098,1.318l-1.132,1.362c-0.505-0.625-1.252-1.016-1.932-1.016
		c-1.22,0-2.143,0.982-2.143,2.267c0,1.308,0.923,2.3,2.143,2.3c0.647,0,1.393-0.356,1.932-0.915l1.144,1.227
		c-0.825,0.861-2.045,1.431-3.175,1.431c-2.318,0-4.043-1.731-4.043-4.021C34.757,8.039,36.527,6.341,38.867,6.341z M26.63,6.408
		h1.725l3.547,4.825V6.408h1.823v7.817h-1.724l-3.537-4.813v4.813H26.63V6.408z M19.228,6.408h6.019v1.564h-4.063v1.552h3.669v1.564
		h-3.669v1.573h4.184v1.564h-6.14V6.408z M14.804,6.341c1.142,0,2.35,0.447,3.141,1.162l-1.099,1.352
		c-0.56-0.526-1.339-0.85-2.054-0.85c-1.263,0-2.229,1.005-2.229,2.312c0,1.329,0.978,2.333,2.251,2.333
		c0.396,0,0.901-0.144,1.362-0.378v-2.022h1.693v3.05c-0.825,0.592-2.12,1.016-3.197,1.016c-2.34,0-4.109-1.721-4.109-3.998
		C10.563,8.05,12.375,6.341,14.804,6.341z M5.314,6.408h2.01l3.24,7.817H8.477l-0.549-1.441h-3.36l-0.562,1.441H1.997L5.314,6.408z"
		/>
</g>
</svg>
