<?xml version="1.0" encoding="utf-8"?>
<!-- Generator: Adobe Illustrator 16.0.0, SVG Export Plug-In . SVG Version: 6.00 Build 0)  -->
<!DOCTYPE svg PUBLIC "-//W3C//DTD SVG 1.1//EN" "http://www.w3.org/Graphics/SVG/1.1/DTD/svg11.dtd">
<svg version="1.1" id="Layer_1" xmlns="http://www.w3.org/2000/svg" xmlns:xlink="http://www.w3.org/1999/xlink" x="0px" y="0px"
	 width="57px" height="57px" viewBox="0 0 57 57" enable-background="new 0 0 57 57" xml:space="preserve">
<g id="Layer_1_1_">
	<g>
		<path fill="none" d="M23.675,6.845c0.097,0.251,0.337,0.394,0.533,0.318c0.198-0.077,0.276-0.342,0.179-0.592
			c-0.049-0.125,0.247-0.37,0.148-0.428c-0.096-0.058-0.585,0.075-0.685,0.112c-0.103,0.04-0.557,0.281-0.587,0.399
			C23.241,6.753,23.627,6.727,23.675,6.845z"/>
		<path fill="none" d="M6.458,6.838c0,0.51,0.418,0.922,0.93,0.922c0.513,0,0.931-0.414,0.931-0.922
			c0-0.255,0.885-0.486,0.718-0.652C8.867,6.018,7.643,5.917,7.386,5.917c-0.275,0-1.512,0.115-1.682,0.303
			C5.556,6.383,6.458,6.601,6.458,6.838z"/>
		<path fill="#F07D00" d="M14.761,24.488c0-0.948-0.02-2.538-0.872-3.894c-0.783-1.241-2.434-2.533-6.307-2.533
			c-5.257,0-7.61,2.168-7.61,5.834l0.009,9.876H4.29v-9.862c0-1.347,0.208-3.734,3.08-3.734c2.868,0,3.078,2.386,3.078,3.734
			l0.001,9.794h4.313L14.761,24.488L14.761,24.488z"/>
		<rect x="4.287" y="38.046" fill="#F07D00" width="6.162" height="18.454"/>
		<path fill="#F07D00" d="M3.535,10.617v2.458c0,2.213,1.318,3.644,3.799,3.644c2.516,0,3.801-1.4,3.801-3.644v-2.458
			c0-0.282-1.318-0.541-3.798-0.541C4.82,10.078,3.535,10.335,3.535,10.617z"/>
		<path fill="#F07D00" d="M7.292,8.812c2.399,0,3.935,0.353,3.935,0.353l2.347-2.682c0,0-1.679-1.552-6.182-1.552
			c-4.501,0-6.271,1.552-6.271,1.552l2.35,2.682C3.469,9.166,4.897,8.812,7.292,8.812z M5.706,6.221
			c0.169-0.188,1.408-0.303,1.682-0.303c0.257,0,1.48,0.1,1.648,0.268c0.169,0.167-0.717,0.397-0.717,0.652
			c0,0.51-0.419,0.922-0.932,0.922c-0.512,0-0.929-0.414-0.929-0.922C6.458,6.601,5.556,6.383,5.706,6.221z"/>
		<rect x="-0.011" y="36.846" fill="#F07D00" width="4.274" height="1.171"/>
		<rect x="-0.011" y="34.766" fill="#F07D00" width="4.274" height="1.063"/>
		<rect x="10.491" y="36.781" fill="#F07D00" width="4.274" height="1.169"/>
		<rect x="10.491" y="34.716" fill="#F07D00" width="4.274" height="1.065"/>
		<rect x="22.285" y="37.924" fill="#F07D00" width="6.159" height="18.453"/>
		<path fill="#F07D00" d="M21.609,11.191c-0.026,0.212-0.041,0.433-0.041,0.664v0.907c0,2.212,1.319,3.643,3.801,3.643
			c2.518,0,3.801-1.403,3.801-3.643v-0.907c0-1.66-0.74-2.881-2.158-3.387c0,0-1.191,0.214-2.952,1.086
			C22.298,10.43,21.609,11.191,21.609,11.191z"/>
		<path fill="#F07D00" d="M23.45,8.375c1.23-0.592,2.795-0.94,2.795-0.94s-1.855-2.222-2.073-2.241
			c-0.376-0.03-0.749,0.248-1.959,1.296c-0.894,0.775-1.16-0.224-1.903-0.004c-0.741,0.221,0.573,3.531,0.573,3.531
			S22.219,8.969,23.45,8.375z M23.851,6.252c0.1-0.037,0.589-0.169,0.685-0.112c0.099,0.057-0.197,0.303-0.148,0.428
			c0.098,0.25,0.02,0.515-0.179,0.591c-0.196,0.076-0.437-0.067-0.533-0.318c-0.047-0.118-0.434-0.09-0.411-0.192
			C23.294,6.534,23.749,6.292,23.851,6.252z"/>
		<polygon fill="#F07D00" points="31.891,28.536 31.896,28.533 28.853,18.493 21.791,18.493 18.746,28.533 18.754,28.536 
			18.779,28.568 15.989,37.91 20.503,37.91 22.067,32.412 22.069,32.416 25.135,21.627 25.318,21.627 25.325,21.627 25.508,21.627 
			28.576,32.416 28.577,32.416 30.139,37.91 34.656,37.91 31.863,28.568 		"/>
		<path fill="#F07D00" d="M56.699,1.24c-0.062-0.091-0.135-0.179-0.215-0.26c-0.082-0.08-0.166-0.149-0.26-0.208
			c-0.648-0.422-1.529-0.353-2.096,0.208l-5.246,5.202l-8.877-2.528l-3.682,3.65l8.879,2.526l-5.104,5.06l-2.314-0.66l-1.99,1.968
			l4.152,1.18l1.189,4.113l1.986-1.968l-0.668-2.299l5.104-5.059l2.551,8.802l3.68-3.649l-2.549-8.8l5.244-5.2
			C57.055,2.755,57.123,1.88,56.699,1.24z"/>
	</g>
</g>
</svg>
