<?xml version="1.0" encoding="utf-8"?>
<!-- Generator: Adobe Illustrator 16.0.0, SVG Export Plug-In . SVG Version: 6.00 Build 0)  -->
<!DOCTYPE svg PUBLIC "-//W3C//DTD SVG 1.1//EN" "http://www.w3.org/Graphics/SVG/1.1/DTD/svg11.dtd">
<svg version="1.1" id="Layer_1" xmlns="http://www.w3.org/2000/svg" xmlns:xlink="http://www.w3.org/1999/xlink" x="0px" y="0px"
	 width="16px" height="28px" viewBox="0 0 16 28" enable-background="new 0 0 16 28" xml:space="preserve">
<g>
	<path fill="#F07D00" d="M12.419,0.021C12.286,0.007,12.149,0,12.012,0H7.05H3.988C1.785,0,0,1.802,0,4.026v4.853v15.096
		c0,2.085,1.569,3.799,3.581,4.005C3.714,27.993,3.851,28,3.988,28h5.192h2.831C14.214,28,16,26.198,16,23.975v-4.854V4.026
		C16,1.941,14.431,0.227,12.419,0.021z M5.897,2.117h4.206v0.747H5.897V2.117z M7.984,26.931c-0.69,0-1.251-0.547-1.251-1.222
		c0-0.673,0.561-1.22,1.251-1.22c0.69,0,1.25,0.547,1.25,1.22C9.234,26.383,8.674,26.931,7.984,26.931z M14.308,23.79H1.693V8.879
		l0,0v-4.63h12.614v14.872h0.001V23.79z"/>
	<rect x="8.983" y="12.477" fill="#F07D00" width="0.001" height="0"/>
	<polygon fill="#F07D00" points="7.407,12.095 7.407,12.094 7.406,12.094 	"/>
	<path fill="#F07D00" d="M9.776,14.835c0-0.014,0-0.027,0-0.04c0.134,0,0.263,0,0.394,0c0,0.129,0,0.255,0,0.384
		c0.134,0,0.263,0,0.396,0c0,0.13,0,0.256,0,0.384c0.266,0,0.528,0,0.794,0c0-0.13,0-0.256,0-0.387c0.133,0,0.263,0,0.396,0
		c0-0.13,0-0.256,0-0.387c0.264,0,0.525,0,0.791,0c0-0.128,0-0.255,0-0.384c0.132,0,0.262,0,0.392,0c0-0.129,0-0.255,0-0.386
		c-0.132,0-0.261,0-0.391,0c0-0.387,0-0.772,0-1.159c0.132,0,0.26,0,0.394,0c0-0.13,0-0.256,0-0.382c0.133,0,0.26,0,0.392,0
		c0,0.127,0,0.253,0,0.381c0.135,0,0.266,0,0.396,0c0-0.257,0-0.513,0-0.769c-0.264,0-0.525,0-0.792,0c0,0.128,0,0.254,0,0.382
		c-0.133,0-0.26,0-0.392,0c0-0.257,0-0.512,0-0.769c-0.135,0-0.264,0-0.396,0c0,0.258,0,0.514,0,0.774c0.132,0,0.261,0,0.39,0
		c0,0.127,0,0.253,0,0.38c-0.261,0-0.521,0-0.784,0c0-0.385,0-0.769,0-1.155c-0.267,0-0.53,0-0.792,0c0,0.258,0,0.513,0,0.772
		c0.131,0,0.261,0,0.39,0c0,0.131,0,0.257,0,0.382c-0.262,0-0.521,0-0.786,0c0-0.644,0-1.286,0-1.927c-0.136,0-0.265,0-0.399,0
		c0,0.127,0,0.254,0,0.38c-0.131,0-0.26,0-0.394,0c0-0.387,0-0.771,0-1.157c-0.134,0-0.262,0-0.392,0c0-0.257,0-0.51,0-0.77
		c0.047,0,0.095,0.002,0.143,0c0.082,0,0.165-0.002,0.246-0.003c0,0.129,0,0.258,0,0.388c0.271,0,0.532,0,0.794,0
		c0-0.388,0-0.772,0-1.156c-0.263,0-0.525,0-0.791,0c0,0.127,0,0.255,0,0.385C9.64,9,9.51,9,9.377,9c0,0.13,0,0.256,0,0.384
		c-0.016,0-0.029,0-0.042,0c-0.225,0-0.451,0-0.677,0c-0.022,0-0.045-0.001-0.067-0.002c0,0.129,0,0.257,0,0.387
		c-0.267,0-0.528,0-0.793,0c0-0.257,0-0.513,0-0.767c-0.133,0-0.263,0-0.396,0c0,0.514,0,1.026,0,1.538c-0.133,0-0.261,0-0.395,0
		c0-0.127,0-0.255,0-0.381c-0.134,0-0.261,0-0.392,0c0,0.13,0,0.257,0,0.388c0.131,0,0.26,0,0.394,0c0,0.388,0,0.771,0,1.16
		c0.134,0,0.263,0,0.395,0c0,0.096,0,0.188,0,0.28c0,0.035,0.002,0.073,0.004,0.108c0.09-0.001,0.182-0.002,0.272-0.003
		c0.039,0,0.077,0,0.121,0c0,0.13,0,0.257,0,0.384c0.132,0,0.261,0,0.394,0c0-0.257,0-0.512,0-0.768c0.134,0,0.263,0,0.396,0
		c0,0.13,0,0.255,0,0.385c0.133,0,0.262,0,0.395,0c0,0.13,0,0.258,0,0.385c0.13,0,0.259,0,0.394,0c0-0.386,0-0.77,0-1.156
		c0.134,0,0.262,0,0.395,0c0,0.125,0,0.253,0,0.382c0.133,0,0.262,0,0.394,0c0,0.388,0,0.771,0,1.157c-0.13,0-0.259,0-0.39,0
		c0,0.13,0,0.257,0,0.387c0.128,0,0.258,0,0.388,0c0.002,0.008,0.004,0.015,0.004,0.015c0.001,0.122,0.001,0.237,0,0.354
		c0,0.007-0.002,0.013-0.004,0.021c-0.089,0-0.179-0.002-0.269-0.002c-0.17-0.001-0.341,0-0.516,0c0,0.127,0,0.255,0,0.386
		c-0.135,0-0.265,0-0.396,0c0,0.127,0,0.255,0,0.388c0.135,0,0.263,0,0.393,0c0,0.129,0,0.255,0,0.38c-0.396,0-0.789,0-1.186,0
		c0-0.128,0-0.255,0-0.383c-0.133,0-0.261,0-0.393,0c0-0.129,0-0.257,0-0.384c-0.13,0-0.261,0-0.396,0c0,0.386,0,0.768,0,1.154
		c-0.134,0-0.263,0-0.397,0c0-0.258,0-0.513,0-0.767c-0.134,0-0.263,0-0.396,0c0,0.257,0,0.512,0,0.77c-0.065,0-0.126,0-0.188,0
		c-0.067-0.002-0.134-0.003-0.2-0.004L6.217,15.18c0,0.129,0,0.255,0.002,0.381c-0.01,0.002-0.019,0.002-0.028,0.002
		c-0.245,0-0.489,0-0.734,0c-0.009,0-0.017,0-0.029,0c0-0.13,0-0.256,0-0.387c-0.134,0-0.262,0-0.396,0c0-0.129,0-0.256,0-0.387
		c-0.134,0-0.263,0-0.393,0c0-0.129,0-0.256,0-0.384c0.132,0,0.262,0,0.395,0c0-0.13,0-0.257,0-0.387c0.133,0,0.262,0,0.395,0
		c0-0.129,0-0.255,0-0.382c0.131,0,0.26,0,0.394,0c0,0.128,0,0.255,0,0.38c0.267,0,0.528,0,0.789,0c0-0.771,0-1.541,0-2.316
		c-0.13,0-0.26,0-0.391,0c0-0.128,0-0.254,0-0.382c0.131,0,0.261,0,0.391,0c0-0.132,0-0.259,0-0.391c-0.13,0-0.261,0-0.394,0
		c0-0.13,0-0.256,0-0.383c-0.264,0-0.526,0-0.79,0c0,0.388,0,0.772,0,1.161c0.131,0,0.26,0,0.391,0c0,0.128,0,0.253,0,0.383
		c-0.131,0-0.26,0-0.395,0c0,0.26,0,0.515,0,0.771c-0.131,0-0.259,0-0.392,0c0-0.128,0-0.255,0-0.385c-0.134,0-0.262,0-0.393,0
		c0-0.129,0-0.254,0-0.384c0.132,0,0.261,0,0.392,0c0-0.131,0-0.257,0-0.386c-0.132,0-0.262,0-0.397,0c0,0.128,0,0.254,0,0.384
		c-0.265,0-0.526,0-0.792,0c0,0.131,0,0.257,0,0.384c-0.133,0-0.26,0-0.394,0c0-0.258,0-0.513,0-0.768c-0.266,0-0.528,0-0.789,0
		c0,0.258,0,0.514,0,0.774c0.263,0,0.524,0,0.789,0c0,0.129,0,0.255,0,0.381c0.134,0,0.263,0,0.398,0c0-0.128,0-0.255,0-0.38
		c0.265,0,0.525,0,0.789,0c0,0.129,0,0.255,0,0.382c0.132,0,0.261,0,0.391,0c0,0.13,0,0.256,0,0.382c-0.79,0-1.577,0-2.368,0
		c0-0.127,0-0.253,0-0.381c-0.132,0-0.263,0-0.394,0c0,0.386,0,0.771,0,1.156c0.263,0,0.524,0,0.792,0c0-0.128,0-0.255,0-0.382
		c0.132,0,0.26,0,0.393,0c0,0.128,0,0.254,0,0.384c0.396,0,0.79,0,1.183,0c0,0.13,0,0.257,0,0.387c-0.396,0-0.788,0-1.182,0
		c0,0.129,0,0.256,0,0.386c0.396,0,0.789,0,1.186,0c0,0.131,0,0.256,0,0.386c0.132,0,0.261,0,0.392,0c0,0.128,0,0.256,0,0.384
		c-0.262,0-0.522,0-0.786,0c0-0.13,0-0.256,0-0.383c-0.135,0-0.264,0-0.399,0c0,0.127,0,0.255,0,0.383c-0.133,0-0.26,0-0.393,0
		c0-0.13,0-0.257,0-0.385c-0.135,0-0.266,0-0.398,0c0,0.255,0,0.512,0,0.772c-0.266,0-0.525,0-0.788,0c0,0.131,0,0.256,0,0.387
		c0.263,0,0.524,0,0.79,0c0,0.13,0,0.256,0,0.385c0.132,0,0.263,0,0.398,0c0-0.258,0-0.511,0-0.769c0.264,0,0.524,0,0.784,0
		c0,0.128,0,0.253,0,0.383c-0.13,0-0.259,0-0.39,0c0,0.13,0,0.257,0,0.388c0.526,0,1.051,0,1.581,0c0,0.131,0,0.258,0,0.387
		c0.266,0,0.526,0,0.788,0c0,0.13,0,0.254,0,0.384c-0.132,0-0.26,0-0.394,0c0,0.388,0,0.77,0,1.158c-0.134,0-0.262,0-0.392,0
		c0,0.261,0,0.517,0,0.777c0.132,0,0.261,0,0.395,0c0,0.128,0,0.256,0,0.382c0.531,0,1.055,0,1.583,0c0-0.257,0-0.511,0-0.767
		c0.131,0,0.262,0,0.396,0c0,0.129,0,0.255,0,0.384c0.085,0,0.167-0.002,0.249,0c0.047,0,0.093,0.002,0.141,0.003
		c0.001-0.092,0.003-0.184,0.004-0.276c0-0.038,0-0.074,0-0.115c0.134,0,0.263,0,0.393,0c0-0.13,0-0.257,0-0.389
		c-0.132,0-0.261,0-0.392,0c0-0.258,0-0.511,0-0.768c0.133,0,0.262,0,0.395,0c0-0.26,0-0.513,0-0.772c0.264,0,0.526,0,0.788,0
		c0-0.132,0-0.261,0-0.39c-0.134,0-0.261,0-0.391,0c0-0.516,0-1.027,0-1.54c0.133,0,0.261,0,0.394,0c0,0.13,0,0.256,0,0.382
		c0.133,0,0.263,0,0.393,0c0.001-0.014,0.002-0.028,0.002-0.042C9.776,15.292,9.776,15.063,9.776,14.835z M11.75,14.789
		c-0.129,0-0.257,0-0.389,0c0-0.126,0-0.252,0-0.38c0.13,0,0.257,0,0.389,0C11.75,14.535,11.75,14.661,11.75,14.789z M11.36,13.636
		c0.13,0,0.26,0,0.393,0c0-0.132,0-0.256,0-0.385c0.13,0,0.259,0,0.391,0c0,0.383,0,0.767,0,1.152c-0.13,0-0.258,0-0.389,0
		c0-0.126,0-0.252,0-0.383c-0.133,0-0.263,0-0.395,0C11.36,13.89,11.36,13.766,11.36,13.636z M9.775,9.13
		c0.001-0.041,0.001-0.083,0.001-0.126c0.13,0,0.259,0,0.391,0c0,0.125,0,0.25,0,0.378c-0.13,0-0.262,0-0.395,0
		C9.774,9.299,9.775,9.214,9.775,9.13z M7.796,11.313c-0.13,0-0.259,0-0.391,0c0-0.254,0-0.507,0-0.764c0.13,0,0.26,0,0.391,0
		C7.796,10.803,7.796,11.057,7.796,11.313z M8.587,11.313c-0.131,0-0.259,0-0.391,0c0-0.383,0-0.767,0-1.15c0.131,0,0.259,0,0.391,0
		C8.587,10.545,8.587,10.928,8.587,11.313z M8.981,11.7c-0.131,0-0.259,0-0.39,0c0-0.126,0-0.252,0-0.38c0.129,0,0.259,0,0.39,0
		C8.981,11.446,8.981,11.572,8.981,11.7z M8.981,10.155c-0.129,0-0.258,0-0.39,0c0-0.126,0-0.252,0-0.379c0.129,0,0.258,0,0.39,0
		C8.981,9.903,8.981,10.028,8.981,10.155z M8.988,10.161c0.129,0,0.258,0,0.389,0c0,0.127,0,0.253,0,0.379c-0.131,0-0.259,0-0.389,0
		C8.988,10.414,8.988,10.29,8.988,10.161z M9.377,11.313c-0.131,0-0.258,0-0.39,0c0-0.126,0-0.251,0-0.379c0.129,0,0.258,0,0.39,0
		C9.377,11.062,9.377,11.186,9.377,11.313z M10.958,15.175c-0.128,0-0.256,0-0.387,0c0-0.126,0-0.252,0-0.382
		c0.129,0,0.256,0,0.387,0C10.958,14.923,10.958,15.049,10.958,15.175z M10.286,13.634c0.21,0,0.42,0,0.629,0
		c0.013,0,0.026,0,0.044,0c0,0.127,0,0.255,0,0.385c0.135,0,0.263,0,0.395,0c0,0.13,0,0.256,0,0.384c-0.26,0-0.521,0-0.786,0
		c0-0.126,0-0.253,0-0.383c-0.133,0-0.261,0-0.394,0c-0.001-0.015-0.002-0.027-0.002-0.04c-0.001-0.103,0-0.204-0.001-0.307
		c0-0.013-0.003-0.025-0.004-0.037C10.207,13.636,10.247,13.634,10.286,13.634z M5.826,10.934c0.127,0,0.256,0,0.388,0
		c0,0.125,0,0.252,0,0.379c-0.13,0-0.257,0-0.388,0C5.826,11.188,5.826,11.063,5.826,10.934z M5.825,12.865c0.129,0,0.257,0,0.39,0
		c0,0.126,0,0.252,0,0.382c-0.133,0-0.26,0-0.39,0C5.825,13.118,5.825,12.993,5.825,12.865z M5.034,13.25c0.129,0,0.257,0,0.388,0
		c0,0.127,0,0.253,0,0.38c-0.129,0-0.257,0-0.388,0C5.034,13.503,5.034,13.378,5.034,13.25z M4.64,13.636c0.128,0,0.257,0,0.387,0
		c0,0.127,0,0.253,0,0.38c-0.129,0-0.256,0-0.387,0C4.64,13.891,4.64,13.765,4.64,13.636z M5.026,16.332c-0.129,0-0.256,0-0.388,0
		c0-0.126,0-0.251,0-0.379c0.129,0,0.258,0,0.388,0C5.026,16.08,5.026,16.205,5.026,16.332z M5.422,15.947c-0.129,0-0.257,0-0.388,0
		c0-0.127,0-0.253,0-0.38c0.129,0,0.257,0,0.388,0C5.422,15.693,5.422,15.819,5.422,15.947z M5.429,15.953c0.129,0,0.257,0,0.389,0
		c0.001,0.012,0.002,0.026,0.002,0.038c0,0.102,0,0.202,0,0.304c0,0.013,0.003,0.025,0.004,0.037c-0.131,0-0.262,0-0.395,0
		C5.429,16.206,5.429,16.081,5.429,15.953z M6.213,16.719c-0.128,0-0.256,0-0.388,0c0-0.128,0-0.257,0-0.385
		c0.032,0.001,0.064,0.003,0.098,0.003c0.096,0.001,0.192,0,0.291,0C6.213,16.465,6.213,16.591,6.213,16.719z M7.8,15.18
		c0.262,0,0.522,0,0.786,0c0,0.255,0,0.51,0,0.767c-0.13,0-0.258,0-0.391,0c0-0.127,0-0.253,0-0.382c-0.132,0-0.262,0-0.395,0
		C7.8,15.433,7.8,15.308,7.8,15.18z M7.406,15.953c0.129,0,0.258,0,0.393,0c0,0.127,0,0.253,0,0.379c-0.129,0-0.26,0-0.393,0
		C7.406,16.208,7.406,16.081,7.406,15.953z M6.551,15.564c0.018,0,0.036,0,0.057,0c0,0.128,0,0.254,0,0.382
		c-0.128,0-0.258,0-0.389,0c0-0.128,0-0.256,0-0.383C6.329,15.563,6.441,15.564,6.551,15.564z M7.4,18.652c-0.131,0-0.26,0-0.393,0
		c0,0.26,0,0.514,0,0.772c-0.265,0-0.524,0-0.789,0c0-0.127,0-0.255,0-0.385c-0.134,0-0.262,0-0.394,0c0-0.127,0-0.254,0-0.383
		c0.13,0,0.258,0,0.392,0c0-0.129,0-0.256,0-0.386c0.264,0,0.525,0,0.789,0c0-0.131,0-0.258,0-0.389c-0.129,0-0.258,0-0.39,0
		c0-0.129,0-0.254,0-0.383c0.261,0,0.521,0,0.785,0C7.4,17.882,7.4,18.265,7.4,18.652z M7.796,17.104c-0.523,0-1.049,0-1.575,0
		c0-0.125,0-0.249,0-0.379c0.13,0,0.259,0,0.391,0c0-0.129,0-0.253,0-0.383c0.132,0,0.262,0,0.396,0c0,0.125,0,0.251,0,0.382
		c0.264,0,0.525,0,0.789,0C7.796,16.853,7.796,16.977,7.796,17.104z M8.191,17.877c-0.128,0-0.258,0-0.391,0
		c0-0.129,0-0.251,0-0.379c0.13,0,0.259,0,0.391,0C8.191,17.623,8.191,17.749,8.191,17.877z M8.587,16.719c-0.262,0-0.523,0-0.787,0
		c0-0.129,0-0.257,0-0.384c0.014,0.001,0.028,0.002,0.041,0.002c0.233,0,0.466,0,0.7,0c0.014,0,0.028,0,0.045,0
		C8.587,16.466,8.587,16.591,8.587,16.719z"/>
	<polygon fill="#F07D00" points="8.191,19.431 8.19,19.431 8.19,19.431 	"/>
	<rect x="9.774" y="15.563" fill="#F07D00" width="0" height="0.001"/>
	<polygon fill="#F07D00" points="8.59,9.382 8.591,9.382 8.591,9.382 	"/>
	<polygon fill="#F07D00" points="6.222,15.174 6.222,15.174 6.222,15.174 	"/>
	<path fill="#F07D00" d="M13.729,18.652c-0.131,0-0.26,0-0.391,0c0-0.387,0-0.769,0-1.157c0.132,0,0.261,0,0.392,0
		c0-0.259,0-0.516,0-0.775c-0.132,0-0.262,0-0.393,0c0-0.26,0-0.516,0-0.771c-0.132,0-0.262,0-0.398,0c0-0.131,0-0.258,0-0.386
		c-0.133,0-0.262,0-0.395,0c0-0.13,0-0.257,0-0.383c-0.135,0-0.264,0-0.398,0c0,0.127,0,0.253,0,0.384c-0.132,0-0.263,0-0.393,0
		c0,0.13,0,0.258,0,0.387c0.132,0,0.261,0,0.391,0c0,0.13,0,0.255,0,0.381c-0.263,0-0.523,0-0.787,0c0-0.128,0-0.254,0-0.384
		c-0.396,0-0.79,0-1.187,0c0-0.13,0-0.255,0-0.385c-0.134,0-0.266,0-0.396,0c0,0.128,0,0.256,0,0.387c-0.135,0-0.265,0-0.393,0
		c0,0.131,0,0.256,0,0.387c0.132,0,0.261,0,0.394,0c0,0.131,0,0.258,0,0.388c0.132,0,0.261,0,0.392,0c0,0.259,0,0.512,0,0.77
		c-0.131,0-0.261,0-0.394,0c0,0.388,0,0.771,0,1.155c-0.133,0-0.261,0-0.395,0c0-0.387,0-0.771,0-1.154c-0.135,0-0.262,0-0.392,0
		c0,0.516,0,1.029,0,1.547c0.133,0,0.261,0,0.394,0c0,0.13,0,0.256,0,0.381c0.133,0,0.263,0,0.396,0c0-0.256,0-0.511,0-0.767
		c0.131,0,0.261,0,0.394,0c0,0.386,0,0.769,0,1.155c0.266,0,0.527,0,0.791,0c0-0.128,0-0.256,0-0.387c-0.13,0-0.259,0-0.39,0
		c0-0.128,0-0.255,0-0.383c0.13,0,0.258,0,0.392,0c0-0.259,0-0.514,0-0.771c0.133,0,0.262,0,0.394,0c0,0.258,0,0.511,0,0.771
		c0.264,0,0.526,0,0.787,0c0,0.128,0,0.255,0,0.383c-0.263,0-0.524,0-0.785,0c0,0.13,0,0.258,0,0.385c0.397,0,0.791,0,1.188,0
		c0-0.259,0-0.512,0-0.771c0.396,0,0.789,0,1.182,0C13.729,18.908,13.729,18.783,13.729,18.652z M10.562,18.649
		c-0.129,0-0.256,0-0.388,0c0-0.128,0-0.251,0-0.379c0.13,0,0.257,0,0.388,0C10.562,18.396,10.562,18.521,10.562,18.649z
		 M11.749,17.877c-0.393,0-0.785,0-1.179,0c0-0.384,0-0.765,0-1.15c0.393,0,0.784,0,1.179,0
		C11.749,17.111,11.749,17.492,11.749,17.877z M12.548,15.953c0.13,0,0.257,0,0.387,0c0,0.384,0,0.766,0,1.151
		c-0.128,0-0.256,0-0.387,0C12.548,16.722,12.548,16.34,12.548,15.953z M12.936,18.264c-0.014,0.001-0.026,0.002-0.04,0.002
		c-0.106,0-0.212,0.001-0.318-0.001c-0.03,0-0.037,0.01-0.037,0.038c0.001,0.229,0.001,0.459,0.001,0.688c0,0.014,0,0.027,0,0.045
		c-0.132,0-0.259,0-0.39,0c0-0.383,0-0.765,0-1.151c0.129,0,0.258,0,0.392,0c0-0.131,0-0.256,0-0.386c0.136,0,0.262,0,0.392,0
		C12.936,17.753,12.936,18.008,12.936,18.264z M13.331,17.491c-0.128,0-0.257,0-0.388,0c0-0.125,0-0.249,0-0.378
		c0.129,0,0.257,0,0.388,0C13.331,17.239,13.331,17.364,13.331,17.491z"/>
	<path fill="#F07D00" d="M5.03,8.615c-0.923,0-1.844,0-2.767,0c0,0.901,0,1.8,0,2.702c0.923,0,1.843,0,2.767,0
		C5.03,10.414,5.03,9.516,5.03,8.615z M4.63,10.926c-0.657,0-1.312,0-1.972,0c0-0.014,0-0.026,0-0.039c0-0.615,0-1.23-0.001-1.846
		C2.657,9.009,2.666,9,2.7,9C3.331,9.001,3.96,9,4.59,9c0.013,0,0.026,0,0.04,0C4.63,9.645,4.63,10.284,4.63,10.926z"/>
	<path fill="#F07D00" d="M2.264,19.811c0.922,0,1.843,0,2.767,0c0-0.901,0-1.799,0-2.702c-0.923,0-1.843,0-2.767,0
		C2.264,18.012,2.264,18.91,2.264,19.811z M2.658,17.539c0-0.014,0-0.025,0-0.04c0.66,0,1.315,0,1.972,0c0,0.642,0,1.282,0,1.927
		c-0.014,0-0.027,0-0.039,0c-0.631,0-1.261,0-1.891,0.001c-0.033,0-0.043-0.008-0.043-0.041C2.658,18.769,2.658,18.154,2.658,17.539
		z"/>
	<path fill="#F07D00" d="M6.217,9.771c0.134,0,0.264,0,0.396,0c0-0.26,0-0.516,0-0.773c-0.131,0-0.262,0-0.397,0
		c0-0.13,0-0.257,0-0.382c-0.134,0-0.263,0-0.393,0c0,0.257,0,0.512,0,0.772c0.132,0,0.26,0,0.394,0
		C6.217,9.518,6.217,9.643,6.217,9.771z"/>
	<rect x="13.337" y="15.948" fill="#F07D00" width="0" height="0.001"/>
	<path fill="#F07D00" d="M13.729,14.793c-0.264,0-0.525,0-0.788,0c0,0.13,0,0.256,0,0.386c0.131,0,0.26,0,0.393,0
		c0,0.017,0,0.032,0,0.046c0,0.227,0,0.454,0,0.682c0,0.014,0.002,0.027,0.003,0.041c0.13,0,0.261,0,0.392,0
		C13.729,15.561,13.729,15.178,13.729,14.793z"/>
	<polygon fill="#F07D00" points="6.222,15.174 6.222,15.173 6.222,15.173 	"/>
	<path fill="#F07D00" d="M6.217,14.446c0-0.013,0-0.025,0-0.039c-0.265,0-0.527,0-0.79,0c0,0.129,0,0.255,0,0.385
		c0.13,0,0.26,0,0.393,0c0,0.129,0,0.256,0,0.386c0.014,0,0.024,0,0.033,0c0.113,0,0.225,0.001,0.336,0
		c0.011,0,0.021-0.003,0.032-0.004c-0.002-0.013-0.005-0.026-0.005-0.039C6.217,14.906,6.217,14.676,6.217,14.446z"/>
	<rect x="3.049" y="15.177" fill="#F07D00" width="0.002" height="0"/>
	<path fill="#F07D00" d="M3.053,14.817c0-0.008-0.001-0.016-0.002-0.024c-0.264,0-0.525,0-0.788,0c0,0.257,0,0.512,0,0.77
		c0.131,0,0.261,0,0.396,0c0-0.129,0-0.256,0-0.387c0.133,0,0.262,0,0.391,0c0.002-0.008,0.003-0.015,0.003-0.022
		C3.053,15.042,3.053,14.93,3.053,14.817z"/>
	<path fill="#F07D00" d="M8.981,9c0-0.131,0-0.258,0-0.385c-0.263,0-0.524,0-0.787,0c0,0.258,0,0.513,0,0.769
		C8.203,9.385,8.21,9.386,8.216,9.386c0.117,0,0.233,0,0.351,0c0.007,0,0.015-0.003,0.023-0.006c0-0.125,0-0.25,0-0.38
		C8.722,9,8.852,9,8.981,9z"/>
	<polygon fill="#F07D00" points="8.59,9.382 8.591,9.38 8.59,9.38 	"/>
	<path fill="#F07D00" d="M8.984,13.249c-0.133,0-0.265,0-0.396,0c0,0.256,0,0.513,0,0.771c0.134,0,0.264,0,0.394,0
		c0.001-0.222,0.002-0.444,0.002-0.666C8.984,13.319,8.984,13.286,8.984,13.249z"/>
	<rect x="8.983" y="14.019" fill="#F07D00" width="0.001" height="0.002"/>
	<polygon fill="#F07D00" points="13.34,13.632 13.338,13.632 13.338,13.633 13.338,13.632 13.34,13.632 	"/>
	<path fill="#F07D00" d="M13.333,14.377c0,0.009,0.002,0.018,0.003,0.026c0.132,0,0.262,0,0.392,0c0-0.257,0-0.513,0-0.771
		c-0.132,0-0.261,0-0.389,0c-0.002,0.01-0.006,0.021-0.006,0.029C13.333,13.901,13.333,14.138,13.333,14.377z"/>
	<polygon fill="#F07D00" points="8.191,19.431 8.19,19.431 8.191,19.431 	"/>
	<path fill="#F07D00" d="M8.981,19.811c0-0.129,0-0.255,0-0.383c-0.007-0.002-0.013-0.003-0.019-0.003c-0.248,0-0.496,0-0.745,0
		c-0.009,0-0.018,0.004-0.027,0.006c0,0.126,0,0.253,0,0.38C8.459,19.811,8.72,19.811,8.981,19.811z"/>
	<path fill="#F07D00" d="M5.82,9.772c-0.131,0-0.261,0-0.393,0c0,0.128,0,0.256,0,0.385c0.132,0,0.262,0,0.393,0
		C5.82,10.028,5.82,9.901,5.82,9.772z"/>
	<path fill="#F07D00" d="M7.005,8.994c0-0.125,0-0.252,0-0.379c-0.131,0-0.261,0-0.391,0c0,0.128,0,0.256,0,0.383
		c0.127,0,0.256,0.001,0.386,0.001L7.005,8.994z"/>
	<polygon fill="#F07D00" points="6.615,8.998 6.613,8.998 6.613,8.998 6.613,8.998 6.615,8.998 	"/>
	<path fill="#F07D00" d="M13.335,19.811c0.135,0,0.265,0,0.394,0c0-0.129,0-0.255,0-0.382c-0.133,0-0.262,0-0.394,0
		C13.335,19.557,13.335,19.684,13.335,19.811z"/>
	<polygon fill="#F07D00" points="7.407,12.095 7.406,12.094 7.406,12.095 	"/>
	<path fill="#F07D00" d="M7.105,12.088c-0.031,0-0.063,0-0.096,0c0,0.131,0,0.257,0,0.386c0.132,0,0.261,0,0.394,0
		c0-0.034,0-0.066,0-0.097c0.001-0.094,0.002-0.188,0.003-0.282c-0.012-0.002-0.025-0.007-0.038-0.007
		C7.281,12.088,7.193,12.088,7.105,12.088z"/>
	<path fill="#F07D00" d="M8.983,12.477c-0.13,0-0.261,0-0.395,0c0,0.131,0,0.258,0,0.385c0.13,0,0.26,0,0.395,0
		C8.983,12.733,8.983,12.605,8.983,12.477z"/>
	<rect x="8.589" y="12.862" fill="#F07D00" width="0" height="0.001"/>
	<path fill="#F07D00" d="M8.196,12.863c0,0.129,0,0.257,0,0.385c0.133,0,0.262,0,0.393,0c0-0.127,0-0.256,0-0.385
		C8.457,12.863,8.328,12.863,8.196,12.863z"/>
	<rect x="8.588" y="13.248" fill="#F07D00" width="0.001" height="0"/>
	<path fill="#F07D00" d="M8.191,13.636c-0.132,0-0.26,0-0.391,0c0,0.129,0,0.257,0,0.384c0.13,0,0.261,0,0.391,0
		C8.191,13.889,8.191,13.762,8.191,13.636z"/>
	<polygon fill="#F07D00" points="7.8,14.021 7.799,14.021 7.799,14.021 7.799,14.021 7.8,14.021 	"/>
	<path fill="#F07D00" d="M12.941,13.25c0,0.129,0,0.255,0,0.383c0.134,0,0.265,0,0.397,0c0-0.128,0-0.254,0-0.383
		C13.202,13.25,13.071,13.25,12.941,13.25z"/>
	<path fill="#F07D00" d="M11.332,17.498c0.024,0,0.028-0.01,0.027-0.031c0-0.11,0-0.222,0-0.333c0-0.009-0.002-0.016-0.004-0.022
		c-0.133,0-0.261,0-0.392,0c0,0.129,0,0.255,0,0.383c0.007,0.002,0.013,0.003,0.018,0.003
		C11.098,17.497,11.215,17.497,11.332,17.498z"/>
	<path fill="#F07D00" d="M4.239,9.386c-0.397,0-0.79,0-1.186,0c0,0.387,0,0.772,0,1.159c0.015,0,0.027,0.001,0.039,0.001
		c0.369,0,0.738,0,1.107,0.001c0.034,0,0.042-0.009,0.042-0.041c-0.001-0.361,0-0.721,0-1.082C4.242,9.412,4.241,9.399,4.239,9.386z
		"/>
	<path fill="#F07D00" d="M4.242,19.011c0-0.366-0.001-0.733,0-1.098c0-0.032-0.014-0.033-0.04-0.033c-0.37,0-0.74,0-1.11,0
		c-0.013,0-0.025,0.001-0.039,0.002c0,0.387,0,0.77,0,1.157c0.398,0,0.792,0,1.187,0C4.241,19.029,4.242,19.019,4.242,19.011z"/>
	<path fill="#F07D00" d="M13.728,8.616c-0.923,0-1.845,0-2.765,0c0,0.901,0,1.799,0,2.699c0.924,0,1.845,0,2.765,0
		C13.728,10.414,13.728,9.514,13.728,8.616z M13.333,10.888c0,0.012,0,0.023,0,0.037c-0.658,0-1.313,0-1.973,0
		c0-0.642,0-1.28,0-1.926c0.014,0,0.026,0,0.039,0c0.632,0,1.263,0.002,1.894,0c0.034,0,0.042,0.011,0.042,0.042
		C13.333,9.658,13.333,10.272,13.333,10.888z"/>
	<path fill="#F07D00" d="M11.751,9.417c0,0.366,0,0.73-0.001,1.096c-0.001,0.031,0.012,0.034,0.038,0.034
		c0.372-0.001,0.743-0.001,1.115-0.001c0.011,0,0.021-0.001,0.034-0.001c0-0.388,0-0.774,0-1.159c-0.397,0-0.79,0-1.185,0
		C11.752,9.398,11.751,9.408,11.751,9.417z"/>
</g>
</svg>
