<?xml version="1.0" encoding="utf-8"?>
<!-- Generator: Adobe Illustrator 16.0.0, SVG Export Plug-In . SVG Version: 6.00 Build 0)  -->
<!DOCTYPE svg PUBLIC "-//W3C//DTD SVG 1.1 Tiny//EN" "http://www.w3.org/Graphics/SVG/1.1/DTD/svg11-tiny.dtd">
<svg version="1.1" baseProfile="tiny" id="Layer_1" xmlns="http://www.w3.org/2000/svg" xmlns:xlink="http://www.w3.org/1999/xlink"
	 x="0px" y="0px" width="13px" height="21px" viewBox="0 0 13 21" xml:space="preserve">
<g>
	<path fill="#231F20" d="M0,6.704C0.057,2.48,2.551,0,6.69,0C10.593,0,13,1.83,13,5.139c0,4.49-4.49,5.021-4.49,8.566H4.724
		c0-4.58,3.611-4.815,3.611-7.74c0-1.328-0.793-1.919-2.115-1.919c-1.467,0-2.286,0.857-2.318,2.687L0,6.704z M9.009,18.519
		C9.009,19.995,7.982,21,6.546,21c-1.438,0-2.438-1.005-2.438-2.481c0-1.447,1-2.45,2.438-2.45
		C7.982,16.069,9.009,17.072,9.009,18.519z"/>
</g>
</svg>
