<?xml version="1.0" encoding="utf-8"?>
<!-- Generator: Adobe Illustrator 16.0.0, SVG Export Plug-In . SVG Version: 6.00 Build 0)  -->
<!DOCTYPE svg PUBLIC "-//W3C//DTD SVG 1.1//EN" "http://www.w3.org/Graphics/SVG/1.1/DTD/svg11.dtd">
<svg version="1.1" id="Layer_1" xmlns="http://www.w3.org/2000/svg" xmlns:xlink="http://www.w3.org/1999/xlink" x="0px" y="0px"
	 width="23px" height="23px" viewBox="0 0 23 23" enable-background="new 0 0 23 23" xml:space="preserve">
<g>
	<path d="M21.585,0.876c-0.854-0.074-1.607,0.541-1.683,1.373l-0.075,0.823C17.638,1.089,14.807,0,11.8,0C5.293,0,0,5.159,0,11.5
		C0,17.841,5.293,23,11.8,23c4.496,0,8.54-2.435,10.554-6.355c0.385-0.747,0.074-1.655-0.692-2.03
		c-0.766-0.374-1.698-0.072-2.083,0.676c-1.485,2.889-4.466,4.684-7.779,4.684c-4.795,0-8.697-3.803-8.697-8.476
		c0-4.673,3.902-8.474,8.697-8.474c2.238,0,4.343,0.818,5.963,2.31l-1.248-0.108c-0.851-0.076-1.608,0.542-1.684,1.373
		c-0.076,0.833,0.554,1.566,1.408,1.641l4.639,0.403c0.045,0.002,0.091,0.005,0.137,0.005c0.363,0,0.716-0.125,0.996-0.354
		c0.316-0.255,0.514-0.625,0.55-1.025l0.433-4.751C23.069,1.685,22.439,0.95,21.585,0.876z"/>
</g>
</svg>
