<?xml version="1.0" encoding="utf-8"?>
<!-- Generator: Adobe Illustrator 16.0.0, SVG Export Plug-In . SVG Version: 6.00 Build 0)  -->
<!DOCTYPE svg PUBLIC "-//W3C//DTD SVG 1.1 Tiny//EN" "http://www.w3.org/Graphics/SVG/1.1/DTD/svg11-tiny.dtd">
<svg version="1.1" baseProfile="tiny" id="Layer_1" xmlns="http://www.w3.org/2000/svg" xmlns:xlink="http://www.w3.org/1999/xlink"
	 x="0px" y="0px" width="32px" height="33px" viewBox="0 0 32 33" xml:space="preserve">
<path d="M32,30.084l-9.223-9.456c1.554-2.151,2.484-4.803,2.484-7.679C25.261,5.809,19.595,0,12.631,0C5.666,0,0,5.809,0,12.949
	s5.666,12.949,12.631,12.949c2.709,0,5.216-0.887,7.275-2.382L29.156,33L32,30.084z M12.631,21.774
	c-4.747,0-8.608-3.959-8.608-8.825s3.862-8.825,8.608-8.825s8.608,3.959,8.608,8.825S17.377,21.774,12.631,21.774z"/>
</svg>
