<?xml version="1.0" encoding="utf-8"?>
<!-- Generator: Adobe Illustrator 16.0.0, SVG Export Plug-In . SVG Version: 6.00 Build 0)  -->
<!DOCTYPE svg PUBLIC "-//W3C//DTD SVG 1.1 Tiny//EN" "http://www.w3.org/Graphics/SVG/1.1/DTD/svg11-tiny.dtd">
<svg version="1.1" baseProfile="tiny" id="Layer_1" xmlns="http://www.w3.org/2000/svg" xmlns:xlink="http://www.w3.org/1999/xlink"
	 x="0px" y="0px" width="70px" height="93px" viewBox="0 0 70 93" xml:space="preserve">
<path fill="#231F20" d="M35.166,0C24.328,0,15.482,8.564,15.482,19.544H0v59.512C0,86.632,5.861,93,13.492,93H56.73
	C64.36,93,70,86.632,70,79.056V19.544H54.74C54.85,8.674,46.003,0,35.166,0z M18.246,31.841c-1.547,0-2.764-1.207-2.764-2.743
	c0-1.538,1.217-2.744,2.764-2.744c1.549,0,2.765,1.206,2.765,2.744C21.011,30.634,19.795,31.841,18.246,31.841z M21.011,19.544
	c0-7.795,6.303-14.054,14.154-14.054c7.741,0,14.155,6.259,14.155,14.054H21.011z M52.085,31.841c-1.548,0-2.764-1.207-2.764-2.743
	c0-1.538,1.216-2.744,2.764-2.744c1.549,0,2.765,1.206,2.765,2.744C54.85,30.634,53.634,31.841,52.085,31.841z"/>
</svg>
