<?xml version="1.0" encoding="utf-8"?>
<!-- Generator: Adobe Illustrator 16.0.0, SVG Export Plug-In . SVG Version: 6.00 Build 0)  -->
<!DOCTYPE svg PUBLIC "-//W3C//DTD SVG 1.1//EN" "http://www.w3.org/Graphics/SVG/1.1/DTD/svg11.dtd">
<svg version="1.1" id="Layer_1" xmlns="http://www.w3.org/2000/svg" xmlns:xlink="http://www.w3.org/1999/xlink" x="0px" y="0px"
	 width="34px" height="62px" viewBox="0 0 34 62" enable-background="new 0 0 34 62" xml:space="preserve">
<path fill="#F07D00" d="M26.393,0.046C26.105,0.016,25.818,0,25.523,0H14.98H8.474C3.793,0,0,3.991,0,8.914v10.745v33.426
	c0,4.616,3.335,8.413,7.609,8.869C7.893,61.984,8.182,62,8.474,62h11.038h6.014C30.207,62,34,58.009,34,53.085V42.34V8.914
	C34,4.299,30.666,0.502,26.393,0.046z M12.531,4.688h8.94v1.654h-8.94V4.688z M16.964,59.63c-1.467,0-2.656-1.208-2.656-2.7
	c0-1.494,1.189-2.703,2.656-2.703c1.467,0,2.657,1.209,2.657,2.703C19.621,58.422,18.432,59.63,16.964,59.63z M30.404,52.678H3.598
	V19.659H3.597V9.408h26.808V42.34h0.002v10.338H30.404z"/>
</svg>
