<?xml version="1.0" encoding="utf-8"?>
<!-- Generator: Adobe Illustrator 16.0.0, SVG Export Plug-In . SVG Version: 6.00 Build 0)  -->
<!DOCTYPE svg PUBLIC "-//W3C//DTD SVG 1.1//EN" "http://www.w3.org/Graphics/SVG/1.1/DTD/svg11.dtd">
<svg version="1.1" id="Layer_1" xmlns="http://www.w3.org/2000/svg" xmlns:xlink="http://www.w3.org/1999/xlink" x="0px" y="0px"
	 width="30px" height="26px" viewBox="0 0 30 26" enable-background="new 0 0 30 26" xml:space="preserve">
<g>
	<g>
		<path fill="#231F20" d="M29.549,6.313c-0.562-2.256-1.624-3.124-3.565-3.43C24.859,2.706,19.473,2.5,15.198,2.5h0.021
			c-4.273,0-9.676,0.206-10.803,0.384c-1.94,0.306-2.992,1.173-3.566,3.43c-0.185,0.749-0.451,4.916-0.451,6.522v0.342
			c0,1.582,0.267,5.737,0.451,6.498c0.574,2.274,1.625,3.146,3.566,3.453c1.127,0.154,6.529,0.371,10.803,0.371h-0.021
			c4.275,0,9.662-0.217,10.785-0.371c1.941-0.307,3.003-1.179,3.565-3.453C29.734,18.915,30,14.76,30,13.178v-0.342
			C30,11.23,29.734,7.063,29.549,6.313z M12.123,17.158V8.753l7.859,4.111L12.123,17.158z"/>
	</g>
</g>
</svg>
