<?xml version="1.0" encoding="utf-8"?>
<!-- Generator: Adobe Illustrator 16.0.0, SVG Export Plug-In . SVG Version: 6.00 Build 0)  -->
<!DOCTYPE svg PUBLIC "-//W3C//DTD SVG 1.1//EN" "http://www.w3.org/Graphics/SVG/1.1/DTD/svg11.dtd">
<svg version="1.1" id="Layer_1" xmlns="http://www.w3.org/2000/svg" xmlns:xlink="http://www.w3.org/1999/xlink" x="0px" y="0px"
	 width="31px" height="26px" viewBox="0 0 31 26" enable-background="new 0 0 31 26" xml:space="preserve">
<g>
	<g id="G_x2B__1_">
		<g>
			<path d="M9.711,10.914v4.174h5.529c-0.823,2.213-2.939,3.799-5.414,3.799c-3.198,0-5.782-2.652-5.782-5.904
				c0-3.252,2.583-5.875,5.782-5.875c1.431,0,2.73,0.528,3.745,1.391l2.897-2.892C14.722,3.996,12.388,3,9.826,3
				C4.393,3,0,7.463,0,12.982S4.393,23,9.826,23c5.433,0,9.846-4.498,9.846-10.018c0-0.698-0.082-1.419-0.215-2.068H9.711z
				 M27.575,11.216v-3.46h-2.492v3.46h-3.425v2.542h3.425v3.469h2.492v-3.469H31v-2.542H27.575z"/>
		</g>
	</g>
</g>
</svg>
