<?xml version="1.0" encoding="utf-8"?>
<!-- Generator: Adobe Illustrator 16.0.0, SVG Export Plug-In . SVG Version: 6.00 Build 0)  -->
<!DOCTYPE svg PUBLIC "-//W3C//DTD SVG 1.1//EN" "http://www.w3.org/Graphics/SVG/1.1/DTD/svg11.dtd">
<svg version="1.1" id="Layer_1" xmlns="http://www.w3.org/2000/svg" xmlns:xlink="http://www.w3.org/1999/xlink" x="0px" y="0px"
	 width="25px" height="26px" viewBox="0 0 25 26" enable-background="new 0 0 25 26" xml:space="preserve">
<g>
	<g>
		<path d="M6.5,23.5V9.335H1.779V23.5H6.5L6.5,23.5z M4.134,7.394c1.65,0,2.663-1.104,2.663-2.464C6.765,3.536,5.784,2.5,4.167,2.5
			C2.549,2.5,1.5,3.536,1.5,4.93c0,1.36,1.016,2.464,2.598,2.464H4.134L4.134,7.394z"/>
		<path d="M9.102,23.5h4.716v-7.902c0-0.443,0.035-0.861,0.149-1.17c0.351-0.842,1.118-1.717,2.429-1.717
			c1.705,0,2.388,1.295,2.388,3.21V23.5H23.5v-8.133c0-4.344-2.331-6.387-5.432-6.387c-2.551,0-3.666,1.427-4.283,2.401h0.033V9.335
			H9.102C9.171,10.651,9.102,23.5,9.102,23.5L9.102,23.5z"/>
	</g>
</g>
</svg>
