<?xml version="1.0" encoding="utf-8"?>
<!-- Generator: Adobe Illustrator 16.0.0, SVG Export Plug-In . SVG Version: 6.00 Build 0)  -->
<!DOCTYPE svg PUBLIC "-//W3C//DTD SVG 1.1//EN" "http://www.w3.org/Graphics/SVG/1.1/DTD/svg11.dtd">
<svg version="1.1" id="Layer_1" xmlns="http://www.w3.org/2000/svg" xmlns:xlink="http://www.w3.org/1999/xlink" x="0px" y="0px"
	 width="26px" height="26px" viewBox="0 0 26 26" enable-background="new 0 0 26 26" xml:space="preserve">
<g>
	<path d="M19.503,0H6.5C2.908,0,0,2.912,0,6.467v13.064C0,23.09,2.908,26,6.5,26h13.003C23.091,26,26,23.09,26,19.531V6.467
		C26,2.912,23.091,0,19.503,0z M6.5,2.402h13.003c2.25,0,4.085,1.826,4.085,4.065V8.69h-6.884c-1.015-0.701-2.231-1.117-3.579-1.117
		c-1.326,0-2.564,0.416-3.559,1.117H2.41V6.467C2.41,4.228,4.246,2.402,6.5,2.402z M15.689,13.693c0,1.414-1.151,2.566-2.564,2.566
		c-1.408,0-2.564-1.152-2.564-2.566c0-1.379,1.156-2.536,2.564-2.536C14.538,11.157,15.689,12.314,15.689,13.693z M19.503,23.6H6.5
		c-2.254,0-4.09-1.828-4.09-4.067V11.09h5.128c-0.366,0.784-0.576,1.67-0.576,2.604c0,3.398,2.766,6.15,6.163,6.15
		c3.415,0,6.182-2.752,6.182-6.15c0-0.934-0.207-1.819-0.595-2.604h4.876v8.441C23.588,21.771,21.753,23.6,19.503,23.6z"/>
</g>
</svg>
