<?xml version="1.0" encoding="utf-8"?>
<!-- Generator: Adobe Illustrator 16.0.0, SVG Export Plug-In . SVG Version: 6.00 Build 0)  -->
<!DOCTYPE svg PUBLIC "-//W3C//DTD SVG 1.1//EN" "http://www.w3.org/Graphics/SVG/1.1/DTD/svg11.dtd">
<svg version="1.1" id="Layer_1" xmlns="http://www.w3.org/2000/svg" xmlns:xlink="http://www.w3.org/1999/xlink" x="0px" y="0px"
	 width="26px" height="26px" viewBox="0 0 26 26" enable-background="new 0 0 26 26" xml:space="preserve">
<g>
	<path d="M25,5.76c-0.896,0.377-1.846,0.619-2.826,0.742c1.003-0.602,1.79-1.54,2.162-2.645c-0.947,0.556-2.009,0.953-3.126,1.147
		C20.302,4.071,19.029,3.5,17.613,3.5c-2.725,0-4.917,2.15-4.917,4.792c0,0.373,0.025,0.75,0.118,1.105
		C8.719,9.182,5.103,7.269,2.674,4.39C2.252,5.083,2.01,5.9,2.01,6.788c0,1.672,0.86,3.148,2.182,4.004
		c-0.801-0.029-1.563-0.26-2.225-0.613c-0.003,0.022-0.003,0.042-0.003,0.067c0,2.326,1.703,4.271,3.942,4.709
		c-0.405,0.12-0.838,0.156-1.283,0.156c-0.326,0-0.639-0.019-0.926-0.067c0.619,1.899,2.429,3.269,4.586,3.304
		c-1.688,1.313-3.809,2.069-6.109,2.069c-0.39,0-0.796-0.024-1.174-0.071C3.184,21.703,5.769,22.5,8.544,22.5
		c9.062,0,14.011-7.316,14.011-13.646c0-0.211-0.006-0.408-0.019-0.633C23.499,7.565,24.336,6.725,25,5.76z"/>
</g>
</svg>
