<?xml version="1.0" encoding="utf-8"?>
<!-- Generator: Adobe Illustrator 16.0.0, SVG Export Plug-In . SVG Version: 6.00 Build 0)  -->
<!DOCTYPE svg PUBLIC "-//W3C//DTD SVG 1.1 Tiny//EN" "http://www.w3.org/Graphics/SVG/1.1/DTD/svg11-tiny.dtd">
<svg version="1.1" baseProfile="tiny" id="Layer_1" xmlns="http://www.w3.org/2000/svg" xmlns:xlink="http://www.w3.org/1999/xlink"
	 x="0px" y="0px" width="45px" height="42px" viewBox="0 0 45 42" xml:space="preserve">
<path fill="#231F20" d="M43.907,13.814H29.551c-0.422,0-0.841-0.249-1.005-0.662L23.509,0.681c-0.34-0.908-1.68-0.908-2.103,0
	L16.37,13.152c-0.167,0.413-0.583,0.662-1.005,0.662H1.095c-1.091,0-1.513,1.401-0.586,1.979l12.503,7.684
	c0.418,0.246,0.586,0.824,0.506,1.238L8.146,40.49c-0.334,1.072,0.924,1.9,1.763,1.155l11.836-10.406
	c0.418-0.331,1.006-0.331,1.423,0l12.177,10.489c0.837,0.743,2.18-0.166,1.76-1.155l-5.623-15.775c-0.168-0.497,0-0.995,0.416-1.321
	l12.591-7.6C45.415,15.299,44.998,13.814,43.907,13.814z"/>
</svg>
