<?xml version="1.0" encoding="utf-8"?>
<!-- Generator: Adobe Illustrator 16.0.0, SVG Export Plug-In . SVG Version: 6.00 Build 0)  -->
<!DOCTYPE svg PUBLIC "-//W3C//DTD SVG 1.1//EN" "http://www.w3.org/Graphics/SVG/1.1/DTD/svg11.dtd">
<svg version="1.1" id="Layer_1" xmlns="http://www.w3.org/2000/svg" xmlns:xlink="http://www.w3.org/1999/xlink" x="0px" y="0px"
	 width="35px" height="35px" viewBox="0 0 35 35" enable-background="new 0 0 35 35" xml:space="preserve">
<g>
	<path fill="#1D1D1B" d="M24.746,29.736H9.1v-18.64l0,0V5.312h15.646v9.453h2.1V5.031c0-2.606-1.947-4.749-4.441-5.006
		C22.238,0.009,22.07,0,21.899,0h-6.155h-3.797C9.214,0,7,2.253,7,5.031v6.065v18.871c0,2.605,1.947,4.748,4.441,5.007
		C11.607,34.991,11.776,35,11.947,35h6.44h3.512c2.731,0,4.947-2.253,4.947-5.032v-1.694h-2.1V29.736z M14.314,2.645h5.218v0.934
		h-5.218V2.645z M16.902,33.662c-0.855,0-1.55-0.683-1.55-1.526c0-0.842,0.695-1.524,1.55-1.524c0.856,0,1.551,0.682,1.551,1.524
		C18.453,32.979,17.758,33.662,16.902,33.662z"/>
	<path fill="#1D1D1B" d="M12.938,16.307l7.246,4.839c0.272,0.193,0.628,0.293,1.017,0.294c0.383-0.001,0.741-0.105,1.005-0.291
		l7.256-4.843c-0.14-0.066-0.289-0.112-0.452-0.122l-15.558-0.001C13.267,16.184,13.097,16.234,12.938,16.307z"/>
	<path fill="#1D1D1B" d="M29.911,17l-0.021,0.016l-7.256,4.845c-0.375,0.263-0.887,0.417-1.429,0.417h-0.005
		c-0.55,0-1.056-0.152-1.457-0.435l-7.231-4.828L12.488,17c-0.054,0.152-0.088,0.312-0.088,0.48v7.7
		c0,0.822,0.682,1.494,1.517,1.494h14.566c0.833,0,1.518-0.672,1.518-1.494v-7.7C30,17.312,29.964,17.152,29.911,17z M18.353,22.484
		l-4.36,3.214c-0.061,0.043-0.131,0.064-0.204,0.064c-0.106,0-0.205-0.047-0.269-0.133c-0.054-0.068-0.078-0.156-0.065-0.246
		c0.013-0.088,0.061-0.166,0.132-0.219l4.362-3.212c0.061-0.044,0.13-0.066,0.202-0.066c0.107,0,0.208,0.048,0.272,0.132
		c0.053,0.072,0.076,0.158,0.063,0.248C18.472,22.356,18.425,22.432,18.353,22.484z M28.958,25.623
		c-0.064,0.085-0.164,0.134-0.271,0.134c-0.071,0-0.142-0.021-0.201-0.064l-4.493-3.286c-0.148-0.11-0.179-0.318-0.07-0.464
		c0.065-0.085,0.163-0.136,0.271-0.136c0.073,0,0.143,0.023,0.202,0.066l4.492,3.286c0.073,0.055,0.12,0.133,0.133,0.221
		C29.034,25.464,29.012,25.552,28.958,25.623z"/>
</g>
</svg>
