<?xml version="1.0" encoding="utf-8"?>
<!-- Generator: Adobe Illustrator 16.0.0, SVG Export Plug-In . SVG Version: 6.00 Build 0)  -->
<!DOCTYPE svg PUBLIC "-//W3C//DTD SVG 1.1//EN" "http://www.w3.org/Graphics/SVG/1.1/DTD/svg11.dtd">
<svg version="1.1" id="Layer_1" xmlns="http://www.w3.org/2000/svg" xmlns:xlink="http://www.w3.org/1999/xlink" x="0px" y="0px"
	 width="35px" height="35px" viewBox="0 0 35 35" enable-background="new 0 0 35 35" xml:space="preserve">
<path fill="#000100" d="M26.129,4.023c0-0.564-0.459-1.021-1.024-1.023H9.894C9.33,3.002,8.871,3.459,8.871,4.023v2.885h17.259
	V4.023z M28.108,8.278H6.893C5.295,8.278,4,9.754,4,11.576v8.2c0,1.82,1.295,3.296,2.893,3.296h0.952v-2.888
	c0-1.128,0.918-2.042,2.049-2.042h15.211c1.131,0,2.048,0.914,2.049,2.042v2.888h0.954c1.598,0,2.892-1.477,2.892-3.296v-8.2
	C31,9.754,29.706,8.278,28.108,8.278z M24.039,12.361c-0.633,0-1.145-0.513-1.145-1.141c0-0.631,0.512-1.144,1.145-1.144
	c0.632,0,1.145,0.513,1.145,1.144C25.184,11.849,24.671,12.361,24.039,12.361z M27.97,12.361c-0.632,0-1.144-0.513-1.144-1.141
	c0-0.631,0.512-1.144,1.144-1.144c0.633,0,1.144,0.513,1.144,1.144C29.114,11.849,28.601,12.361,27.97,12.361z M23.557,27.473
	h-3.633c-0.049,0-0.098,0.019-0.132,0.054s-0.054,0.083-0.054,0.131v3.672h-8.292V20.291H9.77v11.875
	c0,0.219,0.09,0.436,0.246,0.589C10.17,32.91,10.387,33,10.607,33h9.482c0.22,0,0.436-0.09,0.592-0.244l4.303-4.282
	c0.159-0.161,0.246-0.37,0.246-0.593v-7.591h-1.674V27.473L23.557,27.473z"/>
</svg>
