<?xml version="1.0" encoding="utf-8"?>
<!-- Generator: Adobe Illustrator 16.0.0, SVG Export Plug-In . SVG Version: 6.00 Build 0)  -->
<!DOCTYPE svg PUBLIC "-//W3C//DTD SVG 1.1 Tiny//EN" "http://www.w3.org/Graphics/SVG/1.1/DTD/svg11-tiny.dtd">
<svg version="1.1" baseProfile="tiny" id="Layer_1" xmlns="http://www.w3.org/2000/svg" xmlns:xlink="http://www.w3.org/1999/xlink"
	 x="0px" y="0px" width="62px" height="36px" viewBox="0 0 62 36" xml:space="preserve">
<g>
	<path fill="#231F20" d="M54.623,0H7.375C3.308,0,0,2.971,0,6.625v22.749C0,33.027,3.308,36,7.375,36h47.247
		C58.692,36,62,33.027,62,29.374V6.625C62,2.971,58.69,0,54.623,0z M58.207,29.374c0,1.581-1.607,2.868-3.584,2.868H7.375
		c-1.976,0-3.583-1.287-3.583-2.868V6.625c0-1.581,1.607-2.866,3.583-2.866h47.247c1.978,0,3.586,1.285,3.586,2.866v22.749H58.207z"
		/>
	<rect x="16.852" y="19.617" fill="#231F20" width="3.793" height="3.234"/>
	<rect x="16.852" y="26.085" fill="#231F20" width="3.793" height="3.234"/>
	<rect x="16.852" y="6.677" fill="#231F20" width="3.793" height="3.236"/>
	<rect x="16.852" y="13.148" fill="#231F20" width="3.793" height="3.234"/>
	<path fill="#231F20" d="M45.76,11.081l-2.75,2.913l-8.725-2.588l-1.474,1.458c-0.16,0.161-0.16,0.42,0,0.58l7.074,3.858
		L36.33,20.89l-2.752-0.556l-0.917,0.909c-0.122,0.121-0.122,0.315,0,0.436l5.193,5.146c0.122,0.121,0.318,0.121,0.44,0l0.917-0.911
		l-0.575-2.775l3.605-3.523l3.92,7.059c0.162,0.158,0.423,0.158,0.583,0l1.474-1.459l-2.628-8.705l2.918-2.705
		c0.804-0.796,0.838-2.051,0.08-2.803C47.829,10.25,46.562,10.286,45.76,11.081z"/>
</g>
</svg>
