<?xml version="1.0" encoding="utf-8"?>
<!-- Generator: Adobe Illustrator 16.0.0, SVG Export Plug-In . SVG Version: 6.00 Build 0)  -->
<!DOCTYPE svg PUBLIC "-//W3C//DTD SVG 1.1//EN" "http://www.w3.org/Graphics/SVG/1.1/DTD/svg11.dtd">
<svg version="1.1" id="Layer_1" xmlns="http://www.w3.org/2000/svg" xmlns:xlink="http://www.w3.org/1999/xlink" x="0px" y="0px"
	 width="100px" height="18px" viewBox="0 0 100 18" enable-background="new 0 0 100 18" xml:space="preserve">
<g>
	<g>
		<path fill="#979797" d="M41.049,10.343c-0.13,0-0.26-0.05-0.35-0.151c-0.1-0.09-0.149-0.221-0.149-0.352s0.05-0.261,0.139-0.352
			c0.2-0.191,0.52-0.191,0.709-0.01c0.1,0.101,0.15,0.231,0.15,0.362s-0.05,0.261-0.15,0.352
			C41.309,10.292,41.179,10.343,41.049,10.343z"/>
		<path fill="#979797" d="M56.536,9.84c0-0.281,0.219-0.502,0.5-0.502l0,0c0.27,0,0.5,0.221,0.5,0.502l0,0
			c0,0.281-0.23,0.502-0.5,0.502l0,0C56.755,10.343,56.536,10.122,56.536,9.84z M52.539,9.84c0-0.281,0.22-0.502,0.5-0.502l0,0
			c0.28,0,0.5,0.221,0.5,0.502l0,0c0,0.281-0.22,0.502-0.5,0.502l0,0C52.759,10.343,52.539,10.122,52.539,9.84z M48.542,9.84
			c0-0.281,0.22-0.502,0.5-0.502l0,0c0.27,0,0.5,0.221,0.5,0.502l0,0c0,0.281-0.229,0.502-0.5,0.502l0,0
			C48.762,10.343,48.542,10.122,48.542,9.84z M44.546,9.84c0-0.281,0.23-0.502,0.5-0.502l0,0c0.279,0,0.5,0.221,0.5,0.502l0,0
			c0,0.281-0.22,0.502-0.5,0.502l0,0C44.776,10.343,44.546,10.122,44.546,9.84z"/>
		<path fill="#979797" d="M62.031,10.343c-0.13,0-0.26-0.05-0.35-0.151c-0.1-0.09-0.149-0.221-0.149-0.352s0.05-0.261,0.149-0.352
			c0.19-0.191,0.51-0.191,0.699-0.01c0.1,0.101,0.15,0.231,0.15,0.362s-0.05,0.261-0.14,0.352
			C62.29,10.292,62.16,10.343,62.031,10.343z"/>
		<g>
			<polygon fill="#979797" points="43.225,11 41.53,9.5 43.225,8 41.787,8 40.093,9.5 41.787,11 			"/>
		</g>
		<g>
			<polygon fill="#979797" points="59.726,11 61.421,9.5 59.726,8 61.164,8 62.858,9.5 61.164,11 			"/>
		</g>
	</g>
	<g>
		<path fill="#979797" d="M12.261,9.878L4.915,4.707l0.021-0.031l4.693-2.2l7.362,5.185l6.827-3.202
			c0.791-0.371,1.735-0.026,2.105,0.771c0.368,0.797,0.026,1.743-0.767,2.117L5.924,16.365l-0.032-0.068l-5.231-3.65l3.191-1.497
			l2.326,1.583L12.261,9.878z"/>
	</g>
	<g>
		<path fill="#979797" d="M86.974,8.887l-1.558-8.879L85.453,0l4.865,1.78l1.56,8.903l7.079,2.589
			c0.822,0.301,1.246,1.215,0.947,2.042c-0.3,0.828-1.207,1.252-2.032,0.952L77.931,8.967l0.025-0.072l-1.132-6.299l3.31,1.21
			l0.532,2.772L86.974,8.887z"/>
	</g>
	<g>
		<path fill="#979797" d="M84.616,13.053c0.161-0.443,0.652-0.675,1.097-0.511c0.444,0.161,0.673,0.655,0.511,1.102
			c-0.164,0.447-0.654,0.675-1.097,0.514C84.685,13.995,84.455,13.501,84.616,13.053"/>
	</g>
	<g>
		<path fill="#979797" d="M86.789,13.85c0.159-0.446,0.653-0.675,1.096-0.514c0.445,0.164,0.675,0.656,0.513,1.105
			c-0.163,0.444-0.653,0.675-1.097,0.514C86.855,14.791,86.628,14.297,86.789,13.85"/>
	</g>
	<g>
		<path fill="#979797" d="M0.052,16.845c0.16-0.444,0.652-0.677,1.095-0.513c0.445,0.162,0.674,0.656,0.513,1.103
			c-0.163,0.446-0.654,0.676-1.099,0.514C0.12,17.785-0.11,17.29,0.052,16.845"/>
	</g>
</g>
</svg>
