<?xml version="1.0" encoding="utf-8"?>
<!-- Generator: Adobe Illustrator 16.0.0, SVG Export Plug-In . SVG Version: 6.00 Build 0)  -->
<!DOCTYPE svg PUBLIC "-//W3C//DTD SVG 1.1 Tiny//EN" "http://www.w3.org/Graphics/SVG/1.1/DTD/svg11-tiny.dtd">
<svg version="1.1" baseProfile="tiny" id="Layer_1" xmlns="http://www.w3.org/2000/svg" xmlns:xlink="http://www.w3.org/1999/xlink"
	 x="0px" y="0px" width="46px" height="63px" viewBox="0 0 46 63" xml:space="preserve">
<g>
	<path fill="#231F20" d="M23.283,25.948c6.973,0,12.495-5.788,12.495-12.898C35.778,5.859,30.256,0,23.283,0
		c-7.119,0-12.849,5.792-12.849,13.05C10.435,20.161,16.165,25.948,23.283,25.948L23.283,25.948z M15.404,29.861
		C6.43,29.861,0,37.329,0,45.283c0,7.606,0,7.739,0,7.739C0.075,61.607,8.914,63,23.207,63C37.228,63,46,61.607,46,53.022
		c0,0,0-1.117,0-7.739c0-8.099-6.288-15.422-15.264-15.422H15.404z"/>
</g>
</svg>
