<?xml version="1.0" standalone="no"?>
<!DOCTYPE svg PUBLIC "-//W3C//DTD SVG 20010904//EN"
 "http://www.w3.org/TR/2001/REC-SVG-20010904/DTD/svg10.dtd">
<svg version="1.0" xmlns="http://www.w3.org/2000/svg"
 width="700.000000pt" height="700.000000pt" viewBox="0 0 700.000000 700.000000"
 preserveAspectRatio="xMidYMid meet">
<metadata>
Created by potrace 1.11, written by Peter Selinger 2001-2013
</metadata>
<g transform="translate(0.000000,700.000000) scale(0.100000,-0.100000)"
fill="#000000" stroke="none">
<path d="M1960 5265 l0 -1735 505 0 505 0 0 1735 0 1735 -505 0 -505 0 0
-1735z"/>
<path d="M3980 5265 l0 -1735 500 0 500 0 0 1735 0 1735 -500 0 -500 0 0
-1735z"/>
<path d="M6010 5205 l0 -1675 496 0 495 0 -4 1028 c-3 885 -6 1039 -19 1112
-26 136 -46 207 -94 332 -120 311 -344 579 -636 760 -73 45 -216 118 -232 118
-3 0 -6 -754 -6 -1675z"/>
<path d="M881 6839 c-127 -59 -290 -177 -416 -304 -263 -262 -412 -572 -455
-940 -6 -56 -10 -468 -10 -1077 l0 -988 475 0 475 0 0 1670 c0 919 -1 1670 -2
1669 -2 0 -32 -14 -67 -30z"/>
<path d="M952 1818 l3 -1693 65 -23 c217 -79 313 -94 653 -99 l287 -5 0 1756
0 1756 -505 0 -505 0 2 -1692z"/>
<path d="M2970 1755 l0 -1755 500 0 500 0 0 1755 0 1755 -500 0 -500 0 0
-1755z"/>
<path d="M4990 1754 l0 -1757 293 6 c180 4 325 12 377 21 101 17 236 51 291
73 l39 15 -2 1697 -3 1696 -497 3 -498 2 0 -1756z"/>
</g>
</svg>
