<?xml version="1.0" encoding="utf-8"?>
<!-- Generator: Adobe Illustrator 16.0.0, SVG Export Plug-In . SVG Version: 6.00 Build 0)  -->
<!DOCTYPE svg PUBLIC "-//W3C//DTD SVG 1.1//EN" "http://www.w3.org/Graphics/SVG/1.1/DTD/svg11.dtd">
<svg version="1.1" xmlns="http://www.w3.org/2000/svg" xmlns:xlink="http://www.w3.org/1999/xlink" x="0px" y="0px" width="85px"
	 height="85px" viewBox="0 0 85 85" enable-background="new 0 0 85 85" xml:space="preserve">
<g id="icones">
	<g>
		<polygon fill="#E65028" points="55.779,61.704 53.356,61.704 51.451,64.478 49.56,61.704 47.175,61.704 50.206,66.136 
			46.954,70.775 49.353,70.775 51.451,67.756 53.589,70.775 56.039,70.775 52.76,66.046 		"/>
		<polygon fill="#E65028" points="56.954,61.704 56.954,63.428 58.665,63.428 58.665,70.775 60.713,70.775 60.713,61.704 		"/>
		<polygon fill="#E65028" points="43.611,11.7 37.24,18.28 48.706,30.135 21.313,30.135 21.313,39.446 48.718,39.446 37.254,51.301 
			43.623,57.883 65.964,34.784 		"/>
		<polygon fill="#E65028" points="19.542,47.3 25.047,52.991 11.895,52.991 11.895,57.461 25.052,57.461 19.548,63.152 
			22.604,66.313 33.332,55.222 22.6,44.14 		"/>
	</g>
</g>
<g id="cercles">
	<path fill="#E65028" d="M42.5,5.997c20.129,0,36.503,16.375,36.503,36.503c0,20.127-16.374,36.502-36.503,36.502
		c-20.127,0-36.503-16.375-36.503-36.502C5.997,22.372,22.373,5.997,42.5,5.997 M42.5,0C19.028,0,0,19.027,0,42.5
		C0,65.971,19.028,85,42.5,85C65.973,85,85,65.971,85,42.5C85,19.027,65.973,0,42.5,0L42.5,0z"/>
</g>
</svg>
