<?xml version="1.0" encoding="utf-8"?>
<!-- Generator: Adobe Illustrator 16.0.0, SVG Export Plug-In . SVG Version: 6.00 Build 0)  -->
<!DOCTYPE svg PUBLIC "-//W3C//DTD SVG 1.1//EN" "http://www.w3.org/Graphics/SVG/1.1/DTD/svg11.dtd">
<svg version="1.1" xmlns="http://www.w3.org/2000/svg" xmlns:xlink="http://www.w3.org/1999/xlink" x="0px" y="0px" width="85px"
	 height="85px" viewBox="0 0 85 85" enable-background="new 0 0 85 85" xml:space="preserve">
<g id="icones">
	<g>
		<polygon fill="#F07D00" points="66.553,52.13 60.344,58.144 60.344,43.779 55.466,43.779 55.466,58.15 49.257,52.138 
			45.81,55.478 57.909,67.194 70,55.472 		"/>
		<rect x="29.648" y="29.929" fill="#F07D00" width="11.058" height="3.39"/>
		<rect x="29.648" y="38.021" fill="#F07D00" width="23.239" height="3.39"/>
		<rect x="29.648" y="42.828" fill="#F07D00" width="23.239" height="3.39"/>
		<rect x="29.648" y="47.45" fill="#F07D00" width="17.89" height="3.389"/>
		<rect x="22.57" y="21.35" fill="#F07D00" width="4.124" height="40.026"/>
		<polygon fill="#F07D00" points="45.762,27.242 49.886,27.242 49.886,23.353 53.851,27.321 49.966,27.321 49.966,31.449 
			55.843,31.449 55.843,40.329 56.337,40.329 59.463,40.329 59.967,40.329 59.967,30.826 59.962,30.826 59.962,27.321 
			49.886,17.221 45.762,17.221 26.694,17.221 26.694,21.35 45.762,21.35 		"/>
		<rect x="26.775" y="61.493" fill="#F07D00" width="21.994" height="4.129"/>
	</g>
</g>
<g id="cercles">
	<path fill="#F07D00" d="M42.5,5.997c20.129,0,36.503,16.375,36.503,36.503c0,20.127-16.374,36.502-36.503,36.502
		c-20.127,0-36.503-16.375-36.503-36.502C5.997,22.372,22.373,5.997,42.5,5.997 M42.5,0C19.028,0,0,19.027,0,42.5
		C0,65.971,19.028,85,42.5,85C65.973,85,85,65.971,85,42.5C85,19.027,65.973,0,42.5,0L42.5,0z"/>
</g>
</svg>
