<?xml version="1.0" encoding="utf-8"?>
<!-- Generator: Adobe Illustrator 16.0.0, SVG Export Plug-In . SVG Version: 6.00 Build 0)  -->
<!DOCTYPE svg PUBLIC "-//W3C//DTD SVG 1.1//EN" "http://www.w3.org/Graphics/SVG/1.1/DTD/svg11.dtd">
<svg version="1.1" xmlns="http://www.w3.org/2000/svg" xmlns:xlink="http://www.w3.org/1999/xlink" x="0px" y="0px" width="85px"
	 height="85px" viewBox="0 0 85 85" enable-background="new 0 0 85 85" xml:space="preserve">
<g id="icones">
	<g>
		<path fill="#E65028" d="M31.195,37.571c-1.064,0-1.803,0.74-1.803,1.808c0,1.089,0.738,1.83,1.803,1.83
			c1.063,0,1.822-0.741,1.822-1.83C33.018,38.311,32.258,37.571,31.195,37.571z"/>
		<path fill="#E65028" d="M30.956,28.707c0.977,0,1.563,0.437,1.563,1.416c0,2.156-2.671,2.331-2.671,5.706h2.801
			c0-2.613,3.323-3.005,3.323-6.315c0-2.439-1.78-3.79-4.669-3.79c-3.062,0-4.906,1.829-4.95,4.944l2.888,0.022
			C29.263,29.338,29.869,28.707,30.956,28.707z"/>
		<path fill="#E65028" d="M53.847,45.535c0.978,0,1.563,0.437,1.563,1.416c0,2.156-2.67,2.331-2.67,5.706h2.801
			c0-2.613,3.322-3.005,3.322-6.315c0-2.439-1.779-3.79-4.668-3.79c-3.062,0-4.907,1.829-4.951,4.944l2.888,0.022
			C52.154,46.166,52.762,45.535,53.847,45.535z"/>
		<path fill="#E65028" d="M54.087,54.399c-1.064,0-1.802,0.74-1.802,1.808c0,1.088,0.737,1.831,1.802,1.831
			c1.063,0,1.823-0.742,1.823-1.831C55.91,55.139,55.149,54.399,54.087,54.399z"/>
		<path fill="#E65028" d="M66.436,40.727v23.633l-4.921-4.938H41.648V41.441c0-0.184,0.076-0.362,0.214-0.5
			c0.138-0.138,0.315-0.214,0.499-0.214H66.436v-3.551H47.107V24.838c0-1.134-0.443-2.204-1.25-3.012
			c-0.804-0.809-1.871-1.253-3.004-1.253H18.78v3.551h24.073c0.186,0,0.362,0.075,0.499,0.214c0.139,0.138,0.215,0.316,0.215,0.501
			v12.337h-1.206c-1.132,0-2.199,0.446-3.004,1.253c-0.807,0.808-1.249,1.878-1.249,3.012v1.378H23.701l-4.921,4.936V24.124h-3.539
			v23.7h3.539l2.462,2.47l3.932-3.933l12.935,0.008v13.054h3.53v3.551l18.402-0.009l3.933,3.933l2.462-2.47h3.539v-23.7H66.436z"/>
	</g>
</g>
<g id="cercles">
	<path fill="#E65028" d="M42.5,5.997c20.129,0,36.503,16.375,36.503,36.503c0,20.127-16.374,36.502-36.503,36.502
		c-20.127,0-36.503-16.375-36.503-36.502C5.997,22.372,22.373,5.997,42.5,5.997 M42.5,0C19.028,0,0,19.027,0,42.5
		C0,65.971,19.028,85,42.5,85C65.973,85,85,65.971,85,42.5C85,19.027,65.973,0,42.5,0L42.5,0z"/>
</g>
</svg>
