<?xml version="1.0" encoding="utf-8"?>
<!-- Generator: Adobe Illustrator 16.0.0, SVG Export Plug-In . SVG Version: 6.00 Build 0)  -->
<!DOCTYPE svg PUBLIC "-//W3C//DTD SVG 1.1//EN" "http://www.w3.org/Graphics/SVG/1.1/DTD/svg11.dtd">
<svg version="1.1" xmlns="http://www.w3.org/2000/svg" xmlns:xlink="http://www.w3.org/1999/xlink" x="0px" y="0px" width="85px"
	 height="85px" viewBox="0 0 85 85" enable-background="new 0 0 85 85" xml:space="preserve">
<g id="icones">
	<g>
		<polygon fill="#F07D00" points="42.678,12.833 15.355,24.106 15.355,28.002 42.678,16.729 70,28.002 70,24.106 		"/>
		<path fill="#F07D00" d="M38.642,29.884c-0.942,0-1.724,0.751-1.724,1.733c0,0.984,0.789,1.751,1.724,1.751
			s1.692-0.767,1.692-1.751C40.334,30.635,39.576,29.884,38.642,29.884z"/>
		<path fill="#F07D00" d="M19.27,29.517v18.208v18.208h4.731V51.625h7.993v14.308h10.684h23.407V47.725V29.517l-23.407-9.099
			L19.27,29.517z M38.059,27.055h1.021l0.871,1.184h-0.902l-0.479-0.68l-0.478,0.68h-0.903L38.059,27.055z M31.994,46.563h-7.993
			v-8.329h7.993V46.563z M34.79,34.416h-1.261v-2.207h-2.53v2.207h-1.262v-5.594h1.262v2.333h2.53v-2.333h1.261V34.416z
			 M35.625,31.617c0-1.63,1.293-2.836,3.001-2.836s3.001,1.214,3.001,2.836c0,1.615-1.293,2.854-3.001,2.854
			S35.625,33.24,35.625,31.617z M46.674,59.953h-7.993v-8.328h7.993V59.953z M61.354,59.953h-7.992v-8.328h7.992V59.953z
			 M61.354,46.563h-7.992v-8.329h7.992V46.563z M52.438,28.822h1.261v4.49h2.396v1.104h-3.656V28.822z M47.103,28.822h4.255v1.046
			h-2.994v1.214h2.698v1.046h-2.698v1.239h3.082v1.048h-4.343V28.822z M46.674,46.563h-7.993v-8.329h7.993V46.563z M46.42,29.892
			h-1.708v4.524h-1.261v-4.524h-1.7v-1.07h4.669V29.892z"/>
	</g>
</g>
<g id="cercles">
	<path fill="#F07D00" d="M42.5,5.997c20.129,0,36.503,16.375,36.503,36.503c0,20.127-16.374,36.502-36.503,36.502
		c-20.127,0-36.503-16.375-36.503-36.502C5.997,22.372,22.373,5.997,42.5,5.997 M42.5,0C19.028,0,0,19.027,0,42.5
		C0,65.971,19.028,85,42.5,85C65.973,85,85,65.971,85,42.5C85,19.027,65.973,0,42.5,0L42.5,0z"/>
</g>
</svg>
