<?xml version="1.0" encoding="utf-8"?>
<!-- Generator: Adobe Illustrator 16.0.0, SVG Export Plug-In . SVG Version: 6.00 Build 0)  -->
<!DOCTYPE svg PUBLIC "-//W3C//DTD SVG 1.1//EN" "http://www.w3.org/Graphics/SVG/1.1/DTD/svg11.dtd">
<svg version="1.1" xmlns="http://www.w3.org/2000/svg" xmlns:xlink="http://www.w3.org/1999/xlink" x="0px" y="0px" width="85px"
	 height="85px" viewBox="0 0 85 85" enable-background="new 0 0 85 85" xml:space="preserve">
<g id="icones">
	<g>
		<polygon fill="#F07D00" points="53.255,21.928 31.437,21.928 31.44,24.255 53.25,24.255 		"/>
		<path fill="#F07D00" d="M62.731,40.582c0-1.68-0.286-2.854-0.693-3.687l-5.962-12.64H53.25l4.1,11.046H27.342l4.099-11.046h-2.826
			l-5.962,12.64c-0.407,0.833-0.692,2.007-0.692,3.687l-0.005,4.684c0,1.222,0.269,2.24,0.687,3.09
			c3.168,1.082,6.085,2.729,8.529,4.965l0.001-1.508H42.49h11.028l0.005,4.143h5.334l0.017-4.593
			c1.812-0.79,3.861-2.674,3.861-6.098L62.731,40.582z M30.234,43.54h-1.157c-1.411,0-2.294-0.753-2.294-2.227
			c0-1.452,0.901-2.225,2.294-2.225h1.157c1.411,0,2.294,0.752,2.294,2.226C32.528,42.767,31.627,43.54,30.234,43.54z M48.92,48.166
			c0,0.867,0.042,1.311-0.405,1.311H36.628c-0.492,0-0.537-0.455-0.537-1.311c0-0.868-0.09-1.311,0.627-1.311h11.797
			C49.029,46.855,48.92,47.311,48.92,48.166z M55.614,43.54h-1.158c-1.393,0-2.293-0.773-2.293-2.226
			c0-1.474,0.882-2.226,2.293-2.226h1.158c1.392,0,2.292,0.772,2.292,2.225C57.906,42.787,57.025,43.54,55.614,43.54z"/>
		<path fill="#F07D00" d="M16.504,57.092h-0.498v1.871h0.498c2.521,0,4.89,0.984,6.671,2.771c1.782,1.786,2.763,4.164,2.765,6.692
			v0.5h1.866v-0.5c-0.001-3.03-1.178-5.876-3.312-8.016C22.361,58.271,19.523,57.092,16.504,57.092z"/>
		<path fill="#F07D00" d="M16.504,53.233h-0.498v1.872h0.498c3.547,0.001,6.881,1.386,9.389,3.9
			c2.509,2.518,3.891,5.863,3.892,9.419v0.5l1.866,0.001v-0.5c-0.001-4.059-1.577-7.874-4.438-10.744
			C24.351,54.814,20.549,53.233,16.504,53.233z"/>
		<path fill="#F07D00" d="M16.299,49.406h-0.36v1.844h0.36c4.627,0.001,8.978,1.808,12.25,5.09c3.273,3.284,5.077,7.649,5.078,12.29
			v0.362l1.838,0.001v-0.362c-0.002-5.135-1.995-9.963-5.617-13.594C26.229,51.407,21.419,49.407,16.299,49.406z"/>
		<polygon fill="#F07D00" points="12.912,68.451 16.479,72.028 20.84,67.654 17.272,64.077 		"/>
		<polygon fill="#F07D00" points="18.639,64.492 20.418,66.278 23.131,65.542 19.334,61.732 		"/>
	</g>
</g>
<g id="cercles">
	<path fill="#F07D00" d="M42.5,5.997c20.129,0,36.503,16.375,36.503,36.503c0,20.127-16.374,36.502-36.503,36.502
		c-20.127,0-36.503-16.375-36.503-36.502C5.997,22.372,22.373,5.997,42.5,5.997 M42.5,0C19.028,0,0,19.027,0,42.5
		C0,65.971,19.028,85,42.5,85C65.973,85,85,65.971,85,42.5C85,19.027,65.973,0,42.5,0L42.5,0z"/>
</g>
</svg>
