<?xml version="1.0" encoding="utf-8"?>
<!-- Generator: Adobe Illustrator 16.0.0, SVG Export Plug-In . SVG Version: 6.00 Build 0)  -->
<!DOCTYPE svg PUBLIC "-//W3C//DTD SVG 1.1//EN" "http://www.w3.org/Graphics/SVG/1.1/DTD/svg11.dtd">
<svg version="1.1" xmlns="http://www.w3.org/2000/svg" xmlns:xlink="http://www.w3.org/1999/xlink" x="0px" y="0px" width="85px"
	 height="85px" viewBox="0 0 85 85" enable-background="new 0 0 85 85" xml:space="preserve">
<g id="icones">
	<rect x="29.268" y="31.267" fill="#E65028" width="9.962" height="3.051"/>
	<rect x="29.268" y="38.551" fill="#E65028" width="20.938" height="3.05"/>
	<rect x="29.268" y="42.876" fill="#E65028" width="20.938" height="3.051"/>
	<rect x="29.266" y="47.367" fill="#E65028" width="16.118" height="3.051"/>
	<rect x="22.89" y="23.546" fill="#E65028" width="3.716" height="36.023"/>
	<polygon fill="#E65028" points="43.784,28.849 47.5,28.849 47.5,25.348 51.073,28.92 47.572,28.92 47.572,32.635 52.867,32.635 
		52.867,40.628 53.313,40.628 56.129,40.628 56.584,40.628 56.584,32.074 56.578,32.074 56.578,28.92 47.5,19.83 43.784,19.83 
		26.605,19.83 26.605,23.546 43.784,23.546 	"/>
	<rect x="26.597" y="59.702" fill="#E65028" width="19.757" height="3.718"/>
	<g>
		<rect x="56.483" y="43.723" fill="#E65028" width="3.686" height="19.648"/>
		<rect x="48.502" y="51.742" fill="#E65028" width="19.648" height="3.684"/>
	</g>
</g>
<g id="cercles">
	<path fill="#E65028" d="M42.5,5.997c20.129,0,36.503,16.375,36.503,36.503c0,20.127-16.374,36.502-36.503,36.502
		c-20.127,0-36.503-16.375-36.503-36.502C5.997,22.372,22.373,5.997,42.5,5.997 M42.5,0C19.028,0,0,19.027,0,42.5
		C0,65.971,19.028,85,42.5,85C65.973,85,85,65.971,85,42.5C85,19.027,65.973,0,42.5,0L42.5,0z"/>
</g>
</svg>
