<?xml version="1.0" encoding="utf-8"?>
<!-- Generator: Adobe Illustrator 16.0.0, SVG Export Plug-In . SVG Version: 6.00 Build 0)  -->
<!DOCTYPE svg PUBLIC "-//W3C//DTD SVG 1.1//EN" "http://www.w3.org/Graphics/SVG/1.1/DTD/svg11.dtd">
<svg version="1.1" xmlns="http://www.w3.org/2000/svg" xmlns:xlink="http://www.w3.org/1999/xlink" x="0px" y="0px" width="85px"
	 height="85px" viewBox="0 0 85 85" enable-background="new 0 0 85 85" xml:space="preserve">
<g id="icones">
	<path fill="#E65028" d="M63.314,31.26v-2.418h-2.417v-2.418H53.4v-4.435h-2.418v-2.418h-2.417v-2.418H36.252v2.418h-2.419v2.418
		h-2.417v4.435H23.92v2.418h-2.419v2.418h-2.417v9.252h2.417v2.417h2.419v2.418h24.532h1.001h11.444v-2.418h2.417v-2.417h2.418
		V31.26H63.314z M61.315,38.512h-2.417v2.417h-9.445h-1.001H25.918v-2.417H23.5v-5.254h2.418v-2.418h9.914v-1v-3.417v-2.436h2.418
		V21.57h8.316v2.418h2.417v6.853h1l0,0h8.915v2.418h2.417V38.512z"/>
	
		<rect x="39.118" y="56.512" transform="matrix(-0.7071 -0.7071 0.7071 -0.7071 46.4046 136.2437)" fill="#E65028" width="24.606" height="3.998"/>
	
		<rect x="26.6" y="54.554" transform="matrix(-0.7071 -0.7071 0.7071 -0.7071 21.6976 122.0939)" fill="#E65028" width="19.07" height="3.998"/>
	
		<rect x="51.469" y="51.099" transform="matrix(-0.7071 -0.7071 0.7071 -0.7071 61.4689 131.6546)" fill="#E65028" width="13.062" height="3.997"/>
</g>
<g id="cercles">
	<path fill="#E65028" d="M42.5,5.997c20.129,0,36.503,16.375,36.503,36.503c0,20.127-16.374,36.502-36.503,36.502
		c-20.127,0-36.503-16.375-36.503-36.502C5.997,22.372,22.373,5.997,42.5,5.997 M42.5,0C19.028,0,0,19.027,0,42.5
		C0,65.971,19.028,85,42.5,85C65.973,85,85,65.971,85,42.5C85,19.027,65.973,0,42.5,0L42.5,0z"/>
</g>
</svg>
