<?xml version="1.0" encoding="utf-8"?>
<!-- Generator: Adobe Illustrator 16.0.0, SVG Export Plug-In . SVG Version: 6.00 Build 0)  -->
<!DOCTYPE svg PUBLIC "-//W3C//DTD SVG 1.1//EN" "http://www.w3.org/Graphics/SVG/1.1/DTD/svg11.dtd">
<svg version="1.1" xmlns="http://www.w3.org/2000/svg" xmlns:xlink="http://www.w3.org/1999/xlink" x="0px" y="0px" width="85px"
	 height="85px" viewBox="0 0 85 85" enable-background="new 0 0 85 85" xml:space="preserve">
<g id="icones">
	<g>
		<rect x="39.314" y="18.755" fill="#E65028" width="4.524" height="24.142"/>
		<path fill="#E65028" d="M56.895,43.105c0.007,1.023-0.095,2.023-0.285,2.993l3.646,3.35c0.717-2.07,1.084-4.244,1.063-6.41
			c-0.085-8.113-5.377-15.552-12.95-18.266v4.846C53.395,32.044,56.87,37.151,56.895,43.105z"/>
		<path fill="#E65028" d="M26.742,43.225c-0.008-5.839,3.247-10.874,8.044-13.397v-4.755c-0.787,0.28-1.568,0.583-2.3,0.974
			c-5.526,2.951-9.967,9.209-9.967,17.082c0,11.79,9.787,19.479,19.434,19.479c1.555,0,3.041-0.173,4.446-0.496l0.1-4.61
			c-1.458,0.481-3.018,0.746-4.635,0.753C33.554,58.291,26.755,51.535,26.742,43.225z"/>
		<path fill="#E65028" d="M50.738,45.86c0-0.407,0-0.789,0-1.172c-0.4,0-0.796,0-1.197,0c0,6.694,0,12.203,0,18.897
			c0.381,0,0.768,0,1.181,0c0.405,0,0.778,0,1.174,0c0-0.405,0-0.785,0-1.167c-0.386,0-0.776,0-1.178,0c0-5.136,0-10.242,0-15.373
			c0.401,0,0.792,0,1.178,0c0-0.389,0-0.776,0-1.185C51.491,45.86,51.117,45.86,50.738,45.86z"/>
		<rect x="51.896" y="47.045" fill="#E65028" width="0.006" height="0.006"/>
		<path fill="#E65028" d="M61.349,56.49c0,0.394,0,0.79,0,1.206c-1.193,0-2.354,0-3.517,0c0,1.181,0,2.342,0,3.495
			c0.396,0,0.775,0,1.161,0c0.001-0.773,0.001-1.548,0.001-2.339c1.579,0,1.966,0,3.529,0c0-0.397,0-0.771,0-1.168
			c0-0.404,0-0.786,0-1.193C62.113,56.49,61.733,56.49,61.349,56.49z"/>
		<path fill="#E65028" d="M54.258,60.051c-0.393,0-0.771,0-1.145,0c0,0.4,0,0.783,0,1.155c0.777,0,1.537,0,2.301,0
			c0-0.784,0-1.551,0-2.32c-0.394,0-0.769,0-1.156,0C54.258,59.277,54.258,59.655,54.258,60.051z"/>
		<path fill="#E65028" d="M61.349,68.3c0.396,0,0.771,0,1.158,0c0-0.787,0-1.56,0-2.369c-0.396,0-0.775,0-1.159,0
			C61.349,66.721,61.349,67.506,61.349,68.3z"/>
		<rect x="58.993" y="61.191" fill="#E65028" width="0.005" height="0.004"/>
		<path fill="#E65028" d="M60.187,61.182c-0.126,0-0.907,0.023-1.189,0.014c0,0.791,0,1.574,0,2.36c0.405,0,0.796,0,1.191,0
			C60.18,63.448,60.187,61.276,60.187,61.182z"/>
		<path fill="#E65028" d="M57.811,68.295c0.394,0,0.776,0,1.154,0c0-0.783,0-1.553,0-2.322c-0.386,0-0.765,0-1.154,0
			C57.811,66.75,57.811,67.519,57.811,68.295z"/>
		<path fill="#E65028" d="M55.454,63.571c0.391,0,0.769,0,1.158,0c0-0.777,0-1.54,0-2.323c-0.395,0-0.769,0-1.158,0
			C55.454,62.024,55.454,62.792,55.454,63.571z"/>
		<path fill="#E65028" d="M58.995,69.48c0.784,0,1.559,0,2.339,0c0-0.381,0-0.751,0-1.142c-0.792,0-1.564,0-2.339,0
			C58.995,68.728,58.995,69.103,58.995,69.48z"/>
		<path fill="#E65028" d="M60.192,63.564c-0.005,0.657-0.012,1.313-0.017,1.97c-0.001,0.128,0,0.256,0,0.391
			c0.406,0,0.785,0,1.166,0c0-0.772,0-1.547,0-2.36C60.942,63.564,60.568,63.564,60.192,63.564z"/>
		<polygon fill="#E65028" points="61.342,65.924 61.342,65.932 61.343,65.931 61.348,65.931 61.348,65.924 		"/>
		<rect x="60.188" y="63.556" fill="#E65028" width="0.003" height="0.007"/>
		<path fill="#E65028" d="M56.631,65.935c0.387,0,0.759,0,1.145,0c0-0.779,0-1.546,0-2.323c-0.388,0-0.76,0-1.145,0
			C56.631,64.391,56.631,65.158,56.631,65.935z"/>
		<path fill="#E65028" d="M60.151,55.294c0-0.39,0-0.766,0-1.164c-0.397,0-0.782,0-1.161,0c0,0.39,0,0.776,0,1.164
			C59.385,55.294,59.765,55.294,60.151,55.294z"/>
		<path fill="#E65028" d="M53.061,61.25c-0.395,0-0.767,0-1.158,0c0,0.397,0,0.78,0,1.162c0.387,0,0.766,0,1.158,0
			C53.061,62.013,53.061,61.633,53.061,61.25z"/>
		<rect x="51.896" y="62.412" fill="#E65028" width="0.007" height="0.006"/>
		<path fill="#E65028" d="M56.624,52.929c0.406,0,0.784,0,1.163,0c0-0.39,0-0.765,0-1.155c-0.398,0-0.778,0-1.163,0
			C56.624,52.162,56.624,52.547,56.624,52.929z"/>
		<path fill="#E65028" d="M54.267,50.566c0.394,0,0.774,0,1.162,0c0-0.39,0-0.766,0-1.153c-0.398,0-0.781,0-1.162,0
			C54.267,49.796,54.267,50.177,54.267,50.566z"/>
		<path fill="#E65028" d="M51.901,48.204c0.4,0,0.782,0,1.163,0c0-0.392,0-0.768,0-1.152c-0.396,0-0.777,0-1.163,0
			C51.901,47.433,51.901,47.813,51.901,48.204z"/>
		<polygon fill="#E65028" points="61.342,56.483 61.342,56.491 61.343,56.49 61.349,56.49 61.349,56.483 		"/>
		<path fill="#E65028" d="M60.187,55.333c0,0.387,0,0.764,0,1.15c0.394,0,0.773,0,1.155,0c0-0.382,0-0.764,0-1.15
			C60.944,55.333,60.571,55.333,60.187,55.333z"/>
		<rect x="58.984" y="54.124" fill="#E65028" width="0.006" height="0.007"/>
		<path fill="#E65028" d="M57.828,52.971c0,0.389,0,0.764,0,1.152c0.388,0,0.772,0,1.156,0c0-0.381,0-0.762,0-1.152
			C58.585,52.971,58.209,52.971,57.828,52.971z"/>
		<rect x="56.618" y="51.765" fill="#E65028" width="0.006" height="0.009"/>
		<path fill="#E65028" d="M55.465,50.611c0,0.385,0,0.762,0,1.154c0.393,0,0.775,0,1.153,0c0-0.383,0-0.764,0-1.154
			C56.225,50.611,55.853,50.611,55.465,50.611z"/>
		<rect x="54.26" y="49.405" fill="#E65028" width="0.007" height="0.008"/>
		<path fill="#E65028" d="M53.112,48.245c0,0.393,0,0.773,0,1.16c0.395,0,0.767,0,1.147,0c0-0.388,0-0.774,0-1.16
			C53.857,48.245,53.484,48.245,53.112,48.245z"/>
	</g>
</g>
<g id="cercles">
	<path fill="#E65028" d="M42.5,5.997c20.129,0,36.503,16.375,36.503,36.503c0,20.127-16.374,36.502-36.503,36.502
		c-20.127,0-36.503-16.375-36.503-36.502C5.997,22.372,22.373,5.997,42.5,5.997 M42.5,0C19.028,0,0,19.027,0,42.5
		C0,65.971,19.028,85,42.5,85C65.973,85,85,65.971,85,42.5C85,19.027,65.973,0,42.5,0L42.5,0z"/>
</g>
</svg>
