<?xml version="1.0" encoding="utf-8"?>
<!-- Generator: Adobe Illustrator 16.0.0, SVG Export Plug-In . SVG Version: 6.00 Build 0)  -->
<!DOCTYPE svg PUBLIC "-//W3C//DTD SVG 1.1//EN" "http://www.w3.org/Graphics/SVG/1.1/DTD/svg11.dtd">
<svg version="1.1" xmlns="http://www.w3.org/2000/svg" xmlns:xlink="http://www.w3.org/1999/xlink" x="0px" y="0px" width="214px"
	 height="85px" viewBox="0 0 214 85" enable-background="new 0 0 214 85" xml:space="preserve">
<g id="icones">
	<g>
		<path fill="#E65028" d="M109.231,44.048v9.908h-6.425v-9.908h-9.844V37.62h9.844v-9.91h6.425v9.91h9.903v6.428H109.231z"/>
	</g>
	<g>
		<polygon fill="#E65028" points="172.007,25.029 172.007,35.256 177.217,35.256 177.267,30.344 190.896,30.344 177.267,60.122 
			183.53,60.122 197.51,29.541 197.51,25.029 		"/>
		<path fill="#E65028" d="M164.237,28.02c-1.119-0.991-2.539-1.762-4.259-2.313c-1.72-0.552-3.757-0.829-6.108-0.829h-9.23v5.065
			V60.09h5.071V47.695h4.159c2.288,0,4.283-0.283,5.986-0.852c1.704-0.568,3.124-1.364,4.26-2.387
			c1.135-1.023,1.987-2.244,2.556-3.664c0.566-1.421,0.851-2.983,0.851-4.688c0-1.64-0.267-3.149-0.803-4.529
			C166.185,30.195,165.357,29.009,164.237,28.02z M161.296,38.795c-0.292,0.803-0.729,1.484-1.314,2.045
			c-0.584,0.561-1.323,0.991-2.215,1.29c-0.893,0.302-1.939,0.451-3.14,0.451h-4.916V29.943h4.916c1.2,0,2.247,0.143,3.14,0.426
			c0.892,0.285,1.631,0.695,2.215,1.23c0.585,0.535,1.022,1.184,1.314,1.947c0.292,0.764,0.438,1.616,0.438,2.557
			C161.733,37.094,161.588,37.991,161.296,38.795z"/>
	</g>
	<g>
		<path fill="#E65028" d="M56.316,39.693l-1.805-0.2l10.021-10.828v-3.711H43.188v5.266h14.029l-9.119,9.824v3.459h4.86
			c4.659,0,7.416,1.956,7.416,5.766c0,3.608-2.706,6.016-7.366,6.016c-3.206,0-6.463-1.303-8.969-3.659l-2.455,4.812
			c3.007,2.307,7.517,3.81,11.825,3.81c7.816,0,12.777-4.561,12.777-11.128C66.188,43.603,62.179,40.194,56.316,39.693z"/>
		<path fill="#E65028" d="M35.47,27.895c-1.119-0.991-2.538-1.762-4.259-2.313c-1.72-0.553-3.756-0.829-6.107-0.829h-9.231v5.065
			v30.146h5.071V47.57h4.16c2.287,0,4.282-0.284,5.987-0.852c1.702-0.568,3.122-1.363,4.258-2.388
			c1.136-1.022,1.987-2.243,2.557-3.663c0.566-1.421,0.851-2.984,0.851-4.688c0-1.64-0.268-3.149-0.803-4.529
			C37.417,30.07,36.59,28.884,35.47,27.895z M32.528,38.67c-0.292,0.803-0.729,1.484-1.313,2.045
			c-0.584,0.561-1.323,0.991-2.215,1.29c-0.893,0.302-1.939,0.451-3.14,0.451h-4.917V29.818h4.917c1.2,0,2.247,0.142,3.14,0.426
			c0.892,0.285,1.631,0.695,2.215,1.229c0.584,0.536,1.021,1.185,1.313,1.948c0.293,0.764,0.438,1.616,0.438,2.557
			C32.967,36.969,32.821,37.866,32.528,38.67z"/>
	</g>
	<path fill="#E65028" d="M42.5,5.997c20.129,0,36.503,16.375,36.503,36.503c0,20.127-16.374,36.502-36.503,36.502
		c-20.127,0-36.503-16.375-36.503-36.502C5.997,22.372,22.373,5.997,42.5,5.997 M42.5,0C19.028,0,0,19.028,0,42.5
		C0,65.971,19.028,85,42.5,85C65.973,85,85,65.971,85,42.5C85,19.028,65.973,0,42.5,0L42.5,0z"/>
	<path fill="#E65028" d="M171.5,5.997c20.129,0,36.503,16.375,36.503,36.503c0,20.127-16.374,36.502-36.503,36.502
		c-20.127,0-36.503-16.375-36.503-36.502C134.997,22.372,151.373,5.997,171.5,5.997 M171.5,0C148.028,0,129,19.028,129,42.5
		c0,23.471,19.028,42.5,42.5,42.5c23.473,0,42.5-19.029,42.5-42.5C214,19.028,194.973,0,171.5,0L171.5,0z"/>
</g>
<g id="cercles">
</g>
</svg>
