<?xml version="1.0" encoding="utf-8"?>
<!-- Generator: Adobe Illustrator 16.0.0, SVG Export Plug-In . SVG Version: 6.00 Build 0)  -->
<!DOCTYPE svg PUBLIC "-//W3C//DTD SVG 1.1//EN" "http://www.w3.org/Graphics/SVG/1.1/DTD/svg11.dtd">
<svg version="1.1" xmlns="http://www.w3.org/2000/svg" xmlns:xlink="http://www.w3.org/1999/xlink" x="0px" y="0px" width="85px"
	 height="85px" viewBox="0 0 85 85" enable-background="new 0 0 85 85" xml:space="preserve">
<g id="icones">
	<g>
		<path fill="#E65028" d="M57.797,37.336c-4.399,0-7.697,1.704-9.547,4.962c-0.2-7.569,2.948-12.683,9.746-12.683
			c2.648,0,5.598,0.801,7.747,2.206l2.299-4.462c-2.849-1.604-6.997-2.657-10.446-2.657c-9.246,0-15.094,7.319-15.094,18.498
			c0,10.778,5.398,17.095,14.244,17.095c7.447,0,12.296-4.511,12.296-11.781C69.042,41.698,64.794,37.336,57.797,37.336z
			 M56.447,55.184c-5.049,0-7.297-3.459-7.248-6.518c-0.049-3.609,2.75-6.668,7.498-6.668c4.248,0,6.847,2.457,6.847,6.468
			C63.544,52.727,60.695,55.184,56.447,55.184z"/>
		<path fill="#E65028" d="M36.196,27.944c-1.117-0.991-2.533-1.762-4.248-2.313c-1.717-0.552-3.748-0.828-6.095-0.828h-9.208v5.064
			v30.146h5.06V47.619h4.148c2.282,0,4.272-0.283,5.973-0.852c1.699-0.568,3.115-1.364,4.248-2.388
			c1.133-1.022,1.982-2.243,2.55-3.663c0.565-1.421,0.85-2.984,0.85-4.688c0-1.64-0.268-3.149-0.802-4.529
			C38.138,30.12,37.313,28.934,36.196,27.944z M33.262,38.72c-0.292,0.803-0.728,1.484-1.311,2.045
			c-0.583,0.56-1.32,0.991-2.21,1.29c-0.89,0.302-1.934,0.451-3.132,0.451h-4.904V29.867h4.904c1.198,0,2.242,0.143,3.132,0.427
			c0.89,0.284,1.627,0.695,2.21,1.23c0.583,0.535,1.019,1.184,1.311,1.947c0.291,0.764,0.437,1.616,0.437,2.557
			C33.698,37.019,33.553,37.916,33.262,38.72z"/>
	</g>
</g>
<g id="cercles">
	<path fill="#E65028" d="M42.5,5.997c20.129,0,36.503,16.375,36.503,36.503c0,20.127-16.374,36.502-36.503,36.502
		c-20.127,0-36.503-16.375-36.503-36.502C5.997,22.372,22.373,5.997,42.5,5.997 M42.5,0C19.028,0,0,19.027,0,42.5
		C0,65.971,19.028,85,42.5,85C65.973,85,85,65.971,85,42.5C85,19.027,65.973,0,42.5,0L42.5,0z"/>
</g>
</svg>
