<?xml version="1.0" encoding="utf-8"?>
<!-- Generator: Adobe Illustrator 16.0.0, SVG Export Plug-In . SVG Version: 6.00 Build 0)  -->
<!DOCTYPE svg PUBLIC "-//W3C//DTD SVG 1.1//EN" "http://www.w3.org/Graphics/SVG/1.1/DTD/svg11.dtd">
<svg version="1.1" xmlns="http://www.w3.org/2000/svg" xmlns:xlink="http://www.w3.org/1999/xlink" x="0px" y="0px" width="85px"
	 height="85px" viewBox="0 0 85 85" enable-background="new 0 0 85 85" xml:space="preserve">
<g id="icones">
	<g>
		<polygon fill="#E65028" points="43.773,25.029 43.773,35.256 48.972,35.256 49.021,30.343 62.617,30.343 49.021,60.121 
			55.27,60.121 69.214,29.542 69.214,25.029 		"/>
		<path fill="#E65028" d="M36.023,28.02c-1.116-0.991-2.532-1.762-4.248-2.313c-1.715-0.551-3.747-0.828-6.094-0.828h-9.207v5.064
			v30.146h5.059V47.694h4.148c2.282,0,4.273-0.283,5.973-0.851s3.116-1.365,4.249-2.388c1.132-1.022,1.982-2.243,2.549-3.663
			c0.566-1.421,0.85-2.984,0.85-4.688c0-1.64-0.267-3.149-0.802-4.529C37.966,30.196,37.141,29.01,36.023,28.02z M33.09,38.795
			c-0.291,0.803-0.729,1.484-1.311,2.045c-0.584,0.56-1.32,0.991-2.21,1.291c-0.89,0.3-1.935,0.45-3.132,0.45h-4.904V29.943h4.904
			c1.197,0,2.242,0.143,3.132,0.427c0.89,0.284,1.626,0.694,2.21,1.23c0.582,0.536,1.02,1.185,1.311,1.948
			c0.292,0.763,0.437,1.614,0.437,2.556C33.526,37.095,33.382,37.992,33.09,38.795z"/>
	</g>
</g>
<g id="cercles">
	<path fill="#E65028" d="M42.5,5.997c20.129,0,36.503,16.375,36.503,36.503c0,20.127-16.374,36.502-36.503,36.502
		c-20.127,0-36.503-16.375-36.503-36.502C5.997,22.372,22.373,5.997,42.5,5.997 M42.5,0C19.028,0,0,19.027,0,42.5
		C0,65.971,19.028,85,42.5,85C65.973,85,85,65.971,85,42.5C85,19.027,65.973,0,42.5,0L42.5,0z"/>
</g>
</svg>
