<?xml version="1.0" encoding="utf-8"?>
<!-- Generator: Adobe Illustrator 16.0.0, SVG Export Plug-In . SVG Version: 6.00 Build 0)  -->
<!DOCTYPE svg PUBLIC "-//W3C//DTD SVG 1.1//EN" "http://www.w3.org/Graphics/SVG/1.1/DTD/svg11.dtd">
<svg version="1.1" xmlns="http://www.w3.org/2000/svg" xmlns:xlink="http://www.w3.org/1999/xlink" x="0px" y="0px" width="85px"
	 height="85px" viewBox="0 0 85 85" enable-background="new 0 0 85 85" xml:space="preserve">
<g id="icones">
	<g>
		<path fill="#F07D00" d="M61.771,41.297c3.248-1.455,5.198-4.111,5.198-7.52c0-5.614-4.549-9.074-11.746-9.074
			c-7.147,0-11.694,3.359-11.694,8.874c0,3.409,2.048,6.165,5.447,7.72c-4.449,1.404-7.197,4.712-7.197,9.023
			c0,6.166,5.197,9.977,13.444,9.977c8.296,0,13.495-3.811,13.495-10.076C68.719,45.959,66.02,42.701,61.771,41.297z M48.526,34.129
			c0-3.259,2.499-5.164,6.697-5.164c4.248,0,6.697,1.904,6.697,5.164c0,3.258-2.449,5.113-6.697,5.113
			C51.025,39.242,48.526,37.387,48.526,34.129z M55.224,55.635c-4.998,0-7.847-2.155-7.847-5.966c0-3.659,2.898-5.814,7.847-5.814
			c4.997,0,7.897,2.155,7.897,5.814C63.121,53.479,60.221,55.635,55.224,55.635z"/>
		<path fill="#F07D00" d="M36.52,27.944c-1.117-0.991-2.532-1.762-4.248-2.313c-1.715-0.552-3.747-0.829-6.094-0.829H16.97v5.065
			v30.146h5.06V47.62h4.148c2.282,0,4.273-0.283,5.973-0.852c1.699-0.568,3.115-1.364,4.249-2.387
			c1.132-1.023,1.981-2.244,2.549-3.664c0.565-1.421,0.85-2.983,0.85-4.688c0-1.639-0.268-3.149-0.802-4.528
			C38.463,30.12,37.637,28.934,36.52,27.944z M33.585,38.72c-0.291,0.804-0.728,1.485-1.31,2.046
			c-0.583,0.56-1.32,0.991-2.211,1.289c-0.89,0.302-1.934,0.451-3.13,0.451h-4.905V29.868h4.905c1.196,0,2.24,0.143,3.13,0.426
			c0.891,0.285,1.628,0.695,2.211,1.23c0.582,0.536,1.019,1.185,1.31,1.947c0.292,0.764,0.438,1.616,0.438,2.557
			C34.023,37.019,33.877,37.916,33.585,38.72z"/>
	</g>
</g>
<g id="cercles">
	<path fill="#F07D00" d="M42.5,5.997c20.129,0,36.503,16.375,36.503,36.503c0,20.127-16.374,36.502-36.503,36.502
		c-20.127,0-36.503-16.375-36.503-36.502C5.997,22.372,22.373,5.997,42.5,5.997 M42.5,0C19.028,0,0,19.027,0,42.5
		C0,65.971,19.028,85,42.5,85C65.973,85,85,65.971,85,42.5C85,19.027,65.973,0,42.5,0L42.5,0z"/>
</g>
</svg>
