<?xml version="1.0" encoding="utf-8"?>
<!-- Generator: Adobe Illustrator 16.0.0, SVG Export Plug-In . SVG Version: 6.00 Build 0)  -->
<!DOCTYPE svg PUBLIC "-//W3C//DTD SVG 1.1//EN" "http://www.w3.org/Graphics/SVG/1.1/DTD/svg11.dtd">
<svg version="1.1" xmlns="http://www.w3.org/2000/svg" xmlns:xlink="http://www.w3.org/1999/xlink" x="0px" y="0px" width="85px"
	 height="85px" viewBox="0 0 85 85" enable-background="new 0 0 85 85" xml:space="preserve">
<g id="icones">
	<polygon fill="#E65028" points="20.86,28.749 55.271,28.749 55.271,25.349 17.076,25.349 17.076,46.29 20.86,46.29 	"/>
	<path fill="#E65028" d="M22.692,30.613v18.737h25.093c0-0.375,0-0.675,0-0.675c0-0.417,0-2.121,0-2.121c0-0.417,0-2.121,0-2.121
		s2.283-2.89,9.063-2.89c0.911,0,1.79,0.03,2.618,0.086V30.613H22.692z M36.197,36.186c-0.541-0.811-1.592-1.487-3.097-1.487
		c-1.652,0-2.628,0.751-3.004,1.804h5.949l-0.72,1.502h-5.501c-0.016,0.15-0.029,0.361-0.029,0.51c0,0.151,0.014,0.316,0.029,0.466
		h5.034l-0.706,1.503h-3.908c0.301,0.827,1.354,1.683,2.932,1.683c1.429,0,2.479-0.632,3.005-1.232v1.803
		c-0.449,0.375-1.652,0.932-3.23,0.932c-2.631,0-4.134-1.458-4.733-3.186h-1.88l0.752-1.503h0.767
		c-0.015-0.209-0.015-0.345-0.015-0.481c0-0.15,0-0.286,0.015-0.496h-1.519l0.752-1.502h1.128c0.524-1.879,2.328-3.307,4.959-3.307
		c1.502,0,2.855,0.526,3.757,1.428L36.197,36.186z"/>
	<g>
		<path fill="none" d="M50.658,53.091h0.012c0-0.139,0-0.273,0-0.396h-0.012C50.658,52.983,50.658,52.796,50.658,53.091z"/>
		<path fill="none" d="M67.66,50.109v0.002l0.002-0.002c0.478,0,0.957,0,1.433,0c0-0.023,0-0.055,0-0.079c-0.481,0-0.95,0-1.417,0
			C67.672,50.057,67.662,50.083,67.66,50.109z"/>
		<rect x="50.674" y="55.277" fill="none" width="0" height="0.004"/>
		<polygon fill="none" points="50.652,52.695 50.658,52.695 50.658,52.693 		"/>
		<polygon fill="none" points="50.652,52.692 50.652,52.695 50.658,52.692 		"/>
		<polygon fill="none" points="50.67,55.277 50.672,55.278 50.676,55.277 		"/>
		<polygon fill="none" points="67.712,57.862 67.708,57.862 67.708,57.864 		"/>
		<polygon fill="none" points="67.691,52.614 67.695,52.614 67.695,52.612 		"/>
		<polygon fill="none" points="67.707,57.865 67.708,57.865 67.708,57.864 		"/>
		<path fill="none" d="M67.708,57.883c0.002-0.006,0.002-0.012,0.004-0.018h-0.004C67.708,57.874,67.708,57.875,67.708,57.883z"/>
		<polygon fill="none" points="67.674,50.03 67.678,50.03 67.678,50.028 		"/>
		<path fill="none" d="M67.708,57.883c-0.006,0.021-0.013,0.041-0.013,0.063c-0.002,0.094-0.002,0.208-0.002,0.314
			c0.006,0,0.01,0,0.015,0C67.708,57.972,67.708,58.129,67.708,57.883z"/>
		<path fill="none" d="M50.679,55.675c0,0,0.003,0,0.007,0c0-0.139,0-0.273,0-0.396c-0.003,0-0.01,0-0.01,0
			C50.676,55.566,50.676,55.38,50.679,55.675z"/>
		<path fill="none" d="M50.652,52.615c-0.473,0-0.945,0-1.416,0c0,0.023,0,0.054,0,0.077c0.481,0,0.949,0,1.416,0
			C50.652,52.668,50.652,52.638,50.652,52.615z"/>
		<polygon fill="none" points="67.655,47.411 67.654,47.411 67.655,47.412 		"/>
		<path fill="none" d="M67.655,47.412c-0.002,0-0.005,0-0.005,0c0,0.012,0,0.015,0,0.025C67.652,47.429,67.653,47.421,67.655,47.412
			z"/>
		<path fill="none" d="M50.67,55.199c-0.473,0-0.945,0-1.416,0c0,0.023,0,0.054,0,0.078c0.48,0,0.948,0,1.416,0
			C50.67,55.253,50.67,55.223,50.67,55.199z"/>
		<path fill="none" d="M50.637,50.111l0.004-0.003h-0.004c0-0.022,0-0.054,0-0.078c-0.475,0-0.946,0-1.418,0
			c0,0.023,0,0.054,0,0.078c0.482,0,0.949,0,1.418,0.001V50.111z"/>
		<polygon fill="none" points="67.707,55.199 67.712,55.199 67.712,55.197 		"/>
		<polygon fill="none" points="50.637,50.111 50.641,50.111 50.641,50.109 		"/>
		<path fill="none" d="M67.678,52.693c0.479,0,0.957,0,1.435,0c0-0.023,0-0.054,0-0.079c-0.483,0-0.95,0-1.417,0
			C67.689,52.64,67.678,52.667,67.678,52.693z"/>
		<path fill="none" d="M50.641,50.508h0.012c0-0.139,0-0.273,0-0.396h-0.012C50.641,50.398,50.641,50.212,50.641,50.508z"/>
		<rect x="61.978" y="48.748" fill="#E65028" width="0.005" height="0.002"/>
		<path fill="#E65028" d="M56.506,48.744c-0.066,0-0.132,0.004-0.197,0.006c-0.002,0.148-0.002,0.298-0.002,0.446
			c1.89,0,3.781,0,5.673,0c-0.001-0.149-0.001-0.298-0.002-0.446c-0.065-0.002-0.132-0.005-0.196-0.005
			C60.021,48.744,58.264,48.744,56.506,48.744z"/>
		<rect x="67.652" y="44.758" fill="#E65028" width="0.002" height="0.004"/>
		<path fill="#E65028" d="M67.639,45.196h0.867v1.81h-0.869c0,0.132,0,0.251,0,0.341c0,0.021,0.012,0.042,0.018,0.063h0.001v0
			l-0.001,0H67.65v0.001c0,0,0.003,0,0.005,0c-0.002,0.009-0.003,0.017-0.005,0.025c0-0.011,0-0.013,0-0.025
			c-0.458,0-0.917,0-1.402,0c0,0.291,0,0.165,0,0.456c0.461,0,0.922,0,1.395,0c0,0.143,0,0.295,0,0.449h0.948v1.345h-0.948
			c0,0.126,0,0.259,0,0.366c0,0.027,0.012,0.054,0.018,0.081c0.002-0.026,0.012-0.053,0.018-0.079h-0.004l0.004-0.002
			c0,0,0,0.001,0,0.002c0.467,0,0.936,0,1.417,0c0-0.762,0-1.914,0-2.643c-0.002,0-0.003,0-0.003,0
			c-0.002-0.604-0.002-2.048-0.002-2.626c-0.488,0-0.962,0-1.436,0c-0.006,0.021-0.016,0.042-0.016,0.063
			C67.639,44.92,67.639,45.053,67.639,45.196z"/>
		<path fill="#E65028" d="M61.977,43.469c0-0.143,0-0.285,0-0.427c-1.904,0-3.78,0-5.668,0c0,0.146,0,0.286,0,0.427
			c1.266,0.001,2.53,0.003,3.796,0.003C60.728,43.472,61.353,43.47,61.977,43.469z"/>
		<rect x="56.303" y="43.469" fill="#E65028" width="0.006" height="0.001"/>
		<path fill="#E65028" d="M64.836,43.916c0-0.147,0-0.295,0-0.445c-0.971,0-1.911,0-2.854,0c0,0.146,0,0.291,0,0.445
			C62.935,43.916,63.885,43.916,64.836,43.916z"/>
		<rect x="61.98" y="43.468" fill="#E65028" width="0.001" height="0.004"/>
		<path fill="#E65028" d="M56.303,43.471c-0.947,0-1.894,0-2.853,0c0,0.154,0,0.3,0,0.445c0.944,0,1.89,0,2.853,0
			C56.303,43.765,56.303,43.617,56.303,43.471z"/>
		<rect x="53.444" y="43.916" fill="#E65028" width="0.006" height="0.001"/>
		<path fill="#E65028" d="M52.037,44.35c-0.464,0-0.928,0-1.402,0c0,0.299,0,0.123,0,0.409c0.459,0,0.916,0,1.402,0
			C52.037,44.467,52.037,44.64,52.037,44.35z"/>
		<rect x="50.631" y="44.759" fill="#E65028" width="0.004" height="0.002"/>
		<rect x="66.245" y="44.347" fill="#E65028" width="0.002" height="0.005"/>
		<path fill="#E65028" d="M67.65,44.759c0-0.288,0-0.114,0-0.409c-0.485,0-0.943,0-1.402,0c0,0.289,0,0.114,0,0.409
			C66.725,44.759,67.187,44.759,67.65,44.759z"/>
		<rect x="52.039" y="47.866" fill="#E65028" width="0.002" height="0.006"/>
		<rect x="56.303" y="48.746" fill="#E65028" width="0.003" height="0.006"/>
		<path fill="#E65028" d="M53.45,48.317c0,0.143,0,0.285,0,0.43c0.97,0,1.911,0,2.853,0c0-0.141,0-0.281,0-0.43
			C55.355,48.317,54.403,48.317,53.45,48.317z"/>
		<rect x="64.837" y="48.315" fill="#E65028" width="0.005" height="0.002"/>
		<path fill="#E65028" d="M61.982,48.312c0,0.151,0,0.293,0,0.436c0.947,0,1.894,0,2.854,0c0-0.149,0-0.29,0-0.43
			c-0.776-0.002-1.553-0.004-2.329-0.006C62.336,48.311,62.164,48.312,61.982,48.312z"/>
		<rect x="53.445" y="48.313" fill="#E65028" width="0.003" height="0.006"/>
		<path fill="#E65028" d="M53.444,48.315c0-0.146,0-0.294,0-0.445c-0.479,0-0.939,0-1.401,0c0,0.146,0,0.294,0,0.445
			C52.528,48.315,52.986,48.315,53.444,48.315z"/>
		<path fill="#E65028" d="M64.842,48.315c0.462,0,0.927,0,1.401,0c0-0.154,0-0.3,0-0.446c-0.463,0-0.928,0-1.401,0
			C64.842,48.021,64.842,48.168,64.842,48.315z"/>
		<rect x="66.244" y="47.868" fill="#E65028" width="0.004" height="0.001"/>
		<rect x="52.037" y="44.348" fill="#E65028" width="0.006" height="0.002"/>
		<path fill="#E65028" d="M53.444,43.918c-0.464,0-0.927,0-1.401,0c0,0.149,0,0.29,0,0.43c0.462,0,0.923,0,1.401,0
			C53.444,44.202,53.444,44.06,53.444,43.918z"/>
		<path fill="#E65028" d="M66.243,44.348c0-0.141,0-0.284,0-0.43c-0.486,0-0.944,0-1.401,0c0,0.142,0,0.284,0,0.43
			C65.316,44.348,65.78,44.348,66.243,44.348z"/>
		<rect x="64.838" y="43.914" fill="#E65028" width="0.002" height="0.006"/>
		<rect x="56.311" y="51.385" fill="#E65028" width="0.002" height="0.006"/>
		<path fill="#E65028" d="M61.985,51.835c-0.001-0.148-0.002-0.298-0.002-0.446c-0.066-0.002-0.132-0.005-0.196-0.005
			c-1.76-0.001-3.518-0.001-5.275-0.001c-0.066,0-0.132,0.004-0.197,0.006c-0.002,0.148-0.002,0.298-0.002,0.446
			C58.202,51.835,60.094,51.835,61.985,51.835z"/>
		<rect x="67.657" y="50.108" fill="#E65028" width="0.002" height="0.004"/>
		<path fill="#E65028" d="M50.637,50.03c0-0.112,0-0.24,0-0.368h-0.834v-1.345h0.832c0-0.154,0-0.305,0-0.449
			c0.486,0,0.944,0,1.402,0c0-0.289,0-0.16,0-0.456c-0.475,0-0.938,0-1.402,0v-0.001c0-0.007,0-0.017,0-0.023
			c-0.001,0-0.003,0-0.003,0c-0.001-0.104-0.001-0.235-0.001-0.381h-0.858v-1.81h0.858c0-0.167,0-0.321,0-0.435
			c-0.479,0-0.957,0-1.434,0c0,0.59,0,2.064,0,2.649h0.006c0,0.759,0,1.953,0,2.698c0.006,0,0.01,0,0.016,0c0-0.024,0-0.055,0-0.078
			C49.69,50.03,50.162,50.03,50.637,50.03z"/>
		<polygon fill="#E65028" points="50.635,47.387 50.639,47.388 50.635,47.385 		"/>
		<path fill="#E65028" d="M52.043,50.508c0-0.288,0-0.101,0-0.396c-0.471,0-0.93,0-1.391,0c0,0.123,0,0.258,0,0.396
			C51.135,50.508,51.589,50.508,52.043,50.508z"/>
		<rect x="66.25" y="50.507" fill="#E65028" width="0.003" height="0.003"/>
		<path fill="#E65028" d="M66.254,50.508c0.463,0,0.927,0,1.402,0c0-0.299,0-0.109,0-0.396c-0.458,0-0.917,0-1.402,0
			C66.254,50.402,66.254,50.217,66.254,50.508z"/>
		<rect x="53.453" y="50.954" fill="#E65028" width="0.002" height="0.004"/>
		<path fill="#E65028" d="M56.309,51.387c0-0.14,0-0.281,0-0.43c-0.947,0-1.9,0-2.853,0c0,0.143,0,0.285,0,0.43
			C54.425,51.387,55.367,51.387,56.309,51.387z"/>
		<rect x="61.983" y="51.387" fill="#E65028" width="0.004" height="0.002"/>
		<path fill="#E65028" d="M64.843,50.957c-0.776-0.002-1.553-0.004-2.33-0.006c-0.171-0.001-0.343,0-0.525,0
			c0,0.151,0,0.294,0,0.436c0.948,0,1.895,0,2.855,0C64.843,51.238,64.843,51.097,64.843,50.957z"/>
		<path fill="#E65028" d="M53.45,50.955c0-0.146,0-0.294,0-0.445c-0.479,0-0.94,0-1.401,0c0,0.146,0,0.293,0,0.445
			C52.534,50.955,52.991,50.955,53.45,50.955z"/>
		<rect x="52.045" y="50.506" fill="#E65028" width="0.002" height="0.006"/>
		<path fill="#E65028" d="M66.249,50.51c-0.463,0-0.929,0-1.401,0c0,0.15,0,0.297,0,0.445c0.462,0,0.927,0,1.401,0
			C66.249,50.8,66.249,50.655,66.249,50.51z"/>
		<rect x="64.843" y="50.955" fill="#E65028" width="0.005" height="0.002"/>
		<path fill="#E65028" d="M62.002,54.419c-0.001-0.148-0.001-0.298-0.002-0.446c-0.065-0.002-0.132-0.005-0.197-0.005
			c-1.758-0.001-3.518-0.001-5.275-0.001c-0.065,0-0.131,0.004-0.197,0.006c0,0.148,0,0.298-0.002,0.446
			C58.221,54.419,60.111,54.419,62.002,54.419z"/>
		<rect x="56.327" y="53.97" fill="#E65028" width="0.002" height="0.004"/>
		<path fill="#E65028" d="M67.662,50.109l-0.002,0.002c0,0.222,0,0.488,0,0.765h0.931v1.345H67.66c0,0.135,0,0.274,0,0.391
			c0,0.026,0.012,0.053,0.018,0.08c0-0.026,0.012-0.053,0.018-0.079c-0.002,0-0.004,0-0.004,0l0.004-0.002v0.002
			c0.467,0,0.934,0,1.417,0c0-0.757,0-1.855,0-2.583h-0.018c0,0.024,0,0.056,0,0.079C68.619,50.109,68.14,50.109,67.662,50.109z"/>
		<path fill="#E65028" d="M50.641,50.108l-0.004,0.003L50.641,50.108v0.003h0.012c0-0.025,0-0.057,0-0.081h-0.016
			c0,0.024,0,0.056,0,0.078H50.641z"/>
		<polygon fill="#E65028" points="50.652,50.028 50.652,50.03 50.658,50.03 		"/>
		<path fill="#E65028" d="M50.652,52.615c0-0.122,0-0.256,0-0.393h-0.85v-1.345h0.85c0-0.128,0-0.248,0-0.369h-0.012
			c0-0.296,0-0.109,0-0.396h-0.004v-0.002c-0.469-0.001-0.936-0.001-1.418-0.001c0,0.757,0,1.855,0,2.583c0,0,0.012,0,0.018,0
			c0-0.023,0-0.054,0-0.077C49.707,52.615,50.18,52.615,50.652,52.615z"/>
		<path fill="#E65028" d="M52.059,53.091c0-0.288,0-0.101,0-0.396c-0.47,0-0.93,0-1.389,0c0,0.123,0,0.258,0,0.396
			C51.15,53.091,51.605,53.091,52.059,53.091z"/>
		<path fill="#E65028" d="M67.674,52.695c-0.458,0-0.917,0-1.403,0c0,0.291,0,0.105,0,0.396c0.464,0,0.928,0,1.403,0
			C67.674,52.792,67.674,52.982,67.674,52.695z"/>
		<rect x="66.267" y="53.091" fill="#E65028" width="0.004" height="0.002"/>
		<polygon fill="#E65028" points="67.676,52.695 67.674,52.693 67.674,52.694 		"/>
		<path fill="#E65028" d="M53.472,53.54c0,0.143,0,0.285,0,0.431c0.971,0,1.912,0,2.854,0c0-0.141,0-0.281,0-0.431
			C55.378,53.54,54.426,53.54,53.472,53.54z"/>
		<rect x="53.469" y="53.537" fill="#E65028" width="0.001" height="0.004"/>
		<rect x="62.001" y="53.971" fill="#E65028" width="0.003" height="0.002"/>
		<path fill="#E65028" d="M64.859,53.54c-0.775-0.002-1.554-0.004-2.329-0.006c-0.172,0-0.344,0-0.525,0c0,0.151,0,0.294,0,0.438
			c0.946,0,1.894,0,2.854,0C64.859,53.821,64.859,53.681,64.859,53.54z"/>
		<rect x="52.061" y="53.089" fill="#E65028" width="0.003" height="0.006"/>
		<path fill="#E65028" d="M52.064,53.093c0,0.147,0,0.294,0,0.445c0.486,0,0.944,0,1.403,0c0-0.146,0-0.293,0-0.445
			C52.988,53.093,52.527,53.093,52.064,53.093z"/>
		<rect x="64.859" y="53.539" fill="#E65028" width="0.005" height="0.001"/>
		<path fill="#E65028" d="M66.267,53.093c-0.465,0-0.929,0-1.402,0c0,0.151,0,0.297,0,0.446c0.463,0,0.926,0,1.402,0
			C66.267,53.384,66.267,53.239,66.267,53.093z"/>
		<rect x="62.017" y="56.556" fill="#E65028" width="0.005" height="0.001"/>
		<path fill="#E65028" d="M56.545,56.552c-0.065,0-0.131,0.003-0.197,0.005c0,0.149-0.001,0.297-0.002,0.446
			c1.893,0,3.782,0,5.673,0c0-0.148-0.001-0.296-0.002-0.446c-0.065-0.001-0.131-0.005-0.196-0.005
			C60.062,56.552,58.304,56.552,56.545,56.552z"/>
		<path fill="#E65028" d="M67.678,52.693L67.678,52.693c-0.002,0-0.002,0-0.004,0l0.004,0.002c0,0.215,0,0.473,0,0.741h0.913v1.345
			h-0.915c0,0.145,0,0.292,0,0.416c0.002,0.026,0.012,0.054,0.018,0.08h0.002c0-0.025,0.011-0.053,0.017-0.078h-0.005l0.005-0.002
			v0.002c0.467,0,0.935,0,1.416,0c0-0.758,0-1.855,0-2.585c-0.006,0-0.012,0-0.016,0c0,0.025,0,0.056,0,0.079
			C68.635,52.693,68.156,52.693,67.678,52.693z"/>
		<path fill="#E65028" d="M67.691,55.277l0.004,0.002c-0.002,0.208-0.002,0.457-0.002,0.716h0.897v1.345h-0.897
			c0,0.154,0,0.309,0,0.44c0,0.026,0.012,0.054,0.019,0.08c0.478,0,0.956,0,1.434,0c0-0.758,0-1.91,0-2.662
			c-0.006,0-0.012,0-0.012,0c-0.006,0.024-0.006,0.055-0.006,0.078c-0.476,0-0.955,0-1.433,0v0.001
			C67.693,55.277,67.691,55.277,67.691,55.277z"/>
		<path fill="#E65028" d="M50.67,55.199c0-0.13,0-0.271,0-0.418h-0.867v-1.345h0.867c0-0.119,0-0.231,0-0.344h-0.012
			c0-0.295,0-0.108,0-0.396h-0.006v-0.003c-0.467,0-0.935,0-1.416,0c0,0.757,0,1.857,0,2.585h0.018c0-0.024,0-0.055,0-0.078
			C49.725,55.199,50.197,55.199,50.67,55.199z"/>
		<polygon fill="#E65028" points="50.67,52.612 50.67,52.615 50.676,52.615 		"/>
		<path fill="#E65028" d="M50.658,52.692l-0.006,0.003L50.658,52.692v0.003h0.012c0-0.025,0-0.057,0-0.08c-0.006,0-0.012,0-0.018,0
			c0,0.023,0,0.054,0,0.077H50.658z"/>
		<path fill="#E65028" d="M52.076,55.675c0-0.287,0-0.101,0-0.396c-0.471,0-0.93,0-1.391,0c0,0.123,0,0.257,0,0.396
			C51.168,55.675,51.622,55.675,52.076,55.675z"/>
		<rect x="52.078" y="55.673" fill="#E65028" width="0.002" height="0.006"/>
		<path fill="#E65028" d="M66.287,55.675c0.464,0,0.927,0,1.404,0c0-0.297,0-0.109,0-0.396c-0.46,0-0.918,0-1.404,0
			C66.287,55.569,66.287,55.385,66.287,55.675z"/>
		<polygon fill="#E65028" points="67.691,55.279 67.695,55.279 67.691,55.278 		"/>
		<rect x="56.344" y="56.553" fill="#E65028" width="0.001" height="0.006"/>
		<path fill="#E65028" d="M53.489,56.124c0,0.143,0,0.285,0,0.432c0.97,0,1.912,0,2.853,0c0-0.141,0-0.282,0-0.432
			C55.396,56.124,54.442,56.124,53.489,56.124z"/>
		<path fill="#E65028" d="M62.021,56.118c0,0.152,0,0.295,0,0.438c0.947,0,1.895,0,2.855,0c0-0.149,0-0.291,0-0.432
			c-0.777-0.002-1.555-0.004-2.33-0.006C62.375,56.118,62.203,56.118,62.021,56.118z"/>
		<rect x="64.877" y="56.123" fill="#E65028" width="0.004" height="0.001"/>
		<rect x="53.484" y="56.12" fill="#E65028" width="0.003" height="0.006"/>
		<path fill="#E65028" d="M53.483,56.122c0-0.146,0-0.293,0-0.445c-0.479,0-0.939,0-1.401,0c0,0.147,0,0.295,0,0.445
			C52.568,56.122,53.025,56.122,53.483,56.122z"/>
		<path fill="#E65028" d="M64.881,56.123c0.463,0,0.927,0,1.402,0c0-0.155,0-0.301,0-0.446c-0.464,0-0.928,0-1.402,0
			C64.881,55.828,64.881,55.976,64.881,56.123z"/>
		<rect x="66.283" y="55.675" fill="#E65028" width="0.004" height="0.002"/>
		<path fill="#E65028" d="M56.561,59.135c-0.064,0-0.13,0.004-0.195,0.006c-0.001,0.148-0.002,0.298-0.002,0.446
			c1.891,0,3.78,0,5.672,0c0-0.148-0.001-0.298-0.001-0.446c-0.066-0.002-0.132-0.005-0.198-0.005
			C60.078,59.135,58.32,59.135,56.561,59.135z"/>
		<rect x="56.362" y="59.137" fill="#E65028" width="0.003" height="0.006"/>
		<polygon fill="#E65028" points="67.709,57.86 67.712,57.862 67.712,57.861 		"/>
		<polygon fill="#E65028" points="50.689,55.199 50.686,55.197 50.686,55.198 		"/>
		
			<line fill="none" stroke="#F07D00" stroke-width="0" stroke-linecap="round" stroke-linejoin="round" x1="50.676" y1="55.277" x2="50.672" y2="55.278"/>
		<path fill="#E65028" d="M50.676,55.277v0.002c0,0,0.007,0,0.01,0c0-0.024,0-0.056,0-0.08c-0.005,0-0.01,0-0.016,0
			c0,0.024,0,0.055,0,0.078C50.67,55.277,50.674,55.277,50.676,55.277z"/>
		<rect x="66.3" y="58.26" fill="#E65028" width="0.004" height="0.002"/>
		<path fill="#E65028" d="M67.708,57.883c0-0.008,0-0.009,0-0.018h-0.001l0.001-0.001v-0.002c-0.46,0-0.918,0-1.404,0
			c0,0.292,0,0.106,0,0.397c0.46,0,0.919,0,1.39,0c0-0.106,0-0.221,0.002-0.314C67.695,57.924,67.702,57.903,67.708,57.883z"/>
		<polygon fill="#E65028" points="67.708,57.861 67.708,57.862 67.712,57.862 		"/>
		<path fill="#E65028" d="M56.359,59.139c0-0.141,0-0.281,0-0.43c-0.946,0-1.9,0-2.854,0c0,0.142,0,0.285,0,0.43
			C54.476,59.139,55.419,59.139,56.359,59.139z"/>
		<rect x="53.503" y="58.705" fill="#E65028" width="0.003" height="0.006"/>
		<rect x="62.034" y="59.139" fill="#E65028" width="0.004" height="0.002"/>
		<path fill="#E65028" d="M64.894,58.709c-0.776-0.002-1.554-0.004-2.33-0.006c-0.173-0.001-0.344,0-0.525,0
			c0,0.151,0,0.293,0,0.436c0.946,0,1.895,0,2.855,0C64.894,58.99,64.894,58.849,64.894,58.709z"/>
		<path fill="#E65028" d="M53.5,58.707c0-0.147,0-0.294,0-0.445c-0.477,0-0.939,0-1.402,0c0,0.146,0,0.294,0,0.445
			C52.584,58.707,53.043,58.707,53.5,58.707z"/>
		<rect x="52.095" y="58.259" fill="#E65028" width="0.002" height="0.004"/>
		<rect x="64.894" y="58.706" fill="#E65028" width="0.003" height="0.003"/>
		<path fill="#E65028" d="M64.898,58.707c0.463,0,0.926,0,1.401,0c0-0.154,0-0.301,0-0.445c-0.464,0-0.929,0-1.401,0
			C64.898,58.412,64.898,58.56,64.898,58.707z"/>
		<rect x="67.708" y="57.862" fill="#E65028" width="0.004" height="0.003"/>
		<path fill="#E65028" d="M67.893,60.793l0.129-0.346l0,0c0.367,0,1.12,0.08,1.124,0.08c0-0.759,0-1.91,0-2.662
			c-0.489,0-0.962,0-1.434,0c-0.002,0.006-0.002,0.012-0.004,0.018c0,0.246,0,0.089,0,0.377c-0.005,0-0.009,0-0.015,0
			c0,0.099,0,0.188,0,0.295h0.897v1.345h-0.731l0,0l-0.344,0.415H66.81l0.004,0.002h-0.722v0.398h-1.407v0.447l-2.86-0.006v0.646
			c-1.75,0-3.501-0.001-5.253,0v-0.64h-2.858v-0.447h-1.407v-0.002v-0.396h-0.321l0.006-0.002h-1.035L50.9,60.296l-0.001-0.062
			v-0.548h-0.885v-0.919h0.885V58.26c0.407,0,0.804,0,1.194,0c0-0.288,0-0.102,0-0.397c-0.316,0-0.626,0-0.937,0l-0.258-0.128
			v-0.082h-0.165l-0.049-0.024c0-0.096,0-0.186,0-0.288h-0.883v-1.345h0.883c0-0.111,0-0.215,0-0.32c-0.004,0-0.007,0-0.007,0
			c-0.003-0.294-0.003-0.108-0.003-0.396c-0.002,0-0.004,0-0.004,0v0l-0.002-0.001c-0.468,0-0.936,0-1.416,0
			c0,0.692,0,1.657,0,2.375H49.04v3.008h0.587l-0.245,0.082h1.096l0.001,0.08v0.316h1.402v0.002h0.006v0.446h0.721l-0.002,0.001
			h0.688v0.431h2.171l-0.002,0.001h0.9c0,0.078,0,0.156,0,0.234c1.889,0,3.78,0,5.672,0c0-0.079,0-0.157,0-0.235h3.07v-0.432h1.407
			v-0.447h1.38V60.793z"/>
	</g>
</g>
<g id="cercles">
	<path fill="#E65028" d="M42.5,5.997c20.129,0,36.503,16.375,36.503,36.503c0,20.127-16.374,36.502-36.503,36.502
		c-20.127,0-36.503-16.375-36.503-36.502C5.997,22.372,22.373,5.997,42.5,5.997 M42.5,0C19.028,0,0,19.027,0,42.5
		C0,65.971,19.028,85,42.5,85C65.973,85,85,65.971,85,42.5C85,19.027,65.973,0,42.5,0L42.5,0z"/>
</g>
</svg>
